<svg height="512pt" viewBox="0 0 512 512" width="512pt" xmlns="http://www.w3.org/2000/svg"><path d="m341.394531 108.511719c28.519531-.628907 54.152344-13.527344 71.800781-33.59375 15.269532-17.371094 24.558594-40.109375 24.558594-64.914063h-191.09375c-54.1875 0-98.53125 44.34375-98.53125 98.53125 0 2.800782.128906 5.589844.363282 8.351563 1.417968-2.84375 2.929687-5.636719 4.5625-8.351563h186.167968v-.070312zm0 0" fill="#c99e81" fill-rule="evenodd"/><path d="m413.195312 74.917969c-17.648437 20.066406-43.28125 32.964843-71.800781 33.59375l1.292969.023437c5.277344 0 10.457031-.417968 15.507812-1.21875 11.277344 18.269532 17.800782 39.75 17.800782 62.683594v20.003906c26.96875-18.347656 43.113281-48.851562 43.113281-81.46875 0-11.464844-2.003906-22.84375-5.914063-33.617187zm0 0" fill="#c99e81" fill-rule="evenodd"/><path d="m190.996094 190.003906v60c0 28.429688 10.023437 54.636719 26.714844 75.25 16.492187 20.394532 39.503906 35.320313 65.785156 41.542969 26.28125-6.222656 49.292968-21.148437 65.785156-41.542969 16.695312-20.613281 26.714844-46.820312 26.714844-75.25v-80.003906c0-22.429688-6.253906-43.457031-17.078125-61.464844h-150.863281c-10.820313 18.003906-17.058594 39.042969-17.058594 61.464844zm0 0" fill="#fcd0ac" fill-rule="evenodd"/><path d="m135.996094 192.09375c-11.125 4.390625-19 15.226562-19 27.910156s7.875 23.519532 19 27.910156zm0 0" fill="#fcd0ac" fill-rule="evenodd"/><path d="m375.996094 190.003906v60h9.996094c16.570312 0 30.003906-13.433594 30.003906-30.003906 0-16.566406-13.433594-29.996094-30.003906-29.996094zm0 0" fill="#fcd0ac" fill-rule="evenodd"/><path d="m86.042969 462h29.953125v-71.191406c-14.300782 21.230468-24.644532 45.320312-29.953125 71.191406zm0 0" fill="#0586ad" fill-rule="evenodd"/><path d="m395.996094 359.527344v102.472656h55.953125c-8.125-39.625-28.074219-75.074219-55.953125-102.472656zm0 0" fill="#0586ad" fill-rule="evenodd"/><path d="m89.042969 462c-2.652344 12.933594-4.046875 26.3125-4.046875 40h31v-40zm0 0" fill="#fcd0ac" fill-rule="evenodd"/><path d="m381.246094 346.390625c-9.925782-8.011719-20.621094-15.105469-31.957032-21.128906-16.601562 20.515625-39.804687 35.5-66.292968 41.652343-8.683594 2.015626-17.722656 3.085938-27 3.085938-26.625 0-51.289063-8.792969-71.246094-23.613281-3.753906-2.386719-7.753906-5.386719-14.753906-10.386719v166h226v-142.472656c-4.695313-4.617188-9.621094-9-14.75-13.136719zm0 0" fill="#0586ad"/><path d="m395.996094 462v40h60c0-13.6875-1.394532-27.066406-4.046875-40zm0 0" fill="#fcd0ac" fill-rule="evenodd"/><g fill="#000001"><path d="m255.996094 431.304688c-5.523438 0-10 4.480468-10 10v.476562c0 5.523438 4.476562 10 10 10 5.523437 0 10-4.476562 10-10v-.476562c0-5.519532-4.476563-10-10-10zm0 0"/><path d="m501.992188 491.996094h-.234376c-5.523437 0-10 4.476562-10 10 0 5.523437 4.476563 10 10 10h.234376c5.523437 0 10-4.476563 10-10 0-5.519532-4.472657-10-10-10zm0 0"/><path d="m473.03125 491.996094h-7.277344c-.515625-10.847656-1.863281-21.539063-4.003906-31.996094 0-.007812-.003906-.019531-.003906-.023438-11.664063-56.996093-46.730469-107.101562-97.667969-137.820312 12.089844-18.050781 19.789063-39.28125 21.535156-62.152344h.382813c22.054687 0 40-17.945312 40-40 0-17.144531-10.839844-31.796875-26.027344-37.476562 18.535156-19.871094 29.140625-46.210938 29.140625-73.992188 0-10.6875-1.578125-21.222656-4.664063-31.40625 14.589844-18.484375 23.308594-41.808594 23.308594-67.128906 0-2.652344-1.050781-5.195312-2.925781-7.070312-1.878906-1.875-4.421875-2.929688-7.074219-2.929688l-246.335937.00390625c-59.847657 0-108.53125 48.68749975-108.53125 108.53124975 0 27.785156 10.605469 54.121094 29.136719 73.992188-15.183594 5.679687-26.027344 20.332031-26.027344 37.476562 0 22.054688 17.945312 40 40 40h.382812c1.746094 22.871094 9.441406 44.101563 21.535156 62.152344-50.933593 30.71875-86 80.820312-97.664062 137.8125 0 .011719-.003906.027344-.007812.039062-2.136719 10.457032-3.488282 21.144532-4.003907 31.992188h-7.273437c-5.523438 0-10 4.476562-10 10 0 5.519531 4.476562 9.996094 10 9.996094h16.984375c.015625 0 .03125.003906.046875.003906s.03125-.003906.050781-.003906h59.902344c.015625 0 .03125.003906.046875.003906s.03125-.003906.046875-.003906h279.90625c.015625 0 .03125.003906.046875.003906.019531 0 .035156-.003906.050781-.003906h59.902344c.015625 0 .03125.003906.046875.003906s.035156-.003906.050781-.003906h16.980469c5.523437 0 10-4.476563 10-9.996094.003906-5.523438-4.472656-10.003906-9.996094-10.003906zm-367.035156 0h-39.734375c.355469-6.738282 1.070312-13.410156 2.121093-19.996094h37.613282zm0-39.996094h-33.285156c6.617187-24.171875 17.957031-46.71875 33.285156-66.394531zm300-231.996094c0 11.027344-8.972656 20-20 20v-40c11.027344 0 20 8.972656 20 20zm-20.03125-51.789062c-.265625-19.132813-4.757813-37.898438-13.132813-55.015625 12.914063-4.21875 24.773438-10.792969 35.0625-19.222657.796875 4.796876 1.214844 9.65625 1.214844 14.558594 0 22.347656-8.414063 43.550782-23.144531 59.679688zm-259.96875 71.789062c-11.027344 0-20-8.972656-20-20.003906 0-11.023438 8.972656-19.996094 20-19.996094zm.03125-71.789062c-14.726563-16.128906-23.140625-37.332032-23.140625-59.679688 0-48.816406 39.714843-88.53125 88.53125-88.53125l235.773437-.003906c-2.035156 18.03125-9.515625 34.4375-20.746094 47.535156-.507812.464844-.964843.980469-1.363281 1.53125-15.832031 17.636719-38.609375 28.890625-63.992187 29.425782-.503906-.011719-1.011719 0-1.511719-.019532-.5-.015625-.996094.003906-1.488281.0625h-21.738282c9.257813-6.535156 17.554688-14.535156 24.476563-23.796875 3.304687-4.425781 2.398437-10.691406-2.027344-13.996093-4.421875-3.304688-10.6875-2.398438-13.996093 2.027343-16.726563 22.390625-43.253907 35.761719-70.957032 35.765625h-100.792968c-3.507813 0-6.761719 1.839844-8.570313 4.847656-11.785156 19.609376-18.140625 41.988282-18.457031 64.832032zm19.96875 81.789062v-59.945312c0-.007813 0-.019532 0-.03125v-20.027344c0-17.972656 4.4375-35.648438 12.882812-51.464844h180.34375c.539063 0 1.078125-.015625 1.613282-.023437.636718.011719 1.257812.023437 1.851562.023437 3.386719 0 6.789062-.160156 10.171875-.476562 8.609375 15.945312 13.136719 33.773437 13.136719 51.941406v20.027344.035156 59.941406c0 25.652344-8.832032 49.285156-23.609375 68.015625-.605469.574219-1.144531 1.238281-1.601563 1.980469-20.191406 24.414062-50.703125 40-84.789062 40h-.003906c-34.085938 0-64.597657-15.585938-84.789063-40.003906-.457031-.738282-.992187-1.398438-1.597656-1.976563-14.777344-18.730469-23.609375-42.359375-23.609375-68.015625zm240 241.992188h-260v-128.308594c10.34375-9.699219 21.855468-18.335938 34.40625-25.6875 21.652344 23.507812 51.839844 39.039062 85.59375 41.617188v32.605468c0 5.523438 4.480468 10 10.003906 10 5.519531 0 9.996094-4.480468 9.996094-10.003906v-32.601562c33.753906-2.578126 63.9375-18.109376 85.59375-41.617188 12.550781 7.351562 24.0625 15.988281 34.40625 25.6875zm20-106.390625c15.328125 19.675781 26.667968 42.222656 33.285156 66.394531h-33.285156zm0 106.390625v-19.996094h37.613281c1.054687 6.585938 1.769531 13.257812 2.121094 19.996094zm0 0"/><path d="m10.234375 491.996094h-.234375c-5.523438 0-10 4.476562-10 10 0 5.523437 4.476562 10 10 10h.234375c5.519531 0 10-4.476563 10-10 0-5.519532-4.480469-10-10-10zm0 0"/><path d="m305.996094 237.503906c-6.886719 0-12.5 5.613282-12.5 12.5 0 6.882813 5.613281 12.5 12.5 12.5 6.886718 0 12.5-5.617187 12.5-12.5 0-6.886718-5.613282-12.5-12.5-12.5zm0 0"/><path d="m205.996094 237.503906c-6.886719 0-12.5 5.613282-12.5 12.5 0 6.882813 5.613281 12.5 12.5 12.5 6.882812 0 12.5-5.617187 12.5-12.5 0-6.886718-5.617188-12.5-12.5-12.5zm0 0"/><path d="m186.003906 225.367188c1.695313 0 3.414063-.433594 4.992188-1.34375 4.554687-2.628907 9.742187-4.019532 15-4.019532 5.253906 0 10.441406 1.390625 14.996094 4.019532 4.785156 2.761718 10.898437 1.125 13.660156-3.660157 2.765625-4.78125 1.125-10.898437-3.65625-13.660156-7.59375-4.382813-16.238282-6.703125-25-6.703125-8.765625 0-17.410156 2.320312-25.003906 6.703125-4.78125 2.761719-6.421876 8.878906-3.660157 13.660156 1.855469 3.210938 5.214844 5.003907 8.671875 5.003907zm0 0"/><path d="m290.996094 224.023438c4.554687-2.628907 9.742187-4.019532 15-4.019532 5.257812 0 10.445312 1.390625 15 4.019532 1.574218.910156 3.292968 1.34375 4.992187 1.34375 3.453125 0 6.816407-1.792969 8.667969-5.003907 2.761719-4.78125 1.125-10.898437-3.660156-13.660156-7.589844-4.382813-16.238282-6.699219-25-6.699219-8.765625 0-17.410156 2.316406-25 6.699219-4.785156 2.761719-6.421875 8.878906-3.660156 13.664063 2.761718 4.78125 8.878906 6.417968 13.660156 3.65625zm0 0"/><path d="m227.335938 298.667969c-2.761719 4.78125-1.125 10.898437 3.660156 13.660156 7.589844 4.382813 16.234375 6.699219 25 6.699219s17.410156-2.316406 25-6.699219c4.78125-2.761719 6.421875-8.878906 3.65625-13.660156-2.761719-4.785157-8.878906-6.421875-13.660156-3.660157-4.554688 2.632813-9.738282 4.019532-14.996094 4.019532-5.257813 0-10.445313-1.386719-15-4.019532-4.78125-2.761718-10.894532-1.121093-13.660156 3.660157zm0 0"/><path d="m342.566406 53.929688c1.15625.433593 2.339844.636718 3.503906.636718 4.050782 0 7.871094-2.484375 9.382813-6.496094.003906-.019531.046875-.128906.054687-.148437 1.910157-5.167969-.738281-10.863281-5.902343-12.789063-5.160157-1.925781-10.929688.734376-12.871094 5.894532 0 .003906-.015625.042968-.019531.046875-1.9375 5.167969.683594 10.914062 5.851562 12.855469zm0 0"/></g></svg>