<svg height="512pt" viewBox="0 0 512 512" width="512pt" xmlns="http://www.w3.org/2000/svg"><path d="m415.953125 166.316406c-1.683594-74.527344-54.324219-136.46875-124.449219-152.359375-70.128906 15.890625-122.769531 77.832031-124.453125 152.359375 29.550781-2.976562 59.234375-4.472656 88.949219-4.472656 11.847656 0 23.6875.246094 35.519531.722656 9.445313.375 18.878907.898438 28.304688 1.578125 11.226562.808594 22.4375 1.832031 33.628906 3.070313 7.527344.832031 15.042969 1.757812 22.550781 2.78125v80.003906c0 28.433594-10.023437 54.636719-26.71875 75.253906 17.199219 9.140625 32.929688 20.71875 46.714844 34.265625 7.222656 7.101563 13.910156 14.738281 20 22.847657v-212.371094c0-1.230469-.019531-2.457032-.046875-3.679688zm0 0" fill="#ff5a5a"/><path d="m319.824219 164.144531c-12.046875-.867187-24.113281-1.484375-36.1875-1.859375-20.613281.636719-41.199219 1.972656-61.714844 4.042969-10.324219 1.042969-20.632813 2.265625-30.921875 3.667969v80.003906c0 28.429688 10.019531 54.636719 26.710938 75.253906 9.234374 11.425782 20.523437 21.132813 33.289062 28.554688 10.011719 5.828125 20.9375 10.246094 32.496094 12.984375 11.558594-2.738281 22.484375-7.15625 32.503906-12.984375 12.761719-7.417969 24.050781-17.125 33.285156-28.554688 16.695313-20.613281 26.714844-46.820312 26.714844-75.253906v-80.003906c-7.503906-1.019532-15.019531-1.949219-22.546875-2.78125-11.191406-1.238282-22.402344-2.261719-33.628906-3.070313zm0 0" fill="#fcd0ac" fill-rule="evenodd"/><path d="m87.042969 462h28.957031v-69.679688c-13.777344 20.863282-23.773438 44.417969-28.957031 69.679688zm0 0" fill="#5f5148" fill-rule="evenodd"/><path d="m90.042969 462c-2.652344 12.929688-4.046875 26.308594-4.046875 39.996094h30.003906v-39.996094zm0 0" fill="#fcd0ac" fill-rule="evenodd"/><path d="m379.300781 344.832031c-9.375-7.378906-19.414062-13.945312-30.015625-19.578125-9.234375 11.429688-20.519531 21.136719-33.285156 28.554688v48.195312c0 24.089844-14.394531 44.964844-35 54.492188-7.621094 3.523437-16.085938 5.507812-25 5.507812-33 0-60-27-60-60v-48.195312c-4.636719-2.695313-9.078125-5.703125-13.296875-8.976563-4.703125-4.832031-10.703125-8.832031-16.703125-12.832031v169.996094h230v-142.476563c-5.289062-5.195312-10.867188-10.097656-16.699219-14.6875zm0 0" fill="#5f5148"/><path d="m316 368.925781c-5.238281.707031-10.578125 1.074219-16 1.074219-7.511719 0-14.863281-.714844-22-2.050781-7.136719 1.335937-14.488281 2.050781-22 2.050781-5.421875 0-10.761719-.367188-16-1.074219v33.078125c0 25.238282 15.804688 46.953125 38 55.777344 22.195312-8.824219 38-30.539062 38-55.777344zm0 0" fill="#fcd0ac" fill-rule="evenodd"/><path d="m396 462v39.996094h60c0-13.6875-1.394531-27.066406-4.046875-39.996094zm0 0" fill="#fcd0ac" fill-rule="evenodd"/><path d="m396 462h55.953125c-6.023437-29.363281-18.535156-56.433594-35.953125-79.632812-6.089844-8.109376-12.777344-15.746094-20-22.847657zm0 0" fill="#5f5148" fill-rule="evenodd"/><g fill="#000001"><path d="m502 491.996094h-.234375c-5.523437 0-10 4.476562-10 10 0 5.523437 4.476563 10 10 10h.234375c5.523438 0 10-4.476563 10-10 0-5.523438-4.476562-10-10-10zm0 0"/><path d="m10.234375 491.996094h-.234375c-5.523438 0-10 4.476562-10 10 0 5.523437 4.476562 10 10 10h.234375c5.523437 0 10-4.476563 10-10 0-5.523438-4.476563-10-10-10zm0 0"/><path d="m473.03125 491.996094h-7.273438c-.515624-10.84375-1.867187-21.53125-4.003906-31.988282-.003906-.015624-.003906-.027343-.011718-.042968-6.019532-29.425782-18.277344-57.019532-35.742188-81.050782v-208.917968c0-93.734375-76.261719-169.996094-169.996094-169.996094-93.738281 0-170 76.261719-170 170.089844v208.8125c-17.46875 24.039062-29.730468 51.636718-35.753906 81.070312 0 .007813-.003906.015625-.003906.023438-2.140625 10.460937-3.488282 21.152344-4.003906 32h-7.273438c-5.523438 0-10 4.476562-10 10 0 5.523437 4.476562 10 10 10h16.992188.035156.039062 59.925782.039062.039062 279.921876.039062.039062 59.921876.039062.039062 16.992188c5.523438 0 10-4.476563 10-10 0-5.523438-4.476562-10-10-10zm-369.828125-102.707032c.566406-.585937 1.058594-1.242187 1.46875-1.953124.441406-.582032.878906-1.160157 1.328125-1.734376v66.398438h-33.289062c6.210937-22.679688 16.578124-43.921875 30.492187-62.710938zm22.796875-25.601562c10.34375-9.703125 21.855469-18.339844 34.40625-25.6875 7.5625 8.207031 16.160156 15.449219 25.59375 21.5v42.5c0 38.597656 31.402344 70 70 70s70-31.402344 70-70v-42.496094c9.433594-6.050781 18.035156-13.292968 25.597656-21.503906 12.546875 7.351562 24.0625 15.984375 34.402344 25.6875v128.308594h-260zm20.003906-184.90625c36.425782-4.601562 73.34375-6.9375 109.996094-6.9375 36.648438 0 73.582031 2.332031 110 6.933594v71.222656c0 25.652344-8.824219 49.28125-23.601562 68.007812-.609376.582032-1.152344 1.25-1.613282 2-8.113281 9.8125-17.902344 18.191407-28.914062 24.710938-.304688.136719-.609375.277344-.898438.449219-14.546875 8.460937-30.863281 13.441406-47.589844 14.578125-.136718.011718-.273437.019531-.410156.027344-.957031.0625-1.917968.105468-2.878906.144531-.246094.007812-.496094.019531-.742188.027343-1.117187.035157-2.234374.054688-3.351562.054688s-2.234375-.019531-3.347656-.054688c-.25-.007812-.5-.019531-.75-.027343-.957032-.035157-1.914063-.082031-2.871094-.144531-.140625-.007813-.28125-.015626-.417969-.027344-16.726562-1.136719-33.039062-6.117188-47.582031-14.582032-.292969-.167968-.601562-.308593-.90625-.449218-11.019531-6.523438-20.808594-14.910156-28.929688-24.730469-.449218-.730469-.980468-1.382813-1.574218-1.953125-14.785156-18.730469-23.617188-42.367188-23.617188-68.027344zm109.996094 252.109375c-5.523438 0-10 4.476563-10 10v10.105469c-22.792969-4.648438-40-24.847656-40-48.996094v-32.007812c14.457031 6.046874 30.230469 9.558593 46.757812 9.964843 1.082032.027344 2.164063.042969 3.246094.042969 1.082032 0 2.164063-.015625 3.246094-.042969 16.527344-.40625 32.292969-3.917969 46.75-9.960937v32.003906c0 24.148438-17.207031 44.347656-40 48.996094v-10.105469c0-5.523437-4.476562-10-10-10zm152.800781-41.59375c13.910157 18.789063 24.277344 40.027344 30.484375 62.703125h-33.285156v-66.398438c.449219.578126.890625 1.160157 1.332031 1.742188.410157.710938.902344 1.367188 1.46875 1.953125zm-2.800781 82.703125h37.609375c1.058594 6.582031 1.773437 13.253906 2.125 19.996094h-39.734375zm-299.996094-302.003906c0-82.707032 67.289063-149.996094 150-149.996094 82.707032 0 149.996094 67.289062 149.996094 150.089844v185.179687c-12.359375-12.601562-26.402344-23.757812-41.914062-33.113281 13.835937-20.660156 21.914062-45.480469 21.914062-72.15625v-70.03125c3.042969-1.351562 5.34375-4.179688 5.851562-7.714844.785157-5.46875-3.011718-10.535156-8.476562-11.320312-1.964844-.28125-3.929688-.550782-5.898438-.816406-.175781-.027344-.347656-.058594-.523437-.074219-4.523437-.617188-9.054687-1.191407-13.59375-1.738281-.300781-14.742188-1.386719-27.601563-3.476563-41.597657-.816406-5.464843-5.90625-9.226562-11.367187-8.414062-5.460937.816406-9.230469 5.90625-8.414063 11.367187 1.835938 12.28125 2.847657 23.65625 3.199219 36.449219-4.566406-.445313-9.140625-.851563-13.714843-1.230469-.734376-20.113281-2.914063-39.472656-6.507813-57.667968-1.070313-5.417969-6.328125-8.9375-11.75-7.871094-5.417969 1.070312-8.941406 6.328125-7.871094 11.746094 3.261719 16.511718 5.273438 34.089843 6.042969 52.367187-17.839844-1.066406-35.703125-1.609375-53.5-1.609375-26.0625 0-52.257812 1.160156-78.320312 3.441406.746093-8.039062 1.949218-15.992187 3.738281-24.710937 1.113281-5.410157-2.371094-10.695313-7.78125-11.804688-5.414063-1.113281-10.695313 2.375-11.808594 7.785157-2.226563 10.847656-3.628906 20.625-4.390625 30.722656-7.480469.828125-14.9375 1.753906-22.375 2.761718-.152344.015626-.296875.039063-.445312.0625-3.21875.4375-6.429688.890626-9.636719 1.363282-5.464844.804687-9.238281 5.890625-8.433594 11.351562.714844 4.824219 4.757813 8.320313 9.453125 8.523438v68.660156c0 26.671875 8.082031 51.496094 21.914062 72.148438-15.511718 9.359374-29.554687 20.511718-41.910156 33.113281zm-37.617187 302.003906h37.613281v19.996094h-39.738281c.355469-6.742188 1.070312-13.414063 2.125-19.996094zm0 0"/><path d="m306 237.5c-6.882812 0-12.5 5.617188-12.5 12.5 0 6.886719 5.617188 12.5 12.5 12.5 6.886719 0 12.503906-5.613281 12.503906-12.5 0-6.882812-5.617187-12.5-12.503906-12.5zm0 0"/><path d="m205.996094 237.5c-6.882813 0-12.5 5.617188-12.5 12.5 0 6.886719 5.617187 12.5 12.5 12.5 6.886718 0 12.503906-5.613281 12.503906-12.5 0-6.882812-5.617188-12.5-12.503906-12.5zm0 0"/><path d="m198.242188 221.023438c5.050781-1.355469 10.464843-1.359376 15.511718 0 .867188.234374 1.742188.34375 2.601563.34375 4.414062 0 8.449219-2.941407 9.652343-7.40625 1.433594-5.335938-1.730468-10.820313-7.0625-12.253907-8.433593-2.265625-17.460937-2.265625-25.894531 0-5.332031 1.433594-8.496093 6.917969-7.0625 12.253907 1.433594 5.332031 6.921875 8.496093 12.253907 7.0625zm0 0"/><path d="m295.640625 221.367188c.859375 0 1.734375-.113282 2.601563-.34375 5.046874-1.359376 10.464843-1.359376 15.515624 0 5.332032 1.433593 10.816407-1.730469 12.25-7.0625 1.4375-5.332032-1.726562-10.816407-7.058593-12.253907-8.4375-2.265625-17.46875-2.265625-25.898438 0-5.332031 1.4375-8.496093 6.921875-7.0625 12.253907 1.199219 4.464843 5.238281 7.40625 9.652344 7.40625zm0 0"/><path d="m231 312.328125c7.585938 4.378906 16.234375 6.695313 25 6.695313s17.410156-2.316407 25-6.695313c4.78125-2.765625 6.421875-8.878906 3.660156-13.664063-2.765625-4.78125-8.875-6.417968-13.660156-3.660156-4.554688 2.628906-9.742188 4.019532-15 4.019532-5.261719 0-10.449219-1.390626-15-4.019532-4.785156-2.761718-10.898438-1.121094-13.660156 3.660156-2.761719 4.785157-1.125 10.902344 3.660156 13.664063zm0 0"/><path d="m175.699219 110.972656c1.0625.359375 2.148437.53125 3.214843.53125 4.167969 0 8.054688-2.625 9.46875-6.789062l.105469-.324219c1.773438-5.230469-1.023437-10.910156-6.253906-12.683594-5.230469-1.773437-10.910156 1.027344-12.683594 6.253907l-.109375.335937c-1.769531 5.230469 1.03125 10.902344 6.257813 12.675781zm0 0"/></g></svg>