<svg height="511pt" viewBox="0 1 511 511.999" width="511pt" xmlns="http://www.w3.org/2000/svg"><path d="m136.496094 246.535156v-53.0625c-9.511719 5.03125-15.996094 15.019532-15.996094 26.53125 0 11.507813 6.484375 21.5 15.996094 26.53125zm0 0" fill="#fcd0ac" fill-rule="evenodd"/><path d="m376.496094 190.003906v60h10c16.570312 0 30-13.433594 30-30s-13.429688-30-30-30zm0 0" fill="#fcd0ac" fill-rule="evenodd"/><path d="m136.496094 190.003906c22.097656 0 40.007812-17.910156 40.007812-40.003906h-40.007812zm0 0" fill="#f9d973" fill-rule="evenodd"/><path d="m376.496094 190.003906c-22.089844 0-40.003906-17.910156-40.003906-40.003906h40.003906zm0 0" fill="#f9d973" fill-rule="evenodd"/><path d="m349.785156 325.253906c16.691406-20.613281 26.710938-46.820312 26.710938-75.25v-60c-22.089844 0-40.003906-17.910156-40.003906-40.003906 0 0-123.234376 0-144.992188 0l1 99.003906c0 28.433594 10.019531 54.636719 26.710938 75.253906 16.824218 20.796876 40.429687 35.902344 67.371093 41.894532 25.203125-6.570313 47.25-21.175782 63.203125-40.898438zm0 0" fill="#fcd0ac" fill-rule="evenodd"/><path d="m316.535156 90h-5.035156c-11 0-20 9-20 20v40h45.035156v-40c0-11-9-20-20-20zm0 0" fill="#f9d973" fill-rule="evenodd"/><path d="m276.519531 90h20v-59.988281c0-11.007813-9.003906-20.011719-20.011719-20.011719h-19.011718c-38.5 0-69.996094 31.496094-69.996094 70v70h69.019531v-40c0-11 9-20 20-20zm0 0" fill="#45ba88" fill-rule="evenodd"/><path d="m336.535156 150h39.976563v-70c0-38.503906-31.5-70-70-70h-29.988281c11.007812 0 20.011718 9.003906 20.011718 20.011719v59.988281h20c11 0 20 8.996094 20 20zm0 0" fill="#45ba88" fill-rule="evenodd"/><path d="m86.546875 462h29.953125v-71.191406c-14.300781 21.230468-24.648438 45.320312-29.953125 71.191406zm0 0" fill="#ff5a5a" fill-rule="evenodd"/><path d="m383.222656 345.769531c-.394531.289063-.800781.5625-1.199218.847657-10.003907-8.105469-20.792969-15.277344-32.234376-21.359376-15.960937 19.726563-38.03125 34.3125-63.246093 40.878907-.515625-.117188-1.03125-.222657-1.546875-.34375-8.835938 2.09375-18.042969 3.203125-27.5 3.203125-26.390625 0-50.855469-8.644532-70.722656-23.226563-2.273438-1.777343-9.273438-7.773437-14.277344-11.777343v167.003906h225v-142.472656c-4.550782-4.472657-9.316406-8.726563-14.273438-12.753907zm0 0" fill="#ff5a5a"/><path d="m396.5 359.527344v102.472656h55.953125c-8.128906-39.625-28.074219-75.074219-55.953125-102.472656zm0 0" fill="#ff5a5a" fill-rule="evenodd"/><path d="m452.453125 462h-55.953125v40h59.996094c0-13.6875-1.390625-27.066406-4.042969-40zm0 0" fill="#fcd0ac" fill-rule="evenodd"/><path d="m87.546875 462c-2.652344 12.933594-4.046875 26.3125-4.046875 40h33v-40zm0 0" fill="#fcd0ac" fill-rule="evenodd"/><g fill="#000001"><path d="m256.496094 451.78125c5.523437 0 10-4.476562 10-10v-.476562c0-5.519532-4.476563-10-10-10-5.519532 0-9.996094 4.480468-9.996094 10v.476562c0 5.523438 4.476562 10 9.996094 10zm0 0"/><path d="m473.53125 491.996094h-7.277344c-.515625-10.832032-1.863281-21.511719-3.996094-31.957032-.007812-.03125-.011718-.066406-.019531-.097656-11.667969-56.984375-46.730469-107.074218-97.65625-137.785156 12.089844-18.054688 19.785157-39.285156 21.535157-62.152344h.378906c22.054687 0 40-17.945312 40-40 0-22.058594-17.945313-40-40-40v-100.003906c0-44.113281-35.886719-80-79.996094-80h-100.003906c-44.109375 0-80 35.886719-80 80v60h-65.949219c-5.523437 0-10 4.476562-10 10s4.476563 10 10 10h65.949219v20.003906c-22.054688 0-39.996094 17.941406-39.996094 40 0 22.054688 17.941406 40 40 40h.378906c1.746094 22.871094 9.445313 44.101563 21.535156 62.152344-50.933593 30.71875-85.996093 80.820312-97.660156 137.8125-.003906.011719-.003906.023438-.007812.035156-2.136719 10.460938-3.488282 21.148438-4.003906 31.992188h-7.273438c-5.523438 0-10 4.476562-10 10 0 5.523437 4.476562 10 10 10h16.984375c.015625 0 .03125.003906.046875.003906s.03125-.003906.046875-.003906h59.902344c.019531 0 .035156.003906.050781.003906s.03125-.003906.046875-.003906h279.902344c.015625 0 .03125.003906.050781.003906.015625 0 .03125-.003906.046875-.003906h59.902344c.015625 0 .03125.003906.046875.003906.019531 0 .035156-.003906.050781-.003906h16.984375c5.519531 0 10-4.476563 10-10 0-5.519532-4.476562-10-10-10zm-67.03125-106.390625c15.324219 19.675781 26.667969 42.222656 33.285156 66.394531h-33.285156zm0 86.394531h37.609375c1.054687 6.585938 1.769531 13.257812 2.125 20h-39.734375zm-89.980469-372c5.515625 0 10 4.488281 10 10v30h-60v-30c0-5.515625 4.488281-10 10-10zm49.976563 78.285156c-8.511719-3.019531-15.265625-9.773437-18.285156-18.285156h18.285156zm40 41.71875c0 11.027344-8.972656 20-20 20v-40c11.027344 0 20 8.972656 20 20zm-40-140.003906v60h-19.976563v-30c0-16.542969-13.457031-30-30-30h-10v-49.988281c0-3.511719-.609375-6.878907-1.722656-10.011719h1.699219c33.085937 0 60 26.914062 60 60zm-220 0c0-33.085938 26.917968-60 60-60h70.015625c5.519531 0 10.011719 4.492188 10.011719 10.011719v49.988281h-10.003907c-16.539062 0-29.996093 13.457031-29.996093 30v30h-60.023438v-20.445312c0-5.519532-4.480469-10-10-10 0 0 0 0-.003906 0-5.519532.003906-9.996094 4.480468-9.996094 10.003906v20.441406h-20.003906zm18.285156 80c-3.019531 8.511719-9.773438 15.265625-18.285156 18.285156v-18.285156zm-58.28125 60.003906c0-11.027344 8.972656-20 19.996094-20v40c-11.023438 0-19.996094-8.972656-19.996094-20zm39.996094-21.007812c19.566406-3.984375 35.011718-19.433594 39-38.996094h142.003906c3.984375 19.5625 19.433594 35.011719 38.996094 38.996094v51.007812c0 25.65625-8.832032 49.289063-23.613282 68.019532-.601562.574218-1.132812 1.234374-1.589843 1.96875-20.191407 24.421874-50.707031 40.007812-84.800781 40.007812-34.082032 0-64.597657-15.585938-84.785157-40-.457031-.738281-.996093-1.402344-1.597656-1.980469-14.78125-18.730469-23.613281-42.359375-23.613281-68.015625zm100 180.621094.003906 32.605468c0 5.523438 4.476562 10 10 10s10-4.476562 9.996094-10v-32.605468c33.753906-2.578126 63.941406-18.109376 85.597656-41.617188 12.546875 7.351562 24.0625 15.984375 34.40625 25.6875v128.308594h-260v-128.308594c10.339844-9.703125 21.855469-18.335938 34.402344-25.683594 21.65625 23.503906 51.839844 39.035156 85.59375 41.613282zm-139.996094 72.382812h-33.285156c6.617187-24.171875 17.957031-46.71875 33.285156-66.394531zm-37.613281 20h37.613281v19.996094h-39.734375c.351563-6.738282 1.066406-13.410156 2.121094-19.996094zm0 0"/><path d="m502.496094 491.996094h-.234375c-5.523438 0-10 4.476562-10 10 0 5.523437 4.476562 10 10 10h.234375c5.523437 0 10-4.476563 10-10 0-5.519532-4.476563-10-10-10zm0 0"/><path d="m10.734375 491.996094h-.234375c-5.523438 0-10 4.476562-10 10 0 5.523437 4.476562 10 10 10h.234375c5.523437 0 10-4.476563 10-10 0-5.519532-4.476563-10-10-10zm0 0"/><path d="m306.5 237.503906c-6.886719 0-12.5 5.613282-12.5 12.5 0 6.882813 5.613281 12.5 12.5 12.5 6.882812 0 12.5-5.617187 12.5-12.5 0-6.886718-5.617188-12.5-12.5-12.5zm0 0"/><path d="m206.5 237.503906c-6.886719 0-12.503906 5.613282-12.503906 12.5 0 6.882813 5.617187 12.5 12.503906 12.5 6.882812 0 12.5-5.617187 12.5-12.5 0-6.886718-5.617188-12.5-12.5-12.5zm0 0"/><path d="m191.5 224.023438c4.554688-2.628907 9.738281-4.019532 14.996094-4.019532 5.257812 0 10.445312 1.390625 15 4.019532 1.574218.910156 3.292968 1.339843 4.988281 1.339843 3.457031 0 6.816406-1.789062 8.671875-4.996093 2.761719-4.785157 1.125-10.898438-3.65625-13.664063-7.59375-4.382813-16.238281-6.699219-25.003906-6.699219s-17.410156 2.316406-25 6.699219c-4.78125 2.765625-6.417969 8.878906-3.65625 13.664063 2.761718 4.78125 8.878906 6.417968 13.660156 3.65625zm0 0"/><path d="m291.5 224.023438c4.554688-2.628907 9.738281-4.019532 15-4.019532 5.257812 0 10.441406 1.390625 14.996094 4.019532 1.574218.910156 3.292968 1.339843 4.992187 1.339843 3.453125 0 6.816407-1.789062 8.667969-4.996093 2.761719-4.785157 1.125-10.898438-3.65625-13.664063-7.589844-4.382813-16.234375-6.699219-25-6.699219-8.769531 0-17.414062 2.316406-25.003906 6.699219-4.78125 2.765625-6.417969 8.878906-3.65625 13.664063 2.761718 4.78125 8.878906 6.417968 13.660156 3.65625zm0 0"/><path d="m227.839844 298.667969c-2.761719 4.785156-1.125 10.898437 3.65625 13.660156 7.59375 4.386719 16.238281 6.703125 25 6.703125 8.765625 0 17.410156-2.316406 25-6.703125 4.785156-2.761719 6.421875-8.875 3.660156-13.660156-2.761719-4.78125-8.875-6.417969-13.660156-3.660157-4.554688 2.628907-9.738282 4.019532-15 4.019532-5.257813 0-10.441406-1.390625-14.996094-4.019532-4.785156-2.757812-10.902344-1.121093-13.660156 3.660157zm0 0"/><path d="m176.5 100.472656c5.519531 0 10-4.476562 10-10v-.472656c0-5.523438-4.480469-10-10-10-5.523438 0-10 4.476562-10 10v.472656c0 5.523438 4.476562 10 10 10zm0 0"/></g></svg>