<svg height="511.999pt" viewBox="1 1 511.999 511.999" width="511.999pt" xmlns="http://www.w3.org/2000/svg"><path d="m220.5 192.722656c-14.921875 5.808594-25.5 20.304688-25.5 37.28125 0 16.976563 10.578125 31.46875 25.5 37.277344 14.921875-5.808594 25.5-20.300781 25.5-37.277344 0-16.972656-10.578125-31.46875-25.5-37.28125zm0 0" fill="#7aeae7" fill-rule="evenodd"/><path d="m211.003906 172.625c.582032-.050781 1.164063-.097656 1.75-.152344-.605468-.046875-1.191406-.097656-1.75-.144531zm0 0" fill="#c99e81"/><path d="m433.445312 312.277344c-10.53125-7.203125-17.445312-19.3125-17.445312-33.035156v-109.242188c0-5.292969-.261719-10.523438-.765625-15.679688-6.65625-68.410156-56.390625-124.195312-121.734375-139.890624-70.269531 16.878906-122.496094 80.121093-122.496094 155.570312v4.003906c12.089844.132813 25.789063-.179687 40-1.378906v-.296875c.558594.046875 1.144532.097656 1.75.148437 41.082032-3.671874 86.007813-14.875 108.246094-44.226562 0 0 10.289062 19.472656 26.109375 32.386719 8.332031 6.800781 18.191406 11.78125 28.890625 11.136719v78.226562c0 28.433594-10.019531 54.640625-26.714844 75.253906 17.199219 9.144532 32.925782 20.722656 46.714844 34.269532 8.996094 8.84375 17.167969 18.523437 24.386719 28.910156 15.605469-11.140625 26.773437-27.066406 32.101562-45.011719 2.300781-7.757813 3.515625-15.886719 3.515625-24.175781-8.367187 0-16.136718-2.574219-22.558594-6.96875zm0 0" fill="#c99e81"/><g fill-rule="evenodd"><path d="m88 502h27.996094v-101.71875c-17.765625 29.847656-27.996094 64.644531-27.996094 101.71875zm0 0" fill="#f9d973"/><path d="m256.003906 501.996094-.003906-128-59.382812 46.007812-22.152344-61.902344c-.492188.472657-.984375.941407-1.46875 1.421876v142.472656zm0 0" fill="#f9d973"/><path d="m162.714844 325.269531 33.902344 94.738281 59.382812-50.007812c-37.5625 0-71.238281-17.492188-93.285156-44.730469zm0 0" fill="#f9d973"/><path d="m396.007812 502v-142.476562c8.996094 8.839843 17.167969 18.519531 24.382813 28.910156 22.4375 32.308594 35.617187 71.472656 35.617187 113.566406zm0 0" fill="#f9d973"/><path d="m396.007812 359.523438v142.476562l-140.003906-.003906v-131.996094l59.382813 50.007812 33.902343-94.738281c.003907-.003906.007813-.007812.007813-.015625 17.195313 9.144532 32.925781 20.722656 46.710937 34.269532zm0 0" fill="#f9d973"/><path d="m349.289062 325.269531-33.902343 94.738281-59.378907-50.007812c37.5625 0 71.234376-17.492188 93.28125-44.730469zm0 0" fill="#f9d973"/><path d="m321 128.246094c-22.238281 29.355468-108.933594 45.621094-119.289062 45.046875-4.667969.277343-9.25.464843-13.710938.582031v20.410156c5.410156-2.734375 11.523438-4.285156 18-4.285156 22.09375 0 40 17.910156 40 40.003906 0 22.089844-17.90625 40-40 40-6.035156 0-11.757812-1.347656-16.890625-3.742187 3.03125 22.121093 12.144531 42.371093 25.597656 58.992187 9.238281 11.425782 20.527344 21.132813 33.289063 28.554688 10.449218 6.082031 21.886718 10.613281 34 13.316406 12.113281-2.703125 23.554687-7.234375 34.003906-13.316406 12.761719-7.417969 24.050781-17.125 33.285156-28.554688 16.695313-20.617187 26.714844-46.820312 26.714844-75.253906v-78.226562c-28 2.226562-55-43.527344-55-43.527344zm0 0" fill="#fcd0ac"/><path d="m346.003906 230.003906c0 22.089844-17.910156 40-40 40-22.09375 0-40-17.910156-40-40 0-22.09375 17.90625-40 40-40 22.089844 0 40 17.90625 40 40zm0 0" fill="#7aeae7"/></g><path d="m10.234375 491.996094h-.234375c-5.523438 0-10 4.476562-10 10 0 5.523437 4.476562 10 10 10h.234375c5.519531 0 10-4.476563 10-10 0-5.519532-4.476563-10-10-10zm0 0" fill="#000001"/><path d="m473.035156 491.996094h-7.277344c-1.738281-36.585938-12.976562-71.410156-31.925781-101.507813 20.296875-17.917969 32.171875-43.890625 32.171875-71.242187 0-5.519532-4.476562-10-10-10-16.542968 0-30.003906-13.460938-30.003906-30.003906v-109.046876c0-.066406 0-.132812 0-.195312 0-93.738281-76.261719-170-170-170s-169.996094 76.261719-169.996094 169.996094v.179687 109.066407c0 16.542968-13.460937 30.003906-30.003906 30.003906-5.523438 0-10 4.480468-10 10 0 27.351562 11.875 53.324218 32.167969 71.238281-18.953125 30.101563-30.1875 64.925781-31.925781 101.511719h-7.277344c-5.523438 0-10 4.476562-10 10 0 5.523437 4.476562 10 10 10h16.996094c.011718 0 .023437.003906.039062.003906.011719 0 .023438-.003906.039062-.003906h59.917969c.015625 0 .027344.003906.039063.003906.015625 0 .027344-.003906.039062-.003906h279.925782c.011718 0 .023437.003906.039062.003906.011719 0 .023438-.003906.039062-.003906h59.921876c.015624 0 .027343.003906.039062.003906.015625 0 .027344-.003906.039062-.003906h16.996094c5.519532 0 10-4.476563 10-10 0-5.519532-4.476562-10-10-10zm-347.039062-128.308594c9.488281-8.898438 19.960937-16.902344 31.316406-23.835938l29.890625 83.523438c1.101563 3.085938 3.648437 5.433594 6.808594 6.285156.859375.234375 1.734375.347656 2.605469.347656 2.332031 0 4.617187-.816406 6.441406-2.351562l42.945312-36.160156v100.5h-120.007812zm240.003906-177.019531-15.472656 20.632812c-8.285156-16.1875-25.125-27.296875-44.523438-27.296875-24.144531 0-44.351562 17.207032-48.996094 40h-2.011718c-3.742188-18.359375-17.582032-33.078125-35.4375-38.117187 36.488281-3.925781 75.296875-13.984375 99.960937-37.132813 8.972657 12.890625 25.527344 32.160156 46.480469 36.292969zm-29.996094 43.335937c0 16.542969-13.457031 30-30 30-16.542968 0-30-13.457031-30-30 0-16.542968 13.457032-30 30-30 16.542969 0 30 13.457032 30 30zm-100.003906.050782c-.027344 16.519531-13.472656 29.949218-29.996094 29.949218-16.542968 0-30-13.457031-30-30 0-16.542968 13.457032-30 30-30 16.523438 0 29.96875 13.429688 29.996094 29.949219v.050781zm-74.523438-22.753907-15.476562-20.628906v-3.53125c8.3125.527344 18.65625.960937 30.230469.960937 3.316406 0 6.738281-.039062 10.234375-.121093-10.808594 4.605469-19.664063 12.917969-24.988282 23.320312zm-15.476562 12.703125 10.140625 13.515625c1.8125 25.933594 23.476563 46.484375 49.863281 46.484375 24.144532 0 44.347656-17.207031 48.992188-40h2.011718c4.648438 22.792969 24.851563 40 48.996094 40 26.390625 0 48.054688-20.550781 49.863282-46.488281l10.132812-13.511719v29.996094c0 25.652344-8.824219 49.277344-23.597656 68.007812-.144532.132813-.277344.273438-.410156.414063-.042969.046875-.082032.089844-.121094.132813-.175782.195312-.34375.398437-.507813.609374-.039062.054688-.082031.109376-.121093.164063-.152344.210937-.300782.425781-.441407.652344-.011719.015625-.019531.03125-.03125.046875-20.191406 24.398437-50.695312 39.972656-84.769531 39.972656-34.0625 0-64.554688-15.5625-84.746094-39.949219-.042968-.074219-.097656-.140625-.140625-.210937-.078125-.117188-.15625-.234375-.238281-.347656-.109375-.15625-.21875-.304688-.335938-.453126-.09375-.117187-.191406-.234374-.289062-.34375-.113281-.128906-.226562-.257812-.34375-.378906-.097656-.097656-.191406-.195312-.285156-.289062-14.785156-18.734375-23.617188-42.367188-23.617188-68.027344v-29.996094zm180.546875 139.140625-15.726563 43.941407-30.203124-25.433594c16.652343-3.203125 32.179687-9.589844 45.929687-18.507813zm-95.15625 18.507813-30.207031 25.4375-15.722656-43.941406c13.746093 8.914062 29.277343 15.300781 45.929687 18.503906zm34.613281 13.84375 42.941406 36.160156c1.824219 1.535156 4.113282 2.351562 6.441407 2.351562.871093 0 1.746093-.113281 2.605469-.347656 3.164062-.851562 5.707031-3.199218 6.808593-6.285156l29.890625-83.519531c11.351563 6.933593 21.820313 14.933593 31.308594 23.832031v128.308594h-119.996094zm139.996094-5.894532c1.917969 2.46875 3.777344 4.980469 5.570312 7.535157.203126.375.421876.746093.675782 1.105469.191406.265624.398437.507812.609375.75 19.410156 28.332031 31.027343 61.75 32.882812 97.003906h-39.738281zm-339.46875-57.480468c22.53125-4.847656 39.472656-24.917969 39.472656-48.878906v-109.152344c0-.039063 0-.109375 0-.175782.046875-82.667968 67.320313-149.914062 149.996094-149.914062s149.941406 67.234375 150 149.894531v.195313 109.152344c0 23.960937 16.941406 44.03125 39.472656 48.878906-2.097656 17.511718-10.339844 33.785156-23.1875 45.839844-15.765625-20.410157-35.394531-38.050782-58.199218-51.804688 13.835937-20.660156 21.914062-45.480469 21.914062-72.15625v-70.035156c4.394531-1.941406 6.875-6.816406 5.636719-11.621094-1.375-5.347656-6.828125-8.574219-12.175781-7.195312-25.367188 6.527343-49.390626-37.140626-49.621094-37.574219-1.597656-3.019531-4.625-5.019531-8.03125-5.296875-3.40625-.269532-6.71875 1.207031-8.78125 3.929687-42.828125 56.539063-183.910156 39.410157-185.328125 39.230469-5.464844-.6875-10.480469 3.183594-11.175781 8.660156-.695313 5.480469 3.179687 10.484375 8.65625 11.183594.167968.019531.453124.054688.820312.097656v68.621094c0 26.675781 8.082031 51.496094 21.914062 72.152344-22.808593 13.757812-42.433593 31.398437-58.199218 51.804687-12.84375-12.054687-21.089844-28.324219-23.183594-45.835937zm32.578125 66.914062c.226563-.253906.445313-.511718.648437-.792968.261719-.367188.480469-.746094.6875-1.132813 1.789063-2.546875 3.640626-5.046875 5.554688-7.503906v106.390625h-39.738281c1.851562-35.234375 13.460937-68.636719 32.847656-96.960938zm0 0" fill="#000001"/><path d="m502 491.996094h-.234375c-5.523437 0-10 4.476562-10 10 0 5.523437 4.476563 10 10 10h.234375c5.519531 0 10-4.476563 10-10 0-5.519532-4.476562-10-10-10zm0 0" fill="#000001"/><path d="m230.996094 312.328125c7.589844 4.382813 16.234375 6.699219 25.003906 6.699219 8.765625 0 17.410156-2.316406 24.996094-6.699219 4.785156-2.761719 6.421875-8.878906 3.660156-13.660156-2.761719-4.785157-8.878906-6.421875-13.660156-3.660157-4.550782 2.628907-9.738282 4.015626-14.996094 4.015626-5.261719 0-10.449219-1.386719-15-4.015626-4.785156-2.761718-10.898438-1.125-13.660156 3.65625-2.761719 4.785157-1.125 10.902344 3.65625 13.664063zm0 0" fill="#000001"/><path d="m168.925781 147.828125h.050781c15.382813-.082031 30.136719-.917969 43.847657-2.492187 5.488281-.628907 9.425781-5.589844 8.796875-11.074219-.628906-5.488281-5.601563-9.421875-11.074219-8.796875-12.996094 1.492187-27.015625 2.285156-41.667969 2.363281-5.523437.027344-9.980468 4.527344-9.949218 10.050781.027343 5.503906 4.496093 9.949219 9.996093 9.949219zm0 0" fill="#000001"/><path d="m139.253906 147.0625.136719.007812c.203125.011719.402344.019532.601563.019532 5.25 0 9.609374-4.097656 9.929687-9.40625.328125-5.515625-3.921875-10.253906-9.433594-10.582032-.003906 0-.09375-.007812-.097656-.007812-5.5-.34375-10.207031 3.863281-10.542969 9.375-.339844 5.511719 3.894532 10.253906 9.40625 10.59375zm0 0" fill="#000001"/><path d="m291.851562 439.855469h-.234374c-5.523438 0-10 4.476562-10 10 0 5.523437 4.476562 10 10 10h.234374c5.523438 0 10-4.476563 10-10 0-5.523438-4.476562-10-10-10zm0 0" fill="#000001"/></svg>