<svg height="512pt" viewBox="0 0 512 512.001" width="512pt" xmlns="http://www.w3.org/2000/svg"><path d="m300.039062 29.851562c1.46875-4.082031 3.808594-7.742187 6.78125-10.789062-5.210937.085938-10.261718 1.535156-14.683593 4.125 2.96875 1.738281 5.65625 3.96875 7.902343 6.664062zm0 0" fill="#5f5148"/><path d="m292.136719 23.1875c-4.417969-2.589844-9.46875-4.039062-14.679688-4.125 2.972657 3.046875 5.3125 6.707031 6.78125 10.789062 2.242188-2.695312 4.933594-4.925781 7.898438-6.664062zm0 0" fill="#5f5148"/><path d="m292.136719 153.582031c11.640625 2.5625 23.730469 3.925781 36.140625 3.925781 3.203125 0 6.382812-.097656 9.542968-.277343-2.40625-5.449219-4.4375-11.429688-6.023437-17.820313-12.40625 6.304688-25.707031 11.101563-39.660156 14.171875zm0 0" fill="#5f5148"/><path d="m433.261719 158.742188c-2.257813-12.804688-12.332031-22.273438-24.449219-24.359376 7.941406-9.390624 9.574219-23.117187 3.070312-34.382812-6.5-11.261719-19.207031-16.710938-31.308593-14.527344 4.25-11.539062 1.089843-24.996094-8.871094-33.359375-9.964844-8.359375-23.769531-9.136719-34.394531-2.945312.050781-12.300781-7.523438-23.863281-19.746094-28.3125-3.546875-1.289063-7.179688-1.847657-10.742188-1.792969-2.972656 3.046875-5.3125 6.707031-6.78125 10.789062-2.246093-2.695312-4.933593-4.925781-7.902343-6.664062-2.964844 1.738281-5.65625 3.96875-7.898438 6.664062-1.46875-4.082031-3.808593-7.742187-6.78125-10.789062-3.5625-.054688-7.445312-.042969-10.742187 1.792969-109.714844 61.144531-113.445313 125.082031-115.703125 137.886719-1.503907 8.515624.753906 16.820312 5.566406 23.230468 10.542969-8.699218 18.984375-23.867187 23.621094-42.5625 20.085937 10.210938 42.507812 16.484375 66.25 17.820313 3.160156.179687 6.34375.277343 9.550781.277343 12.410156 0 24.5-1.363281 36.136719-3.925781 13.953125-3.070312 27.253906-7.867187 39.660156-14.171875 1.585937 6.390625 3.617187 12.371094 6.027344 17.820313 8.792969 19.925781 22.621093 32.773437 38.175781 32.773437h9.996094c4.878906 0 9.484375 1.164063 13.558594 3.230469 2.007812.804687 6.980468.6875 9.375.261719 7.800781-1.375 14.355468-5.652344 18.765624-11.523438 4.8125-6.40625 7.066407-14.714844 5.566407-23.230468zm0 0" fill="#5f5148"/><path d="m136 192.09375c-.953125.375-1.886719.789062-2.785156 1.257812-9.632813 4.992188-16.214844 15.050782-16.214844 26.648438 0 12.683594 7.875 23.523438 19 27.910156zm0 0" fill="#c99e81" fill-rule="evenodd"/><path d="m337.136719 155.632812c-2.109375-5.015624-3.90625-10.449218-5.339844-16.222656-14.796875 7.523438-30.867187 12.898438-47.796875 15.746094 9.105469 1.535156 18.457031 2.351562 28 2.351562 8.542969 0 16.9375-.640624 25.136719-1.875zm0 0" fill="#c99e81"/><path d="m349.285156 325.253906c16.691406-20.613281 26.714844-46.816406 26.714844-75.25v-60c-15.96875 0-30.109375-13.539062-38.863281-34.371094-8.199219 1.234376-16.59375 1.875-25.136719 1.875-9.542969 0-18.894531-.816406-28-2.351562-9.105469 1.535156-18.457031 2.351562-28 2.351562-8.546875 0-16.9375-.640624-25.140625-1.875-3.859375.367188-22.894531-10.632812-38.859375-10.632812v105c0 28.433594 10.019531 54.640625 26.714844 75.253906 16.386718 20.261719 39.210937 35.125 65.285156 41.417969 26.070312-6.292969 48.898438-21.15625 65.285156-41.417969zm0 0" fill="#c99e81"/><path d="m376 190.003906v60h9.996094c16.570312 0 30-13.433594 30-30.003906 0-11.6875-6.683594-21.8125-16.441406-26.765625-4.070313-2.066406-8.679688-3.230469-13.558594-3.230469zm0 0" fill="#c99e81" fill-rule="evenodd"/><path d="m86.046875 462h29.953125v-71.191406c-14.300781 21.234375-24.648438 45.324218-29.953125 71.191406zm0 0" fill="#45ba88" fill-rule="evenodd"/><path d="m384.496094 349.066406c-10.824219-9.117187-22.621094-17.117187-35.203125-23.804687-15.867188 19.605469-37.761719 34.164062-62.792969 40.785156 9.746094 2.578125 19.972656 3.953125 30.503906 3.953125 24.972656 0 48.226563-7.742188 67.492188-20.933594zm0 0" fill="#d3e567"/><path d="m396 359.527344c-3.699219-3.632813-7.539062-7.117188-11.503906-10.460938-19.265625 13.195313-42.515625 20.9375-67.496094 20.9375-10.527344 0-20.753906-1.378906-30.5-3.957031-9.75 2.578125-19.972656 3.957031-30.5 3.957031-24.980469 0-48.234375-7.742187-67.496094-20.9375-1.503906-1.066406-5.503906-4.066406-11.503906-9.066406v162h219zm0 0" fill="#d3e567"/><path d="m396 359.527344v102.476562h55.957031c-8.132812-39.628906-28.078125-75.078125-55.957031-102.476562zm0 0" fill="#45ba88" fill-rule="evenodd"/><path d="m87.046875 462c-2.652344 12.933594-4.046875 26.3125-4.046875 40h33v-40zm0 0" fill="#c99e81" fill-rule="evenodd"/><path d="m396 462v40h60c0-13.6875-1.390625-27.066406-4.042969-40zm0 0" fill="#c99e81" fill-rule="evenodd"/><g fill="#000001"><path d="m256 451.78125c5.523438 0 10-4.476562 10-10v-.472656c0-5.523438-4.476562-10-10-10s-10 4.476562-10 10v.472656c0 5.523438 4.476562 10 10 10zm0 0"/><path d="m10.234375 492h-.234375c-5.523438 0-10 4.476562-10 10s4.476562 10 10 10h.234375c5.523437 0 10-4.476562 10-10s-4.476563-10-10-10zm0 0"/><path d="m502 492h-.234375c-5.523437 0-10 4.476562-10 10s4.476563 10 10 10h.234375c5.523438 0 10-4.476562 10-10s-4.476562-10-10-10zm0 0"/><path d="m473.03125 492h-7.273438c-.515624-10.824219-1.859374-21.496094-3.992187-31.9375-.011719-.046875-.019531-.09375-.027344-.140625-11.675781-56.972656-46.734375-107.054687-97.652343-137.765625 12.089843-18.054688 19.785156-39.285156 21.535156-62.15625h.375c22.058594 0 40.003906-17.941406 40.003906-40 0-7.214844-1.933594-13.988281-5.292969-19.839844 15.949219-7.488281 25.605469-24.992187 22.40625-43.15625-2.113281-11.984375-9.554687-22.128906-19.78125-27.90625 4.121094-11 3.296875-23.554687-2.789062-34.097656-6.085938-10.542969-16.546875-17.53125-28.132813-19.460938.109375-11.746093-4.957031-23.261718-14.28125-31.089843-9.320312-7.820313-21.542968-10.808594-33.09375-8.660157-3.910156-11.078124-12.609375-20.164062-24.050781-24.332031-11.441406-4.160156-23.949219-2.792969-34.0625 3.179688-7.46875-9.070313-18.75-14.636719-30.921875-14.636719s-23.453125 5.566406-30.921875 14.636719c-10.117187-5.972657-22.625-7.339844-34.0625-3.179688-11.4375 4.164063-20.136719 13.253907-24.050781 24.332031-11.546875-2.148437-23.773438.839844-33.09375 8.664063-9.328125 7.824219-14.394532 19.339844-14.28125 31.085937-11.585938 1.929688-22.050782 8.917969-28.136719 19.460938s-6.90625 23.097656-2.785156 34.097656c-10.230469 5.777344-17.667969 15.921875-19.78125 27.90625-1.855469 10.523438.496093 21.136719 6.625 29.890625 4.074219 5.820313 9.5 10.34375 15.773437 13.273438-3.359375 5.851562-5.285156 12.621093-5.285156 19.832031 0 22.058594 17.941406 40.003906 40 40.003906h.378906c1.75 22.871094 9.445313 44.101563 21.535156 62.152344-50.933593 30.71875-86 80.824219-97.664062 137.820312 0 .007813 0 .015626-.003906.023438-2.140625 10.460938-3.488282 21.152344-4.003906 32h-7.277344c-5.519532 0-10 4.476562-10 10s4.480468 10 10 10h434.066406c5.523438 0 10-4.476562 10-10s-4.476562-10-10-10zm-67.03125-106.394531c15.324219 19.679687 26.667969 42.222656 33.285156 66.398437h-33.285156zm0 86.394531h37.613281c1.054688 6.585938 1.769531 13.257812 2.121094 20h-39.734375zm-20-231.996094v-40c11.027344 0 19.996094 8.96875 19.996094 19.996094 0 11.03125-8.96875 20-19.996094 20.003906zm-297.417969-79.523437c1.464844-8.289063 8.015625-14.816407 16.300781-16.242188 3.535157-.609375 6.472657-3.066406 7.699219-6.4375 1.230469-3.371093.554688-7.140625-1.761719-9.878906-5.429687-6.421875-6.253906-15.632813-2.046874-22.921875 4.207031-7.289062 12.605468-11.183594 20.875-9.6875 3.527343.636719 7.128906-.664062 9.4375-3.414062 2.304687-2.746094 2.964843-6.519532 1.722656-9.882813-2.90625-7.894531-.53125-16.832031 5.917968-22.242187 6.445313-5.410157 15.660157-6.199219 22.929688-1.964844 3.101562 1.804687 6.929688 1.8125 10.035156.019531 3.105469-1.792969 5.011719-5.113281 5-8.699219-.035156-8.410156 5.257813-15.996094 13.164063-18.875 7.910156-2.878906 16.839843-.472656 22.222656 5.992188 2.292969 2.757812 5.890625 4.074218 9.421875 3.453125 3.53125-.625 6.460938-3.089844 7.671875-6.464844 2.847656-7.914063 10.414063-13.234375 18.828125-13.234375s15.980469 5.320312 18.828125 13.234375c1.214844 3.375 4.144531 5.84375 7.675781 6.464844 3.53125.617187 7.128906-.695313 9.421875-3.453125 5.378907-6.464844 14.308594-8.871094 22.21875-5.996094 7.910157 2.882812 13.199219 10.464844 13.164063 18.875-.015625 3.585938 1.890625 6.90625 4.996094 8.703125 3.105468 1.792969 6.9375 1.785156 10.035156-.019531 7.269531-4.234375 16.488281-3.445313 22.933594 1.960937 6.445312 5.414063 8.824218 14.351563 5.917968 22.246094-1.242187 3.363281-.582031 7.136719 1.722656 9.886719 2.304688 2.746094 5.910157 4.046875 9.4375 3.410156 8.28125-1.496094 16.664063 2.398438 20.875 9.6875 4.207032 7.289062 3.382813 16.503906-2.046874 22.921875-2.316407 2.738281-2.988282 6.507813-1.765626 9.878906 1.230469 3.371094 4.167969 5.824219 7.703126 6.433594 8.285156 1.429687 14.835937 7.957031 16.296874 16.246094 1.914063 10.859375-5.363281 21.253906-16.234374 23.171875-1.015626.179687-3.175782.230468-4.261719.117187-5.144531-2.414062-10.875-3.769531-16.921875-3.769531h-9.996094c-14.253906 0-28.117188-17.28125-34.496094-43-.734375-2.957031-2.777344-5.421875-5.550781-6.6875-2.769531-1.269531-5.96875-1.199219-8.6875.179688-22.203125 11.289062-46.183594 17.015624-71.265625 17.015624s-49.0625-5.726562-71.269531-17.015624c-2.71875-1.378907-5.917969-1.445313-8.691407-.179688-2.769531 1.265625-4.8125 3.726562-5.546874 6.6875-6.378907 25.71875-20.242188 43-34.492188 43h-10c-6.019531 0-11.722656 1.34375-16.847656 3.734375-2.058594.320313-2.839844.183594-3.917969-.007813l-.429687-.078124c-5.261719-.929688-9.847657-3.851563-12.910157-8.226563s-4.238281-9.679687-3.3125-14.941406zm17.417969 59.519531c0-11.027344 8.972656-19.996094 20-19.996094v40c-11.027344 0-20-8.972656-20-20.003906zm40-21.34375c17.117188-4.667969 31.917969-21.1875 40.449219-45.292969 21.960937 9.390625 45.300781 14.144531 69.550781 14.144531s47.589844-4.753906 69.546875-14.144531c8.53125 24.105469 23.332031 40.625 40.453125 45.292969v51.347656c0 25.652344-8.828125 49.285156-23.605469 68.011719-.609375.582031-1.148437 1.246094-1.605469 1.988281-20.191406 24.414063-50.703124 40-84.789062 40h-.003906c-34.085938 0-64.597656-15.585937-84.789063-40.003906-.457031-.738281-.992187-1.40625-1.601562-1.980469-14.777344-18.730469-23.605469-42.363281-23.605469-68.015625zm99.996094 180.964844.003906 32.601562c0 5.523438 4.480469 10 10 10 5.523438 0 10-4.476562 10-10l-.003906-32.601562c33.757812-2.578125 63.941406-18.113282 85.597656-41.621094 12.550781 7.351562 24.0625 15.984375 34.40625 25.6875v128.3125h-260v-128.3125c10.339844-9.699219 21.855469-18.335938 34.402344-25.6875 21.65625 23.507812 51.839844 39.042969 85.59375 41.621094zm-139.996094 72.378906h-33.285156c6.617187-24.171875 17.957031-46.714844 33.285156-66.394531zm-37.613281 20h37.613281v20h-39.738281c.355469-6.742188 1.070312-13.414062 2.125-20zm0 0"/><path d="m306 237.503906c-6.886719 0-12.5 5.613282-12.5 12.5 0 6.886719 5.613281 12.5 12.5 12.5s12.5-5.613281 12.5-12.5c0-6.886718-5.613281-12.5-12.5-12.5zm0 0"/><path d="m206 237.503906c-6.886719 0-12.5 5.613282-12.5 12.5 0 6.886719 5.613281 12.5 12.5 12.5 6.882812 0 12.5-5.613281 12.5-12.5 0-6.886718-5.617188-12.5-12.5-12.5zm0 0"/><path d="m190.996094 224.023438c4.554687-2.628907 9.742187-4.019532 15.003906-4.019532 5.257812 0 10.441406 1.390625 14.996094 4.019532 1.574218.90625 3.296875 1.339843 4.992187 1.339843 3.453125 0 6.816407-1.792969 8.667969-5 2.761719-4.785156 1.125-10.898437-3.660156-13.660156-7.589844-4.382813-16.234375-6.699219-24.996094-6.699219-8.769531 0-17.414062 2.316406-25.003906 6.699219-4.78125 2.761719-6.421875 8.875-3.660156 13.660156 2.761718 4.78125 8.878906 6.421875 13.660156 3.660157zm0 0"/><path d="m291.003906 224.023438c4.550782-2.628907 9.734375-4.019532 14.996094-4.019532 5.257812 0 10.445312 1.390625 15 4.019532 1.574219.910156 3.292969 1.339843 4.988281 1.339843 3.457031 0 6.820313-1.792969 8.671875-5.003906 2.761719-4.78125 1.121094-10.898437-3.660156-13.660156-7.59375-4.378907-16.238281-6.695313-25-6.695313-8.769531 0-17.410156 2.316406-25 6.699219-4.78125 2.761719-6.421875 8.878906-3.65625 13.660156 2.757812 4.78125 8.875 6.421875 13.660156 3.660157zm0 0"/><path d="m227.339844 298.667969c-2.761719 4.785156-1.125 10.898437 3.660156 13.660156 7.589844 4.382813 16.234375 6.703125 24.996094 6.703125 8.765625 0 17.410156-2.320312 25-6.703125 4.785156-2.757813 6.425781-8.875 3.664062-13.660156-2.761718-4.78125-8.878906-6.421875-13.660156-3.660157-4.558594 2.628907-9.746094 4.019532-15.003906 4.019532-5.253906 0-10.441406-1.390625-14.996094-4.019532-4.785156-2.761718-10.898438-1.121093-13.660156 3.660157zm0 0"/><path d="m183.132812 107.679688c11.4375 9.300781 25.1875 15.34375 39.769532 17.472656.488281.074218.976562.105468 1.457031.105468 4.882813 0 9.15625-3.578124 9.882813-8.554687.796874-5.464844-2.984376-10.542969-8.449219-11.339844-11.015625-1.609375-21.398438-6.171875-30.039063-13.199219-4.28125-3.484374-10.582031-2.839843-14.066406 1.445313-3.488281 4.285156-2.839844 10.582031 1.445312 14.070313zm0 0"/><path d="m253.144531 123.597656c.699219 0 1.410157-.074218 2.121094-.230468.296875-.0625.585937-.136719.867187-.21875 5.289063-1.589844 8.289063-7.164063 6.703126-12.453126-1.550782-5.160156-6.894532-8.148437-12.0625-6.8125-5.246094 1.28125-8.542969 6.515626-7.394532 11.824219 1.011719 4.6875 5.15625 7.890625 9.765625 7.890625zm0 0"/></g></svg>