<svg height="512pt" viewBox="0 0 512 512" width="512pt" xmlns="http://www.w3.org/2000/svg"><path d="m221.746094 193.226562c-14.257813 6.117188-24.25 20.277344-24.25 36.777344s9.992187 30.660156 24.25 36.777344c14.261718-6.117188 24.25-20.277344 24.25-36.777344s-9.992188-30.660156-24.25-36.777344zm0 0" fill="#7aeae7" fill-rule="evenodd"/><path d="m358.917969 108.535156h-155.863281c-10.820313 18-17.058594 39.039063-17.058594 61.464844v25.367188c5.886718-3.40625 12.710937-5.363282 20-5.363282 22.089844 0 40 17.90625 40 40 0 22.089844-17.910156 40-40 40-6.890625 0-13.371094-1.742187-19.03125-4.808594 2.878906 22.535157 12.070312 43.171876 25.746094 60.058594 17.011718 21.039063 40.964843 36.25 68.285156 42.101563 27.320312-5.851563 51.273437-21.0625 68.285156-42.101563 16.691406-20.613281 26.710938-46.820312 26.710938-75.25v-80.003906c.003906-22.429688-6.25-43.457031-17.074219-61.464844zm0 0" fill="#fcd0ac" fill-rule="evenodd"/><path d="m345.996094 230.003906c0 22.089844-17.910156 40-40 40s-40-17.910156-40-40c0-22.09375 17.910156-40 40-40s40 17.90625 40 40zm0 0" fill="#7aeae7" fill-rule="evenodd"/><path d="m135.996094 247.34375v-54.683594c-10.40625 4.707032-17.65625 15.175782-17.65625 27.34375 0 12.167969 7.246094 22.632813 17.65625 27.339844zm0 0" fill="#fcd0ac" fill-rule="evenodd"/><path d="m375.996094 190.003906v60h9.996094c16.570312 0 30.003906-13.433594 30.003906-30 0-16.570312-13.433594-30-30.003906-30zm0 0" fill="#fcd0ac" fill-rule="evenodd"/><path d="m437.753906 10-183.648437.007812c-54.1875 0-98.53125 44.339844-98.53125 98.527344h183.648437v-.066406l2.171875.042969 1.292969.023437c5.277344 0 10.457031-.421875 15.507812-1.21875 11.277344 18.269532 17.800782 39.75 17.800782 62.683594v20.003906c26.96875-18.347656 43.113281-48.847656 43.113281-81.46875 0-11.464844-2.003906-22.84375-5.914063-33.617187 15.265626-17.371094 24.558594-40.109375 24.558594-64.917969zm0 0" fill="#f4ba64"/><g fill-rule="evenodd"><path d="m85.996094 502h30v-105.011719c-19 30.570313-30 66.566407-30 105.011719zm0 0" fill="#c99e81"/><path d="m153.324219 502 72.253906-.003906-70-52.238282 26.25-28.125-14.761719-74.425781c-1.824218-6.117187-7.871094-14.351562-13.738281-17.847656v172.640625zm0 0" fill="#c99e81"/><path d="m282.195312 429.9375-26.199218 72.058594h30.417968l70-52.238282-26.25-28.125 19.113282-96.359374c-11.035156 13.636718-24.984375 24.828124-40.878906 32.605468zm0 0" fill="#c99e81"/><path d="m255.992188 370 26.203124 59.941406 26.203126-72.0625c-15.855469 7.761719-33.644532 12.121094-52.40625 12.121094zm0 0" fill="#bdbcbc"/><path d="m282.195312 429.9375-26.203124-59.9375-26.195313 59.9375 26.199219 72.058594zm0 0" fill="#ff5a5a"/><path d="m349.277344 325.273438-19.113282 96.359374 26.25 28.125-70 52.238282 109.582032.003906v-142.476562c-13.785156-13.546876-29.515625-25.125-46.714844-34.269532zm0 0" fill="#c99e81"/><path d="m395.996094 359.523438v142.476562h60c0-55.628906-23.019532-106.132812-60-142.476562zm0 0" fill="#c99e81"/><path d="m229.792969 429.921875 26.199219 72.058594h-30.421876l-69.996093-52.242188 26.25-28.125-19.113281-96.359375c11.035156 13.636719 24.984374 24.828125 40.882812 32.609375zm0 0" fill="#c99e81"/><path d="m255.996094 369.984375-26.203125 59.9375-26.199219-72.058594c15.851562 7.757813 33.640625 12.121094 52.402344 12.121094zm0 0" fill="#bdbcbc"/></g><path d="m501.992188 491.996094h-.234376c-5.523437 0-10 4.476562-10 10 0 5.523437 4.476563 10 10 10h.234376c5.523437 0 10-4.476563 10-10 0-5.523438-4.476563-10-10-10zm0 0" fill="#000001"/><path d="m10.234375 491.996094h-.234375c-5.523438 0-10 4.476562-10 10 0 5.523437 4.476562 10 10 10h.234375c5.519531 0 10-4.476563 10-10 0-5.523438-4.476563-10-10-10zm0 0" fill="#000001"/><path d="m473.03125 491.996094h-7.277344c-3.324218-69.957032-41.386718-133.476563-101.675781-169.839844 12.089844-18.050781 19.789063-39.285156 21.535156-62.152344h.378907c22.058593 0 40.003906-17.945312 40.003906-40 0-17.144531-10.84375-31.796875-26.027344-37.476562 18.535156-19.871094 29.140625-46.207032 29.140625-73.992188 0-10.6875-1.582031-21.222656-4.664063-31.40625 14.589844-18.484375 23.308594-41.808594 23.308594-67.128906 0-2.652344-1.054687-5.195312-2.929687-7.070312s-4.417969-2.929688-7.070313-2.929688l-246.335937.0078125c-59.84375 0-108.53125 48.6835935-108.53125 108.5273435 0 27.785156 10.605469 54.121094 29.136719 73.992188-15.183594 5.679687-26.023438 20.332031-26.023438 37.476562 0 22.054688 17.941406 40 40 40h.378906c1.75 22.871094 9.445313 44.101563 21.535156 62.152344-60.289062 36.363281-98.347656 99.878906-101.671874 169.839844h-7.277344c-5.523438 0-10 4.476562-10 10 0 5.523437 4.476562 10 10 10h16.992187c.015625 0 .027344.003906.039063.003906.015625 0 .027344-.003906.039062-.003906h59.921875c.015625 0 .027344.003906.039063.003906.015625 0 .027344-.003906.039062-.003906h109.519532.011718.011719 30.34375c.015625 0 .027344.003906.042969.003906h.03125.003906.03125c.015625 0 .027344-.003906.039062-.003906h30.34375.007813.015625 109.519531c.015625 0 .027344.003906.039063.003906.015625 0 .027344-.003906.039062-.003906h59.921875c.015625 0 .027344.003906.039063.003906.015625 0 .027344-.003906.039062-.003906h16.996094c5.519531 0 9.996094-4.476563 9.996094-10 0-5.523438-4.472656-10-9.996094-10zm-202.757812 0 46.148437-126.921875c5.90625-3.113281 11.546875-6.664063 16.871094-10.617188l-12.9375 65.230469c-.625 3.152344.304687 6.417969 2.496093 8.769531l18.636719 19.960938-58.394531 43.578125zm-41.378907 0-58.390625-43.578125 18.632813-19.960938c2.195312-2.351562 3.125-5.617187 2.496093-8.769531l-12.9375-65.230469c5.328126 3.953125 10.96875 7.503907 16.875 10.617188l46.148438 126.921875zm-102.898437-128.308594c9.015625-8.457031 18.917968-16.101562 29.621094-22.796875l15.402343 77.664063-22.753906 24.378906c-1.9375 2.078125-2.902344 4.882812-2.648437 7.714844.253906 2.832031 1.703124 5.421874 3.980468 7.121093l45.859375 34.226563h-69.460937zm129.996094 31.28125 15.441406 35.3125-15.4375 42.449219-15.4375-42.453125zm25.351562 8.054688-10.441406-23.882813c7.054687-.808594 13.9375-2.175781 20.605468-4.070313zm-50.695312-.003907-10.164063-27.949219c6.667969 1.898438 13.550781 3.261719 20.601563 4.070313zm131.746093 54.75c2.277344-1.699219 3.726563-4.289062 3.980469-7.121093.253906-2.828126-.710938-5.636719-2.648438-7.714844l-22.753906-24.378906 15.402344-77.664063c10.703125 6.691406 20.605469 14.34375 29.621094 22.800781v128.304688h-69.460938zm43.601563-72.164062c23.527344 30.203125 37.671875 67.160156 39.738281 106.390625h-39.738281zm-55.472656-178.304688c-8.289063-16.1875-25.128907-27.296875-44.527344-27.296875-24.144532 0-44.347656 17.207032-48.992188 40h-2.015625c-4.644531-22.792968-24.847656-40-48.992187-40-19.398438 0-36.238282 11.113282-44.523438 27.296875l-15.476562-20.628906v-16.671875c0-17.972656 4.441406-35.648438 12.878906-51.464844h180.347656c.539063 0 1.078125-.015625 1.617188-.023437.636718.011719 1.257812.023437 1.847656.023437 3.390625 0 6.789062-.160156 10.171875-.476562 8.609375 15.945312 13.136719 33.773437 13.136719 51.941406v16.671875zm-14.527344 22.703125c0 16.542969-13.457032 30-30 30-16.542969 0-30-13.457031-30-30 0-16.542968 13.457031-30 30-30 16.542968 0 30 13.457032 30 30zm-100 .023438c-.015625 16.53125-13.46875 29.976562-30 29.976562-16.542969 0-30-13.457031-30-30 0-16.542968 13.457031-30 30-30 16.53125 0 29.984375 13.445313 30 29.972656v.027344zm170-10.023438c0 11.027344-8.972656 20-20 20v-40c11.027344 0 20 8.972656 20 20zm-20.03125-51.789062c-.265625-19.132813-4.757813-37.898438-13.132813-55.015625 12.914063-4.21875 24.773438-10.792969 35.0625-19.21875.796875 4.792969 1.214844 9.65625 1.214844 14.554687 0 22.351563-8.414063 43.550782-23.144531 59.679688zm-194.546875-148.210938 235.773437-.003906c-2.035156 18.03125-9.515625 34.433594-20.742187 47.535156-.511719.464844-.96875.980469-1.367188 1.535156-15.832031 17.636719-38.617187 28.890626-64.003906 29.417969-.5-.007812-1.003906.003907-1.503906-.015625-.5-.019531-.992188.003906-1.480469.0625h-21.742188c9.261719-6.535156 17.558594-14.535156 24.476563-23.796875 3.304687-4.425781 2.398437-10.691406-2.027344-13.996093-4.421875-3.304688-10.6875-2.398438-13.996093 2.027343-16.726563 22.390625-43.253907 35.761719-70.957032 35.765625h-100.792968c-3.507813 0-6.761719 1.839844-8.570313 4.847656-11.785156 19.605469-18.140625 41.988282-18.457031 64.828126-14.726563-16.128907-23.140625-37.324219-23.140625-59.675782 0-48.816406 39.714843-88.53125 88.53125-88.53125zm-85.421875 200c0-11.027344 8.972656-20 20-20v40c-11.027344 0-20-8.972656-20-20zm40 0 10.136718 13.515625c1.8125 25.933594 23.476563 46.484375 49.863282 46.484375 24.144531 0 44.347656-17.207031 48.992187-40h2.015625c4.644532 22.792969 24.847656 40 48.992188 40 26.390625 0 48.054687-20.554687 49.863281-46.488281l10.136719-13.511719v30c0 25.652344-8.828125 49.28125-23.605469 68.007813-.351563.335937-.679687.703125-.984375 1.09375-.148438.1875-.292969.371093-.425781.566406-.019531.035156-.039063.070313-.0625.105469-.050781.078125-.09375.15625-.144531.238281-9.804688 11.851563-22.042969 21.613281-35.9375 28.527344-.574219.21875-1.125.488281-1.644532.804687-14.3125 6.828125-30.3125 10.652344-47.195312 10.652344h-.003906c-16.878907 0-32.875-3.824219-47.1875-10.648438-.523438-.324218-1.078126-.589843-1.65625-.8125-13.894532-6.914062-26.132813-16.675781-35.933594-28.527343-.042969-.070313-.082032-.140625-.128906-.210938-.023438-.042969-.050782-.085937-.078126-.128906-.121093-.179687-.253906-.351563-.386718-.523437-.316406-.40625-.652344-.785157-1.015625-1.132813-14.777344-18.730469-23.609375-42.359375-23.609375-68.015625zm-40 165.601563v106.390625h-39.734375c2.0625-39.230469 16.210937-76.1875 39.734375-106.390625zm0 0" fill="#000001"/><path d="m230.996094 312.332031c7.59375 4.378907 16.234375 6.699219 25 6.699219s17.40625-2.316406 25-6.699219c4.78125-2.761719 6.421875-8.878906 3.660156-13.660156-2.761719-4.785156-8.878906-6.421875-13.660156-3.660156-4.554688 2.628906-9.742188 4.019531-15 4.019531-5.257813 0-10.445313-1.390625-15-4.019531-4.78125-2.761719-10.898438-1.125-13.660156 3.660156-2.761719 4.78125-1.121094 10.898437 3.660156 13.660156zm0 0" fill="#000001"/><path d="m342.566406 53.953125c1.15625.433594 2.34375.636719 3.507813.636719 4.050781 0 7.859375-2.476563 9.367187-6.488282 0-.007812.050782-.140624.050782-.144531 1.933593-5.175781-.691407-10.9375-5.867188-12.871093-5.171875-1.929688-10.933594.695312-12.867188 5.871093-.003906.011719-.039062.105469-.050781.132813-1.925781 5.167968.691407 10.925781 5.859375 12.863281zm0 0" fill="#000001"/></svg>