<svg height="512pt" viewBox="0 0 512 512" width="512pt" xmlns="http://www.w3.org/2000/svg"><path d="m156.003906 316.125v12.882812c2.210938-1.285156 4.441406-2.546874 6.703125-3.75-2.375-2.933593-4.605469-5.984374-6.703125-9.132812zm0 0" fill="#c99e81"/><path d="m409.359375 325.296875c2.242187 1.191406 4.449219 2.441406 6.636719 3.714844v-12.792969c-2.074219 3.128906-4.285156 6.160156-6.636719 9.078125zm0 0" fill="#c99e81"/><path d="m286 12.820312c-74.023438 14.042969-129.996094 79.066407-129.996094 157.175782v.792968c22.019532-4.085937 51.742188-17.753906 72.496094-58.914062 0 0 4.59375 20.382812 16.335938 48.386719 18.621093 44.429687 55.226562 108.054687 120.050781 140.039062-.746094 1.53125-2.566407 5.246094-3.375 6.738281-3.496094 6.46875-7.570313 12.574219-12.148438 18.253907 26.171875 13.929687 48.9375 33.503906 66.636719 57.070312v-53.355469c-2.191406-1.273437-4.398438-2.519531-6.636719-3.714843 2.347657-2.914063 4.5625-5.945313 6.636719-9.078125v-146.21875c-.003906-78.109375-55.976562-143.132813-130-157.175782zm0 0" fill="#c99e81"/><path d="m349.359375 325.296875c4.582031-5.683594 8.652344-11.789063 12.152344-18.257813.808593-1.492187 2.628906-5.207031 3.375-6.738281-65.863281-32.5-102.601563-97.667969-120.9375-142.167969-17.597657-73.570312-40.886719-3.054687-52.390625-3.449218v95.316406c0 28.433594 10.019531 54.640625 26.710937 75.253906 16.445313 20.335938 39.375 35.234375 65.566407 41.488282 26.210937-6.242188 49.117187-21.09375 65.523437-41.445313zm0 0" fill="#fcd0ac" fill-rule="evenodd"/><path d="m415.996094 382.367188c-7.339844-9.773438-15.558594-18.847657-24.523438-27.128907-12.652344-11.691406-26.789062-21.789062-42.113281-29.941406-22 27.292969-55.6875 44.703125-93.363281 44.703125-7.332032 0-14.515625-.675781-21.496094-1.953125-12.933594-2.363281-25.164062-6.816406-36.316406-13-20.3125 13.023437-38.148438 29.601563-52.601563 48.851563-7.476562 9.953124-14.042969 20.617187-19.582031 31.867187 4.058594 2.429687 8.195312 4.761719 12.390625 7.015625 36.953125 12.605469 76.9375 19.222656 117.609375 19.222656 64.746094 0 127.75-16.761718 179.574219-47.773437-5.535157-11.253907-12.105469-21.914063-19.578125-31.863281zm0 0" fill="#fcd0ac"/><path d="m447.9375 445.925781c-3.230469-10.980469-7.375-21.574219-12.363281-31.695312-51.824219 31.011719-114.828125 47.773437-179.574219 47.773437-12.417969 0-24.773438-.621094-36.996094-1.839844-32.273437-3.207031-63.628906-10.59375-92.851562-21.824218-7.941406 19.875-12.769532 41.300781-13.886719 63.660156h343.734375c0-19.445312-2.820312-38.265625-8.0625-56.074219zm0 0" fill="#5f5148"/><g fill="#000001"><path d="m10.234375 491.996094h-.234375c-5.523438 0-10 4.480468-10 10 0 5.523437 4.476562 10 10 10h.234375c5.523437 0 10-4.476563 10-10 0-5.519532-4.472656-10-10-10zm0 0"/><path d="m473.03125 491.996094h-7.273438c-1.96875-41.375-16.082031-80.496094-39.761718-113.082032v-208.917968c0-93.734375-76.257813-169.996094-169.996094-169.996094-93.734375 0-169.996094 76.261719-169.996094 169.996094v.179687 208.734375c-23.679687 32.585938-37.792968 71.710938-39.761718 113.085938h-7.273438c-5.523438 0-10 4.480468-10 10 0 5.523437 4.476562 10 10 10h16.992188c.015624 0 .027343.003906.039062.003906.015625 0 .027344-.003906.039062-.003906h59.921876c.015624 0 .023437.003906.039062.003906s.023438-.003906.039062-.003906h279.921876c.015624 0 .027343.003906.039062.003906s.023438-.003906.039062-.003906h59.921876c.015624 0 .027343.003906.039062.003906s.023438-.003906.039062-.003906h16.992188c5.523438 0 10-4.476563 10-10 0-5.519532-4.476562-10-10-10zm-217.027344-61.101563c-5.523437 0-10 4.476563-10 10l-.003906 10.960938c-55.773438-1.5625-110.589844-16.125-156.320312-41.535157 4.03125-7.285156 8.550781-14.304687 13.515624-21.015624.574219-.59375 1.070313-1.257813 1.484376-1.976563 14.910156-19.601563 33.726562-36.441406 55.726562-49.328125 23.773438 25.804688 57.824219 42 95.597656 42 36.839844 0 71.316406-15.566406 95.601563-41.992188 22.003906 12.890626 40.820312 29.734376 55.730469 49.339844.40625.707032.894531 1.355469 1.457031 1.941406 4.96875 6.710938 9.488281 13.738282 13.527343 21.03125-45.734374 25.40625-100.546874 39.972657-156.320312 41.53125l.003906-10.957031c0-5.523437-4.476562-10-10-10zm-110.003906-248.78125c5.984375-.410156 12.882812-1.402343 20.285156-3.429687 17.164063-4.703125 39.914063-15.890625 58.949219-42.160156 5.121094 15.460937 13.5625 37.414062 26.390625 61.132812 26.070312 48.21875 60.226562 84.640625 99.847656 106.832031-2.722656 4.773438-5.765625 9.304688-9.101562 13.550781-.578125.550782-1.09375 1.183594-1.535156 1.886719-20.660157 25.109375-51.613282 40.074219-84.839844 40.074219-34.089844 0-64.605469-15.589844-84.796875-40.011719-.453125-.730469-.984375-1.390625-1.582031-1.960937-14.78125-18.730469-23.617188-42.367188-23.617188-68.027344zm-39.996094-12.199219c.050782-82.667968 67.316406-149.914062 149.996094-149.914062 82.707031 0 149.996094 67.289062 149.996094 150.089844v185.179687c-12.363282-12.609375-26.410156-23.765625-41.933594-33.128906 1.886719-2.828125 3.667969-5.746094 5.34375-8.742187 2.980469 1.296874 5.984375 2.523437 9.019531 3.667968 1.160157.4375 2.351563.644532 3.523438.644532 4.042969 0 7.851562-2.46875 9.359375-6.472657 1.949218-5.167969-.660156-10.9375-5.828125-12.886719-58.65625-22.113281-95.460938-71.878906-116.007813-109.730468-22.617187-41.675782-31.136718-78.582032-31.21875-78.941406-.925781-4.117188-4.339844-7.210938-8.53125-7.726563s-8.253906 1.652344-10.152344 5.421875c-25.460937 50.492188-64.914062 55.523438-82.371093 55.03125-.394531-.046875-.792969-.078125-1.199219-.078125-.121094 0-.234375.011719-.355469.015625-4.089843-.199219-6.6875-.679688-7.1875-.777344-5.394531-1.109375-10.675781 2.351563-11.804687 7.746094-1.132813 5.40625 2.335937 10.703125 7.738281 11.835938.121094.023437.675781.136718 1.609375.285156v68.566406c0 26.675781 8.082031 51.5 21.917969 72.15625-15.515625 9.355469-29.558594 20.507812-41.914063 33.109375v-185.175781c0-.039063 0-.109375 0-.175782zm-25.089844 258.421876c51.21875 28.21875 112.929688 43.667968 175.085938 43.667968s123.863281-15.453125 175.085938-43.667968c8.429687 19.949218 13.480468 41.4375 14.648437 63.660156h-39.734375v-19.949219c0-5.523437-4.476562-10-10-10s-10 4.476563-10 10v19.949219h-260v-19.949219c0-5.523437-4.476562-10-10-10s-10 4.476563-10 10v19.949219h-39.734375c1.167969-22.222656 6.21875-43.710938 14.648437-63.660156zm0 0"/><path d="m502 491.996094h-.234375c-5.523437 0-10 4.480468-10 10 0 5.523437 4.476563 10 10 10h.234375c5.523438 0 10-4.476563 10-10 0-5.519532-4.476562-10-10-10zm0 0"/><path d="m205.996094 237.5c-6.886719 0-12.5 5.617188-12.5 12.5 0 6.886719 5.613281 12.503906 12.5 12.503906 6.886718 0 12.5-5.617187 12.5-12.503906 0-6.882812-5.613282-12.5-12.5-12.5zm0 0"/><path d="m195.636719 221.367188c.859375 0 1.730469-.109376 2.601562-.34375 5.050781-1.359376 10.464844-1.359376 15.515625 0 5.335938 1.433593 10.820313-1.730469 12.253906-7.0625 1.433594-5.335938-1.730468-10.820313-7.0625-12.253907-8.433593-2.265625-17.460937-2.265625-25.898437 0-5.332031 1.433594-8.496094 6.917969-7.0625 12.253907 1.203125 4.464843 5.242187 7.40625 9.652344 7.40625zm0 0"/><path d="m230.996094 312.328125c7.589844 4.382813 16.234375 6.699219 25 6.699219s17.410156-2.316406 25-6.699219c4.785156-2.765625 6.421875-8.878906 3.660156-13.664063-2.761719-4.78125-8.875-6.417968-13.660156-3.660156-4.554688 2.632813-9.742188 4.023438-15 4.023438-5.257813 0-10.445313-1.390625-15-4.023438-4.78125-2.757812-10.898438-1.121094-13.660156 3.660156-2.761719 4.785157-1.121094 10.898438 3.660156 13.664063zm0 0"/><path d="m332.246094 238.542969c1.945312 1.917969 4.484375 2.878906 7.019531 2.878906 2.582031 0 5.164063-.996094 7.121094-2.980469 3.878906-3.933594 3.832031-10.265625-.097657-14.140625-8.984374-8.859375-17.59375-18.847656-25.59375-29.683593-3.277343-4.441407-9.539062-5.386719-13.984374-2.105469-4.441407 3.277343-5.386719 9.539062-2.105469 13.984375 8.613281 11.671875 17.914062 22.457031 27.640625 32.046875zm0 0"/><path d="m354.996094 258.300781.4375.332031c1.8125 1.375 3.9375 2.039063 6.046875 2.039063 3.019531 0 6-1.359375 7.96875-3.949219 3.34375-4.394531 2.484375-10.667968-1.910157-14.011718l-.277343-.210938c-4.359375-3.386719-10.640625-2.597656-14.03125 1.765625-3.386719 4.363281-2.597657 10.648437 1.765625 14.035156zm0 0"/></g></svg>