<svg height="512pt" viewBox="0 0 512 512" width="512pt" xmlns="http://www.w3.org/2000/svg"><path d="m284.75 13.195312c-57.960938 13.089844-101.246094 64.890626-101.246094 126.804688h202.492188c0-61.914062-43.289063-113.714844-101.246094-126.804688zm0 0" fill="#fcd0ac" fill-rule="evenodd"/><path d="m183.503906 140v50h202.492188v-50zm0 0" fill="#ff5a5a" fill-rule="evenodd"/><path d="m385.996094 190h-195.628906c-16.570313 0 3.664062 90.621094 13.9375 103.738281 3.253906-2.339843 7.226562-3.738281 11.515624-3.738281h80.347657c10.90625 0 19.828125 8.925781 19.828125 19.832031v40.171875c0 1.304688-.042969 2.601563-.128906 3.882813 12.8125-7.433594 24.144531-17.167969 33.414062-28.632813 7.644531-9.4375 13.882812-20.054687 18.40625-31.515625 5.355469-13.566406 8.304688-28.324219 8.304688-43.738281h10c16.570312 0 30.003906-13.429688 30.003906-29.996094 0-16.570312-13.433594-30.003906-30-30.003906zm0 0" fill="#fcd0ac"/><g fill-rule="evenodd"><path d="m237.519531 309.832031v40.171875c0 1.304688.042969 2.601563.132813 3.886719 1.550781 24.027344 17.421875 44.304687 39.105468 52.371094 21.683594-8.066407 37.558594-28.34375 39.109376-52.375.089843-1.28125.132812-2.578125.132812-3.882813v-40.171875c0-10.90625-8.925781-19.832031-19.828125-19.832031h-38.824219c-10.90625 0-19.828125 8.925781-19.828125 19.832031zm0 0" fill="#5f5148"/><path d="m139.417969 374.777344v7.226562h65.890625c-5.238282-8.242187-8.519532-17.839844-9.183594-28.113281-5.351562-3.105469-10.425781-6.632813-15.21875-10.5-15.167969 8.648437-29.109375 19.21875-41.488281 31.386719zm0 0" fill="#ff5a5a"/><path d="m315.867188 353.886719c-.660157 10.277343-3.945313 19.875-9.183594 28.117187h89.3125v-22.476562c-13.789063-13.550782-29.515625-25.132813-46.714844-34.273438-9.269531 11.464844-20.601562 21.199219-33.414062 28.632813zm0 0" fill="#ff5a5a"/><path d="m163.40625 462h232.589844v40h-232.589844zm0 0" fill="#ff5a5a"/><path d="m395.996094 382.003906v59.996094h50.75c-9.996094-31.546875-27.652344-59.773438-50.75-82.472656zm0 0" fill="#f4ba64"/><path d="m446.746094 442h-50.75v60h60c0-20.878906-3.242188-41.039062-9.25-60zm0 0" fill="#ff5a5a"/><path d="m89.539062 442h26.457032v-53.671875c-11.34375 16.3125-20.339844 34.367187-26.457032 53.671875zm0 0" fill="#f4ba64"/><path d="m93.65625 442c-6.007812 18.960938-9.25 39.121094-9.25 60h31.589844v-60zm0 0" fill="#ff5a5a"/></g><path d="m306.683594 382.003906c-6.886719 10.847656-17.15625 19.355469-29.292969 24.027344-6.652344 2.558594-13.867187 3.972656-21.394531 3.972656-20.402344 0-38.503906-10.324218-49.351563-26h-43.238281v78h232.589844v-80zm0 0" fill="#f4ba64"/><path d="m501.992188 492h-.234376c-5.519531 0-10 4.476562-10 10 0 5.519531 4.480469 9.996094 10 9.996094h.234376c5.523437 0 10-4.476563 10-9.996094 0-5.523438-4.476563-10-10-10zm0 0" fill="#000001"/><path d="m473.03125 492h-7.277344c-3.328125-70.003906-41.429687-133.558594-101.78125-169.90625 12.28125-18.355469 19.859375-39.714844 21.613282-62.09375h.410156c22.054687 0 40-17.941406 40-39.996094 0-18.605468-12.769532-34.285156-30-38.734375v-41.269531c0-77.195312-62.804688-140-140-140-77.195313 0-139.996094 62.804688-139.996094 140v41.269531c-17.234375 4.449219-30.003906 20.128907-30.003906 38.734375 0 22.054688 17.945312 39.996094 40.003906 39.996094h.402344c1.753906 22.375 9.335937 43.738281 21.617187 62.089844-60.351562 36.351562-98.453125 99.90625-101.777343 169.910156h-7.277344c-5.523438 0-10 4.476562-10 10 0 5.519531 4.476562 9.996094 10 9.996094h16.992187c.015625 0 .027344.003906.039063.003906.015625 0 .027344-.003906.039062-.003906h59.921875c.015625 0 .027344.003906.039063.003906.011718 0 .023437-.003906.039062-.003906h279.921875c.011719 0 .027344.003906.039063.003906.011718 0 .023437-.003906.039062-.003906h59.921875c.015625 0 .027344.003906.039063.003906.015625 0 .027344-.003906.039062-.003906h16.996094c5.519531 0 10-4.476563 10-9.996094 0-5.523438-4.480469-10-10-10zm-167.03125-141.996094c0 9.558594-2.703125 18.496094-7.375 26.101563-.273438.371093-.527344.753906-.746094 1.160156-8.933594 13.675781-24.363281 22.734375-41.882812 22.734375-17.515625 0-32.945313-9.058594-41.878906-22.734375-.21875-.40625-.476563-.792969-.75-1.164063-4.671876-7.601562-7.371094-16.539062-7.371094-26.101562v-40.171875c0-5.417969 4.410156-9.828125 9.828125-9.828125h80.347656c5.417969 0 9.828125 4.410156 9.828125 9.828125zm-50.003906 69.996094c22.851562 0 43.175781-11.007812 55.960937-27.996094h74.039063v59.996094h-260v-59.996094h74.039062c12.785156 16.988282 33.109375 27.996094 55.960938 27.996094zm176.59375 12h-26.59375v-46.398438c11.011718 14.140626 19.96875 29.757813 26.59375 46.398438zm-326.59375 0h-26.589844c6.625-16.636719 15.578125-32.257812 26.589844-46.394531zm20 40h260v20h-260zm280-20h33.285156c3.539062 12.929688 5.730469 26.324219 6.449219 40h-39.734375zm-20-88.3125v8.316406h-63.5625c1.300781-3.910156 2.265625-7.972656 2.859375-12.152344 9.757812-6.191406 18.539062-13.578124 26.199219-21.910156 12.585937 7.363282 24.132812 16.019532 34.503906 25.746094zm-250-183.6875v-30h240v30zm120-160c62.800781 0 114.480468 48.492188 119.578125 110h-239.15625c5.097656-61.507812 56.777343-110 119.578125-110zm-120 220h-9.996094c-11.03125 0-20.003906-8.96875-20.003906-19.996094 0-11.03125 8.972656-20.003906 20.003906-20.003906h259.996094c11.027344 0 20 8.972656 20 20.003906 0 11.027344-8.972656 19.996094-20 19.996094h-10c-5.523438 0-10 4.480469-10 10 0 32.839844-14.976563 63.890625-39.996094 84.660156v-24.828125c0-16.449219-13.382812-29.832031-29.828125-29.832031h-80.347656c-16.449219 0-29.828125 13.382812-29.828125 29.832031v24.832031c-25.023438-20.773437-40-51.824218-40-84.664062 0-5.519531-4.480469-10-10-10zm50.707031 119.851562c.589844 4.179688 1.558594 8.242188 2.855469 12.152344h-63.5625v-8.316406c10.367187-9.726562 21.917968-18.382812 34.503906-25.746094 7.660156 8.332032 16.441406 15.71875 26.203125 21.910156zm-113.992187 92.148438h33.285156v40h-39.734375c.71875-13.675781 2.910156-27.070312 6.449219-40zm0 0" fill="#000001"/><path d="m10.234375 492h-.234375c-5.523438 0-10 4.476562-10 10 0 5.519531 4.476562 9.996094 10 9.996094h.234375c5.519531 0 10-4.476563 10-9.996094 0-5.523438-4.480469-10-10-10zm0 0" fill="#000001"/><path d="m190.996094 244.023438c4.554687-2.628907 9.738281-4.019532 15-4.019532 5.257812 0 10.445312 1.390625 15 4.019532 1.574218.910156 3.292968 1.339843 4.988281 1.339843 3.457031 0 6.816406-1.792969 8.671875-5 2.761719-4.78125 1.121094-10.898437-3.660156-13.660156-7.589844-4.382813-16.234375-6.699219-25-6.699219s-17.414063 2.316406-25 6.699219c-4.78125 2.761719-6.421875 8.878906-3.660156 13.660156 2.761718 4.78125 8.875 6.421875 13.660156 3.660157zm0 0" fill="#000001"/><path d="m291 244.023438c4.550781-2.628907 9.734375-4.019532 14.996094-4.019532 5.261718 0 10.445312 1.390625 14.996094 4.019532 1.574218.910156 3.296874 1.339843 4.992187 1.339843 3.457031 0 6.816406-1.789062 8.667969-5 2.765625-4.78125 1.125-10.898437-3.65625-13.660156-7.585938-4.382813-16.230469-6.699219-25-6.699219-8.765625 0-17.410156 2.316406-25 6.699219-4.78125 2.761719-6.421875 8.878906-3.660156 13.660156 2.761718 4.78125 8.875 6.421875 13.664062 3.660157zm0 0" fill="#000001"/><path d="m270.996094 322.683594c-4.554688 2.628906-9.738282 4.019531-15 4.019531-5.257813 0-10.445313-1.390625-15-4.019531-4.785156-2.761719-10.898438-1.121094-13.660156 3.660156-2.761719 4.785156-1.121094 10.898438 3.660156 13.660156 7.589844 4.382813 16.234375 6.699219 25 6.699219s17.410156-2.316406 25-6.699219c4.785156-2.761718 6.421875-8.875 3.660156-13.660156-2.761719-4.78125-8.878906-6.421875-13.660156-3.660156zm0 0" fill="#000001"/><path d="m196.464844 82.5c2.351562 0 4.710937-.820312 6.609375-2.496094 9.214843-8.128906 20.355469-14.101562 32.214843-17.277344 5.335938-1.429687 8.503907-6.910156 7.074219-12.246093-1.429687-5.332031-6.902343-8.5-12.25-7.074219-14.824219 3.972656-28.75 11.441406-40.265625 21.597656-4.144531 3.652344-4.539062 9.96875-.886718 14.113282 1.976562 2.238281 4.734374 3.382812 7.503906 3.382812zm0 0" fill="#000001"/><path d="m173.113281 103.710938c1.5625.886718 3.257813 1.308593 4.933594 1.308593 3.476563 0 6.851563-1.816406 8.691406-5.058593 2.84375-4.734376 1.316407-10.878907-3.417969-13.722657-4.730468-2.847656-10.875-1.320312-13.722656 3.414063-.082031.136718-.160156.273437-.242187.414062-2.722657 4.804688-1.046875 10.921875 3.757812 13.644532zm0 0" fill="#000001"/></svg>