<svg height="512pt" viewBox="0 0 512 512" width="512pt" xmlns="http://www.w3.org/2000/svg"><path d="m397.242188 79.371094c-60.882813-12.636719-58.964844-60.628906-122.757813-68.320313-67.484375 21.945313-153.207031 101.191407-142.964844 126.425781 7.078125-4.195312 14.582031-7.65625 21.902344-10.4375 23.742187-9.015624 50.75-13.753906 76.980469-15.550781 4.335937-1.421875 51.195312 0 51.195312 0 26.226563 1.796875 53.238282 6.535157 76.980469 15.550781 17.714844 6.730469 36.5625 17.386719 47.648437 32.972657 4.066407-7.015625 8.054688-14.730469 11.222657-22.535157 10.242187-25.234374 11.914062-51.4375-20.207031-58.105468zm0 0" fill="#5f5148"/><path d="m256 50.621094c-16.570312 0-30 17.90625-30 40 0 7.648437 1.609375 14.789062 4.402344 20.867187 5.273437 11.476563 14.765625 19.132813 25.597656 19.132813s20.324219-7.65625 25.597656-19.132813c2.792969-6.074219 4.402344-13.21875 4.402344-20.867187 0-22.09375-13.429688-40-30-40zm0 0" fill="#f9d973" fill-rule="evenodd"/><path d="m316.035156 115.628906c-11.40625-2.011718-22.996094-3.359375-34.4375-4.140625-1.285156 2.796875-2.828125 5.363281-4.574218 7.652344 5.011718 5.007813 11.234374 7.980469 17.976562 7.980469 8.195312 0 15.617188-4.386719 21.035156-11.492188zm0 0" fill="#ff5a5a"/><path d="m358.578125 127.039062c-13.382813-5.082031-27.808594-8.804687-42.542969-11.410156-5.417968 7.105469-12.839844 11.492188-21.035156 11.492188-6.742188 0-12.964844-2.96875-17.976562-7.980469-5.414063 7.097656-12.832032 11.480469-21.023438 11.480469-10.390625 0-19.542969-7.058594-24.925781-17.769532-13.378907 2.554688-26.449219 6.050782-38.652344 10.6875-17.714844 6.730469-36.5625 17.386719-47.648437 32.972657 1.164062 2.011719 2.335937 3.960937 3.496093 5.84375 21.601563-12.121094 57.003907-20.402344 97.632813-21.585938 3.332031-.097656 6.699218-.148437 10.097656-.148437 71.796875 0 130 22.109375 130 49.382812 0 0 10.0625-12.585937 19.832031-29.316406.132813-.226562.265625-.449219.394531-.675781-11.085937-15.585938-29.933593-26.242188-47.648437-32.972657zm0 0" fill="#ff5a5a"/><path d="m284.25 141.792969c-58.210938 4.902343-101.75 24.621093-101.75 48.207031h203.5c0-23.585938-43.539062-43.304688-101.75-48.207031zm0 0" fill="#5f5148" fill-rule="evenodd"/><path d="m136 247.242188v-54.480469c-10.289062 4.753906-17.433594 15.160156-17.433594 27.238281 0 12.082031 7.144532 22.488281 17.433594 27.242188zm0 0" fill="#fcd0ac" fill-rule="evenodd"/><path d="m302.5 190.003906h-120v60c0 20.140625 5.035156 39.160156 13.902344 55.871094 1.84375-9.027344 9.871094-15.871094 19.425781-15.871094h80.34375c10.90625 0 19.828125 8.921875 19.828125 19.824219v40.175781c0 1.304688-.042969 2.601563-.128906 3.882813 12.808594-7.429688 24.140625-17.160157 33.414062-28.621094v-.015625c4.867188-6.011719 9.164063-12.5 12.8125-19.382812 8.867188-16.707032 13.902344-35.726563 13.902344-55.863282v-60zm0 0" fill="#fcd0ac"/><g fill-rule="evenodd"><path d="m376 190.003906v60h9.996094c16.570312 0 30-13.433594 30-30.003906 0-16.566406-13.429688-29.996094-30-29.996094zm0 0" fill="#fcd0ac"/><path d="m236.527344 309.828125v40.175781c0 1.304688.042968 2.601563.132812 3.886719 1.195313 18.597656 10.976563 34.957031 25.390625 45.140625 4.351563 3.074219 9.125 5.582031 14.210938 7.425781 5.089843-1.84375 9.863281-4.351562 14.210937-7.425781 14.421875-10.179688 24.199219-26.539062 25.398438-45.144531.085937-1.28125.128906-2.578125.128906-3.882813v-40.175781c0-10.902344-8.921875-19.824219-19.828125-19.824219h-39.816406c-10.90625 0-19.828125 8.921875-19.828125 19.824219zm0 0" fill="#f4ba64"/><path d="m221.519531 399.03125c-14.414062-10.183594-24.191406-26.542969-25.390625-45.140625-12.816406-7.4375-24.148437-17.171875-33.417968-28.640625l-1.71875 99.128906zm0 0" fill="#5f5148"/><path d="m315.871094 353.886719c-1.199219 18.605469-10.980469 34.964843-25.398438 45.144531l60.53125 25.347656-1.71875-99.113281c-9.273437 11.460937-20.605468 21.191406-33.414062 28.621094zm0 0" fill="#5f5148"/><path d="m396 359.519531v142.476563h60c0-55.628906-23.019531-106.132813-60-142.476563zm0 0" fill="#5f5148"/><path d="m84.476562 501.996094h31.519532v-107.40625c-19.929688 31.074218-31.519532 67.949218-31.519532 107.40625zm0 0" fill="#5f5148"/><path d="m256 501.992188v-91.988282c-4.289062 0-8.46875-.464844-12.507812-1.332031l-37.175782-3.273437-45.324218 18.980468v77.617188zm0 0" fill="#5f5148"/><path d="m160.992188 359.519531v64.859375l1.144531-65.960937c-.382813.367187-.765625.730469-1.144531 1.101562zm0 0" fill="#5f5148"/><path d="m349.285156 325.265625c.003906-.011719 0-.011719 0-.015625zm-93.285156 84.738281c12.804688 0 24.707031-4.066406 34.472656-10.972656l60.53125 25.347656-1.71875-99.113281c17.199219 9.132813 32.925782 20.710937 46.714844 34.257813v142.472656h-140zm0 0" fill="#5f5148"/></g><path d="m270.996094 322.6875c-4.550782 2.628906-9.734375 4.015625-14.996094 4.015625s-10.445312-1.386719-14.996094-4.015625c-4.785156-2.765625-10.898437-1.125-13.664062 3.65625-2.761719 4.78125-1.125 10.898438 3.660156 13.660156 7.585938 4.382813 16.230469 6.699219 25 6.699219s17.414062-2.316406 25-6.699219c4.78125-2.761718 6.421875-8.878906 3.65625-13.660156-2.761719-4.78125-8.878906-6.417969-13.660156-3.65625zm0 0" fill="#000001"/><path d="m10.234375 491.992188h-.234375c-5.523438 0-10 4.480468-10 10 0 5.523437 4.476562 10 10 10h.234375c5.523437 0 10-4.476563 10-10 0-5.519532-4.476563-10-10-10zm0 0" fill="#000001"/><path d="m473.03125 491.992188h-7.273438c-3.328124-69.996094-41.429687-133.550782-101.777343-169.902344 12.277343-18.355469 19.855469-39.714844 21.613281-62.085938h.402344c22.058594 0 40-17.945312 40-40.003906 0-15.96875-9.410156-29.777344-22.976563-36.183594 14.378907-20.664062 38.636719-61.445312 28.597657-89.316406-3.234376-8.980469-11.46875-20.589844-32.339844-24.921875-26.429688-5.484375-39.636719-18.230469-53.617188-31.722656-19.28125-18.613281-39.214844-37.855469-89.660156-37.855469s-70.382812 19.242188-89.660156 37.855469c-13.980469 13.492187-27.183594 26.238281-53.613282 31.722656-20.871093 4.332031-29.105468 15.941406-32.339843 24.921875-10.042969 27.871094 14.214843 68.652344 28.59375 89.316406-13.566407 6.40625-22.980469 20.214844-22.980469 36.183594 0 22.058594 17.945312 40.003906 40 40.003906h.40625c1.753906 22.371094 9.332031 43.730469 21.613281 62.085938-60.351562 36.351562-98.453125 99.902344-101.777343 169.902344h-7.277344c-5.523438 0-10 4.480468-10 10 0 5.523437 4.476562 10 10 10h16.992187c.015625 0 .027344.003906.039063.003906.015625 0 .027344-.003906.039062-.003906h59.921875c.015625 0 .027344.003906.039063.003906.015625 0 .027344-.003906.039062-.003906h279.925782c.011718 0 .023437.003906.039062.003906.011719 0 .023438-.003906.039062-.003906h59.921876c.011718 0 .023437.003906.039062.003906.011719 0 .023438-.003906.039062-.003906h16.992188c5.523438 0 10-4.476563 10-10 0-5.519532-4.476562-10-10-10zm-347.035156-128.304688c8.105468-7.605469 16.929687-14.554688 26.40625-20.742188l-1.40625 81.261719c-.058594 3.375 1.589844 6.554688 4.386718 8.449219 1.679688 1.140625 3.640626 1.722656 5.609376 1.722656 1.308593 0 2.621093-.253906 3.863281-.773437l55.644531-23.304688c7.683594 4.542969 16.304688 7.65625 25.5 8.976563v72.71875h-120.003906zm60.710937-3.835938c1.933594 13.667969 7.828125 26.066407 16.480469 36.015626l-31.929688 13.371093 1.039063-59.984375c4.527344 3.832032 9.335937 7.378906 14.410156 10.597656zm152.992188-10.59375 1.039062 59.980469-31.925781-13.367187c8.652344-9.953125 14.550781-22.351563 16.480469-36.019532 5.074219-3.21875 9.882812-6.761718 14.40625-10.59375zm-33.699219.746094c0 16.640625-8.179688 31.402344-20.722656 40.496094-.425782.257812-.832032.542969-1.214844.863281-8.007812 5.449219-17.667969 8.640625-28.0625 8.640625-10.410156 0-20.085938-3.199218-28.097656-8.664062-.363282-.300782-.75-.570313-1.148438-.816406-12.558594-9.09375-20.753906-23.863282-20.753906-40.519532v-40.175781c0-5.417969 4.40625-9.824219 9.824219-9.824219h80.347656c5.417969 0 9.828125 4.40625 9.828125 9.824219zm-40 69.273438c9.195312-1.320313 17.808594-4.433594 25.496094-8.976563l55.644531 23.300781c1.242187.523438 2.554687.777344 3.863281.777344 1.972656 0 3.929688-.582031 5.609375-1.722656 2.796875-1.894531 4.445313-5.074219 4.386719-8.449219l-1.40625-81.261719c9.476562 6.1875 18.300781 13.136719 26.40625 20.738282v128.308594h-120zm140-33.675782c23.523438 30.203126 37.671875 67.160157 39.734375 106.394532h-39.734375zm-80-50.9375v-24.835937c0-16.445313-13.378906-29.824219-29.828125-29.824219h-80.34375c-16.449219 0-29.828125 13.378906-29.828125 29.824219v24.839844c-25.027344-20.777344-40-51.828125-40-84.664063v-50h220v50c0 32.832032-14.976562 63.882813-40 84.660156zm-185.054688-154.660156c13.675782-14.421875 55.003907-29.382812 115.054688-29.382812s101.378906 14.960937 115.054688 29.382812zm210.53125-34.265625c-20.070312-7.625-45.191406-12.554687-72.363281-14.347656 3.007813-2.675781 5.710938-5.851563 8.027344-9.4375 25.386719 2.210937 48.75 7.164063 67.886719 14.433594 12.234375 4.648437 28.265625 12.523437 39.089844 24.519531-1.867188 3.042969-3.773438 6.003906-5.683594 8.835938-7.332032-9.304688-19.855469-17.507813-36.957032-24.003907zm-95.476562-25.117187c-10.839844 0-20-13.742188-20-30 0-16.261719 9.160156-30 20-30 10.84375 0 20 13.738281 20 30 0 16.257812-9.15625 30-20 30zm-23.113281 10.769531c-27.167969 1.792969-52.292969 6.722656-72.359375 14.347656-17.105469 6.496094-29.628906 14.699219-36.960938 24-1.910156-2.828125-3.816406-5.789062-5.683594-8.832031 10.828126-11.996094 26.859376-19.871094 39.089844-24.519531 19.136719-7.269531 42.5-12.222657 67.886719-14.433594 2.316406 3.585937 5.019531 6.761719 8.027344 9.4375zm153.113281 108.613281v-40c11.027344 0 19.996094 8.972656 19.996094 19.996094 0 11.03125-8.96875 20-19.996094 20.003906zm-286.796875-138.734375c.816406-2.261719 3.296875-9.144531 17.585937-12.109375 32.09375-6.660156 48.746094-22.734375 63.441407-36.917968 17.921875-17.300782 33.402343-32.242188 75.769531-32.242188s57.847656 14.941406 75.769531 32.242188c14.695313 14.183593 31.351563 30.257812 63.441407 36.917968 14.289062 2.964844 16.769531 9.847656 17.585937 12.109375 3.609375 10-.988281 25.628907-8.625 41.394531-12.960937-12.15625-29.292969-20.128906-42.042969-24.972656-19.609375-7.449218-42.203125-12.507812-67.296875-15.097656.757813-3.839844 1.167969-7.847656 1.167969-11.976562 0-27.566407-17.941406-49.996094-40-49.996094-22.054688 0-40 22.429687-40 49.996094 0 4.128906.410156 8.136718 1.167969 11.976562-25.09375 2.589844-47.6875 7.648438-67.296875 15.097656-12.746094 4.84375-29.082032 12.816406-42.042969 24.972656-7.636719-15.765624-12.230469-31.394531-8.625-41.394531zm6.796875 118.730469c0-11.027344 8.972656-19.996094 20-19.996094v40c-11.027344 0-20-8.972656-20-20.003906zm-.003906 165.601562v106.390626h-39.734375c2.0625-39.230469 16.210937-76.1875 39.734375-106.390626zm0 0" fill="#000001"/><path d="m502 491.992188h-.234375c-5.523437 0-10 4.480468-10 10 0 5.523437 4.476563 10 10 10h.234375c5.523438 0 10-4.476563 10-10 0-5.519532-4.476562-10-10-10zm0 0" fill="#000001"/><path d="m291.851562 439.855469h-.234374c-5.523438 0-10 4.476562-10 10 0 5.523437 4.476562 10 10 10h.234374c5.523438 0 10-4.476563 10-10 0-5.523438-4.476562-10-10-10zm0 0" fill="#000001"/><path d="m226 225.363281h-40c-5.523438 0-10 4.476563-10 10 0 5.523438 4.476562 10 10 10h10.007812c.109376 5.425781 4.535157 9.792969 9.988282 9.792969s9.878906-4.367188 9.992187-9.792969h10.011719c5.523438 0 10-4.476562 10-10 0-5.523437-4.480469-10-10-10zm0 0" fill="#000001"/><path d="m326 225.363281h-40c-5.523438 0-10 4.476563-10 10 0 5.523438 4.476562 10 10 10h10.011719c.109375 5.425781 4.535156 9.792969 9.988281 9.792969s9.878906-4.367188 9.988281-9.792969h10.011719c5.519531 0 10-4.476562 10-10 0-5.523437-4.480469-10-10-10zm0 0" fill="#000001"/></svg>