<svg height="512pt" viewBox="0 0 512 512" width="512pt" xmlns="http://www.w3.org/2000/svg"><path d="m413.191406 140.066406c-1.160156 1.632813-2.589844 3.105469-4.269531 4.371094 1.710937 1.210938 3.546875 2.109375 5.445313 2.71875-.34375-2.378906-.734376-4.742188-1.175782-7.089844zm0 0" fill="#5f5148"/><path d="m414.367188 147.15625c-1.898438-.609375-3.734376-1.507812-5.445313-2.71875-.097656.074219-.1875.152344-.285156.226562-8.9375 6.492188-21.441407 4.511719-27.9375-4.425781-1.125-1.550781-1.996094-3.210937-2.621094-4.929687-.613281 1.585937-1.4375 3.121094-2.484375 4.5625-6.492188 8.9375-19 10.914062-27.9375 4.421875-8.9375-6.492188-10.914062-19-4.421875-27.933594 1.128906-1.554687 2.4375-2.894531 3.875-4.019531-1.695313-.09375-3.410156-.402344-5.101563-.953125-10.503906-3.414063-16.253906-14.695313-12.839843-25.199219 3.414062-10.507812 14.695312-16.257812 25.199219-12.84375 1.824218.59375 3.503906 1.425781 5.019531 2.445312-.4375-1.644531-.671875-3.367187-.671875-5.148437 0-6.578125 3.183594-12.417969 8.082031-16.0625-21.765625-20.902344-49.441406-35.703125-80.265625-41.660156-73.769531 14.246093-129.484375 79.152343-129.484375 157.078125v.589844c21.910156-4.320313 51.027344-18.199219 71.453125-58.710938 0 0 4.644531 20.609375 16.535156 48.863281 18.683594 44.40625 55.261719 107.691407 119.847656 139.558594-.742187 1.53125-2.566406 5.25-3.371093 6.738281-3.5 6.472656-7.570313 12.578125-12.152344 18.257813 17.171875 9.136719 32.871094 20.703125 46.640625 34.230469 7.21875 7.097656 13.90625 14.734374 19.996094 22.839843v-212.269531l.003906-.09375c-.003906-7.757812-.5625-15.382812-1.632812-22.84375zm0 0" fill="#5f5148"/><path d="m157.046875 317.667969v10.722656c1.871094-1.070313 3.753906-2.117187 5.660156-3.132813-1.984375-2.449218-3.871093-4.984374-5.660156-7.589843zm0 0" fill="#5f5148"/><path d="m349.210938 325.476562.070312-.222656c.027344.015625.050781.027344.078125.042969 4.578125-5.679687 8.652344-11.789063 12.152344-18.257813.804687-1.492187 2.628906-5.207031 3.371093-6.738281-67.421874-33.265625-104.320312-100.769531-122.207031-145.292969-14.085937-63.894531-44.664062 5.21875-57.035156 4.792969v90.199219c0 28.433594 10.023437 54.640625 26.710937 75.253906 17.0625 21.09375 41.101563 36.335938 68.519532 42.148438 27.367187-5.78125 51.328125-20.90625 68.339844-41.925782zm0 0" fill="#fcd0ac"/><path d="m255.996094 370c-37.5625 0-71.242188-17.5-93.285156-44.746094l33.902343 94.753906zm0 0" fill="#ff5a5a" fill-rule="evenodd"/><path d="m256 370 59.386719 50.007812 33.824219-94.53125c-22.003907 27.1875-55.625 44.523438-93.210938 44.523438zm0 0" fill="#ff5a5a" fill-rule="evenodd"/><path d="m349.210938 325.476562-33.824219 94.53125-59.386719-50.007812v131.996094l139.996094.003906v-142.476562c-13.765625-13.523438-29.46875-25.09375-46.636719-34.226563-.046875.0625-.097656.121094-.148437.179687zm0 0" fill="#f4ba64" fill-rule="evenodd"/><path d="m395.996094 359.523438v142.476562h60c0-44.765625-14.90625-86.214844-40-119.636719-6.089844-8.105469-12.777344-15.738281-20-22.839843zm0 0" fill="#ff5a5a" fill-rule="evenodd"/><path d="m256 372.074219-23.492188 17.707031-35.894531 30.226562-24.683593-68.988281c-3.160157 2.738281-6.242188-12.40625-9.222657-9.476562v160.453125h93.292969zm0 0" fill="#f4ba64"/><path d="m85.996094 502h30v-105c-18.996094 30.566406-30 66.558594-30 105zm0 0" fill="#ff5a5a" fill-rule="evenodd"/><path d="m427.828125 86.785156c-3.410156-10.503906-14.695313-16.253906-25.199219-12.839844-1.691406.550782-3.257812 1.304688-4.6875 2.226563.503906-1.757813.773438-3.609375.773438-5.53125 0-6.34375-2.960938-11.984375-7.570313-15.648437-31.425781 27.84375-27.640625 82.140624-19.292969 88.761718 1.382813-1.097656 2.652344-2.386718 3.742188-3.886718 1.046875-1.4375 1.871094-2.972657 2.484375-4.558594.625 1.714844 1.496094 3.378906 2.621094 4.929687 2.425781 3.335938 5.6875 5.699219 9.289062 7.019531 4.0625-1.210937 7.78125-3.695312 10.464844-7.386718 1.046875-1.441406 1.871094-2.976563 2.484375-4.5625.625 1.71875 1.496094 3.378906 2.621094 4.929687 1.089844 1.5 2.359375 2.785157 3.742187 3.886719 8.347657-6.625 10.082031-18.695312 3.757813-27.394531-1.046875-1.441407-2.25-2.699219-3.570313-3.773438 1.824219-.066406 3.675781-.378906 5.5-.972656 10.507813-3.410156 16.257813-14.695313 12.839844-25.199219zm0 0" fill="#ff5a5a" fill-rule="evenodd"/><g fill="#000001"><path d="m218.496094 250c0 6.90625-5.597656 12.503906-12.5 12.503906s-12.5-5.597656-12.5-12.503906c0-6.902344 5.597656-12.5 12.5-12.5s12.5 5.597656 12.5 12.5zm0 0"/><path d="m198.234375 221.023438c5.054687-1.355469 10.464844-1.355469 15.523437 0 .867188.234374 1.738282.34375 2.597657.34375 4.414062 0 8.453125-2.945313 9.652343-7.410157 1.429688-5.335937-1.734374-10.820312-7.070312-12.25-8.433594-2.265625-17.453125-2.261719-25.886719 0-5.332031 1.429688-8.496093 6.914063-7.066406 12.25 1.429687 5.332031 6.917969 8.496094 12.25 7.066407zm0 0"/><path d="m230.996094 312.324219c7.589844 4.386719 16.234375 6.703125 25 6.703125s17.410156-2.316406 25-6.703125c4.78125-2.761719 6.417968-8.878907 3.65625-13.660157-2.761719-4.78125-8.878906-6.417968-13.660156-3.65625-4.554688 2.628907-9.738282 4.019532-14.996094 4.019532-5.257813 0-10.441406-1.390625-14.996094-4.019532-4.78125-2.765624-10.898438-1.128906-13.660156 3.65625-2.765625 4.78125-1.125 10.898438 3.65625 13.660157zm0 0"/><path d="m355.078125 258.363281.355469.269531c1.808594 1.375 3.9375 2.039063 6.046875 2.039063 3.015625 0 6-1.359375 7.96875-3.949219 3.339843-4.394531 2.484375-10.667968-1.910157-14.011718l-.363281-.277344c-4.398437-3.335938-10.671875-2.480469-14.011719 1.917968-3.339843 4.398438-2.484374 10.671876 1.914063 14.011719zm0 0"/><path d="m332.242188 238.542969c1.949218 1.921875 4.484374 2.878906 7.019531 2.878906 2.582031 0 5.164062-.992187 7.121093-2.976563 3.878907-3.933593 3.835938-10.265624-.097656-14.144531-8.976562-8.855469-17.589844-18.839843-25.589844-29.679687-3.28125-4.445313-9.542968-5.386719-13.984374-2.109375-4.441407 3.28125-5.386719 9.542969-2.105469 13.984375 8.621093 11.679687 17.917969 22.460937 27.636719 32.046875zm0 0"/><path d="m10.234375 491.996094h-.234375c-5.523438 0-10 4.476562-10 10 0 5.523437 4.476562 10 10 10h.234375c5.519531 0 10-4.476563 10-10 0-5.523438-4.480469-10-10-10zm0 0"/><path d="m473.03125 491.996094h-7.277344c-1.964844-41.375-16.078125-80.496094-39.757812-113.082032v-208.714843c0-.066407 0-.132813 0-.199219 0-9.363281-.777344-18.769531-2.3125-28.019531 1.375-2.734375 2.335937-5.695313 2.828125-8.804688.8125-5.121093.300781-10.25-1.4375-14.984375 4.417969-2.839844 8.019531-6.804687 10.46875-11.605468 3.636719-7.140626 4.273437-15.269532 1.800781-22.890626-4.03125-12.402343-15.492188-20.734374-28.527344-20.734374-.363281 0-.726562.007812-1.089844.019531-3.394531-12.839844-15.113281-22.335938-29.007812-22.335938-3.621094 0-7.089844.660157-10.308594 1.84375-31.078125-27.449219-70.714844-42.488281-112.410156-42.488281-93.734375 0-169.996094 76.261719-169.996094 170.09375v208.8125c-23.683594 32.585938-37.796875 71.710938-39.765625 113.089844h-7.273437c-5.523438 0-10 4.476562-10 10 0 5.523437 4.476562 10 10 10h16.953125c.027343 0 .054687.003906.078125.003906.027344 0 .050781-.003906.078125-.003906h59.84375c.027343 0 .050781.003906.078125.003906s.050781-.003906.078125-.003906h279.847656c.023437 0 .050781.003906.074219.003906.027344 0 .054687-.003906.078125-.003906h59.847656c.023437 0 .050781.003906.074219.003906.027344 0 .054687-.003906.078125-.003906h16.957031c5.523438 0 10-4.476563 10-10 0-5.523438-4.476562-10-10-10zm-347.035156-128.304688c9.488281-8.902344 19.960937-16.902344 31.316406-23.839844l29.886719 83.527344c1.105469 3.082032 3.648437 5.429688 6.8125 6.285156.859375.230469 1.734375.34375 2.601562.34375 2.332031 0 4.617188-.8125 6.441407-2.347656l42.945312-36.164062v100.5h-120.003906zm20.003906-181.578125c5.980469-.410156 12.882812-1.398437 20.285156-3.429687 17.164063-4.707032 39.914063-15.890625 58.949219-42.160156 5.121094 15.457031 13.566406 37.414062 26.386719 61.132812 26.074218 48.214844 60.230468 84.636719 99.851562 106.832031-2.722656 4.769531-5.761718 9.296875-9.097656 13.539063-.132812.128906-.257812.261718-.386719.398437-.042969.046875-.082031.089844-.125.136719-.171875.191406-.339843.390625-.5.601562-.042969.058594-.085937.113282-.128906.171876-.144531.195312-.28125.394531-.410156.601562-20.660157 25.101562-51.609375 40.0625-84.828125 40.0625-34.0625 0-64.558594-15.566406-84.75-39.957031-.042969-.070313-.09375-.132813-.136719-.203125-.074219-.117188-.152344-.230469-.230469-.34375-.113281-.15625-.226562-.308594-.34375-.457032-.09375-.117187-.1875-.226562-.28125-.339843-.113281-.132813-.230468-.261719-.355468-.386719-.089844-.09375-.179688-.1875-.273438-.277344-14.789062-18.734375-23.625-42.371094-23.625-68.035156zm180.53125 177.0625-15.710938 43.914063-30.222656-25.453125c16.472656-3.171875 32.050782-9.472657 45.933594-18.460938zm-95.140625 18.476563-30.207031 25.4375-15.726563-43.945313c13.75 8.917969 29.28125 15.304688 45.933594 18.507813zm34.609375 13.84375 42.945312 36.164062c1.824219 1.535156 4.113282 2.347656 6.441407 2.347656.871093 0 1.746093-.113281 2.605469-.34375 3.164062-.855468 5.707031-3.203124 6.808593-6.285156l29.890625-83.523437c11.351563 6.933593 21.820313 14.9375 31.308594 23.835937v128.304688h-120zm139.996094-5.890625c.453125.578125.898437 1.164062 1.34375 1.75.402344.699219.886718 1.347656 1.445312 1.925781 21.851563 29.503906 34.96875 65.0625 36.949219 102.714844h-39.738281zm-17.28125-314.960938c0 .941407-.128906 1.875-.386719 2.765625-1.148437 4.003906.304687 8.304688 3.648437 10.789063 3.347657 2.484375 7.882813 2.636719 11.386719.375.730469-.46875 1.523438-.847657 2.359375-1.121094 1.007813-.328125 2.050782-.492187 3.089844-.492187 4.34375 0 8.164062 2.777343 9.507812 6.914062.824219 2.542969.613282 5.25-.601562 7.628906-1.210938 2.378906-3.277344 4.148438-5.8125 4.96875-.902344.292969-1.828125.457032-2.761719.488282-4.164062.144531-7.804687 2.855468-9.132812 6.804687s-.066407 8.3125 3.160156 10.941406c.679687.554688 1.285156 1.191407 1.800781 1.902344 1.570313 2.160156 2.203125 4.800781 1.785156 7.4375-.417968 2.636719-1.835937 4.957031-4 6.527344-1.722656 1.25-3.746093 1.910156-5.859374 1.910156-3.246094.003906-6.203126-1.5-8.109376-4.125-.550781-.761719-.996093-1.589844-1.3125-2.46875-1.425781-3.917969-5.132812-6.539063-9.300781-6.582031-.035156 0-.066406 0-.097656 0-4.132813 0-7.839844 2.539062-9.332031 6.398437-.308594.808594-.730469 1.578125-1.242188 2.285157-1.90625 2.621093-4.859375 4.125-8.105468 4.125-2.113282 0-4.140626-.660157-5.863282-1.910157-2.160156-1.574219-3.582031-3.890625-4-6.527343-.417968-2.636719.21875-5.28125 1.792969-7.445313.554687-.761719 1.207031-1.441406 1.9375-2.011719 3.285156-2.566406 4.636719-6.898437 3.386719-10.875-1.246094-3.976562-4.828125-6.761718-8.988282-6.992187-.871093-.046875-1.734374-.207031-2.566406-.480469-2.539062-.824219-4.605468-2.589844-5.820312-4.96875-1.210938-2.378906-1.425782-5.085938-.597656-7.628906 1.34375-4.136719 5.164062-6.914063 9.503906-6.914063 1.042968 0 2.085937.164063 3.097656.496094.894531.289063 1.738281.699219 2.515625 1.222656 3.453125 2.328125 7.992187 2.273438 11.386719-.140625 3.394531-2.417968 4.9375-6.683594 3.871094-10.710937-.222657-.839844-.335938-1.710938-.335938-2.585938 0-5.515625 4.484375-10 10-10 5.511719 0 9.996094 4.484375 9.996094 10zm-282.710938 99.355469c0-82.710938 67.289063-150 149.996094-150 35.757812 0 69.792969 12.535156 96.855469 35.472656-1.273438 2.15625-2.289063 4.480469-2.988281 6.9375-.5625-.035156-1.121094-.046875-1.683594-.046875-13.03125 0-24.496094 8.332031-28.527344 20.734375-2.476562 7.621094-1.835938 15.75 1.800781 22.890625 2.355469 4.621094 5.785157 8.46875 9.976563 11.277344-1.90625 4.890625-2.492188 10.21875-1.648438 15.539063 1.25 7.914062 5.511719 14.867187 11.996094 19.578124 5.160156 3.75 11.253906 5.734376 17.617188 5.734376 6.769531 0 13.292968-2.3125 18.519531-6.398438 5.304687 4.316406 12.011719 6.765625 18.980469 6.765625 2.933593 0 5.796874-.4375 8.546874-1.257813.359376 4.21875.550782 8.449219.554688 12.671876-.003906.066406-.003906.128906-.003906.195312v185.175781c-12.363282-12.605469-26.414063-23.765625-41.9375-33.125 1.886718-2.828125 3.671875-5.746093 5.347656-8.746093 2.980469 1.296874 5.984375 2.523437 9.019531 3.667968 1.160157.4375 2.355469.644532 3.527344.644532 4.039063 0 7.847656-2.46875 9.355469-6.476563 1.949218-5.167969-.660156-10.9375-5.828125-12.882813-58.65625-22.113281-95.460938-71.878906-116.007813-109.734374-22.617187-41.671876-31.132812-78.578126-31.214844-78.941407-.929687-4.117187-4.34375-7.210937-8.53125-7.726562s-8.253906 1.652343-10.15625 5.421875c-25.460937 50.5-64.914062 55.523437-82.375 55.03125-.390624-.046875-.789062-.078125-1.195312-.078125-.121094 0-.238281.015625-.355469.019531-4.101562-.203125-6.699219-.683594-7.191406-.78125-5.394531-1.105469-10.667969 2.355469-11.796875 7.746094-1.132812 5.40625 2.332031 10.703125 7.738281 11.835937.121094.027344.671875.140625 1.605469.285157v68.566406c0 26.679687 8.082031 51.5 21.917969 72.15625-15.515625 9.355468-29.558594 20.507812-41.914063 33.109375zm-2.816406 219.3125c.578125-.597656 1.078125-1.265625 1.492188-1.992188.4375-.574218.875-1.148437 1.316406-1.714843v106.390625h-39.734375c1.980469-37.640625 15.085937-73.1875 36.925781-102.683594zm0 0"/><path d="m501.996094 491.996094h-.234375c-5.523438 0-10 4.476562-10 10 0 5.523437 4.476562 10 10 10h.234375c5.523437 0 10-4.476563 10-10 0-5.523438-4.476563-10-10-10zm0 0"/><path d="m291.851562 439.859375h-.238281c-5.519531 0-10 4.476563-10 10s4.480469 10 10 10h.238281c5.519532 0 10-4.476563 10-10s-4.480468-10-10-10zm0 0"/></g></svg>