<svg height="511.999pt" viewBox="1 1 511.999 511.999" width="511.999pt" xmlns="http://www.w3.org/2000/svg"><path d="m360.996094 10h-147.492188c-10.996094 0-19.089844 9.039062-20 20l-5 60.003906h197.492188l-5-60.003906c-.914063-10.964844-9.003906-20-20-20zm0 0" fill="#0586ad" fill-rule="evenodd"/><path d="m228.503906 90.003906h-40l-2.5 29.996094h202.492188l-2.5-29.996094zm0 0" fill="#7aeae7" fill-rule="evenodd"/><path d="m456 134.996094c0-8.246094-6.753906-14.996094-15-14.996094h-265.035156c-8.246094 0-15 6.75-15 14.996094 0 8.253906 6.753906 15.003906 15 15.003906h265.035156c8.246094 0 15-6.75 15-15.003906zm0 0" fill="#0586ad" fill-rule="evenodd"/><path d="m126 190.003906c22.09375 0 40-17.910156 40-40.003906h-40zm0 0" fill="#c99e81" fill-rule="evenodd"/><path d="m345.996094 150c0 22.09375 17.910156 40.003906 40 40.003906v-40.003906zm0 0" fill="#c99e81" fill-rule="evenodd"/><path d="m385.996094 190.003906c-22.089844 0-40-17.910156-40-40.003906h-137.214844c-42.777344 65.679688-23.703125 143.664062-12.78125 161.726562v-1.898437c0-10.902344 8.921875-19.824219 19.824219-19.824219h80.347656c10.90625 0 19.828125 8.921875 19.828125 19.824219v40.171875c0 1.308594-.042969 2.605469-.128906 3.886719 12.8125-7.433594 24.144531-17.167969 33.414062-28.632813 3.464844-4.28125 6.636719-8.804687 9.496094-13.535156 10.917969-18.058594 17.214844-39.1875 17.214844-61.714844h10c16.570312 0 30.003906-13.433594 30.003906-30.003906 0-16.566406-13.433594-29.996094-30.003906-29.996094zm0 0" fill="#fcd0ac"/><path d="m234.597656 309.828125v40.171875c0 1.308594.042969 2.605469.128906 3.886719 1.082032 16.765625 9.132813 31.714843 21.269532 41.953125 5.644531 4.769531 12.179687 8.503906 19.300781 10.945312 7.121094-2.441406 13.652344-6.175781 19.296875-10.941406 12.140625-10.242188 20.195312-25.1875 21.277344-41.957031.085937-1.285157.128906-2.582031.128906-3.886719v-40.171875c0-10.902344-8.921875-19.828125-19.828125-19.828125h-41.75c-10.902344 0-19.824219 8.925781-19.824219 19.828125zm0 0" fill="#c99e81" fill-rule="evenodd"/><path d="m294.597656 395.847656c-10.453125 8.824219-23.933594 14.152344-38.597656 14.152344-14.667969 0-28.148438-5.332031-38.601562-14.160156l38.597656 106.15625zm0 0" fill="#f9d973" fill-rule="evenodd"/><path d="m255.996094 501.996094-38.597656-106.15625c-12.136719-10.238282-20.1875-25.1875-21.269532-41.953125-12.816406-7.429688-24.148437-17.167969-33.417968-28.632813l19.117187 96.375-26.25 28.128906 69.996094 52.238282zm0 0" fill="#0586ad" fill-rule="evenodd"/><path d="m294.597656 395.847656-38.601562 106.148438h30.421875l70-52.238282-26.25-28.128906 19.125-96.371094c-9.277344 11.457032-20.609375 21.195313-33.421875 28.628907-1.082032 16.769531-9.132813 31.714843-21.273438 41.960937zm0 0" fill="#0586ad" fill-rule="evenodd"/><path d="m153.328125 501.996094h72.25l-70-52.238282 26.25-28.128906-14.761719-74.425781c-8.777344-17.320313-8.777344-13.179687-13.738281-21.945313zm0 0" fill="#0586ad" fill-rule="evenodd"/><path d="m86 501.996094h30v-105.003906c-19 30.566406-30 66.5625-30 105.003906zm0 0" fill="#0586ad" fill-rule="evenodd"/><path d="m330.167969 421.628906 26.25 28.128906-70 52.238282h109.582031v-142.472656c-13.789062-13.546876-29.515625-25.128907-46.707031-34.265626zm0 0" fill="#0586ad" fill-rule="evenodd"/><path d="m396 359.523438v142.472656h60c0-55.625-23.019531-106.128906-60-142.472656zm0 0" fill="#0586ad" fill-rule="evenodd"/><g fill="#000001"><path d="m10.234375 491.996094h-.234375c-5.523438 0-10 4.476562-10 10 0 5.523437 4.476562 10 10 10h.234375c5.523437 0 10-4.476563 10-10 0-5.523438-4.476563-10-10-10zm0 0"/><path d="m502 491.996094h-.238281c-5.523438 0-10 4.476562-10 10 0 5.523437 4.476562 10 10 10h.238281c5.523438 0 10-4.476563 10-10 0-5.523438-4.476562-10-10-10zm0 0"/><path d="m473.03125 491.996094h-7.277344c-3.324218-70-41.425781-133.554688-101.777344-169.90625 12.28125-18.351563 19.859376-39.714844 21.613282-62.085938h.40625c22.058594 0 40.003906-17.945312 40.003906-40.003906 0-18.601562-12.769531-34.28125-30.003906-38.730469v-21.269531h45.003906c13.785156 0 25-11.214844 25-25s-11.214844-25-25-25h-43.300781l-6.738281-80.832031c-1.382813-16.628907-14.265626-29.167969-29.964844-29.167969h-209.996094c-15.699219 0-28.582031 12.539062-29.964844 29.167969l-6.734375 80.832031h-43.300781c-13.785156 0-25.003906 11.210938-25.003906 24.996094 0 13.789062 11.21875 25.003906 25.003906 25.003906h45v21.265625c-17.230469 4.453125-30 20.128906-30 38.734375 0 22.058594 17.945312 40 40 40h.40625c1.753906 22.375 9.332031 43.734375 21.613281 62.089844-60.351562 36.351562-98.449219 99.902344-101.777343 169.90625h-7.273438c-5.523438 0-10 4.476562-10 10 0 5.523437 4.476562 10 10 10h16.992188.035156.039062 59.925782.039062.039062 109.519532.011718.007813 30.347656.039063c.011718 0 .023437.003906.03125.003906h.003906c.011719 0 .023438-.003906.035156-.003906h.039063 30.34375.011719.011718 109.519532.039062.039062 59.921876.039062.039062 16.992188c5.523438 0 10-4.476563 10-10 0-5.523438-4.476562-10-10-10zm-202.757812 0 32.816406-90.246094c11.773437-10.71875 19.867187-25.394531 22.203125-41.898438 2.757812-1.75 5.433593-3.597656 8.03125-5.53125l-12.964844 65.363282c-.625 3.15625.304687 6.417968 2.5 8.769531l18.632813 19.96875-58.394532 43.578125h-12.824218zm-41.375 0-58.394532-43.578125 18.636719-19.964844c2.191406-2.351563 3.121094-5.613281 2.496094-8.769531l-12.964844-65.371094c2.597656 1.9375 5.277344 3.789062 8.035156 5.539062 2.335938 16.5 10.429688 31.171876 22.195313 41.890626l32.820312 90.253906zm-102.898438-128.308594c9.015625-8.457031 18.914062-16.105469 29.617188-22.792969l15.402343 77.65625-22.753906 24.382813c-1.9375 2.082031-2.902344 4.886718-2.648437 7.71875.253906 2.828125 1.699218 5.417968 3.980468 7.121094l45.859375 34.226562h-69.457031zm180-13.6875c0 15.046875-6.691406 28.550781-17.238281 37.726562-.417969.300782-.8125.640626-1.179688 1.003907-8.617187 7.039062-19.613281 11.269531-31.582031 11.269531-11.972656 0-22.972656-4.230469-31.589844-11.277344-.367187-.359375-.753906-.699218-1.171875-.996094-10.550781-9.175781-17.238281-22.679687-17.238281-37.726562v-40.171875c0-5.417969 4.40625-9.828125 9.824219-9.828125h80.347656c5.421875 0 9.828125 4.410156 9.828125 9.828125zm-29.734375 67-20.269531 55.730469-20.261719-55.730469c6.417969 1.945312 13.21875 3 20.265625 3s13.847656-1.054688 20.265625-3zm86.132813 40.769531c2.277343-1.699219 3.726562-4.289062 3.980468-7.121093.253906-2.832032-.710937-5.636719-2.648437-7.714844l-22.753907-24.382813 15.402344-77.660156c10.703125 6.691406 20.605469 14.339844 29.621094 22.796875v128.308594h-69.460938zm43.601562-72.167969c23.523438 30.207032 37.671875 67.164063 39.734375 106.394532h-39.734375zm-30.003906-207.320312c-8.507813-3.019531-15.261719-9.769531-18.277344-18.28125h18.277344zm-224.996094-158.28125h209.996094c5.996094 0 9.585937 5.449219 10.035156 10.828125l4.097656 49.175781h-199.125v-11.113281c0-5.523437-4.476562-10-10-10-5.523437 0-10 4.476563-10 10v11.113281h-19.136718l4.097656-49.175781c.449218-5.382813 4.039062-10.828125 10.035156-10.828125zm-15.796875 80.003906h241.59375l.832031 9.996094h-243.261718zm-69.207031 34.992188c0-2.707032 2.292968-4.996094 5.003906-4.996094h370c2.710938 0 5 2.289062 5 4.996094 0 2.710937-2.289062 5.003906-5 5.003906h-370c-2.710938 0-5.003906-2.289062-5.003906-5.003906zm88.285156 25.003906c-3.019531 8.511719-9.769531 15.265625-18.28125 18.28125v-18.28125zm-18.28125 80h-10c-11.027344 0-20-8.972656-20-20s8.972656-20 20-20c24.144531 0 44.351562-17.203125 48.996094-40h162.007812c4.644532 22.796875 24.847656 40 48.992188 40 11.03125 0 20.003906 8.972656 20.003906 20s-8.972656 20-20.003906 20h-10c-5.519532 0-10 4.476562-10 10 0 32.839844-14.972656 63.886719-39.996094 84.660156v-24.832031c0-16.445313-13.378906-29.828125-29.828125-29.828125h-80.347656c-16.445313 0-29.824219 13.382812-29.824219 29.828125v24.835937c-25.027344-20.773437-40-51.824218-40-84.664062 0-5.519531-4.476562-10-10-10zm-30 145.601562v106.394532h-39.738281c2.0625-39.234375 16.210937-76.191406 39.738281-106.394532zm0 0"/><path d="m306 237.5c-6.886719 0-12.5 5.617188-12.5 12.5 0 6.886719 5.613281 12.503906 12.5 12.503906s12.5-5.617187 12.5-12.503906c0-6.882812-5.613281-12.5-12.5-12.5zm0 0"/><path d="m206 237.5c-6.886719 0-12.5 5.617188-12.5 12.5 0 6.886719 5.613281 12.503906 12.5 12.503906s12.5-5.617187 12.5-12.503906c0-6.882812-5.613281-12.5-12.5-12.5zm0 0"/><path d="m191 224.023438c4.554688-2.632813 9.738281-4.023438 14.996094-4.023438 5.261718 0 10.445312 1.390625 15.003906 4.023438 1.574219.90625 3.292969 1.339843 4.988281 1.339843 3.457031 0 6.816407-1.792969 8.667969-5 2.765625-4.785156 1.125-10.898437-3.65625-13.660156-7.59375-4.386719-16.238281-6.703125-25.003906-6.703125-8.761719 0-17.40625 2.316406-24.996094 6.703125-4.785156 2.761719-6.421875 8.875-3.660156 13.660156 2.761718 4.78125 8.875 6.421875 13.660156 3.660157zm0 0"/><path d="m291 224.023438c4.558594-2.632813 9.742188-4.023438 15-4.023438s10.441406 1.390625 14.996094 4.019531c1.574218.910157 3.296875 1.34375 4.992187 1.34375 3.457031 0 6.816407-1.792969 8.667969-5 2.761719-4.78125 1.125-10.898437-3.65625-13.660156-7.589844-4.386719-16.234375-6.703125-25-6.703125-8.761719 0-17.40625 2.316406-25 6.703125-4.78125 2.757813-6.421875 8.875-3.660156 13.65625 2.761718 4.785156 8.878906 6.421875 13.660156 3.664063zm0 0"/><path d="m271 322.683594c-4.554688 2.628906-9.738281 4.019531-15 4.019531s-10.445312-1.390625-15-4.019531c-4.78125-2.761719-10.898438-1.121094-13.660156 3.660156-2.761719 4.78125-1.121094 10.898438 3.660156 13.660156 7.589844 4.382813 16.234375 6.699219 25 6.699219s17.410156-2.316406 25-6.699219c4.785156-2.761718 6.421875-8.878906 3.660156-13.660156-2.761718-4.78125-8.875-6.421875-13.660156-3.660156zm0 0"/><path d="m166.003906 49.808594c5.523438 0 10-4.480469 10-10v-.476563c0-5.523437-4.476562-10-10-10-5.523437 0-10 4.476563-10 10v.476563c0 5.519531 4.476563 10 10 10zm0 0"/></g></svg>