<svg height="512pt" viewBox="0 0 512 512" width="512pt" xmlns="http://www.w3.org/2000/svg"><path d="m270.121094 385.457031c-1.222656-1.21875-2.617188-2.265625-4.121094-3.136719-1.507812.871094-2.898438 1.917969-4.121094 3.136719-3.628906 3.621094-5.878906 8.628907-5.878906 14.164063s2.25 10.542968 5.878906 14.164062c1.222656 1.21875 2.617188 2.265625 4.121094 3.136719 1.507812-.871094 2.898438-1.917969 4.121094-3.136719 3.632812-3.621094 5.878906-8.628906 5.878906-14.164062 0-5.53125-2.246094-10.542969-5.878906-14.164063zm0 0" fill="#ff5a5a" fill-rule="evenodd"/><path d="m236 399.621094c0-5.53125 2.25-10.542969 5.878906-14.164063-8.339844-7.554687-19.28125-16.410156-29.734375-21.964843-11.332031 9.359374-16.835937 28.296874-16.835937 36.128906 0 7.835937 5.503906 26.773437 16.835937 36.132812 10.449219-5.554687 21.394531-14.410156 29.734375-21.96875-3.628906-3.621094-5.878906-8.628906-5.878906-14.164062zm0 0" fill="#ff5a5a" fill-rule="evenodd"/><path d="m377.597656 343.507812c-8.882812-6.839843-18.347656-12.957031-28.3125-18.253906-17.363281 21.46875-41.953125 36.875-69.976562 42.449219 7.546875 1.5 15.339844 2.296875 23.308594 2.296875 28.308593 0 54.402343-9.9375 74.980468-26.492188zm0 0" fill="#7aeae7"/><path d="m191.804688 69.980469c-7.984376 42.351562 12.582031 64.050781 20.367187 71.6875 18.695313 16.902343 65.4375 13.648437 108.964844 16.488281 7.28125-.480469 14.519531-1.195312 21.636719-2.160156 15.171874-2.050782 29.816406-5.21875 43.226562-9.59375 30.980469-10.109375 55.355469-26.667969 64.371094-50.773438-55.742188-14.9375-76.285156-74.527344-167.851563-84.269531-56.523437 0-87.96875 44.050781-90.714843 58.621094zm0 0" fill="#f4ba64" fill-rule="evenodd"/><path d="m386 146.402344c-13.410156 4.375-28.054688 7.546875-43.226562 9.597656 5.816406 20.507812 16.53125 34.003906 33.226562 34.003906h10zm0 0" fill="#f9d973" fill-rule="evenodd"/><path d="m174.125 127.5c-4.851562-4.757812-12.164062-12.125-18.378906-25.589844-3.6875 12.046875-5.683594 24.832032-5.683594 38.089844v45.84375c14.460938-9.296875 22.425781-32.960938 24.0625-58.34375zm0 0" fill="#f9d973" fill-rule="evenodd"/><path d="m342.773438 155.996094c-5.847657.792968-11.773438 1.414062-17.738282 1.878906 6.117188.46875 12.328125.78125 18.585938.925781-.292969-.921875-.574219-1.851562-.847656-2.804687zm0 0" fill="#fcd0ac"/><path d="m349.285156 325.253906c16.691406-20.617187 26.714844-46.820312 26.714844-75.25h10c16.566406 0 29.996094-13.433594 29.996094-30.003906 0-16.566406-13.429688-29.996094-29.996094-29.996094h-10c-15.917969 0-26.398438-12.28125-32.378906-31.203125-6.257813-.144531-12.46875-.457031-18.585938-.925781-35.160156 2.734375-71.617187-.121094-101.058594-7.507812 0 0-21.214843-6.273438-34.738281-13.148438v112.785156c0 28.429688 10.023438 54.636719 26.714844 75.25 16.675781 20.621094 40.019531 35.644532 66.667969 41.742188 26.644531-6.097656 49.988281-21.121094 66.664062-41.742188zm0 0" fill="#fcd0ac"/><path d="m377.597656 343.507812c-20.578125 16.554688-46.671875 26.492188-74.980468 26.492188-7.96875 0-15.761719-.796875-23.308594-2.296875-7.546875 1.5-15.339844 2.296875-23.308594 2.296875-28.308594 0-54.40625-9.9375-74.980469-26.492188-3.710937-2.300781-15.566406-11.988281-18.402343-14.15625v172.648438h233.382812v-142.472656c-5.800781-5.703125-11.949219-11.050782-18.402344-16.019532zm-107.476562 70.277344c-3.617188 3.605469-8.609375 5.835938-14.121094 5.835938s-10.503906-2.230469-14.121094-5.835938c-12.132812 10.992188-29.773437 24.738282-43.398437 27.070313-23.5625 4.027343-34.835938-30.007813-34.835938-41.234375 0-11.222656 11.273438-45.257813 34.835938-41.230469 13.625 2.328125 31.265625 16.078125 43.398437 27.066406 3.617188-3.605469 8.609375-5.832031 14.121094-5.832031s10.503906 2.226562 14.121094 5.832031c3.632812 3.625 5.878906 8.632813 5.878906 14.164063 0 5.535156-2.246094 10.542968-5.878906 14.164062zm0 0" fill="#7aeae7"/><path d="m270.121094 385.460938c3.632812 3.617187 5.878906 8.625 5.878906 14.160156s-2.246094 10.542968-5.878906 14.164062c12.132812 10.992188 29.773437 24.738282 43.398437 27.070313 23.5625 4.027343 34.839844-30.007813 34.839844-41.234375 0-11.222656-11.277344-45.257813-34.839844-41.230469-13.625 2.328125-31.265625 16.078125-43.398437 27.070313zm0 0" fill="#ff5a5a" fill-rule="evenodd"/><path d="m86 502h30v-105.007812c-19 30.566406-30 66.5625-30 105.007812zm0 0" fill="#7aeae7" fill-rule="evenodd"/><path d="m396 359.527344v142.472656h60c0-55.628906-23.019531-106.132812-60-142.472656zm0 0" fill="#7aeae7" fill-rule="evenodd"/><g fill="#000001"><path d="m306 237.503906c-6.882812 0-12.5 5.613282-12.5 12.5 0 6.882813 5.617188 12.5 12.5 12.5 6.886719 0 12.503906-5.617187 12.503906-12.5 0-6.886718-5.617187-12.5-12.503906-12.5zm0 0"/><path d="m206 237.503906c-6.886719 0-12.503906 5.613282-12.503906 12.5 0 6.882813 5.617187 12.5 12.503906 12.5 6.882812 0 12.5-5.617187 12.5-12.5 0-6.886718-5.617188-12.5-12.5-12.5zm0 0"/><path d="m191 224.023438c4.554688-2.632813 9.738281-4.023438 14.996094-4.023438 5.261718 0 10.445312 1.390625 15 4.023438 1.574218.90625 3.292968 1.339843 4.992187 1.339843 3.453125 0 6.816407-1.792969 8.667969-5 2.761719-4.78125 1.125-10.898437-3.65625-13.660156-7.589844-4.382813-16.238281-6.703125-25.003906-6.703125-8.761719 0-17.410156 2.316406-25 6.703125-4.78125 2.761719-6.417969 8.878906-3.65625 13.660156 2.761718 4.785157 8.878906 6.421875 13.660156 3.660157zm0 0"/><path d="m291.003906 224.023438c4.550782-2.632813 9.738282-4.023438 14.996094-4.023438s10.445312 1.390625 14.996094 4.023438c1.578125.90625 3.296875 1.339843 4.992187 1.339843 3.457031 0 6.816407-1.792969 8.671875-5 2.761719-4.78125 1.125-10.898437-3.660156-13.660156-7.589844-4.382813-16.234375-6.703125-25-6.703125s-17.410156 2.316406-25 6.703125c-4.785156 2.761719-6.421875 8.878906-3.660156 13.660156 2.761718 4.785157 8.878906 6.421875 13.664062 3.660157zm0 0"/><path d="m227.339844 298.667969c-2.761719 4.785156-1.125 10.898437 3.660156 13.660156 7.589844 4.386719 16.234375 6.703125 25 6.703125 8.761719 0 17.40625-2.316406 25-6.703125 4.78125-2.761719 6.421875-8.875 3.660156-13.660156-2.761718-4.78125-8.878906-6.417969-13.660156-3.660157-4.558594 2.628907-9.742188 4.023438-15 4.023438s-10.445312-1.394531-15-4.023438c-4.785156-2.761718-10.902344-1.125-13.660156 3.660157zm0 0"/><path d="m257.921875 120.820312.425781.019532c.15625.007812.3125.011718.472656.011718 5.308594 0 9.730469-4.175781 9.980469-9.535156.253907-5.515625-4.011719-10.195312-9.527343-10.453125l-.390626-.019531c-5.503906-.273438-10.203124 3.992188-10.46875 9.507812-.265624 5.515626 3.992188 10.203126 9.507813 10.46875zm0 0"/><path d="m10.234375 491.996094h-.234375c-5.523438 0-10 4.480468-10 10 0 5.523437 4.476562 10 10 10h.234375c5.523437 0 10-4.476563 10-10 0-5.519532-4.472656-10-10-10zm0 0"/><path d="m473.03125 491.996094h-7.273438c-3.324218-69.960938-41.386718-133.480469-101.675781-169.839844 12.089844-18.054688 19.789063-39.285156 21.535157-62.152344h.382812c22.054688 0 39.996094-17.945312 39.996094-40.003906 0-18.601562-12.765625-34.28125-29.996094-38.730469v-27.742187c33.015625-12.121094 54.867188-30.671875 63.738281-54.394532.003907-.015624.007813-.027343.015625-.039062.101563-.285156.199219-.578125.277344-.875.003906-.007812.003906-.015625.003906-.023438.074219-.269531.125-.542968.175782-.8125.011718-.058593.027343-.117187.035156-.175781.046875-.277343.074218-.554687.09375-.832031.003906-.054688.015625-.109375.019531-.164062.011719-.226563.007813-.453126.003906-.679688 0-.105469.007813-.210938.003907-.3125-.007813-.132812-.023438-.265625-.035157-.398438-.105469-1.28125-.453125-2.511718-1.015625-3.640624-.609375-1.230469-1.476562-2.335938-2.554687-3.234376-.085938-.070312-.164063-.144531-.25-.210937-.089844-.074219-.191407-.132813-.285157-.203125-.175781-.125-.34375-.253906-.527343-.367188-.058594-.039062-.121094-.066406-.179688-.101562-.226562-.136719-.457031-.269531-.695312-.390625-.058594-.027344-.125-.050781-.183594-.078125-.242187-.117188-.488281-.226562-.742187-.324219-.007813 0-.015626-.003906-.019532-.007812-.148437-.054688-.296875-.09375-.445312-.140625-.15625-.050782-.308594-.109375-.46875-.152344-20.605469-5.523438-36.046875-17.835938-53.921875-32.09375-31.667969-25.253906-67.554688-53.875-143.042969-53.875-31.9375 0-61.402344 10.757812-84.984375 28.824219-.683594.414062-1.304687.898437-1.859375 1.445312-11.875 9.417969-22.191406 20.722657-30.496094 33.457031-.449218.554688-.835937 1.160157-1.15625 1.800782-13.613281 21.582031-21.503906 47.121094-21.503906 74.472656v41.269531c-17.230469 4.453125-30 20.128907-30 38.730469 0 22.058594 17.945312 40.003906 40 40.003906h.378906c1.75 22.871094 9.445313 44.101563 21.535156 62.152344-60.289062 36.359375-98.347656 99.878906-101.671874 169.839844h-7.273438c-5.523438 0-10 4.480468-10 10 0 5.523437 4.476562 10 10 10h16.992188c.015624 0 .027343.003906.039062.003906.015625 0 .027344-.003906.039062-.003906h59.921876c.015624 0 .023437.003906.039062.003906s.023438-.003906.039062-.003906h279.921876c.015624 0 .027343.003906.039062.003906s.023438-.003906.039062-.003906h59.921876c.015624 0 .027343.003906.039062.003906s.023438-.003906.039062-.003906h16.992188c5.523438 0 10-4.476563 10-10 0-5.519532-4.476562-10-10-10zm-67.03125-106.394532c23.523438 30.207032 37.671875 67.164063 39.734375 106.394532h-39.734375zm-30-205.597656c-8.21875-.003906-14.820312-5.398437-19.722656-16.027344 5.582031-.988281 11.039062-2.105468 16.296875-3.386718 1.152343-.28125 2.289062-.574219 3.425781-.867188zm-205.90625-123.699218c4.847656 19.484374 16.519531 48.003906 56.742188 59.570312.921874.269531 1.851562.394531 2.765624.394531 4.347657 0 8.347657-2.855469 9.605469-7.238281 1.527344-5.308594-1.539062-10.847656-6.84375-12.375-36.019531-10.355469-41.300781-36.65625-44.796875-54.054688-.066406-.335937-.132812-.652343-.199218-.980468 19.464843-13.617188 43.128906-21.621094 68.632812-21.621094 68.488281 0 100.050781 25.167969 130.570312 49.511719 15.746094 12.558593 30.777344 24.519531 49.703126 31.957031-11.386719 17.691406-35.1875 31.589844-68.433594 39.6875-66.199219 16.128906-156.945313 5.929688-186.902344-20.980469-6.570312-6.449219-18.324219-18.222656-23.933594-47.921875 3.90625-5.6875 8.289063-11.023437 13.089844-15.949218zm-26.636719 42.046874c6.292969 16.980469 14.4375 26.847657 20.320313 32.941407-2.40625 24.242187-11.773438 48.707031-27.777344 48.707031v-40.003906c0-14.632813 2.636719-28.664063 7.457031-41.644532zm-7.457031 141.652344h-10c-11.027344 0-20-8.972656-20-20.003906 0-11.027344 8.972656-19.996094 20-19.996094h10c10.285156 0 24.851562-4.199218 35.828125-24.1875 5.316406-9.6875 8.425781-20.59375 10.222656-30.597656 18.089844 10.144531 43.839844 17.527344 74.667969 21.222656 26.066406 3.125 53.503906 3.207032 79.132812.429688 10.851563 28.585937 29.464844 33.128906 40.148438 33.128906h10c11.027344 0 19.996094 8.972656 19.996094 20 0 11.03125-8.96875 20-19.996094 20h-10c-5.523438 0-10 4.480469-10 10 0 25.660156-8.832031 49.289062-23.613281 68.019531-.601563.578125-1.136719 1.238281-1.589844 1.972657-20.195313 24.421874-50.710937 40.007812-84.800781 40.007812-34.085938 0-64.597656-15.585938-84.789063-40.003906-.457031-.738282-.992187-1.402344-1.597656-1.976563-14.78125-18.730469-23.609375-42.363281-23.609375-68.019531 0-5.519531-4.480469-9.996094-10-9.996094zm110 159.617188c0-5.511719 4.488281-9.996094 10.003906-9.996094 5.511719 0 9.996094 4.484375 9.996094 9.996094 0 5.515625-4.484375 10-9.996094 10-5.515625 0-10.003906-4.484375-10.003906-10zm-59.316406-28.304688c3.226562-2.722656 6.4375-3.699218 10.113281-3.070312 7.53125 1.289062 18.921875 8.109375 31.894531 18.984375-1.722656 3.777343-2.691406 7.972656-2.691406 12.390625 0 4.417968.96875 8.613281 2.691406 12.394531-12.96875 10.871094-24.363281 17.691406-31.894531 18.980469-3.675781.628906-6.886719-.347656-10.113281-3.066406-8.605469-7.257813-13.039063-23.132813-13.039063-28.308594 0-5.175782 4.433594-21.046875 13.039063-28.304688zm96.625 15.910156c12.972656-10.871093 24.363281-17.691406 31.898437-18.980468 3.671875-.628906 6.886719.347656 10.113281 3.070312 8.601563 7.257813 13.039063 23.128906 13.039063 28.304688 0 5.175781-4.4375 21.050781-13.039063 28.308594-3.230468 2.722656-6.441406 3.699218-10.113281 3.070312-7.535156-1.289062-18.929687-8.113281-31.898437-18.984375 1.726562-3.78125 2.691406-7.972656 2.691406-12.394531 0-4.417969-.96875-8.613282-2.691406-12.394532zm-106-33.820312c-1.199219.789062-2.375 1.65625-3.519532 2.625-14.238281 12.007812-20.144531 34.316406-20.144531 43.589844 0 9.277344 5.90625 31.585937 20.144531 43.597656 6.238282 5.261719 13.371094 7.964844 20.890626 7.964844 1.808593 0 3.640624-.15625 5.488281-.472656 13.835937-2.367188 29.84375-13.585938 42.433593-24.261719 1.097657.550781 2.230469 1.035156 3.398438 1.453125l.003906 9.570312c0 5.519532 4.476563 9.996094 10 9.996094 5.523438 0 10-4.476562 10-10l-.003906-9.566406c1.167969-.414063 2.304688-.898438 3.402344-1.449219 12.589844 10.675781 28.59375 21.890625 42.433594 24.261719 1.84375.3125 3.675781.472656 5.488281.472656 7.511719 0 14.648437-2.707031 20.886719-7.96875 14.238281-12.007812 20.148437-34.320312 20.148437-43.59375 0-9.277344-5.910156-31.585938-20.148437-43.59375-1.140626-.964844-2.320313-1.832031-3.519532-2.625 6.074219-4.636719 11.730469-9.789062 16.902344-15.402344 12.550781 7.347656 24.0625 15.984375 34.40625 25.6875v128.308594h-260v-128.3125c10.34375-9.699219 21.855469-18.335938 34.402344-25.683594 5.171875 5.609375 10.828125 10.765625 16.90625 15.402344zm-71.308594 32.195312v106.394532h-39.734375c2.0625-39.230469 16.210937-76.1875 39.734375-106.394532zm0 0"/><path d="m502 491.996094h-.234375c-5.523437 0-10 4.480468-10 10 0 5.523437 4.476563 10 10 10h.234375c5.523438 0 10-4.476563 10-10 0-5.519532-4.476562-10-10-10zm0 0"/><path d="m256.003906 477.027344c5.519532 0 10-4.476563 10-10v-.472656c0-5.523438-4.480468-10-10-10-5.523437 0-10 4.476562-10 10v.472656c0 5.523437 4.476563 10 10 10zm0 0"/></g></svg>