<svg height="512pt" viewBox="0 0 512.001 512" width="512pt" xmlns="http://www.w3.org/2000/svg"><g fill-rule="evenodd"><path d="m229.488281 279.085938c15.183594-3.820313 26.511719-17.621094 26.511719-33.945313v-35.003906h-53.019531v35.003906c-.003907 16.324219 11.324219 30.125 26.507812 33.945313zm0 0" fill="#5f5148"/><path d="m201.476562 108.695312c-1.777343 2.445313-4.011718 4.347657-6.488281 5.71875 5.261719-.367187 10.589844-.683593 15.980469-.957031-1.640625-1.199219-3.128906-2.660156-4.386719-4.390625-1.128906-1.554687-1.996093-3.214844-2.621093-4.933594-.613282 1.585938-1.441407 3.121094-2.484376 4.5625zm0 0" fill="#45ba88"/><path d="m289.515625 13.515625c-54.183594 0-117.261719 96.648437-53.847656 99.046875 6.730469-.152344 13.539062-.230469 20.414062-.230469 11.363281 0 22.546875.210938 33.5.617188 10.953125-.40625 22.136719-.617188 33.5-.617188 29.375 0 57.546875 1.402344 83.664063 3.96875-18.417969-51.707031-62.667969-91.152343-117.230469-102.785156zm0 0" fill="#45ba88"/><path d="m173.539062 113.121094c-.027343-.019532-.058593-.042969-.085937-.066406-.414063 1.082031-.8125 2.171874-1.203125 3.261718 2.0625-.203125 4.140625-.398437 6.230469-.585937-1.71875-.625-3.386719-1.480469-4.941407-2.609375zm0 0" fill="#45ba88"/><path d="m186.714844 55.609375c-3.414063-10.503906-14.699219-16.253906-25.203125-12.839844-1.691407.550781-3.261719 1.304688-4.6875 2.230469.0625-.230469.125-.460938.183593-.6875.386719-1.554688.589844-3.175781.589844-4.84375 0-6.242188-2.859375-11.808594-7.335937-15.476562-31.109375 22.59375-27.441407 81.738281-19.296875 88.398437 1.289062-1.058594 2.480468-2.28125 3.511718-3.695313 1.046876-1.441406 1.871094-2.976562 2.484376-4.5625.625 1.71875 1.496093 3.378907 2.621093 4.933594 2.472657 3.402344 5.824219 5.789063 9.515625 7.089844 4.15625-1.179688 7.964844-3.695312 10.703125-7.460938 1.046875-1.441406 1.871094-2.976562 2.484375-4.5625.625 1.714844 1.496094 3.378907 2.621094 4.929688 1.03125 1.417969 2.222656 2.636719 3.515625 3.695312 8.144531-6.660156 9.785156-18.585937 3.523437-27.207031-1.050781-1.4375-2.253906-2.699219-3.570312-3.769531 1.824219-.066406 3.671875-.378906 5.5-.972656 10.503906-3.410156 16.253906-14.695313 12.839844-25.199219zm0 0" fill="#f9d973"/></g><path d="m410.167969 127.078125c-31.941407-6.992187-70.445313-11.847656-112.597657-13.796875-42.234374 1.953125-80.800781 6.824219-112.777343 13.832031-55.902344 12.25-91.660157 31.015625-91.660157 52.050781 0 4.984376 2.066407 9.910157 6.035157 14.691407-.792969-2.113281-1.886719-3.917969-3.164063-6.046875 13.066406-5.90625 26.417969-11.070313 39.996094-15.480469 38.699219-12.570313 79.21875-19.015625 120.082031-19.015625 13.886719 0 27.734375.761719 41.484375 2.238281 26.652344 2.863281 52.9375 8.457031 78.433594 16.726563 13.578125 4.40625 26.933594 9.5625 40 15.460937-2.742188 4.5625-4.644531 7.628907-4.515625 15.484375.1875 11.476563 8.476563 16.558594 13.652344 24.476563 35.351562-9.09375 59.65625-20.75 70.484375-33.417969 4.203125-4.917969 6.375-9.984375 6.375-15.117188.003906-21.058593-35.828125-39.84375-91.828125-52.085937zm0 0" fill="#5f5148"/><path d="m162.707031 325.257812c-16.6875-20.621093-26.707031-46.828124-26.707031-75.257812v-67.078125c-3.789062 1.570313-7.558594-4.398437-11.304688-2.707031-14.195312 93.28125-18.988281 150.214844-1.214843 172.324218 7.082031-6.285156 14.601562-12.085937 22.519531-17.335937 5.394531-3.574219 10.972656-6.898437 16.707031-9.945313zm0 0" fill="#ff5a5a" fill-rule="evenodd"/><path d="m376 210.136719v39.863281c0 28.433594-10.019531 54.640625-26.714844 75.253906 5.742188 3.050782 11.316406 6.375 16.714844 9.953125 10.769531 7.140625 20.816406 15.292969 30 24.320313 8.191406 8.050781 15.703125 16.796875 22.425781 26.140625-13.589843-23.613281 4.300781-32.824219 3.894531-56.515625-.453124-26.414063-19.421874-27.542969-18.390624-48.09375 1.035156-20.550782 25.269531-21.835938 25.269531-39.90625 0-5.652344-1.707031-9.847656-4.0625-13.457032-5.171875-7.914062-13.460938-13-13.652344-24.472656-.125-7.855468 1.773437-10.921875 4.515625-15.488281-13.066406-5.898437-26.421875-11.054687-39.996094-15.460937v37.863281zm0 0" fill="#ff5a5a" fill-rule="evenodd"/><path d="m279.785156 154.042969c-32.792968 2.003906-65.179687-2.894531-96.375 7.242187v48.851563h72.589844v35.003906c0 19.25-15.75 35-35 35h-13.046875c-8.5625 0-16.429687-3.121094-22.527344-8.277344 3.707031 19.9375 12.382813 38.1875 24.691407 53.390625 17.285156 21.371094 41.726562 36.734375 69.589843 42.375 27.859375-5.640625 52.296875-21.003906 69.578125-42.375 16.695313-20.613281 26.71875-46.820312 26.71875-75.253906v-77.726562c-31.152344-10.101563-63.480468-16.230469-96.21875-18.230469zm0 0" fill="#c99e81" fill-rule="evenodd"/><path d="m256 245.140625c0 19.25 15.746094 35 35 35h13.050781c19.25 0 35-15.75 35-35v-35.003906h-83.050781zm0 0" fill="#5f5148" fill-rule="evenodd"/><path d="m86 502h29.996094v-105.015625c-19 30.570313-29.996094 66.570313-29.996094 105.015625zm0 0" fill="#c99e81" fill-rule="evenodd"/><path d="m349.292969 325.261719c-17.890625 22.109375-43.4375 37.792969-72.507813 42.921875-6.753906 1.191406-13.699218 1.816406-20.78125 1.816406-25.390625 0-48.996094-8-68.4375-21.585938v24.300782c0 43.34375 38.5625 79.722656 89.214844 87.667968 50.652344-7.945312 89.21875-44.324218 89.21875-87.667968v-37.507813c-5.394531-3.578125-10.972656-6.902343-16.707031-9.945312zm0 0" fill="#c99e81"/><path d="m396 359.527344v142.472656h60c0-39.679688-11.714844-76.75-31.847656-107.9375-2.339844-3-4.226563-5.785156-5.726563-8.394531-6.722656-9.347657-14.234375-18.089844-22.425781-26.140625zm0 0" fill="#c99e81" fill-rule="evenodd"/><path d="m366 335.207031v37.511719c0 43.257812-38.417969 79.582031-88.925781 87.621094-6.824219 1.085937-13.871094 1.664062-21.074219 1.664062-42.488281 0-79.542969-19.816406-97.851562-48.617187v88.613281h237.851562v-142.472656c-9.183594-9.027344-19.230469-17.179688-30-24.320313zm0 0" fill="#45ba88"/><path d="m230.996094 322.328125c7.589844 4.382813 16.234375 6.699219 25.003906 6.699219 8.761719 0 17.40625-2.316406 25-6.699219 4.78125-2.761719 6.417969-8.878906 3.65625-13.660156s-8.875-6.421875-13.660156-3.660157c-4.554688 2.628907-9.742188 4.019532-14.996094 4.019532-5.261719 0-10.445312-1.390625-15-4.019532-4.78125-2.761718-10.898438-1.125-13.660156 3.65625-2.761719 4.785157-1.125 10.898438 3.65625 13.664063zm0 0" fill="#000001"/><path d="m290.882812 61.976562c-5.3125 1.359376-8.527343 6.738282-7.234374 12.050782 1.039062 4.632812 5.15625 7.8125 9.75 7.8125.664062 0 1.339843-.066406 2.019531-.207032 5.410156-1.109374 8.894531-6.394531 7.785156-11.804687-.042969-.210937-.097656-.4375-.152344-.652344-1.371093-5.347656-6.8125-8.574219-12.167969-7.199219zm0 0" fill="#000001"/><path d="m10.234375 492h-.234375c-5.523438 0-10 4.476562-10 10s4.476562 10 10 10h.234375c5.519531 0 10-4.476562 10-10s-4.476563-10-10-10zm0 0" fill="#000001"/><path d="m502 492h-.234375c-5.523437 0-10 4.476562-10 10s4.476563 10 10 10h.234375c5.523438 0 10-4.476562 10-10s-4.476562-10-10-10zm0 0" fill="#000001"/><path d="m473.035156 492h-7.277344c-1.957031-41.203125-15.957031-80.171875-39.457031-112.675781-4.964843-9.359375-2.839843-15.03125.4375-23.761719 2.570313-6.863281 5.773438-15.40625 5.582031-26.582031-.292968-17.023438-7.269531-26.191407-12.367187-32.886719-4.09375-5.371094-6.347656-8.332031-6.035156-14.535156.292969-5.839844 3.574219-8.824219 9.828125-14.027344 6.523437-5.421875 15.457031-12.847656 15.457031-26.378906 0-2.429688-.234375-4.679688-.648437-6.761719 48.105468-13.976563 73.445312-32.972656 73.445312-55.230469 0-23.109375-27.457031-42.789062-79.402344-56.90625-4.691406-1.273437-9.539062-2.488281-14.523437-3.648437-10.414063-32.773438-30.964844-62.183594-58.355469-83.304688-29.945312-23.09375-65.808594-35.300781-103.71875-35.300781-32.855469 0-64.105469 9.148438-91.328125 26.59375-4.832031-10.113281-15.144531-17.125-27.074219-17.125-13.6875 0-25.265625 9.210938-28.851562 21.765625-.558594-.03125-1.121094-.046875-1.679688-.046875-13.035156 0-24.5 8.332031-28.53125 20.734375-2.476562 7.621094-1.835937 15.75 1.804688 22.890625 2.351562 4.621094 5.78125 8.46875 9.972656 11.28125-1.90625 4.890625-2.492188 10.21875-1.648438 15.539062.832032 5.242188 2.984376 10.054688 6.222657 14.078126-.328125.976562-.648438 1.953124-.957031 2.933593-4.925782 1.148438-9.71875 2.351563-14.359376 3.609375-51.949218 14.117188-79.40625 33.796875-79.40625 56.90625 0 22.234375 25.292969 41.214844 73.3125 55.191406-.425781 2.117188-.671874 4.398438-.671874 6.875 0 13.53125 8.933593 20.957032 15.453124 26.378907 6.257813 5.199219 9.535157 8.183593 9.828126 14.023437.3125 6.203125-1.941407 9.164063-6.03125 14.535156-5.097657 6.695313-12.078126 15.863282-12.371094 32.890626-.1875 11.175781 3.011718 19.714843 5.585937 26.578124 3.238281 8.644532 5.351563 14.292969.574219 23.488282-23.585938 32.542968-37.640625 71.589844-39.601562 112.875h-7.277344c-5.523438 0-10 4.476562-10 10 0 5.523437 4.476562 10 10 10h16.996094c.011718 0 .023437.003906.039062.003906.011719 0 .023438-.003906.039062-.003906h59.917969c.015625 0 .027344.003906.039063.003906.015625 0 .027344-.003906.039062-.003906h279.925782c.011718 0 .023437.003906.039062.003906.011719 0 .023438-.003906.039062-.003906h59.921876c.015624 0 .027343.003906.039062.003906.015625 0 .027344-.003906.039062-.003906h16.996094c5.519532 0 10-4.476563 10-10 0-5.519532-4.476562-9.996094-10-9.996094zm-347.039062-128.3125c3.222656-3.019531 6.558594-5.9375 10.003906-8.746094v17.777344c0 54.730469 53.804688 99.261719 119.949219 99.28125.015625 0 .03125.003906.046875.003906h.003906c.015625 0 .03125-.003906.046875-.003906 66.144531-.019531 119.953125-44.550781 119.953125-99.28125v-17.777344c3.441406 2.808594 6.777344 5.726563 10 8.746094v128.3125h-260.003906zm130.085937-200.375c37.609375 0 74.410157 5.460938 109.917969 16.269531v20.554688h-220v-20.507813c35.558594-10.839844 72.414062-16.316406 110.082031-16.316406zm9.917969 56.824219h63.050781v25.003906c0 13.785156-11.214843 25-25 25h-13.050781c-13.785156 0-25-11.214844-25-25zm-83.046875 0h63.046875v25.003906c0 13.785156-11.214844 25-25 25h-13.046875c-13.785156 0-25-11.214844-25-25zm-36.953125 0h16.953125v25.003906c0 24.8125 20.1875 45 45 45h13.046875c14.125 0 26.742188-6.546875 35-16.761719 8.253906 10.214844 20.875 16.761719 35 16.761719h13.050781c24.8125 0 45-20.1875 45-45v-25.003906h16.949219v29.863281c0 25.652344-8.824219 49.28125-23.601562 68.007812-.613282.582032-1.152344 1.253907-1.613282 2-20.195312 24.410157-50.703125 39.992188-84.785156 39.992188-34.09375 0-64.613281-15.59375-84.808594-40.019531-.449218-.726563-.976562-1.378907-1.566406-1.945313-14.789062-18.734375-23.625-42.371094-23.625-68.03125zm110 210.757812c-5.523438 0-10 4.476563-10 9.996094v10.714844c-23.195312-1.835938-44.699219-10.050781-61.386719-23.59375-18.453125-14.976563-28.613281-34.617188-28.613281-55.292969v-32.066406c1.453125-.902344 2.921875-1.785156 4.40625-2.652344 23.769531 25.804688 57.824219 42 95.597656 42 37.765625 0 71.820313-16.195312 95.589844-41.996094 1.480469.867188 2.953125 1.746094 4.40625 2.648438v32.0625c0 20.679687-10.164062 40.316406-28.617188 55.292968-16.683593 13.542969-38.1875 21.761719-61.382812 23.597657v-10.710938c0-5.523437-4.476562-10-10-10zm150-45.292969c1.265625 1.625 2.503906 3.273438 3.71875 4.9375 1.789062 3.132813 4.011719 6.433594 6.757812 9.9375 17.230469 27.121094 27.523438 58.515626 29.261719 91.519532h-39.738281zm4.957031-133.449218c-6.863281 5.707031-16.265625 13.523437-17.015625 28.40625-.675781 13.503906 5.296875 21.347656 10.097656 27.652344 4.527344 5.945312 8.101563 10.644531 8.28125 21.113281.128907 7.371093-2.03125 13.125-4.3125 19.214843-.78125 2.089844-1.582031 4.222657-2.296874 6.433594-12.285157-12.480468-26.234376-23.53125-41.628907-32.816406 13.839844-20.65625 21.917969-45.476562 21.917969-72.152344v-63.71875c5.589844 2.046875 11.144531 4.226563 16.65625 6.542969-.773438 2.851563-1.242188 6.242187-1.171875 10.558594.195313 11.75 6.210937 18.773437 11.042969 24.417969 4.382812 5.121093 6.671875 8.039062 6.671875 13.347656 0 3.792968-2.257813 6.03125-8.242188 11zm-15.832031-138.300782c-40.847656-7.492187-88.84375-11.519531-139.042969-11.519531-24.503906 0-48.480469.960938-71.363281 2.816407.277344-1.03125.507812-2.078126.675781-3.148438.8125-5.121094.300781-10.25-1.4375-14.988281 4.414063-2.835938 8.019531-6.804688 10.464844-11.601563 3.640625-7.140625 4.28125-15.273437 1.804687-22.894531-2.003906-6.15625-5.839843-11.308594-10.789062-14.9375 21.546875-11.554687 45.527344-17.578125 70.5625-17.578125 4.664062 0 12.566406 8.414062 19.71875 27.207031 1.519531 3.992188 5.316406 6.449219 9.347656 6.449219 1.183594 0 2.386719-.210938 3.554688-.660156 5.164062-1.960938 7.753906-7.738282 5.792968-12.902344-2.4375-6.402344-5.039062-12.039062-7.796874-16.917969 48.613281 10.195313 89.726562 44.179688 108.507812 90.675781zm-297.566406-55.75c1.34375-4.136718 5.164062-6.914062 9.507812-6.914062 1.042969 0 2.082032.164062 3.085938.492188.902344.292968 1.75.703124 2.523437 1.226562 3.453125 2.328125 7.988281 2.273438 11.386719-.144531 3.398438-2.414063 4.9375-6.679688 3.871094-10.707031-.222656-.839844-.335938-1.710938-.335938-2.585938 0-5.515625 4.484375-10 10-10s10 4.484375 10 10c0 .945312-.128906 1.878906-.386718 2.773438-1.148438 4.007812.308593 8.308593 3.65625 10.789062 3.351562 2.484375 7.886718 2.628906 11.390624.363281.722657-.46875 1.515626-.84375 2.347657-1.113281 1.007812-.328125 2.050781-.496094 3.09375-.496094 4.339843 0 8.160156 2.777344 9.503906 6.914063.828125 2.542969.613281 5.25-.597656 7.628906-1.214844 2.382813-3.28125 4.148437-5.824219 4.972656-.894531.289063-1.824219.453125-2.761719.488281-4.164062.148438-7.800781 2.863282-9.125 6.816407-1.328125 3.949219-.0625 8.308593 3.167969 10.9375.671875.546875 1.277344 1.183593 1.792969 1.890625 1.570312 2.160156 2.203125 4.804687 1.785156 7.441406s-1.835937 4.953125-4 6.527344c-1.722656 1.25-3.746094 1.910156-5.859375 1.910156-3.25 0-6.203125-1.503906-8.105469-4.121094-.554687-.761718-.996093-1.597656-1.316406-2.476562-1.425781-3.917969-5.132813-6.539063-9.304687-6.578125-.03125-.003907-.0625-.003907-.09375-.003907-4.132813 0-7.839844 2.542969-9.332032 6.402344-.308594.804688-.730468 1.574219-1.242187 2.285156-1.90625 2.617188-4.859375 4.121094-8.105469 4.121094-2.113281 0-4.140625-.660156-5.863281-1.910156-2.160157-1.570312-3.582031-3.886719-4-6.527344-.414063-2.636718.21875-5.28125 1.78125-7.433594.5625-.769531 1.214843-1.449218 1.941406-2.011718 3.289063-2.566406 4.644531-6.898438 3.394531-10.875-1.242187-3.980469-4.828125-6.769532-8.988281-7-.871094-.046875-1.730469-.207032-2.570313-.480469-2.539062-.824219-4.605468-2.589844-5.816406-4.96875-1.214844-2.382813-1.425781-5.089844-.601562-7.632813zm-77.394532 121.058594c0-9.242187 16.933594-24.636718 64.648438-37.605468 6.007812-1.632813 12.285156-3.164063 18.796875-4.601563.242187-.042969.480469-.09375.71875-.15625 42.792969-9.371094 95.773437-14.464844 151.753906-14.464844 55.910157 0 108.835938 5.082031 151.605469 14.433594.183594.046875.371094.085937.554688.121094 6.621093 1.457031 13.003906 3.011719 19.109374 4.671875 47.714844 12.964844 64.648438 28.359375 64.648438 37.605468 0 9.980469-19.558594 25.070313-63 37.140626-.433594-.515626-.867188-1.023438-1.28125-1.507813-4.046875-4.726563-6.164062-7.398437-6.234375-11.738281-.082031-4.898438.628906-6.082032 2.988281-10.007813l.101563-.167969c.007812-.015624.015625-.035156.027343-.050781.089844-.152343.167969-.316406.25-.472656.078126-.152344.164063-.300781.234376-.453125.007812-.019531.019531-.039062.027343-.054688.046875-.105468.082031-.214843.125-.320312.078125-.191406.160157-.378906.222657-.574219.046874-.128906.078124-.257812.117187-.386719.054687-.1875.113281-.375.15625-.5625.035156-.152343.058594-.300781.085937-.449218.03125-.167969.066407-.339844.089844-.507813.023438-.171875.035156-.339843.046875-.511719.011719-.148437.027344-.300781.035157-.453124.003906-.179688 0-.359376-.003907-.542969-.003906-.136719-.003906-.277344-.011719-.417969-.011718-.183594-.035156-.363281-.054687-.542969-.015625-.140625-.027344-.277343-.050781-.417969-.027344-.171874-.066406-.339843-.101563-.511718-.03125-.144532-.0625-.289063-.097656-.433594-.042969-.15625-.09375-.3125-.140625-.464844s-.09375-.308594-.148438-.460937c-.050781-.140625-.113281-.273438-.167968-.414063-.066406-.160156-.132813-.320312-.210938-.476562-.058594-.128906-.128906-.25-.191406-.371094-.085938-.164062-.171875-.324219-.265625-.476562-.074219-.121094-.152344-.238282-.230469-.355469-.101562-.148438-.199218-.300781-.308594-.445313-.089843-.125-.1875-.238281-.285156-.355468-.109375-.132813-.210937-.261719-.328125-.390626-.113281-.128906-.242187-.246093-.363281-.371093-.109375-.105469-.210938-.214844-.324219-.316407-.144531-.132812-.304687-.253906-.457031-.378906-.105469-.082031-.203125-.167968-.308594-.246094-.167968-.125-.34375-.238281-.519531-.351562-.09375-.058594-.179687-.125-.277344-.183594-.015625-.011718-.035156-.019531-.050781-.03125-.148438-.085937-.304688-.160156-.453125-.238281-.160156-.085937-.316406-.171875-.476563-.246094-.019531-.007812-.035156-.015625-.050781-.027343-12.59375-5.683594-25.382812-10.683594-38.34375-15.003907-1.597656-1.128906-3.535156-1.804687-5.632812-1.832031-38.71875-12.269531-78.929688-18.472656-120.058594-18.472656-57.007813 0-112.25 11.90625-164.195313 35.386718-.019531.007813-.035156.019532-.054687.027344-.152344.070313-.300781.152344-.449219.230469-.160156.082031-.320312.164063-.476562.253906-.015625.011719-.03125.015625-.046875.027344-.09375.054687-.175781.121094-.265625.175781-.183594.117188-.363282.234375-.535156.359375-.105469.078125-.199219.160157-.296876.238281-.160156.128907-.320312.253907-.46875.390626-.113281.097656-.210937.207031-.316406.308593-.125.125-.253906.246094-.371094.375-.113281.128907-.21875.261719-.324218.390625-.097656.117188-.199219.234375-.289063.355469-.109375.148437-.207031.296875-.308593.449219-.074219.117187-.15625.230468-.230469.347656-.09375.160156-.179688.324219-.265625.484375-.0625.121094-.132813.242187-.191406.363281-.074219.164063-.144532.328125-.210938.492188-.054688.132812-.113281.265625-.164062.398437-.058594.15625-.105469.316407-.152344.476563-.046875.148437-.097656.296875-.136719.449218-.039063.148438-.066406.300782-.097656.449219-.035157.164063-.074219.332031-.101563.496094-.023437.144531-.035156.289063-.054687.433594-.019531.175781-.042969.351562-.050781.527343-.011719.144532-.007813.289063-.011719.4375-.003907.175782-.007813.351563-.003907.527344.007813.15625.023438.3125.035157.46875.015625.164063.023437.328125.046875.492188.019531.175781.058594.351562.089844.523437.027343.144531.050781.289063.082031.433594.046875.195313.105469.390625.164062.582031.039063.125.070313.246094.109375.371094.066406.199219.148438.394531.230469.585938.042969.105468.074219.207031.121094.308593.007812.015625.015625.027344.023437.042969.152344.332031.320313.664062.515625.988281l.105469.171875c2.351562 3.921875 3.0625 5.105469 2.984375 10-.074219 4.34375-2.1875 7.011719-6.238281 11.738282-.386719.457031-.792969.933593-1.203125 1.414062-43.378907-12.066406-62.910157-27.148438-62.910157-37.121094zm83.832032 169.453125c-2.28125-6.089843-4.441406-11.84375-4.3125-19.214843.179687-10.472657 3.753906-15.167969 8.28125-21.117188 4.800781-6.304688 10.773437-14.148438 10.097656-27.652344-.75-14.878906-10.152344-22.695312-17.019531-28.402344-5.980469-4.972656-8.238281-7.207031-8.238281-10.996093 0-5.3125 2.285156-8.234375 6.671874-13.351563 4.832032-5.644531 10.847657-12.667968 11.042969-24.421875.070313-4.316406-.398437-7.710937-1.171875-10.558593 5.511719-2.324219 11.066406-4.5 16.652344-6.550782v63.65625c0 26.675782 8.082031 51.496094 21.917969 72.152344-15.402344 9.289062-29.355469 20.34375-41.644531 32.832031-.710938-2.191406-1.5-4.304687-2.277344-6.375zm-8.699219 52.21875c.035156-.046875.082031-.085937.117187-.136719 2.910157-3.699218 5.242188-7.175781 7.09375-10.464843 1.140626-1.558594 2.300782-3.101563 3.488282-4.628907v106.398438h-39.734375c1.730469-32.867188 11.9375-64.128906 29.035156-91.167969zm0 0" fill="#000001"/></svg>