<svg height="512pt" viewBox="0 0 512 512.00017" width="512pt" xmlns="http://www.w3.org/2000/svg"><path d="m255.210938 294.027344c-5.003907-1.996094-11.34375-1.15625-17.785157 4.757812-21.328125 19.574219-43.933593 5.953125-43.933593 5.953125.902343 2.878907 1.972656 5.464844 3.167968 7.808594 13.972656 10.78125 34.003906 7.125 48.125.492187 9.242188-4.339843 11.878906-12.183593 10.425782-19.011718zm0 0" fill="#c99e81" fill-rule="evenodd"/><path d="m261.707031 30.0625c-6.25-1.726562-12.089843-2.789062-17.566406-3.28125 3.835937 1.984375 7.773437 4.140625 11.851563 6.523438 1.933593-1.132813 3.832031-2.203126 5.714843-3.242188zm0 0" fill="#f4ba64"/><path d="m416.941406 100.769531c-15.285156-23.8125-27.917968-55.066406-49.042968-73.996093-21.988282-19.707032-53.191407-26.042969-106.191407 3.289062-1.882812 1.039062-3.78125 2.113281-5.714843 3.242188-4.078126-2.382813-8.015626-4.539063-11.851563-6.523438-56.890625-5.109375-74.578125 52.234375-99.097656 90.429688-12.542969 19.535156-26.882813 30.695312-49.171875 29.28125 2.753906 2.636718 5.484375 5.023437 8.191406 7.183593 7.492188-.820312 14.800781-2.953125 21.929688-5.988281 14.800781-6.300781 28.859374-16.449219 42.320312-26.605469 31.9375-24.105469 60.511719-48.246093 87.679688-21.078125 21.195312-21.191406 43.242187-11.164062 67.074218 5.714844 6.71875 4.757812 13.582032 10.0625 20.605469 15.363281 13.460937 10.15625 27.519531 20.308594 42.316406 26.609375 9.992188 4.25 20.324219 6.746094 31.039063 6.308594 15.511718-.632812 31.828125-7.417969 49.089844-23.949219-22.292969 1.414063-36.628907-9.746093-49.175782-29.28125zm0 0" fill="#f4ba64"/><g fill-rule="evenodd"><path d="m149.382812 139.671875v42.316406c.453126 0 .898438-.019531 1.347657-.035156 10.628906-7.707031 17.582031-20.210937 17.582031-34.269531v-18.121094c-6.175781 3.890625-12.480469 7.363281-18.929688 10.109375zm0 0" fill="#c99e81"/><path d="m343.671875 147.683594c0 23.277344 19.042969 42.320312 42.316406 42.320312v-42.320312c-14.796875-6.296875-28.855469-16.449219-42.316406-26.605469zm0 0" fill="#c99e81"/><path d="m385.988281 190.003906c-23.273437 0-42.316406-19.042968-42.316406-42.320312v-26.605469c-11.121094-8.394531-21.839844-16.792969-32.230469-23.027344-.6875.621094-1.375 1.265625-2.058594 1.953125-4.585937-4.585937-9.210937-7.707031-13.886718-9.613281-4.320313-1.457031-8.585938-2.304687-12.808594-2.382813-4.222656.078126-8.488281.925782-12.808594 2.382813-4.675781 1.90625-9.300781 5.027344-13.886718 9.613281-.6875-.6875-1.375-1.332031-2.0625-1.953125-43.570313-10.042969-38.332032-.121093-64.546876 8.578125v143.375c0 16.742188 3.480469 32.714844 9.746094 47.226563 8.136719.644531 18.515625-1.175781 28.613282-10.445313 20.929687-19.210937 40.800781 15.09375 17.046874 26.253906-9.699218 4.558594-22.183593 7.703126-33.582031 5.738282 1.5625 2.214844 3.191407 4.378906 4.894531 6.480468 6.691407 8.292969 14.476563 15.679688 23.121094 21.9375 12.828125 9.308594 27.558594 16.121094 43.464844 19.773438 15.90625-3.652344 30.640625-10.46875 43.464844-19.777344 8.644531-6.257812 16.429687-13.644531 23.128906-21.933594 16.6875-20.617187 26.710938-46.820312 26.710938-75.253906h9.996093c16.570313 0 30-13.429687 30-29.996094.003907-16.574218-13.429687-30.003906-30-30.003906zm0 0" fill="#fcd0ac"/><path d="m284.242188 286.785156c-20.929688-19.210937-40.800782 15.09375-17.046876 26.253906 19.617188 9.214844 50.644532 12.691407 60.980469-20.300781 0 0-22.605469 13.621094-43.933593-5.953125zm0 0" fill="#c99e81"/><path d="m275.347656 403.90625c19.199219-5.425781 35.277344-18.742188 44.210938-36.527344-8.03125 1.707032-16.34375 2.621094-24.863282 2.621094-6.582031 0-13.046874-.539062-19.351562-1.574219-6.304688 1.035157-12.769531 1.574219-19.351562 1.574219-8.519532 0-16.828126-.914062-24.855469-2.621094 8.933593 17.789063 25.007812 31.101563 44.210937 36.527344zm0 0" fill="#fcd0ac"/><path d="m87.046875 462c-2.652344 12.933594-4.046875 26.3125-4.046875 40h32.996094v-40zm0 0" fill="#fcd0ac"/><path d="m395.996094 462v40h60c0-13.6875-1.390625-27.066406-4.042969-40zm0 0" fill="#fcd0ac"/><path d="m395.996094 462h55.957031c-8.128906-39.625-28.078125-75.074219-55.957031-102.476562zm0 0" fill="#5f5148"/><path d="m88.019531 462h27.976563v-68.203125c-13.277344 20.496094-22.917969 43.539063-27.976563 68.203125zm0 0" fill="#5f5148"/></g><path d="m379.296875 344.832031c-9.371094-7.375-19.410156-13.941406-30.015625-19.574219-6.699219 8.289063-14.484375 15.671876-23.125 21.933594-4.292969 25.644532-21.976562 46.15625-45.164062 54.863282-7.808594 2.933593-16.242188 4.53125-25 4.53125-34.757813 0-64.421876-25.113282-70.160157-59.394532-1.0625-.769531-2.109375-1.554687-3.144531-2.355468-2.714844-2.582032-11.285156-10.078126-16.695312-15.457032v172.621094h230.003906v-142.476562c-5.289063-5.195313-10.867188-10.101563-16.699219-14.691407zm0 0" fill="#c99e81"/><path d="m255.996094 468.367188c5.523437 0 10-4.476563 10-10v-.472657c0-5.523437-4.476563-10-10-10-5.519532 0-10 4.476563-10 10v.472657c0 5.523437 4.480468 10 10 10zm0 0" fill="#000001"/><path d="m10.234375 491.996094h-.234375c-5.523438 0-10 4.476562-10 10 0 5.523437 4.476562 10 10 10h.234375c5.523437 0 10-4.476563 10-10 0-5.523438-4.480469-10-10-10zm0 0" fill="#000001"/><path d="m501.996094 491.996094h-.234375c-5.523438 0-10 4.476562-10 10 0 5.523437 4.476562 10 10 10h.234375c5.523437 0 10-4.476563 10-10 0-5.523438-4.476563-10-10-10zm0 0" fill="#000001"/><path d="m473.03125 491.996094h-7.277344c-.515625-10.824219-1.859375-21.492188-3.992187-31.933594-.011719-.046875-.019531-.09375-.027344-.144531-11.675781-56.972657-46.738281-107.054688-97.65625-137.765625 12.089844-18.050782 19.785156-39.28125 21.535156-62.152344h.378907c22.054687 0 40-17.941406 40-39.996094 0-18.605468-12.765626-34.285156-30-38.734375v-19.632812c6.378906 1.625 12.636718 2.445312 18.792968 2.445312 20.273438 0 39.445313-8.839843 58.144532-26.714843.011718-.011719.027343-.023438.042968-.039063.019532-.019531.039063-.039063.0625-.058594.085938-.082031.15625-.171875.238282-.253906.136718-.140625.273437-.273437.398437-.421875.109375-.128906.210937-.261719.3125-.394531.097656-.121094.195313-.242188.285156-.367188.105469-.152343.203125-.304687.296875-.457031.078125-.121094.15625-.242188.230469-.367188.085937-.152343.167969-.3125.246094-.472656.066406-.132812.136719-.265625.195312-.398437.070313-.152344.128907-.308594.1875-.460938.058594-.152343.121094-.304687.171875-.457031.046875-.144531.085938-.292969.128906-.4375.046876-.167969.097657-.335938.136719-.507812.03125-.144532.054688-.289063.082031-.433594.03125-.175782.0625-.347656.085938-.527344.019531-.160156.03125-.320312.042969-.480469.011719-.164062.027343-.320312.035156-.484375.003906-.207031-.003906-.410156-.011719-.617187 0-.105469.003906-.210938-.003906-.316407 0-.015624-.003906-.03125-.003906-.046874-.015625-.242188-.046875-.480469-.082032-.71875-.011718-.089844-.019531-.183594-.035156-.273438-.03125-.207031-.085937-.410156-.132812-.613281-.492188-2.121094-1.644532-3.960938-3.226563-5.3125-.035156-.03125-.074219-.058594-.113281-.089844-.210938-.175781-.425781-.34375-.652344-.503906-.074218-.050781-.148437-.097657-.222656-.144531-.195312-.128907-.394531-.253907-.59375-.367188-.097656-.054688-.195312-.101562-.289062-.152344-.191407-.097656-.378907-.195312-.578126-.28125-.105468-.046875-.214843-.089844-.324218-.132812-.191406-.074219-.382813-.152344-.578125-.214844-.117188-.039062-.238281-.070312-.355469-.105469-.191406-.054687-.378906-.109375-.570312-.152343-.136719-.03125-.273438-.054688-.414063-.078126-.175781-.03125-.351563-.066406-.53125-.089843-.171875-.023438-.34375-.03125-.515625-.046875-.148438-.007813-.296875-.023438-.449219-.03125-.21875-.003906-.433593.003906-.652343.011718-.097657.003907-.191407-.003906-.289063.003907-16.5625 1.050781-28.183594-6.109375-40.125-24.707031-4.519531-7.035157-8.792969-14.742188-13.316406-22.902344-15.75-28.402344-33.601563-60.59375-67.410157-69.871094-24.4375-6.707031-53.480468-.417969-88.640624 19.207031-35.160157-19.628906-64.207032-25.917969-88.640626-19.210937-33.808593 9.277344-51.660156 41.46875-67.40625 69.871094-4.527343 8.160156-8.800781 15.867187-13.320312 22.902343-11.9375 18.597657-23.570312 25.75-40.121094 24.703125-.125-.007812-.246094 0-.367187-.003906-.1875-.003906-.375-.011719-.558594-.007812-.175781.003906-.34375.023437-.515625.035156-.152344.011718-.304688.023437-.453125.042968-.183594.023438-.363281.054688-.542969.089844-.140625.023438-.28125.046875-.417968.078125-.175782.039063-.34375.089844-.519532.140625-.140625.039063-.285156.078125-.425781.125-.15625.050782-.308594.113282-.464844.171875-.152343.0625-.304687.121094-.457031.1875-.136719.0625-.265625.128907-.402344.195313-.15625.082031-.316406.160156-.472656.25-.121094.070312-.242188.148437-.363281.222656-.152344.097656-.308594.195312-.457031.300781-.125.089844-.242188.1875-.367188.28125-.132812.105469-.265625.207031-.394531.316407-.144531.125-.28125.261718-.417969.394531-.085938.082031-.175781.15625-.257812.246093-.011719.011719-.023438.027344-.035157.039063-.160156.167969-.304687.34375-.453125.523437-.0625.074219-.132812.148438-.195312.230469-.160156.207031-.3125.425781-.457032.648438-.035156.054687-.074218.105469-.109374.15625-.171876.273437-.332032.558593-.480469.851562-.085938.175781-.15625.355469-.234375.535157-.050782.121093-.109375.238281-.15625.363281-.117188.304687-.21875.617187-.304688.933593-.007812.03125-.015625.0625-.023437.09375-.074219.289063-.136719.578126-.1875.871094-.015625.078125-.019531.160156-.027344.242188-.035156.25-.070313.496094-.085937.746094-.003907.015624-.003907.03125-.007813.046874-.003906.105469 0 .210938-.003906.316407-.003907.207031-.015625.410156-.007813.617187.003906.164063.019532.324219.035156.484375.011719.160157.023438.320313.039063.480469.023437.179688.058594.351562.089844.527344.027343.144531.050781.289062.082031.433594.039062.171874.085938.339843.136719.507812.042969.144531.082031.292969.128906.4375.050781.152344.109375.304688.171875.457031.058594.152344.117188.308594.1875.460938.058594.132812.128906.265625.195312.398437.078126.160156.160157.316406.246094.472656.074219.125.152344.246094.226563.367188.097656.152344.195312.304688.300781.457031.089844.125.1875.246094.28125.367188.105469.132812.207031.265625.316406.394531.125.148438.261719.28125.398438.421875.078125.082031.152344.171875.238281.253906.023437.019531.042969.039063.0625.058594.015625.011719.027344.023437.042969.039063 18.699218 17.875 37.867187 26.714843 58.144531 26.714843 6.15625 0 12.414063-.820312 18.792969-2.445312v19.632812c-17.234375 4.449219-30 20.128907-30 38.734375 0 22.054688 17.945312 39.996094 40 39.996094h.382812c1.746094 22.875 9.445313 44.105469 21.535156 62.160156-50.933593 30.714844-86 80.816406-97.660156 137.8125-.003906.007813-.003906.019532-.007812.027344-2.136719 10.460938-3.488282 21.148438-4.003906 31.996094h-7.273438c-5.523438 0-10 4.476562-10 10 0 5.523437 4.476562 10 10 10h16.953125c.027344 0 .050781.003906.078125.003906s.050781-.003906.078125-.003906h59.84375c.027344 0 .050781.003906.078125.003906s.050781-.003906.078125-.003906h279.84375c.027344 0 .050781.003906.078125.003906.023438 0 .050781-.003906.074219-.003906h59.847656c.027344 0 .050781.003906.078125.003906s.050781-.003906.078125-.003906h16.953125c5.523438 0 10-4.476563 10-10-.003906-5.523438-4.480469-10-10-10zm-67.035156-106.390625c15.328125 19.675781 26.667968 42.222656 33.285156 66.394531h-33.285156zm0 86.394531h37.613281c1.054687 6.582031 1.769531 13.257812 2.125 19.996094h-39.738281zm-52.324219-331.277344c7.222656 4.980469 14.628906 9.582032 22.316406 13.367188v24.320312c-12.9375-4.222656-22.316406-16.394531-22.316406-30.726562zm-283.304687-4.433594c16.019531-6.367187 26.210937-19.40625 33.089843-30.117187 4.863281-7.582031 9.496094-15.933594 13.976563-24.011719 14.511718-26.171875 29.519531-53.234375 55.210937-60.28125 19.101563-5.246094 43.140625.398438 73.351563 17.238282l.003906 16.410156c0 5.523437 4.476562 10 10 10s10-4.480469 10-10.003906l-.003906-16.410157c30.207031-16.835937 54.242187-22.480469 73.34375-17.234375 25.695312 7.046875 40.699218 34.109375 55.210937 60.28125 4.480469 8.078125 9.113281 16.429688 13.980469 24.011719 6.878906 10.710937 17.066406 23.75 33.085938 30.117187-17.949219 10.289063-34.609376 9.273438-50.847657 2.609376-.570312-.308594-1.171875-.566407-1.804687-.761719-14.746094-6.4375-29.167969-17.375-43.921875-28.566407-15.730469-11.933593-30.589844-23.207031-45.859375-28.492187-15.921875-5.507813-30.410156-3.558594-43.191406 5.765625-12.777344-9.328125-27.269532-11.273438-43.1875-5.765625-15.269532 5.285156-30.128907 16.558594-45.863282 28.496094-14.746094 11.1875-29.167968 22.121093-43.910156 28.558593-.636719.199219-1.246094.460938-1.824219.773438-16.234375 6.65625-32.890625 7.671875-50.839843-2.617188zm87.945312 4.433594v6.960938c0 14.332031-9.378906 26.507812-22.316406 30.730468v-24.320312c7.6875-3.789062 15.09375-8.390625 22.316406-13.371094zm-22.320312 99.277344h-10c-11.027344 0-20-8.96875-20-19.996094 0-11.03125 8.972656-20 20-20 28.851562 0 52.320312-23.472656 52.320312-52.320312v-21.636719c.238281-.179687.476562-.363281.714844-.542969 7.027344-5.332031 13.328125-9.972656 19.066406-13.855468-.632812 2.785156-.96875 5.664062-.96875 8.59375 0 10.316406 4.019531 20.015624 11.316406 27.3125 1.953125 1.953124 4.507813 2.925781 7.070313 2.925781 2.558593 0 5.117187-.976563 7.070312-2.929688 3.902344-3.902343 3.902344-10.234375-.003906-14.140625-3.515625-3.515625-5.453125-8.195312-5.453125-13.167968 0-4.976563 1.9375-9.652344 5.457031-13.167969 3.515625-3.519531 8.191407-5.457031 13.167969-5.457031 4.972656 0 9.652344 1.9375 13.167969 5.457031 3.90625 3.90625 10.238281 3.90625 14.140625 0 17.808594-17.8125 34.976562-8.0625 69.894531 18.429687.238281.179688.480469.363282.71875.542969v21.636719c0 28.847656 23.46875 52.320312 52.316406 52.320312 11.027344 0 20 8.972656 20 20s-8.972656 20-20 20h-10c-5.519531 0-10 4.476563-10 10 0 25.664063-8.835937 49.304688-23.625 68.039063-.589843.5625-1.113281 1.214843-1.5625 1.933593-5.714843 6.914063-12.261719 13.117188-19.480469 18.464844-.707031.394532-1.363281.871094-1.960937 1.421875-17.925781 12.679688-39.792969 20.136719-63.371094 20.136719-23.574219 0-45.441406-7.457031-63.363281-20.132812-.597656-.554688-1.253906-1.03125-1.964844-1.425782-7.207031-5.335937-13.742187-11.527344-19.449218-18.429687-.460938-.75-1.003907-1.417969-1.617188-2-14.773438-18.726563-23.601562-42.355469-23.601562-68.011719 0-5.519531-4.476563-10-10-10zm120 156.585938c-20.941407 0-39.617188-10.476563-50.671876-26.867188 15.582032 6.617188 32.707032 10.28125 50.671876 10.28125 17.96875 0 35.09375-3.664062 50.671874-10.28125-11.050781 16.390625-29.726562 26.867188-50.671874 26.867188zm-79.207032-43.574219c7.457032 33.8125 35.269532 58.808593 69.210938 62.953125v12.84375c.003906 5.523437 4.480468 10 10 10h.003906c5.523438-.003906 10-4.480469 9.996094-10.003906v-12.839844c33.9375-4.148438 61.746094-29.140625 69.203125-62.957032 5.882812-4.53125 11.363281-9.554687 16.390625-15.007812 12.550781 7.351562 24.0625 15.988281 34.40625 25.691406v128.304688h-260v-128.304688c10.34375-9.703125 21.855468-18.339844 34.402344-25.6875 5.023437 5.453125 10.507812 10.472656 16.386718 15.007813zm-70.789062 98.988281h-33.285156c6.617187-24.171875 17.957031-46.71875 33.285156-66.394531zm-37.613282 20h37.613282v19.996094h-39.734375c.351562-6.738282 1.066406-13.410156 2.121093-19.996094zm0 0" fill="#000001"/><path d="m218.40625 329.378906c9.75 0 20.628906-2.589844 30.632812-7.289062 2.605469-1.222656 4.917969-2.722656 6.953126-4.425782 2.035156 1.703126 4.347656 3.203126 6.953124 4.425782 10.003907 4.699218 20.882813 7.289062 30.632813 7.289062h.003906c21.660157 0 37.335938-11.953125 44.136719-33.652344 1.25-4 0-8.429687-3.320312-10.988281-3.320313-2.558593-7.757813-2.847656-11.304688-.613281-.054688.03125-5.6875 3.222656-13.175781 3.222656-6.816407.003906-13.179688-2.667968-18.914063-7.929687-7.53125-6.914063-14.761718-8.367188-19.5-8.367188-5.808594 0-11.210937 2.097657-15.511718 5.695313-4.300782-3.597656-9.703126-5.695313-15.511719-5.695313-4.738281 0-11.96875 1.453125-19.5 8.367188-5.734375 5.261719-12.097657 7.929687-18.914063 7.929687-7.46875 0-13.09375-3.175781-13.097656-3.175781-3.542969-2.230469-8.023438-1.964844-11.34375.589844-3.320312 2.558593-4.613281 6.964843-3.359375 10.964843 6.800781 21.699219 22.476563 33.652344 44.140625 33.652344zm48.160156-33.34375c.539063-2.414062 2.453125-4.984375 4.9375-4.984375 1.675782 0 3.796875 1.101563 5.972656 3.101563 8.121094 7.449218 17.585938 11.871094 27.621094 12.941406-3.316406 1.527344-7.152344 2.285156-11.519531 2.285156-6.871094 0-14.730469-1.914062-22.128906-5.390625-4-1.878906-5.640625-4.554687-4.882813-7.953125zm-32.0625-1.882812c2.179688-2 4.300782-3.101563 5.976563-3.101563 2.484375 0 4.398437 2.570313 4.9375 4.984375.757812 3.398438-.882813 6.074219-4.882813 7.953125-7.398437 3.476563-15.257812 5.390625-22.128906 5.390625-4.363281 0-8.199219-.757812-11.519531-2.285156 10.035156-1.070312 19.5-5.492188 27.617187-12.941406zm0 0" fill="#000001"/><path d="m293.492188 250.003906c0 6.882813 5.617187 12.5 12.5 12.5 6.886718 0 12.5-5.617187 12.5-12.5 0-6.886718-5.613282-12.503906-12.5-12.503906-6.882813 0-12.5 5.617188-12.5 12.503906zm0 0" fill="#000001"/><path d="m193.492188 250.003906c0 6.882813 5.617187 12.5 12.5 12.5 6.882812 0 12.5-5.617187 12.5-12.5 0-6.886718-5.617188-12.503906-12.5-12.503906-6.882813 0-12.5 5.617188-12.5 12.503906zm0 0" fill="#000001"/><path d="m190.996094 224.023438c4.550781-2.628907 9.734375-4.019532 14.996094-4.019532 5.261718 0 10.445312 1.390625 14.996093 4.019532 1.578125.910156 3.296875 1.339843 4.992188 1.339843 3.457031 0 6.816406-1.792969 8.667969-5 2.765624-4.78125 1.125-10.898437-3.65625-13.660156-7.585938-4.382813-16.230469-6.699219-25-6.699219-8.769532 0-17.414063 2.316406-25 6.699219-4.78125 2.761719-6.421876 8.878906-3.65625 13.660156 2.761718 4.78125 8.875 6.421875 13.660156 3.660157zm0 0" fill="#000001"/><path d="m290.996094 224.023438c4.550781-2.628907 9.734375-4.019532 14.996094-4.019532 5.261718 0 10.445312 1.390625 14.996093 4.019532 1.578125.910156 3.296875 1.339843 4.992188 1.339843 3.457031 0 6.816406-1.792969 8.671875-5 2.761718-4.78125 1.125-10.898437-3.65625-13.660156-7.589844-4.382813-16.234375-6.699219-25.003906-6.699219-8.765626 0-17.410157 2.316406-25 6.699219-4.78125 2.761719-6.417969 8.878906-3.65625 13.660156 2.761718 4.78125 8.875 6.421875 13.660156 3.660157zm0 0" fill="#000001"/></svg>