<svg height="511.999pt" viewBox="1 1 511.999 511.999" width="511.999pt" xmlns="http://www.w3.org/2000/svg"><path d="m99.070312 316.976562c17.226563-5.382812 32.242188-16.8125 41.976563-32.605468-3.277344-10.898438-5.042969-22.441406-5.046875-34.371094h-10c-8.058594 0-15.371094-3.183594-20.761719-8.355469v8.355469c0 22.652344-25.851562 56.363281-47.730469 62.222656 8.734376 8.695313 28.722657 6.859375 41.5625 4.753906zm0 0" fill="#5f5148" fill-rule="evenodd"/><path d="m180.609375 12.65625c-43.082031 10.277344-75.371094 49.210938-75.371094 95.320312v90.378907c5.390625-5.171875 12.703125-8.355469 20.761719-8.355469h10v-20.003906c0-59.84375 44.394531-109.816406 101.875-118.621094-13.589844-19.082031-33.835938-33.136719-57.265625-38.71875zm0 0" fill="#5f5148" fill-rule="evenodd"/><path d="m277.261719 51.898438c-55.960938 10.097656-98.761719 59.339843-98.761719 118.097656v10.65625c35.195312-12.363282 66.414062-36.539063 77.503906-76.164063 4.332032 15.480469 11.738282 28.601563 21.25 39.582031 24.441406 28.214844 62.800782 42.296876 98.746094 45.929688v-9.347656l.003906-10.65625c0-58.75-42.785156-107.988282-98.742187-118.097656zm0 0" fill="#5f5148"/><path d="m349.285156 325.25c16.695313-20.613281 26.71875-46.816406 26.71875-75.25h9.992188c16.570312 0 30.003906-13.433594 30.003906-30 0-16.570312-13.433594-30-30.003906-30h-9.996094c-34.15625-3.453125-90-18.039062-120-79.941406-15.234375 32.773437-35.835938 64.445312-70 67.898437l.003906 72.042969c0 11.929688 1.765625 23.472656 5.042969 34.371094 4.539063 15.070312 11.980469 28.917968 21.667969 40.878906 9.234375 11.429688 20.523437 21.136719 33.285156 28.558594 10.734375 6.25 22.515625 10.863281 35 13.539062 12.480469-2.675781 24.265625-7.292968 35-13.539062 12.765625-7.417969 24.050781-17.125 33.285156-28.558594zm0 0" fill="#fcd0ac"/><path d="m88.023438 462h27.976562v-68.203125c-13.28125 20.492187-22.917969 43.539063-27.976562 68.203125zm0 0" fill="#f4ba64" fill-rule="evenodd"/><path d="m381.980469 346.976562c-10.128907-8.257812-21.074219-15.550781-32.695313-21.726562-9.234375 11.433594-20.523437 21.140625-33.285156 28.558594v48.191406c0 22.992188-13.113281 43.058594-32.21875 53.121094-8.320312 4.382812-17.769531 6.878906-27.78125 6.878906-33 0-60-27-60-60v-48.191406c-3.601562-2.09375-7.070312-4.386719-10.421875-6.832032l-14.019531-10.933593v165.957031h224.441406v-142.476562c-4.472656-4.398438-9.152344-8.582032-14.019531-12.546876zm0 0" fill="#ff5a5a"/><path d="m293.789062 369.996094c-6.425781 0-12.734374-.523438-18.894531-1.507813-6.160156.984375-12.46875 1.507813-18.894531 1.507813-7.585938 0-15.007812-.726563-22.210938-2.089844v34.09375c0 26.40625 17.292969 48.953125 41.105469 56.917969 23.8125-7.964844 41.105469-30.511719 41.105469-56.917969v-34.09375c-7.203125 1.363281-14.625 2.089844-22.210938 2.089844zm0 0" fill="#fcd0ac" fill-rule="evenodd"/><path d="m90.046875 462c-2.65625 12.933594-4.046875 26.3125-4.046875 40h30v-40zm0 0" fill="#fcd0ac" fill-rule="evenodd"/><path d="m396 462v40h60c0-13.6875-1.394531-27.066406-4.046875-40zm0 0" fill="#fcd0ac" fill-rule="evenodd"/><path d="m396 462h55.953125c-8.125-39.628906-28.074219-75.078125-55.953125-102.476562zm0 0" fill="#f4ba64" fill-rule="evenodd"/><g fill="#000001"><path d="m502 491.996094h-.234375c-5.523437 0-10 4.476562-10 10 0 5.523437 4.476563 10 10 10h.234375c5.523438 0 10-4.476563 10-10 0-5.519532-4.476562-10-10-10zm0 0"/><path d="m473.035156 491.996094h-7.277344c-.515624-10.84375-1.863281-21.535156-4.003906-31.992188-.003906-.011718-.003906-.023437-.007812-.039062-11.664063-56.992188-46.730469-107.09375-97.664063-137.8125 12.09375-18.050782 19.789063-39.285156 21.539063-62.15625h.375c22.058594 0 40.003906-17.941406 40.003906-39.996094s-17.941406-39.996094-39.996094-40v-10.007812c-.019531-71.679688-58.339844-129.996094-130.003906-129.996094-4.613281 0-9.167969.246094-13.65625.71875-20.484375-25.601563-51.566406-40.714844-84.320312-40.714844-59.539063 0-107.976563 48.4375-107.976563 107.976562v142.023438c0 18.089844-12.207031 33.996094-29.683594 38.679688-.039062.011718-.070312.023437-.109375.035156-.207031.058594-.414062.128906-.621094.199218-.109374.039063-.222656.074219-.328124.117188-.1875.074219-.375.160156-.558594.246094-.121094.054687-.242188.105468-.359375.167968-.152344.078126-.304688.167969-.453125.253907-.140625.082031-.28125.160156-.417969.25-.121094.074219-.234375.160156-.351563.246093-.15625.109376-.316406.222657-.464843.34375-.097657.074219-.1875.160157-.28125.242188-.160157.136719-.316407.277344-.46875.421875-.027344.03125-.058594.054687-.085938.082031-.066406.066406-.121093.136719-.1875.207032-.132812.140624-.265625.28125-.386719.429687-.105468.125-.199218.25-.296874.375-.09375.128906-.1875.253906-.277344.382813-.105469.152343-.203125.308593-.296875.464843-.070313.113281-.140625.226563-.207031.347657-.09375.167968-.179688.339843-.265626.511718-.054687.117188-.109374.234375-.164062.355469-.070312.171875-.140625.34375-.207031.519531-.050781.132813-.097657.269532-.140625.40625-.050782.160156-.097656.320313-.140625.484375-.042969.15625-.082031.316407-.117188.476563-.03125.144531-.058593.292968-.082031.4375-.03125.179687-.054688.355468-.074219.535156-.015625.136719-.027343.273438-.039062.410156-.011719.183594-.019531.371094-.023438.558594-.003906.140625 0 .28125.003907.421875.007812.175781.011718.351563.027343.53125.015625.164063.03125.328125.054688.492187.019531.148438.039062.300782.066406.453126.035156.195312.078125.390624.125.585937.023437.085937.03125.171875.054687.257813.011719.039062.027344.078124.039063.121093.039063.148438.089844.292969.136719.4375.050781.148438.101562.292969.152344.4375.054687.132813.109374.265625.164062.398438.070312.160156.144531.316406.222656.46875.054688.113281.109375.226562.171875.335937.101563.195313.21875.378906.335938.566406.042969.066407.082031.140626.128906.207032.175781.265625.363281.519531.5625.761718.011719.011719.019531.023438.027344.03125.191406.234376.398437.457032.605469.667969.023437.019531.039062.042969.058593.0625 16.203125 16.125 37.714844 25.003907 60.570313 25.003907 23.621094 0 45.570312-9.453126 61.527344-25.933594 2.855468 6.160156 6.179687 12.058594 9.925781 17.65625-50.933594 30.714844-86 80.816406-97.664063 137.808594-.003906.015624-.011718.035156-.011718.050781-2.140626 10.457031-3.488282 21.144531-4.003907 31.984375h-7.273437c-5.523438 0-10 4.476562-10 10 0 5.523437 4.476562 10 10 10h16.992187c.015625 0 .023438.003906.039063.003906s.023437-.003906.039062-.003906h59.921875c.011719 0 .023438.003906.039063.003906.011718 0 .023437-.003906.039062-.003906h279.925782c.011718 0 .023437.003906.039062.003906.011719 0 .023438-.003906.039062-.003906h59.921876c.011718 0 .023437.003906.039062.003906.011719 0 .023438-.003906.039062-.003906h16.992188c5.523438 0 10-4.476563 10-10 .003906-5.519532-4.472656-10-9.996094-10zm-67.035156-106.390625c15.328125 19.675781 26.667969 42.222656 33.285156 66.394531h-33.285156zm0 86.394531h37.613281c1.054688 6.582031 1.769531 13.257812 2.125 19.996094h-39.738281zm0-252c0 11.027344-8.972656 20-20.003906 20h-9.996094c-5.523438 0-10 4.476562-10 10v.058594c-.015625 25.632812-8.839844 49.238281-23.605469 67.953125-.609375.578125-1.148437 1.246093-1.605469 1.988281-8.128906 9.828125-17.929687 18.21875-28.960937 24.742188-.289063.132812-.578125.261718-.855469.425781-14.542968 8.457031-30.855468 13.4375-47.578125 14.578125-.144531.007812-.285156.015625-.429687.027344-.953125.058593-1.910156.105468-2.867188.140624-.25.007813-.496094.023438-.746094.027344-1.113281.035156-2.230468.058594-3.351562.058594-1.117188 0-2.230469-.023438-3.347656-.058594-.25-.003906-.5-.019531-.75-.027344-.957032-.035156-1.910156-.082031-2.867188-.140624-.140625-.011719-.285156-.019532-.425781-.027344-16.726563-1.140625-33.039063-6.121094-47.582031-14.582032-.277344-.160156-.566406-.292968-.855469-.421874-11.039063-6.53125-20.847656-14.929688-28.976563-24.765626-.449218-.722656-.976562-1.375-1.566406-1.941406-8.398437-10.636718-14.867187-22.855468-18.898437-36.125-.070313-.285156-.15625-.570312-.253907-.847656-2.90625-9.855469-4.472656-20.277344-4.472656-31.0625-.003906-5.523438-4.480468-10-10.003906-10h-10c-11.027344 0-20-8.972656-20-20s8.972656-20 20-20h10c27.660156 0 55.566406-8.417969 78.582031-23.707031 17.953125-11.921875 32.015625-27.3125 41.527344-45.257813 11.902344 21.652344 29.167969 36.234375 43.238281 45.328125 23.238282 15.019531 51.171875 23.632813 76.644532 23.636719h.007812.007812.003907 9.988281c11.027344 0 20 8.972656 20 20zm-150 210.890625c-5.523438 0-10 4.476563-10 10v10.105469c-22.792969-4.644532-40-24.847656-40-48.996094v-32.007812c14.457031 6.046874 30.226562 9.558593 46.757812 9.964843 1.078126.027344 2.160157.042969 3.246094.042969 1.082032 0 2.164063-.015625 3.242188-.042969 16.527344-.40625 32.296875-3.917969 46.753906-9.964843v32.007812c0 24.148438-17.203125 44.351562-40 48.996094v-10.105469c0-5.523437-4.476562-10-10-10zm.003906-370.894531c60.636719 0 109.980469 49.347656 110 110.003906v9.5c-41.304687-4.035156-87.707031-32.449219-100.371094-77.703125-.019531-.066406-.042968-.125-.0625-.191406-.058593-.183594-.117187-.367188-.1875-.546875-.050781-.140625-.101562-.28125-.160156-.421875-.0625-.148438-.132812-.296875-.199218-.441407-.078126-.160156-.152344-.316406-.238282-.46875-.0625-.121093-.132812-.238281-.203125-.355468-.097656-.164063-.199219-.328125-.304687-.484375-.074219-.109375-.148438-.214844-.230469-.316407-.109375-.152343-.222656-.304687-.34375-.449218-.089844-.109375-.1875-.214844-.28125-.320313-.117187-.128906-.230469-.257812-.355469-.382812-.113281-.113281-.234375-.222657-.351562-.328125-.117188-.105469-.230469-.210938-.351563-.308594-.136719-.113281-.277343-.214844-.417969-.320312-.117187-.085938-.230468-.171876-.351562-.253907-.144531-.097656-.296875-.191406-.449219-.28125-.128906-.078125-.257812-.15625-.390625-.226562-.144531-.078125-.289062-.148438-.4375-.21875-.15625-.078125-.316406-.148438-.476562-.214844-.128906-.054687-.261719-.105469-.390625-.152344-.191407-.070312-.386719-.136719-.582031-.195312-.058594-.015625-.113282-.039063-.171876-.058594-.0625-.015625-.121093-.023437-.179687-.039063-.203125-.054687-.410156-.101562-.617187-.140624-.128907-.023438-.257813-.046876-.386719-.070313-.183594-.027344-.371094-.046875-.554688-.066406-.15625-.015625-.308593-.027344-.460937-.035157-.160156-.007812-.316406-.011718-.476563-.011718-.183593 0-.367187.003906-.546875.011718-.132812.007813-.261718.019532-.394531.03125-.207031.019532-.414063.042969-.621094.074219-.109375.019531-.21875.039063-.332031.0625-.222656.042969-.445312.089844-.664062.148438-.054688.015625-.105469.023437-.15625.035156-.054688.015625-.101563.039063-.152344.054687-.210938.0625-.417969.128907-.625.207032-.117188.042968-.234375.085937-.351563.136718-.175781.070313-.347656.148438-.515625.230469-.136718.066407-.269531.132813-.398437.203125-.144531.078125-.289063.160156-.429688.246094s-.28125.171875-.414062.261719c-.132813.085937-.257813.179687-.382813.273437-.132812.097656-.265625.199219-.390625.300782-.128906.105468-.25.21875-.371093.328124-.113282.101563-.226563.203126-.332032.3125-.132812.125-.253906.261719-.375.398438-.089844.101562-.179687.199219-.265625.300781-.125.148438-.242187.304688-.355469.464844-.074218.101563-.148437.199219-.222656.304687-.105468.160157-.207031.324219-.304687.488282-.070313.117187-.140625.234375-.203125.351562-.085938.15625-.164063.3125-.238282.472656-.066406.148438-.136718.292969-.199218.441407-.058594.140625-.109375.28125-.160156.421875-.066407.179687-.128907.363281-.1875.550781-.015626.0625-.042969.121094-.0625.1875-13.878907 49.59375-59.859376 74.246094-100.371094 77.746094v-9.542969c.007812-40.710938 22.242187-76.328125 55.199218-95.347656.644532-.277344 1.265626-.625 1.851563-1.042969 10.996094-6.0625 23.128906-10.304687 35.992187-12.304687.113282-.011719.230469-.035157.34375-.050782 5.425782-.828125 10.972657-1.257812 16.621094-1.257812zm-179.539062 250.433594c-12.332032 0-24.144532-3.382813-34.394532-9.683594 17.046876-10.796875 27.976563-29.789063 27.976563-50.746094v-142.023438c0-48.507812 39.464844-87.976562 87.976563-87.976562 23.070312 0 45.128906 9.222656 61.480468 25.222656-7.304687 2.140625-14.34375 4.90625-21.058594 8.238282-11.683593-8.71875-25.78125-13.460938-40.421874-13.460938-2.625 0-5.285157.15625-7.882813.460938-.796875.09375-1.589844.203124-2.375.324218-5.457031.84375-9.199219 5.953125-8.351563 11.410156.84375 5.457032 5.953126 9.195313 11.410157 8.351563.53125-.082031 1.070312-.15625 1.636719-.222656 1.84375-.214844 3.714843-.324219 5.5625-.324219 7.472656 0 14.75 1.757812 21.332031 5.070312-32.3125 23.671876-53.347657 61.886719-53.355469 104.925782v10.003906c-22.058594 0-40 17.945312-40 40s17.941406 40 40 40h.382812c.59375 7.773438 1.878907 15.359375 3.785157 22.695312-12.339844 17.445313-32.113281 27.734376-53.703125 27.734376zm109.535156 49.066406v42.503906c0 38.601562 31.402344 70 70 70s70-31.398438 70-70v-42.5c9.433594-6.050781 18.03125-13.292969 25.59375-21.5 12.550781 7.351562 24.0625 15.988281 34.40625 25.6875v128.308594h-260v-128.308594c10.34375-9.703125 21.855469-18.339844 34.40625-25.691406 7.5625 8.207031 16.160156 15.449218 25.59375 21.5zm-80 92.503906h-33.285156c6.617187-24.171875 17.957031-46.71875 33.285156-66.398438zm-37.613281 20h37.613281v19.996094h-39.738281c.355469-6.738282 1.070312-13.414063 2.125-19.996094zm0 0"/><path d="m10.234375 491.996094h-.234375c-5.523438 0-10 4.476562-10 10 0 5.523437 4.476562 10 10 10h.234375c5.519531 0 10-4.476563 10-10 0-5.519532-4.476563-10-10-10zm0 0"/><path d="m306 237.5c-6.886719 0-12.5 5.613281-12.5 12.5s5.613281 12.503906 12.5 12.503906 12.5-5.617187 12.5-12.503906-5.613281-12.5-12.5-12.5zm0 0"/><path d="m206 237.5c-6.886719 0-12.5 5.613281-12.5 12.5s5.613281 12.503906 12.5 12.503906c6.882812 0 12.5-5.617187 12.5-12.503906s-5.617188-12.5-12.5-12.5zm0 0"/><path d="m218.941406 201.707031c-8.429687-2.265625-17.457031-2.261719-25.886718 0-5.335938 1.429688-8.5 6.914063-7.066407 12.25 1.429688 5.332031 6.917969 8.496094 12.25 7.0625 5.050781-1.351562 10.46875-1.355469 15.519531 0 .867188.234375 1.742188.347657 2.597657.347657 4.414062 0 8.453125-2.945313 9.652343-7.414063 1.433594-5.332031-1.730468-10.816406-7.066406-12.246094zm0 0"/><path d="m318.945312 201.707031c-8.429687-2.261719-17.453124-2.265625-25.890624 0-5.332032 1.429688-8.496094 6.914063-7.066407 12.25 1.199219 4.464844 5.238281 7.410157 9.652344 7.410157.859375 0 1.730469-.113282 2.597656-.34375 5.054688-1.355469 10.472657-1.355469 15.523438 0 5.332031 1.433593 10.816406-1.734376 12.25-7.066407 1.429687-5.335937-1.734375-10.820312-7.066407-12.25zm0 0"/><path d="m270.992188 295.007812c-4.546876 2.628907-9.730469 4.019532-14.992188 4.019532s-10.449219-1.390625-14.996094-4.019532c-4.78125-2.765624-10.898437-1.128906-13.660156 3.652344-2.765625 4.78125-1.128906 10.898438 3.652344 13.664063 7.585937 4.382812 16.230468 6.703125 25.003906 6.703125 8.769531 0 17.414062-2.320313 25.003906-6.703125 4.78125-2.765625 6.414063-8.882813 3.652344-13.664063-2.765625-4.78125-8.878906-6.414062-13.664062-3.652344zm0 0"/><path d="m121.558594 73.035156c2.210937 0 4.417968-.726562 6.226562-2.167968 2.347656-1.832032 3.855469-4.6875 3.855469-7.894532 0-5.523437-4.476563-10-10-10-2.785156 0-5.523437 1.222656-7.414063 3.269532-3.753906 4.050781-3.511718 10.378906.542969 14.128906 1.921875 1.785156 4.359375 2.664062 6.789063 2.664062zm0 0"/></g></svg>