<svg height="512pt" viewBox="0 0 512 512" width="512pt" xmlns="http://www.w3.org/2000/svg"><path d="m349.285156 325.253906c16.691406-20.617187 26.710938-46.820312 26.710938-75.253906h10c16.570312 0 30-13.429688 30-29.996094 0-16.570312-13.429688-30-30-30h-10c-35.910156 0-69.996094-7.542968-124.011719-47.339844-18.621094 20.078126-44.179687 36.253907-71.445313 43.082032v64.253906c0 28.433594 10.023438 54.636719 26.714844 75.253906 9.386719 11.613282 20.890625 21.453125 33.914063 28.910156 11.347656 6.519532 23.847656 11.21875 37.101562 13.734376 13.25-2.515626 25.753907-7.214844 37.101563-13.730469 13.019531-7.460938 24.527344-17.300781 33.914062-28.914063zm0 0" fill="#c99e81"/><g fill-rule="evenodd"><path d="m293.496094 370c-6.375 0-12.632813-.515625-18.746094-1.484375-6.117188.96875-12.375 1.484375-18.75 1.484375-5.550781 0-11.011719-.386719-16.363281-1.128906 7.4375 14.023437 20.089843 24.574218 35.121093 29.433594 7.867188-2.546876 15.082032-6.648438 21.238282-11.996094 5.597656-4.863282 10.3125-10.761719 13.855468-17.433594-5.351562.738281-10.808593 1.125-16.355468 1.125zm0 0" fill="#c99e81"/><path d="m160.5 502 135.496094-.003906v-100.910156c-6.191406-.457032-12.160156-1.839844-17.75-4.035157-6.9375 2.722657-14.449219 4.210938-22.246094 4.210938-28.332031 0-52.929688-19.511719-59.375-47.097657-5.871094-3.363281-11.417969-7.234374-16.617188-11.507812l-19.507812-17.402344zm0 0" fill="#7aeae7"/><path d="m295.996094 386.3125v115.683594l100.003906.003906v-142.476562c-13.789062-13.550782-29.519531-25.128907-46.714844-34.269532-9.386718 11.613282-20.890625 21.453125-33.914062 28.914063-3.003906 12.855469-9.949219 23.953125-19.375 32.144531zm0 0" fill="#7aeae7"/><path d="m84.386719 502h31.613281v-107.546875c-19.988281 31.105469-31.613281 68.03125-31.613281 107.546875zm0 0" fill="#7aeae7"/><path d="m396 359.523438v142.476562h60c0-55.628906-23.019531-106.132812-60-142.476562zm0 0" fill="#7aeae7"/><path d="m255.996094 144.167969c31.949218 28.578125 74.089844 45.832031 120 45.832031h10v-50c0-.128906 0-.253906 0-.382812-3.324219.257812-6.660156.386718-10 .386718-71.648438 0-129.789063-57.972656-130-129.625-17.703125 1.347656-34.414063 6.238282-49.425782 13.976563.855469 10.679687 2.632813 21.085937 5.238282 31.132812 4.726562 18.132813 12.175781 35.109375 21.878906 50.484375 8.972656 14.214844 19.867188 27.0625 32.308594 38.195313zm0 0" fill="#f4ba64"/><path d="m245.996094 10.378906c.210937 71.648438 58.351562 129.621094 130 129.621094 3.339844 0 6.675781-.125 10-.382812-.164063-57.582032-37.765625-106.355469-89.746094-123.265626-12.671875-4.125-26.203125-6.351562-40.25-6.351562-3.367188 0-6.703125.128906-10.003906.378906zm0 0" fill="#f9d973"/><path d="m162.925781 137.183594c22.515625-4.769532 43.53125-15.46875 60.765625-31.210938-9.703125-15.375-17.15625-32.351562-21.875-50.484375-.574218-2.203125-1.097656-4.421875-1.589844-6.65625-22.480468 22.839844-36.570312 53.945313-37.300781 88.351563zm0 0" fill="#f9d973"/><path d="m255.996094 144.167969c-7.09375-6.347657-24.9375-24.546875-30.957032-31.945313-19.234374 10.742188-31.539062 22.199219-52.117187 27.78125-3.21875.871094-6.671875-.128906-9.996094-.386718v.382812 47.964844c34.433594-5.210938 66.828125-20.324219 93.070313-43.796875zm0 0" fill="#f4ba64"/></g><path d="m306 237.5c-6.886719 0-12.5 5.617188-12.5 12.503906 0 6.882813 5.613281 12.5 12.5 12.5s12.5-5.617187 12.5-12.5c0-6.886718-5.613281-12.503906-12.5-12.503906zm0 0" fill="#000001"/><path d="m206 237.5c-6.886719 0-12.5 5.617188-12.5 12.503906 0 6.882813 5.613281 12.5 12.5 12.5 6.882812 0 12.5-5.617187 12.5-12.5 0-6.886718-5.617188-12.503906-12.5-12.503906zm0 0" fill="#000001"/><path d="m191 224.023438c4.554688-2.632813 9.738281-4.023438 14.996094-4.023438 5.257812 0 10.445312 1.390625 15 4.023438 1.574218.910156 3.296875 1.339843 4.992187 1.339843 3.457031 0 6.816407-1.792969 8.667969-5 2.761719-4.785156 1.125-10.898437-3.65625-13.660156-7.59375-4.386719-16.238281-6.703125-25.003906-6.703125-8.761719 0-17.40625 2.316406-25 6.703125-4.78125 2.761719-6.421875 8.875-3.65625 13.660156 2.761718 4.78125 8.875 6.421875 13.660156 3.660157zm0 0" fill="#000001"/><path d="m286.007812 225.363281c1.699219 0 3.417969-.429687 4.992188-1.339843 4.554688-2.632813 9.742188-4.023438 15-4.023438s10.441406 1.390625 14.996094 4.023438c4.78125 2.757812 10.898437 1.125 13.660156-3.660157 2.761719-4.78125 1.125-10.898437-3.65625-13.660156-7.589844-4.382813-16.234375-6.703125-25-6.703125s-17.410156 2.320312-25 6.703125c-4.785156 2.761719-6.421875 8.878906-3.660156 13.660156 1.851562 3.207031 5.210937 5 8.667968 5zm0 0" fill="#000001"/><path d="m227.339844 298.664062c-2.761719 4.78125-1.125 10.898438 3.65625 13.660157 7.589844 4.386719 16.234375 6.703125 25.003906 6.703125 8.765625 0 17.410156-2.316406 25-6.703125 4.78125-2.761719 6.417969-8.878907 3.65625-13.660157s-8.878906-6.417968-13.660156-3.65625c-4.554688 2.628907-9.738282 4.019532-14.996094 4.019532-5.261719 0-10.445312-1.390625-15-4.019532-4.78125-2.761718-10.898438-1.125-13.660156 3.65625zm0 0" fill="#000001"/><path d="m502 491.996094h-.238281c-5.523438 0-10 4.476562-10 10 0 5.523437 4.476562 10 10 10h.238281c5.519531 0 9.996094-4.476563 9.996094-10 0-5.523438-4.476563-10-9.996094-10zm0 0" fill="#000001"/><path d="m473.03125 491.996094h-7.277344c-3.324218-69.960938-41.382812-133.480469-101.671875-169.839844 12.089844-18.054688 19.785157-39.285156 21.535157-62.15625h.378906c22.058594 0 40-17.941406 40-39.996094 0-18.605468-12.765625-34.285156-30-38.734375v-41.269531c0-19.023438-3.820313-37.167969-10.722656-53.71875-.035157-.089844-.070313-.183594-.109376-.273438-15.578124-37.125-46.710937-66.164062-85.199218-78.929687-.425782-.171875-.867188-.316406-1.320313-.429687-13.453125-4.308594-27.78125-6.648438-42.644531-6.648438-3.699219 0-7.359375.148438-10.984375.429688-.035156.003906-.070313.003906-.105469.007812-18.589844 1.464844-36.167968 6.578125-52.023437 14.621094-.632813.25-1.230469.558594-1.789063.925781-28.734375 15.097656-51.609375 39.886719-64.25 69.996094-.050781.113281-.097656.230469-.140625.347656-6.890625 16.535156-10.707031 34.664063-10.707031 53.671875v41.269531c-17.230469 4.449219-30 20.128907-30 38.734375 0 22.054688 17.945312 39.996094 40 39.996094h.378906c1.75 22.871094 9.445313 44.101562 21.535156 62.15625-60.289062 36.359375-98.347656 99.878906-101.671874 169.839844h-7.273438c-5.523438 0-10 4.476562-10 10 0 5.523437 4.476562 10 10 10h16.953125c.023437 0 .050781.003906.078125.003906.023438 0 .050781-.003906.074219-.003906h59.847656c.027344 0 .050781.003906.078125.003906s.050781-.003906.078125-.003906h279.84375c.027344 0 .050781.003906.078125.003906s.050781-.003906.078125-.003906h59.84375c.027344 0 .050781.003906.078125.003906.023438 0 .050781-.003906.074219-.003906h16.957031c5.523438 0 10-4.476563 10-10 0-5.523438-4.476562-10-10-10zm-67.03125-106.390625c23.523438 30.203125 37.671875 67.160156 39.734375 106.390625h-39.734375zm-20-21.914063v128.304688h-80.003906v-101.246094c8.199218-8.136719 14.445312-18.335938 17.9375-29.957031 10.242187-6.304688 19.550781-13.988281 27.660156-22.792969 12.546875 7.351562 24.0625 15.988281 34.40625 25.691406zm-130 27.570313c-14.976562 0-28.605469-6.410157-38.007812-16.933594 12.027343 3.683594 24.789062 5.671875 38.007812 5.671875 13.214844 0 25.976562-1.988281 38.003906-5.671875-1.25 1.402344-2.582031 2.726563-3.976562 3.972656-.421875.316407-.820313.660157-1.191406 1.035157-8.921876 7.511718-20.414063 11.925781-32.835938 11.925781zm-45.230469-287.402344c-21.097656 16.824219-47.1875 26.042969-74.347656 26.136719.871094-10.53125 3.109375-20.683594 6.539063-30.273438 20.554687-1.59375 39.832031-10.1875 54.6875-24.152344 3.589843 9.78125 7.976562 19.242188 13.121093 28.289063zm-74.769531 76.140625v-30c31.175781 0 61.15625-10.3125 85.609375-29.230469 5.8125 8.089844 12.285156 15.757813 19.386719 22.921875-29.882813 23.484375-66.761719 36.308594-104.996094 36.308594zm71.234375-149.632812c9.195313-4.109376 19.003906-7.085938 29.242187-8.769532 2.695313 33.097656 16.902344 63.84375 40.667969 87.542969 26.429688 26.347656 61.535157 40.863281 98.851563 40.863281v30c-85.714844-.003906-158.546875-65.191406-168.761719-149.636718zm79.894531-6.265626c3.152344 19.941407 12.855469 38.210938 27.804688 52.015626 14.960937 13.816406 33.957031 22.042968 54.097656 23.59375 3.429688 9.59375 5.671875 19.75 6.546875 30.285156-62.535156-.21875-114.058594-48.652344-119.160156-109.992188 10.613281.035156 20.90625 1.464844 30.710937 4.097656zm71.425782 53.648438c-22.589844-5.890625-41.027344-22.914062-48.699219-44.964844 20.125 10.152344 37.023437 25.800782 48.699219 44.964844zm-170.035157-36.929688c.6875 4.203126 1.511719 8.367188 2.476563 12.488282-9.570313 12.15625-22.824219 20.695312-37.582032 24.488281 8.9375-14.683594 20.9375-27.304687 35.105469-36.976563zm-52.519531 199.179688h-10c-11.027344 0-20-8.96875-20-19.996094s8.972656-20.003906 20-20.003906h10c43.871094 0 86.148438-15.097656 120.003906-42.695312 33.855469 27.609374 76.019532 42.695312 119.992188 42.695312h10c11.03125 0 20 8.972656 20 20.003906 0 11.027344-8.96875 19.996094-20 19.996094h-10c-5.519532 0-10 4.480469-10 10 0 25.65625-8.828125 49.289062-23.609375 68.019531-.601563.574219-1.136719 1.238281-1.59375 1.976563-8.242188 9.96875-18.207031 18.457031-29.433594 25.023437-.648437.285157-1.269531.636719-1.847656 1.054688-15.847657 8.863281-34.101563 13.925781-53.515625 13.925781-19.402344 0-37.644532-5.054688-53.488282-13.910156-.589843-.429688-1.226562-.789063-1.894531-1.082032-11.214843-6.5625-21.171875-15.050781-29.410156-25.011718-.457031-.738282-.992187-1.398438-1.597656-1.976563-14.777344-18.730469-23.605469-42.363281-23.605469-68.019531 0-5.519531-4.480469-10-10-10zm52.066406 120.792969c8.019532 26.722656 30.65625 45.949219 57.933594 49.761719l.003906 12.929687c0 5.523437 4.476563 10 10 10 5.523438 0 10-4.480469 10-10.003906l-.003906-12.925781c7.03125-.980469 13.753906-2.988282 19.996094-5.886719v87.328125h-159.996094v-128.308594c10.34375-9.703125 21.855469-18.335938 34.402344-25.6875 8.113281 8.804688 17.417968 16.488281 27.664062 22.792969zm-82.066406 24.808593v106.394532h-39.738281c2.0625-39.230469 16.210937-76.1875 39.738281-106.394532zm0 0" fill="#000001"/><path d="m10.234375 491.996094h-.234375c-5.523438 0-10 4.476562-10 10 0 5.523437 4.476562 10 10 10h.234375c5.523437 0 10-4.476563 10-10 0-5.523438-4.476563-10-10-10zm0 0" fill="#000001"/><path d="m256.003906 463.042969c5.523438 0 10-4.480469 10-10v-.476563c0-5.523437-4.476562-10-10-10-5.523437 0-10 4.476563-10 10v.476563c0 5.519531 4.476563 10 10 10zm0 0" fill="#000001"/></svg>