<svg height="511pt" viewBox="0 1 511 511.999" width="511pt" xmlns="http://www.w3.org/2000/svg"><path d="m168.746094 44.082031c-6.046875-12.621093-16.160156-22.464843-28.332032-28.261719-2.621093-1.246093-5.339843-2.285156-8.132812-3.144531-24.460938 7.570313-42.230469 30.371094-42.230469 57.320313 0 25.085937 15.394531 46.5625 37.253907 55.527344 3.558593-32.128907 18.828124-60.730469 41.441406-81.441407zm0 0" fill="#5f5148" fill-rule="evenodd"/><path d="m213.746094 44.082031c-23.359375 21.394531-38.882813 51.207031-41.757813 84.628907-.320312 3.71875-.480469 7.484374-.480469 11.289062v44.757812c49.0625-15.070312 84.996094-60.917968 84.996094-114.753906v-52.003906c-15.957031 5.886719-30.445312 14.816406-42.757812 26.082031zm0 0" fill="#5f5148" fill-rule="evenodd"/><path d="m256.503906 70.003906c0 65.996094 54 120 120 120h10v-50.003906c0-3.804688-.164062-7.566406-.484375-11.289062-2.875-33.421876-18.394531-63.234376-41.757812-84.621094-23.125-21.171875-53.933594-34.089844-87.757813-34.089844zm0 0" fill="#5f5148" fill-rule="evenodd"/><path d="m344.265625 44.085938c23.355469 21.390624 38.878906 51.203124 41.753906 84.625 4.066407.859374 8.207031 1.289062 12.359375 1.289062 33.140625 0 60-26.863281 60-60 0-33.140625-26.859375-60-60-60-9.097656 0-17.875 2.058594-25.78125 5.824219-12.175781 5.792969-22.289062 15.636719-28.332031 28.261719zm0 0" fill="#5f5148" fill-rule="evenodd"/><path d="m349.785156 325.253906c16.695313-20.613281 26.71875-46.820312 26.71875-75.253906h10c16.566406 0 30-13.429688 30-30 0-16.566406-13.433594-30-30-30h-10c-38.964844 0-92.6875-20.503906-120-91.929688-19.996094 38.054688-40.664062 71.691407-71.398437 91.929688v60c0 28.433594 10.019531 54.636719 26.703125 75.253906 17.164062 21.214844 41.378906 36.515625 68.996094 42.253906 27.609374-5.738281 51.824218-21.039062 68.980468-42.253906zm0 0" fill="#fcd0ac"/><path d="m256.503906 370c-37.570312 0-71.25-17.5-93.292968-44.746094-2.261719 1.203125-4.5 2.445313-6.710938 3.734375v33.011719c0 55.003906 45 100 99.996094 100 55.003906 0 100.003906-44.996094 100.003906-100v-33.011719c-2.214844-1.285156-4.453125-2.53125-6.714844-3.734375-22.035156 27.25-55.714844 44.746094-93.28125 44.746094zm0 0" fill="#fcd0ac" fill-rule="evenodd"/><path d="m86.5 502h30v-105.007812c-19 30.566406-30 66.5625-30 105.007812zm0 0" fill="#fcd0ac" fill-rule="evenodd"/><path d="m396.5 359.523438v142.476562h59.996094c0-55.628906-23.015625-106.132812-59.996094-142.476562zm0 0" fill="#fcd0ac" fill-rule="evenodd"/><path d="m356.5 328.992188v33.011718c0 46.753906-32.523438 86.273438-76.0625 97.074219-7.675781 1.90625-15.695312 2.925781-23.941406 2.925781-41.253906 0-76.886719-25.324218-92.117188-61.191406v101.1875h232.121094v-142.476562c-11.972656-11.761719-25.410156-22.046876-40-30.53125zm0 0" fill="#ff5a5a"/><g fill="#000001"><path d="m198.746094 241.023438c2.523437-.679688 5.136718-1.023438 7.757812-1.023438 5.257813 0 10.441406 1.394531 15 4.023438 1.574219.910156 3.292969 1.339843 4.992188 1.339843 3.453125 0 6.816406-1.792969 8.667968-5 2.761719-4.78125 1.125-10.898437-3.660156-13.660156-7.589844-4.382813-16.234375-6.703125-25-6.703125-4.375 0-8.730468.574219-12.949218 1.707031-5.332032 1.4375-8.492188 6.921875-7.058594 12.253907 1.433594 5.335937 6.921875 8.496093 12.25 7.0625zm0 0"/><path d="m286.515625 245.363281c1.695313 0 3.417969-.429687 4.992187-1.339843 4.554688-2.628907 9.738282-4.023438 14.996094-4.023438 2.625 0 5.234375.34375 7.757813 1.023438 5.332031 1.433593 10.820312-1.726563 12.253906-7.058594 1.433594-5.335938-1.726563-10.820313-7.0625-12.253906-4.214844-1.132813-8.570313-1.707032-12.949219-1.707032-8.761718 0-17.40625 2.316406-25 6.699219-4.78125 2.761719-6.417968 8.878906-3.65625 13.664063 1.851563 3.203124 5.210938 5 8.667969 4.996093zm0 0"/><path d="m227.847656 298.664062c-2.761718 4.78125-1.125 10.898438 3.65625 13.660157 7.589844 4.386719 16.234375 6.703125 25 6.703125 8.769532 0 17.410156-2.316406 25-6.703125 4.785156-2.761719 6.421875-8.878907 3.660156-13.660157-2.765624-4.78125-8.878906-6.417968-13.664062-3.65625-4.550781 2.628907-9.734375 4.019532-14.996094 4.019532-5.257812 0-10.441406-1.390625-14.996094-4.019532-4.78125-2.761718-10.898437-1.125-13.660156 3.65625zm0 0"/><path d="m103.878906 64.039062c-5.066406-2.070312-10.851562.320313-12.984375 5.347657-.035156.074219-.074219.167969-.097656.234375-2.089844 5.113281.359375 10.949218 5.472656 13.039062 1.238281.503906 2.519531.742188 3.78125.742188 3.894531 0 7.59375-2.292969 9.203125-6.089844.035156-.078125.074219-.171875.101563-.234375 2.085937-5.113281-.363281-10.949219-5.476563-13.039063zm0 0"/><path d="m502.496094 491.996094h-.234375c-5.523438 0-10 4.476562-10 10 0 5.523437 4.476562 10 10 10h.234375c5.523437 0 10-4.476563 10-10 0-5.523438-4.476563-10-10-10zm0 0"/><path d="m473.53125 491.996094h-7.277344c-3.324218-69.957032-41.382812-133.476563-101.667968-169.839844 12.089843-18.050781 19.789062-39.28125 21.535156-62.15625h.382812c22.054688 0 40-17.941406 40-39.996094 0-18.605468-12.769531-34.285156-30-38.734375v-41.269531c0-.019531 0-.035156 0-.050781.625.019531 1.25.050781 1.875.050781 38.597656 0 70-31.402344 70-70s-31.402344-70-70-70c-10.160156 0-20.03125 2.25-29.003906 6.359375-.710938.242187-1.398438.570313-2.046875.972656-10.089844 5.019531-18.941406 12.421875-25.644531 21.644531-23.613282-18.160156-53.15625-28.976562-85.179688-28.976562-32.023437 0-61.566406 10.816406-85.175781 28.976562-6.703125-9.21875-15.550781-16.625-25.636719-21.636718-.65625-.410156-1.347656-.742188-2.0625-.984375-8.96875-4.105469-18.839844-6.355469-28.996094-6.355469-38.601562 0-70.003906 31.402344-70.003906 70s31.402344 70 70.003906 70c.625 0 1.25-.035156 1.875-.050781v.046875 41.269531c-17.234374 4.453125-30 20.132813-30 38.734375 0 22.058594 17.941407 40 40 40h.378907c1.75 22.871094 9.445312 44.101562 21.535156 62.152344-60.292969 36.359375-98.351563 99.882812-101.679687 169.84375h-7.273438c-5.523438 0-10 4.476562-10 10 0 5.523437 4.476562 10 10 10h16.953125c.027344 0 .050781.003906.078125.003906.023438 0 .050781-.003906.078125-.003906h59.84375c.027344 0 .050781.003906.078125.003906.023438 0 .050781-.003906.074219-.003906h279.847656c.023437 0 .050781.003906.078125.003906.023438 0 .050781-.003906.074219-.003906h59.847656c.023437 0 .050781.003906.074219.003906.027344 0 .054687-.003906.078125-.003906h16.957031c5.523438 0 10-4.476563 10-10 0-5.523438-4.476562-10-10-10zm-347.03125-128.308594c6.25-5.863281 12.925781-11.335938 20-16.371094v14.6875c0 60.652344 49.34375 109.996094 109.996094 110 60.65625 0 110.003906-49.347656 110.003906-110v-14.6875c7.074219 5.039063 13.75 10.511719 20 16.371094v128.308594h-260zm220-19.964844v18.277344c0 46.246094-35.0625 84.453125-80 89.441406v-10.550781c0-5.519531-4.476562-10-9.996094-10 0 0 0 0-.003906 0-5.523438 0-9.996094 4.476563-10 10v10.550781c-44.9375-4.988281-80-43.195312-80-89.441406v-18.289062c23.375 22.460937 55.101562 36.289062 90.003906 36.289062 34.894532 0 66.621094-13.824219 89.996094-36.277344zm60 41.882813c23.523438 30.203125 37.667969 67.160156 39.734375 106.390625h-39.734375zm-139.996094-315.601563v-49.585937c61.507813 5.101562 110 56.78125 110 119.582031v40c-60.652344 0-110-49.34375-110-109.996094zm-129.996094 109.996094v-40c0-62.800781 48.492188-114.480469 109.996094-119.582031v49.585937c0 60.652344-49.34375 109.996094-109.996094 109.996094zm311.871094-110c0 27.570312-22.429687 50-50 50-1.109375 0-2.222656-.050781-3.328125-.125-4.328125-29.929688-18.15625-56.824219-38.324219-77.515625 3.792969-5.691406 8.695313-10.488281 14.324219-14.167969 7.589844 7.578125 14.136719 15.679688 19.867188 24.628906 1.910156 2.980469 5.136719 4.609376 8.433593 4.609376 1.84375 0 3.710938-.511719 5.382813-1.578126 4.648437-2.980468 6.007813-9.164062 3.027344-13.816406-4.914063-7.675781-10.347657-14.800781-16.410157-21.53125 2.3125-.332031 4.65625-.503906 7.027344-.503906 27.570313 0 50 22.429688 50 50zm-333.746094 50c-27.570312 0-50.003906-22.429688-50.003906-50s22.429688-50 50.003906-50c2.367188 0 4.714844.171875 7.023438.503906-6.0625 6.726563-11.492188 13.851563-16.410156 21.53125-2.976563 4.648438-1.621094 10.832032 3.03125 13.8125 1.667968 1.070313 3.535156 1.578125 5.382812 1.578125 3.292969 0 6.519532-1.625 8.429688-4.605469 5.730468-8.953124 12.28125-17.054687 19.867187-24.628906 5.632813 3.679688 10.535157 8.476563 14.324219 14.164063-20.164062 20.695312-33.996094 47.589843-38.324219 77.519531-1.105469.074219-2.214843.125-3.324219.125zm21.875 120h-10c-11.03125 0-20-8.96875-20-19.996094s8.96875-20.003906 20-20.003906h10c53.976563 0 100.371094-33.070312 119.996094-80.011719 19.628906 46.941407 66.023438 80.011719 120 80.011719h10c11.027344 0 20 8.972656 20 20.003906 0 11.027344-8.972656 19.996094-20 19.996094h-10c-5.523437 0-10 4.480469-10 10 0 25.648438-8.824218 49.269531-23.59375 68-.621094.585938-1.167968 1.261719-1.632812 2.019531-20.195313 24.40625-50.699219 39.980469-84.773438 39.980469-34.101562 0-64.625-15.597656-84.816406-40.03125-.445312-.71875-.964844-1.363281-1.550781-1.925781-14.792969-18.734375-23.628907-42.375-23.628907-68.042969 0-5.519531-4.480468-10-10-10zm-30.007812 145.601562v106.394532h-39.734375c2.0625-39.230469 16.207031-76.1875 39.734375-106.394532zm0 0"/><path d="m10.734375 491.996094h-.234375c-5.523438 0-10 4.476562-10 10 0 5.523437 4.476562 10 10 10h.234375c5.523437 0 10-4.476563 10-10 0-5.523438-4.476563-10-10-10zm0 0"/><path d="m403.480469 76.621094c.070312.203125.171875.460937.261719.671875 1.609374 3.8125 5.3125 6.113281 9.21875 6.113281 1.257812 0 2.539062-.238281 3.777343-.746094 5.109375-2.085937 7.5625-7.925781 5.472657-13.039062-.007813-.023438-.019532-.050782-.03125-.082032-1.992188-4.921874-7.527344-7.457031-12.589844-5.671874-5.207032 1.835937-7.945313 7.542968-6.109375 12.753906zm0 0"/></g></svg>