<svg height="512pt" viewBox="0 0 512 512" width="512pt" xmlns="http://www.w3.org/2000/svg"><path d="m188.332031 10v131.347656l49.824219 11.898438 17.84375 4.261718 31.164062-7.445312 6.734376-1.605469 37.898437-9.050781c1.210937 4.875 2.679687 9.5 4.375 13.839844 8.652344 22.179687 23.257813 36.757812 39.824219 36.757812h10v-180.003906zm0 0" fill="#c99e81"/><path d="m135.996094 191.714844c-11.648438 4.121094-20 15.226562-20 28.289062 0 13.058594 8.351562 24.164063 20 28.28125zm0 0" fill="#fcd0ac" fill-rule="evenodd"/><path d="m375.996094 190v60h10c16.566406 0 30-13.433594 30-30s-13.433594-30-30-30zm0 0" fill="#fcd0ac" fill-rule="evenodd"/><path d="m349.28125 325.253906c16.695312-20.617187 26.714844-46.820312 26.714844-75.253906v-60c-16.910156 0-35.617188-27.632812-44.195313-50.59375l-75.800781 18.101562-64.042969-15.292968v107.785156c0 28.433594 10.019531 54.636719 26.710938 75.253906 16.394531 20.265625 39.226562 35.132813 65.308593 41.421875 26.082032-6.289062 48.914063-21.152343 65.304688-41.421875zm0 0" fill="#fcd0ac" fill-rule="evenodd"/><path d="m235.996094 399.621094c0-5.53125 2.25-10.542969 5.882812-14.164063-8.882812-8.046875-20.714844-17.5625-31.765625-23.003906-12.226562 8.925781-18.15625 29.035156-18.15625 37.167969 0 8.132812 5.929688 28.242187 18.160157 37.164062 11.046874-5.4375 22.878906-14.953125 31.761718-23-3.632812-3.621094-5.882812-8.632812-5.882812-14.164062zm0 0" fill="#f9d973" fill-rule="evenodd"/><path d="m378.238281 344.003906c-9.070312-7.039062-18.75-13.328125-28.953125-18.75-17.234375 21.308594-41.585937 36.652344-69.34375 42.332032-7.742187 1.582031-15.75 2.414062-23.941406 2.414062-28.027344 0-53.882812-9.738281-74.359375-25.996094l-17.761719-15.480468v67.863281c1.71875-13.375 12.984375-41.695313 34.597656-38 13.625 2.332031 31.265626 16.078125 43.402344 27.070312 3.613282-3.609375 8.605469-5.835937 14.117188-5.835937 5.515625 0 10.503906 2.226562 14.121094 5.835937 3.632812 3.621094 5.878906 8.628907 5.878906 14.160157 0 5.535156-2.246094 10.542968-5.878906 14.164062-3.617188 3.609375-8.605469 5.839844-14.121094 5.839844-5.511719 0-10.503906-2.230469-14.117188-5.839844-12.136718 10.996094-29.777344 24.742188-43.402344 27.070312-21.613281 3.695313-32.878906-24.625-34.597656-38v99.148438h232.117188v-142.476562c-5.605469-5.511719-11.542969-10.691407-17.757813-15.519532zm0 0" fill="#5f5148"/><path d="m378.238281 344.003906c-9.070312-7.039062-18.75-13.328125-28.953125-18.75-17.234375 21.308594-41.585937 36.652344-69.34375 42.332032-7.742187 1.582031-15.75 2.414062-23.941406 2.414062-28.027344 0-53.882812-9.738281-74.359375-25.996094l-17.761719-15.480468v67.863281c1.71875-13.375 12.984375-41.695313 34.597656-38 13.625 2.332031 31.265626 16.078125 43.402344 27.070312 3.613282-3.609375 8.605469-5.835937 14.117188-5.835937 5.515625 0 10.503906 2.226562 14.121094 5.835937 3.632812 3.621094 5.878906 8.628907 5.878906 14.160157 0 5.535156-2.246094 10.542968-5.878906 14.164062-3.617188 3.609375-8.605469 5.839844-14.121094 5.839844-5.511719 0-10.503906-2.230469-14.117188-5.839844-12.136718 10.996094-29.777344 24.742188-43.402344 27.070312-21.613281 3.695313-32.878906-24.625-34.597656-38v99.148438h232.117188v-142.476562c-5.605469-5.511719-11.542969-10.691407-17.757813-15.519532zm0 0" fill="#5f5148"/><path d="m270.117188 385.457031c-1.445313-1.441406-3.121094-2.652343-4.953126-3.597656-1.832031.945313-3.507812 2.15625-4.953124 3.597656-3.632813 3.621094-5.878907 8.632813-5.878907 14.164063s2.246094 10.542968 5.878907 14.164062c1.445312 1.441406 3.121093 2.652344 4.953124 3.597656 1.832032-.945312 3.507813-2.15625 4.953126-3.597656 3.632812-3.621094 5.878906-8.632812 5.878906-14.164062s-2.246094-10.542969-5.878906-14.164063zm0 0" fill="#f9d973" fill-rule="evenodd"/><path d="m270.117188 385.457031c3.632812 3.621094 5.878906 8.632813 5.878906 14.164063s-2.246094 10.542968-5.878906 14.164062c12.136718 10.992188 29.773437 24.738282 43.402343 27.066406 23.558594 4.03125 34.835938-30.007812 34.835938-41.230468s-11.277344-45.261719-34.835938-41.234375c-13.628906 2.332031-31.265625 16.078125-43.402343 27.070312zm0 0" fill="#f9d973" fill-rule="evenodd"/><path d="m83 502h32.996094v-109.679688c-20.835938 31.546876-32.996094 69.257813-32.996094 109.679688zm0 0" fill="#c99e81" fill-rule="evenodd"/><path d="m395.996094 359.523438v142.476562h60.003906c0-55.628906-23.019531-106.132812-60.003906-142.476562zm0 0" fill="#c99e81" fill-rule="evenodd"/><g fill="#000001"><path d="m188.574219 239.753906c5.078125-1.363281 10.445312-1.363281 15.527343 0 5.078126 1.359375 9.730469 4.046875 13.449219 7.765625 1.953125 1.949219 4.511719 2.925781 7.070313 2.925781s5.117187-.976562 7.070312-2.929687c3.90625-3.90625 3.902344-10.238281 0-14.140625-6.199218-6.199219-13.949218-10.671875-22.414062-12.941406-8.46875-2.269532-17.417969-2.269532-25.882813 0-5.335937 1.433594-8.5 6.917968-7.070312 12.25 1.433593 5.335937 6.914062 8.496094 12.25 7.070312zm0 0"/><path d="m287.371094 250.445312c2.5625 0 5.117187-.976562 7.070312-2.925781 3.722656-3.71875 8.371094-6.40625 13.453125-7.765625 5.078125-1.363281 10.445313-1.363281 15.527344 0 5.332031 1.429688 10.816406-1.734375 12.25-7.070312 1.429687-5.332032-1.734375-10.816406-7.070313-12.25-8.46875-2.269532-17.421874-2.269532-25.882812 0-8.464844 2.269531-16.214844 6.742187-22.414062 12.9375-3.90625 3.90625-3.90625 10.238281-.003907 14.144531 1.953125 1.953125 4.511719 2.929687 7.070313 2.929687zm0 0"/><path d="m227.339844 298.664062c-2.765625 4.785157-1.125 10.898438 3.65625 13.660157 7.59375 4.386719 16.238281 6.703125 25 6.703125 8.765625 0 17.410156-2.316406 25.003906-6.703125 4.78125-2.761719 6.421875-8.875 3.65625-13.660157-2.761719-4.78125-8.875-6.421874-13.660156-3.65625-4.554688 2.628907-9.738282 4.019532-15 4.019532-5.257813 0-10.441406-1.390625-14.996094-4.019532-4.785156-2.765624-10.898438-1.125-13.660156 3.65625zm0 0"/><path d="m256 85.140625c5.519531 0 10-4.480469 10-10v-.476563c0-5.523437-4.480469-10-10-10-5.523438 0-10 4.476563-10 10v.476563c0 5.519531 4.476562 10 10 10zm0 0"/><path d="m10.234375 491.996094h-.234375c-5.523438 0-10 4.476562-10 10 0 5.523437 4.476562 10 10 10h.234375c5.519531 0 10-4.476563 10-10 0-5.523438-4.480469-10-10-10zm0 0"/><path d="m473.03125 491.996094h-7.273438c-3.328124-69.960938-41.386718-133.480469-101.675781-169.84375 12.089844-18.050782 19.785157-39.28125 21.535157-62.152344h.378906c22.058594 0 40-17.941406 40-40 0-18.601562-12.765625-34.28125-30-38.734375v-171.265625c0-5.523438-4.476563-10-10-10h-260c-5.519532 0-10 4.476562-10 10v171.265625c-17.230469 4.453125-30 20.132813-30 38.738281 0 22.054688 17.945312 39.996094 40 39.996094h.382812c1.75 22.871094 9.445313 44.101562 21.535156 62.152344-60.289062 36.363281-98.347656 99.882812-101.675781 169.84375h-7.273437c-5.523438 0-10 4.476562-10 10 0 5.523437 4.476562 10 10 10h16.957031c.023437 0 .050781.003906.074219.003906.027344 0 .050781-.003906.078125-.003906h59.84375c.027343 0 .050781.003906.078125.003906s.050781-.003906.078125-.003906h279.847656c.023437 0 .050781.003906.074219.003906.027344 0 .050781-.003906.078125-.003906h59.847656c.027344 0 .050781.003906.078125.003906.023438 0 .050781-.003906.074219-.003906h16.957031c5.523438 0 10-4.476563 10-10 0-5.523438-4.476562-10-10-10zm-67.035156-106.394532c23.527344 30.207032 37.675781 67.164063 39.738281 106.394532h-39.738281zm0-165.601562c0 11.027344-8.972656 20-20 20v-40c11.03125 0 20 8.972656 20 20zm-270-200h240v160c-14.253906 0-28.113282-17.28125-34.492188-43-1.320312-5.328125-6.683594-8.589844-12.027344-7.320312l-25.578124 6.109374v-13.972656c0-5.523437-4.476563-10-10-10-5.523438 0-10 4.476563-10 10v18.746094l-17.898438 4.273438v-40.613282c0-5.523437-4.476562-10-10-10s-10 4.476563-10 10v40.613282l-17.898438-4.273438v-18.746094c0-5.523437-4.480468-10-10-10-5.523437 0-10 4.476563-10 10v13.96875l-25.582031-6.109375c-5.332031-1.273437-10.707031 1.992188-12.027343 7.320313-6.375 25.722656-20.238282 43.003906-34.492188 43.003906v-160zm-30 200c0-11.027344 8.972656-20 20-20v40c-11.027344 0-20-8.972656-20-20zm40-21.347656c17.59375-4.792969 32.738281-22.105469 41.148437-47.308594l66.53125 15.886719c.039063.011719.074219.011719.109375.023437.273438.058594.550782.105469.832032.144532.089843.015624.179687.03125.269531.042968.367187.039063.734375.066406 1.113281.066406.375 0 .746094-.027343 1.109375-.066406.089844-.011718.175781-.027344.265625-.039062.28125-.039063.5625-.085938.839844-.148438.03125-.007812.070312-.011718.105468-.019531l66.53125-15.886719c8.410157 25.199219 23.554688 42.511719 41.144532 47.308594v51.34375c0 25.652344-8.824219 49.28125-23.601563 68.011719-.609375.578125-1.148437 1.246093-1.609375 1.992187-20.191406 24.414063-50.703125 39.996094-84.785156 39.996094h-.003906c-34.089844 0-64.605469-15.585938-84.796875-40.007812-.453125-.734376-.988281-1.394532-1.589844-1.96875-14.78125-18.730469-23.613281-42.367188-23.613281-68.023438zm100.003906 200.96875c0-5.515625 4.484375-10 10-10 5.511719 0 9.996094 4.484375 9.996094 10s-4.484375 10-9.996094 10c-5.515625 0-10-4.484375-10-10zm-59.320312-28.308594c3.226562-2.71875 6.441406-3.699219 10.109374-3.066406 7.539063 1.289062 18.933594 8.109375 31.898438 18.980468-1.71875 3.78125-2.6875 7.976563-2.6875 12.394532 0 4.417968.96875 8.613281 2.691406 12.394531-12.96875 10.871094-24.363281 17.691406-31.902344 18.980469-3.671874.628906-6.882812-.347656-10.109374-3.070313-8.605469-7.257812-13.042969-23.128906-13.042969-28.308593.003906-5.171876 4.4375-21.042969 13.042969-28.304688zm96.628906 15.914062c12.964844-10.871093 24.359375-17.691406 31.894531-18.980468 3.675781-.628906 6.886719.347656 10.109375 3.066406 8.605469 7.257812 13.042969 23.132812 13.042969 28.308594 0 5.175781-4.4375 21.050781-13.042969 28.308594-3.222656 2.71875-6.433594 3.691406-10.109375 3.066406-7.535156-1.289063-18.929687-8.109375-31.894531-18.980469 1.722656-3.78125 2.6875-7.976563 2.6875-12.394531 0-4.417969-.964844-8.613282-2.6875-12.394532zm-106.003906-33.824218c-1.199219.792968-2.375 1.660156-3.519532 2.625-14.238281 12.007812-20.144531 34.316406-20.144531 43.59375 0 9.273437 5.90625 31.585937 20.144531 43.59375 6.238282 5.261718 13.375 7.96875 20.890625 7.96875 1.808594 0 3.640625-.15625 5.488281-.472656 13.839844-2.367188 29.84375-13.585938 42.433594-24.261719 1.097656.550781 2.230469 1.035156 3.398438 1.449219l.003906 9.570312c0 5.523438 4.476562 10 10 10 5.523438-.003906 10-4.480469 10-10.003906l-.003906-9.5625c1.171875-.417969 2.304687-.902344 3.402344-1.453125 12.589843 10.675781 28.589843 21.894531 42.433593 24.261719 1.847657.316406 3.679688.472656 5.488281.472656 7.515626 0 14.652344-2.707032 20.890626-7.96875 14.234374-12.007813 20.144531-34.320313 20.144531-43.59375 0-9.277344-5.910157-31.585938-20.144531-43.59375-1.144532-.964844-2.320313-1.832032-3.519532-2.625 6.074219-4.632813 11.730469-9.789063 16.902344-15.402344 12.546875 7.351562 24.0625 15.984375 34.402344 25.6875v128.308594h-260v-128.308594c10.34375-9.703125 21.855468-18.335938 34.40625-25.6875 5.167968 5.613281 10.828125 10.769531 16.902344 15.402344zm-71.308594 32.203125v106.390625h-39.734375c2.0625-39.230469 16.210937-76.1875 39.734375-106.390625zm0 0"/><path d="m501.996094 491.996094h-.234375c-5.523438 0-10 4.476562-10 10 0 5.523437 4.476562 10 10 10h.234375c5.523437 0 10-4.476563 10-10 0-5.523438-4.476563-10-10-10zm0 0"/><path d="m256 477.027344c5.519531 0 10-4.476563 10-10v-.472656c0-5.523438-4.480469-10-10-10-5.523438 0-10 4.476562-10 10v.472656c0 5.523437 4.476562 10 10 10zm0 0"/></g></svg>