<svg height="512pt" viewBox="0 0 512 512" width="512pt" xmlns="http://www.w3.org/2000/svg"><path d="m196 173.589844c3.152344-.140625 6.347656-.320313 9.582031-.546875-3.652343-.234375-6.875-.484375-9.582031-.71875zm0 0" fill="#f9d973"/><path d="m423.675781 302.796875c-3.964843 8.027344-8.800781 15.554687-14.390625 22.453125 14.363282 7.632812 27.691406 16.972656 39.726563 27.734375 4.546875-10.511719 6.992187-21.96875 6.992187-33.738281-13.285156 0-25.050781-6.480469-32.328125-16.449219zm0 0" fill="#f9d973"/><path d="m409.285156 325.25c5.589844-6.898438 10.425782-14.425781 14.390625-22.453125-4.824219-6.609375-7.675781-14.75-7.675781-23.558594v-109.148437l.003906-.09375c0-1.101563-.023437-2.199219-.042968-3.292969-1.550782-76.636719-56.980469-140.039063-129.957032-153.882813-74.023437 14.042969-130 79.070313-130 157.175782v3.601562c11.328125.480469 25.125.667969 39.996094-.007812v-1.265625c2.707031.234375 5.929688.484375 9.582031.71875 42.914063-2.984375 91.878907-13.722657 115.417969-44.796875 0 0 8.332031 15.773437 21.53125 28.339844 9.191406 8.75 20.734375 15.949218 33.472656 15.1875v78.226562c0 28.433594-10.023437 54.636719-26.71875 75.253906 17.199219 9.140625 32.925782 20.722656 46.714844 34.269532 8.996094 8.84375 17.164062 18.523437 24.386719 28.90625 12.769531-9.113282 22.570312-21.4375 28.628906-35.445313-12.039063-10.761719-25.367187-20.101563-39.730469-27.734375zm0 0" fill="#f9d973"/><path d="m190.304688 172.324219v1.484375c4.089843-.128906 8.273437-.320313 12.527343-.585938-4.878906-.28125-9.117187-.601562-12.527343-.898437zm0 0" fill="#fcd0ac"/><path d="m340.734375 154.828125c-12.152344-12.230469-19.734375-26.582031-19.734375-26.582031-24.042969 31.742187-74.613281 42.257812-118.167969 44.976562-4.253906.265625-8.4375.457032-12.523437.585938v76.1875c0 28.433594 10.019531 54.640625 26.710937 75.253906 9.234375 11.429688 20.523438 21.136719 33.285157 28.554688 10.117187 5.890624 21.160156 10.332031 32.847656 13.0625 11.683594-2.730469 22.730468-7.171876 32.847656-13.058594 12.761719-7.421875 24.050781-17.128906 33.285156-28.558594 16.695313-20.613281 26.71875-46.816406 26.71875-75.253906v-78.222656c-13.578125.8125-25.808594-7.421876-35.269531-16.945313zm0 0" fill="#fcd0ac"/><path d="m85.996094 501.996094h30v-105.007813c-19 30.566407-30 66.5625-30 105.007813zm0 0" fill="#45ba88" fill-rule="evenodd"/><path d="m380.757812 345.992188c-9.789062-7.851563-20.320312-14.8125-31.472656-20.742188-9.234375 11.429688-20.523437 21.136719-33.289062 28.558594v48.191406c0 23.496094-13.691406 43.941406-33.488282 53.773438-8.007812 3.980468-17.003906 6.226562-26.507812 6.226562-33 0-60-27-60-60v-48.191406c-4.078125-2.371094-7.984375-5-11.742188-7.816406-3.902343-4.746094-9.207031-10.691407-15.246093-14.480469v170.484375h226.988281v-142.476563c-4.847656-4.761719-9.9375-9.273437-15.242188-13.527343zm0 0" fill="#45ba88"/><path d="m296.5 369.996094c-6.898438 0-13.664062-.59375-20.25-1.722656-6.589844 1.128906-13.351562 1.722656-20.25 1.722656-6.636719 0-13.152344-.550782-19.5-1.601563v33.605469c0 25.898438 16.636719 48.101562 39.75 56.457031 23.113281-8.355469 39.746094-30.554687 39.746094-56.457031l.003906-33.605469c-6.351562 1.046875-12.863281 1.601563-19.5 1.601563zm0 0" fill="#fcd0ac" fill-rule="evenodd"/><path d="m396 359.519531v142.476563h60c0-42.09375-13.179688-81.25-35.613281-113.566406-7.222657-10.382813-15.390625-20.0625-24.386719-28.910157zm0 0" fill="#45ba88" fill-rule="evenodd"/><g fill="#000001"><path d="m10.234375 491.996094h-.234375c-5.523438 0-10 4.476562-10 10 0 5.523437 4.476562 10 10 10h.234375c5.523437 0 10-4.476563 10-10 0-5.523438-4.476563-10-10-10zm0 0"/><path d="m502 491.996094h-.234375c-5.523437 0-10 4.476562-10 10 0 5.523437 4.476563 10 10 10h.234375c5.523438 0 10-4.476563 10-10 0-5.523438-4.476562-10-10-10zm0 0"/><path d="m473.03125 491.996094h-7.273438c-1.742187-36.585938-12.976562-71.410156-31.925781-101.511719 20.296875-17.914063 32.171875-43.886719 32.171875-71.238281 0-5.523438-4.476562-10-10-10-16.546875 0-30.007812-13.460938-30.007812-30.007813v-108.960937c.003906-.09375.003906-.1875.003906-.28125 0-93.734375-76.261719-169.996094-170-169.996094-93.734375 0-169.996094 76.261719-169.996094 169.996094v.183594 109.058593c0 16.546875-13.460937 30.007813-30.007812 30.007813-5.519532 0-10 4.476562-10 10 0 27.347656 11.878906 53.320312 32.167968 71.234375-18.949218 30.101562-30.183593 64.929687-31.921874 101.515625h-7.277344c-5.523438 0-10 4.476562-10 10 0 5.523437 4.476562 10 10 10h16.992187.039063.039062 59.921875.039063.039062 279.925782.039062.039062 59.921876.039062.039062 16.992188c5.523438 0 10-4.476563 10-10 0-5.523438-4.476562-10-10-10zm-347.035156-128.308594c10.34375-9.703125 21.859375-18.339844 34.410156-25.691406 7.5625 8.210937 16.160156 15.453125 25.59375 21.503906v42.5c0 38.597656 31.402344 70 70 70s69.996094-31.402344 69.996094-70v-42.496094c9.4375-6.050781 18.035156-13.292968 25.601562-21.503906 12.546875 7.351562 24.058594 15.984375 34.402344 25.6875v128.308594h-260.003906zm20.003906-180.550781c8.316406.527343 18.65625.964843 30.234375.964843 44.910156 0 108.316406-6.527343 143.285156-39.347656 8.972657 12.890625 25.53125 32.15625 46.484375 36.289063v68.953125c0 25.652344-8.828125 49.277344-23.601562 68.007812-.613282.582032-1.160156 1.253906-1.621094 2.003906-8.117188 9.816407-17.90625 18.195313-28.925781 24.714844-.300781.136719-.601563.273438-.890625.441406-14.539063 8.460938-30.851563 13.441407-47.574219 14.578126-.144531.007812-.285156.019531-.429687.027343-.953126.0625-1.910157.105469-2.867188.140625-.246094.011719-.496094.023438-.746094.03125-1.113281.035156-2.230468.054688-3.351562.054688-1.117188 0-2.230469-.019532-3.347656-.054688-.25-.007812-.5-.019531-.75-.03125-.957032-.035156-1.914063-.078125-2.867188-.140625-.144531-.007812-.285156-.019531-.425781-.027343-16.726563-1.136719-33.039063-6.117188-47.578125-14.578126-.285156-.167968-.582032-.300781-.875-.4375-11.03125-6.523437-20.828125-14.917968-28.953125-24.742187-.453125-.734375-.984375-1.390625-1.585938-1.964844-14.78125-18.730469-23.613281-42.363281-23.613281-68.023437zm110 247.753906c-5.523438 0-10 4.476563-10 10v10.105469c-22.796875-4.648438-40-24.851563-40-48.996094v-32.007812c14.457031 6.042968 30.226562 9.554687 46.753906 9.964843 1.082032.023438 2.164063.039063 3.246094.039063 1.085938 0 2.167969-.011719 3.246094-.039063 16.527344-.410156 32.296875-3.917969 46.75-9.964843v32.007812c0 24.144531-17.203125 44.347656-39.996094 48.992188v-10.101563c0-5.523437-4.476562-10-10-10zm150-45.289063c1.921875 2.46875 3.78125 4.984376 5.578125 7.542969.199219.375.417969.742188.671875 1.09375.183594.261719.390625.496094.59375.734375 19.414062 28.335938 31.035156 61.757813 32.890625 97.023438h-39.734375zm-339.472656-57.480468c22.535156-4.851563 39.476562-24.921875 39.476562-48.882813v-109.148437c0-.039063 0-.109375 0-.175782.046875-82.667968 67.316406-149.914062 149.996094-149.914062 82.648438 0 149.902344 67.1875 150 149.816406 0 .089844-.003906.183594-.003906.273438v109.148437c0 23.960938 16.941406 44.03125 39.476562 48.878907-2.097656 17.515624-10.339844 33.785156-23.1875 45.839843-15.769531-20.40625-35.394531-38.046875-58.199218-51.804687 13.835937-20.65625 21.917968-45.480469 21.917968-72.15625v-70.03125c4.390625-1.945313 6.867188-6.820313 5.632813-11.625-1.375-5.347656-6.828125-8.566406-12.175781-7.191406-25.371094 6.523437-49.390626-37.140626-49.621094-37.574219-1.597656-3.019531-4.625-5.019531-8.03125-5.296875-3.402344-.273438-6.71875 1.207031-8.78125 3.929687-42.796875 56.5-183.734375 39.429688-185.324219 39.226563-5.472656-.695313-10.484375 3.179687-11.179687 8.660156-.695313 5.480469 3.179687 10.484375 8.660156 11.183594.167968.019531.449218.054687.816406.097656v68.621094c0 26.675781 8.082031 51.496094 21.917969 72.152344-22.808594 13.757812-42.4375 31.398437-58.203125 51.808593-12.847656-12.058593-21.089844-28.328125-23.1875-45.835937zm32.582031 66.914062c.226563-.253906.445313-.515625.644531-.796875.261719-.363281.484375-.746093.691406-1.132812 1.789063-2.542969 3.636719-5.046875 5.550782-7.503907v106.394532h-39.734375c1.851562-35.238282 13.460937-68.636719 32.847656-96.960938zm0 0"/><path d="m306 237.496094c-6.886719 0-12.5 5.617187-12.5 12.503906 0 6.882812 5.613281 12.5 12.5 12.5 6.882812 0 12.5-5.617188 12.5-12.5 0-6.886719-5.617188-12.503906-12.5-12.503906zm0 0"/><path d="m205.996094 237.496094c-6.882813 0-12.5 5.617187-12.5 12.503906 0 6.882812 5.617187 12.5 12.5 12.5 6.886718 0 12.503906-5.617188 12.503906-12.5 0-6.886719-5.617188-12.503906-12.503906-12.503906zm0 0"/><path d="m195.636719 221.367188c.859375 0 1.730469-.113282 2.597656-.34375 5.058594-1.359376 10.472656-1.359376 15.523437-.003907 5.339844 1.433594 10.820313-1.730469 12.25-7.066406 1.433594-5.332031-1.730468-10.816406-7.066406-12.25-8.429687-2.261719-17.449218-2.261719-25.886718 0-5.335938 1.433594-8.5 6.917969-7.066407 12.25 1.195313 4.46875 5.234375 7.414063 9.648438 7.414063zm0 0"/><path d="m295.640625 221.367188c.859375 0 1.730469-.113282 2.601563-.347657 5.042968-1.351562 10.460937-1.355469 15.519531.003907 5.339843 1.429687 10.820312-1.734376 12.25-7.070313 1.429687-5.335937-1.734375-10.820313-7.066407-12.25-8.441406-2.261719-17.464843-2.261719-25.890624 0-5.332032 1.433594-8.496094 6.917969-7.0625 12.253906 1.195312 4.464844 5.234374 7.410157 9.648437 7.410157zm0 0"/><path d="m230.996094 312.324219c7.589844 4.382812 16.234375 6.699219 25 6.699219 8.769531 0 17.414062-2.316407 25.003906-6.699219 4.78125-2.765625 6.421875-8.878907 3.65625-13.664063-2.761719-4.78125-8.875-6.417968-13.660156-3.65625-4.550782 2.628906-9.738282 4.019532-15 4.019532-5.257813 0-10.445313-1.390626-14.996094-4.019532-4.785156-2.761718-10.894531-1.125-13.660156 3.65625-2.761719 4.785156-1.125 10.898438 3.65625 13.664063zm0 0"/><path d="m139.1875 147.058594c.035156.003906.144531.007812.207031.011718.203125.011719.398438.015626.597657.015626 5.21875 0 9.613281-4.046876 9.96875-9.328126.371093-5.511718-3.796876-10.277343-9.308594-10.648437l-.273438-.015625c-5.5-.3125-10.246094 3.871094-10.574218 9.386719-.332032 5.511719 3.871093 10.25 9.382812 10.578125zm0 0"/><path d="m168.929688 147.824219h.050781c15.378906-.078125 30.132812-.914063 43.84375-2.488281 5.488281-.632813 9.425781-5.589844 8.796875-11.078126-.632813-5.484374-5.585938-9.425781-11.078125-8.792968-12.992188 1.492187-27.011719 2.285156-41.664063 2.359375-5.523437.03125-9.976562 4.53125-9.949218 10.050781.027343 5.507812 4.5 9.949219 10 9.949219zm0 0"/></g></svg>