<svg height="512pt" viewBox="0 0 512 512" width="512pt" xmlns="http://www.w3.org/2000/svg"><path d="m429.199219 311.5c-2.898438 4.800781-6.097657 9.398438-9.597657 13.699219 4.796876 2.601562 9.5 5.300781 14.097657 8.199219.101562-1.097657.101562-2.296876.101562-3.5-.199219-8-2-13.699219-4.601562-18.398438zm0 0" fill="#5f5148"/><path d="m440.699219 242c0-18.101562-17.398438-21.199219-17.699219-37.898438-.300781-16.203124 11.5-17.5 10.898438-36.601562 0-.5 0-1.101562-.097657-1.699219-1.300781-20.699219-17.601562-23.402343-21-35.699219-3.402343-12.300781 8.097657-28.800781-4.402343-43.902343-12.5-15.097657-33.796876-3.398438-44.597657-14.800781-10.699219-11.398438-3.199219-33.296876-23.101562-44-19.898438-10.699219-31.898438 4.601562-44.597657 1.101562-1.601562-.5-3.300781-1.101562-4.902343-1.898438-1.597657.796876-3.199219 1.796876-4.898438 1.898438-5.601562.199219-15.601562-24.699219-35.402343-13.898438-68.898438 37.597657-101.097657 130.398438-102.398438 151.097657-.101562 1.402343-.101562 2.699219-.101562 4 9.300781-5.5 13.101562-17.398438 25.300781-17.398438 7.5 0 23.5 10.199219 36.699219 9.199219 13.5-1 24.203124-15.199219 34.703124-15.699219 13.398438-.601562 22.097657 14.800781 39.796876 11.097657 20.300781-4.199219 28.800781-31.097657 48.203124-28.398438 11.5 1.601562 15.597657 16.5 22.199219 28.398438 4.597657 8.101562 10.300781 14.902343 20.597657 14.800781v78.300781c0 28.398438-10 54.601562-26.699219 75.300781 5.699219 3.097657 11.300781 6.398438 16.699219 10 10.800781 7.097657 20.800781 15.300781 30 24.300781 9.402343 9.199219 17.902343 19.296876 25.300781 30.199219-5.597657-27.199219 11.199219-32.902343 12.402343-56.300781-4.601562-2.898438-9.300781-5.699219-14.101562-8.199219 3.5-4.300781 6.699219-8.902343 9.601562-13.699219-5.703124-10.5-14.601562-15.402343-13.902343-29.703124 1.199219-20.597657 25.5-21.898438 25.5-39.898438zm-25.898438-105.601562c5.898438 8.300781 9.5 21.101562 16.800781 28.800781-7.300781-7.699219-10.902343-20.5-16.800781-28.800781zm0 0" fill="#5f5148"/><path d="m349.300781 325.300781c16.699219-20.699219 26.699219-46.902343 26.699219-75.300781v-78.199219c-13.101562 0-18.898438-11-24.199219-21.902343-26.902343-44.898438-37.902343-1-48.699219-3.597657-5.203124 4.800781-10.902343 9.199219-18.101562 10.597657-3.398438.703124-6.5.703124-9.300781.203124-3.898438 2.199219-16.800781-8.402343-21.199219-8.101562-11.398438.898438-16.199219 5.699219-24.5 3.699219-6 3.902343-12.300781 8.101562-19.5 8.699219h-.101562c-6.796876 1.300781-10.597657-3-21.597657-3.898438v92.5c0 28.398438 10 54.601562 26.699219 75.300781s40.199219 35.699219 66.898438 41.800781c26.703124-6.101562 50.203124-21.203124 66.902343-41.800781zm0 0" fill="#c99e81"/><path d="m366 372.699219v-44.800781c-26.800781-1.398438-38.699219 23.5-62.699219 30.601562-7.199219 2.199219-19.199219 10.800781-26.101562 9.5-6.898438 1.199219-14 1.898438-21.199219 1.898438-25 0-48.300781-7.796876-67.601562-21v23.703124c0 43.199219 38.402343 79.5 88.800781 87.597657 50.402343-8 88.800781-44.300781 88.800781-87.5zm0 0" fill="#c99e81"/><path d="m396 421.398438v-61.796876c-9.199219-9-19.199219-17.203124-30-24.300781v37.5c0 42.398438-37 78.199219-86.101562 87.097657 7.703124 1.402343 15.703124 2.101562 23.902343 2.101562 38.5 0 72.5-16.199219 92.199219-40.601562zm0 0" fill="#d3e567"/><path d="m303.898438 462c-8.199219 0-16.199219-.699219-23.898438-2.101562-7.699219 1.402343-15.699219 2.101562-23.898438 2.101562-38.402343 0-72.402343-16.199219-92.101562-40.699219v80.699219h232v-80.601562c-19.699219 24.402343-53.699219 40.601562-92.101562 40.601562zm0 0" fill="#d3e567"/><path d="m87.101562 502h28.898438v-103.199219c-18.300781 30.097657-28.898438 65.5-28.898438 103.199219zm0 0" fill="#c99e81"/><path d="m396 359.5v142.5h60c0-41.5-12.800781-80.199219-34.699219-112.199219-7.402343-10.902343-15.902343-21.101562-25.300781-30.300781zm0 0" fill="#c99e81"/><g fill="#000001"><path d="m10.199219 492h-.199219c-5.5 0-10 4.5-10 10s4.5 10 10 10h.199219c5.5 0 10-4.5 10-10s-4.398438-10-10-10zm0 0"/><path d="m502 492h-.199219c-5.5 0-10 4.5-10 10s4.5 10 10 10h.199219c5.5 0 10-4.5 10-10s-4.5-10-10-10zm0 0"/><path d="m473 492h-7.300781c-1.800781-38.601562-14.199219-75.101562-35-106.300781-1.800781-10.898438 1-16.699219 4.902343-24.5 3.699219-7.597657 8.398438-17 8.097657-31.300781-.300781-17-7.300781-26.199219-12.398438-32.898438-4.101562-5.398438-6.300781-8.300781-6-14.5.300781-5.800781 3.597657-8.800781 9.800781-14 6.5-5.398438 15.5-12.800781 15.5-26.398438 0-13-6.601562-20.703124-11.5-26.402343-4-4.699219-6.203124-7.398438-6.203124-11.699219-.097657-4.898438 1.402343-7.300781 3.800781-11.300781 3.402343-5.597657 8-13.300781 7.101562-27.5-1-16.199219-9.300781-24.300781-15.402343-30.199219-3.296876-3.199219-5.296876-5.300781-6-7.5-.699219-2.5 0-6.699219.601562-11.101562 1.601562-10 3.699219-23.699219-7-36.597657-9.5-11.5-22.5-12-32-12.5-6.699219-.300781-11-.601562-13-2.800781-2.5-2.601562-3.5-7.398438-4.601562-12.898438-2.199219-10.300781-5.199219-24.5-21-33-15.699219-8.402343-27.898438-4.402343-36.898438-1.601562-4 1.300781-7.5 2.398438-9.699219 1.800781-3.699219-1-8.199219-4-12.902343-7-8.5-5.601562-18.097657-11.800781-29.898438-11.800781s-21.398438 6.199219-29.898438 11.800781c-4.703124 3.097657-9.203124 6-12.902343 7-2.199219.597657-5.699219-.5-9.699219-1.800781-9-2.898438-21.199219-6.800781-36.898438 1.601562-15.902343 8.5-18.902343 22.699219-21 33-1.203124 5.5-2.203124 10.296876-4.601562 12.898438-2.101562 2.199219-6.300781 2.5-13 2.800781-9.5.398438-22.398438 1-32 12.5-10.699219 12.898438-8.601562 26.597657-7 36.597657.699219 4.402343 1.300781 8.5.601562 11.101562-.601562 2.199219-2.703124 4.300781-5.902343 7.5-6.097657 5.898438-14.398438 14-15.398438 30.199219-.902343 14.199219 3.699219 21.902343 7.097657 27.5 2.402343 4 3.800781 6.402343 3.800781 11.300781-.097657 4.300781-2.199219 7-6.199219 11.699219-5 5.601562-11.601562 13.300781-11.601562 26.300781 0 13.5 8.902343 21 15.5 26.398438 6.300781 5.203124 9.5 8.203124 9.800781 14 .300781 6.203124-1.898438 9.203124-6 14.5-5.097657 6.703124-12.097657 15.902343-12.398438 32.902343-.199219 14.300781 4.398438 23.800781 8.097657 31.300781 3.902343 7.796876 6.703124 13.597657 4.902343 24.5-20.800781 31.199219-33.199219 67.796876-35 106.296876h-7.300781c-5.5 0-10 4.5-10 10s4.5 10 10 10h434c5.5 0 10-4.5 10-10 0-5.398438-4.398438-9.898438-10-9.898438zm-347-128.300781c3.199219-3 6.601562-5.898438 10-8.800781v17.800781c0 54.699219 53.800781 99.300781 120 99.300781 66.101562 0 120-44.601562 120-99.300781v-17.800781c3.398438 2.800781 6.800781 5.703124 10 8.703124v128.398438h-260zm20-182.300781c9-2.296876 14.601562-8.398438 18.601562-12.796876 4.296876-4.703124 6.097657-6.300781 9.097657-6.300781 1.5.097657 5.902343 1.800781 9.199219 3 8.203124 3.097657 18.300781 6.898438 28.300781 6.199219 9.601562-.699219 17.601562-6 24-10.199219 3.800781-2.5 8.101562-5.300781 10.402343-5.402343 2.898438-.097657 5.898438 1.5 10.699219 4.203124 7.199219 4.097657 17.097657 9.597657 30.699219 6.796876 12.199219-2.5 20.398438-10.597657 27.699219-17.796876 7.300781-7.203124 11.699219-11.300781 17-10.5 3.601562.5 7 7.597657 10.402343 14.5 4.796876 9.898438 11 22.796876 23.898438 27.199219v69.699219c0 25.699219-8.800781 49.300781-23.601562 68-.597657.601562-1.199219 1.300781-1.597657 2-20.199219 24.398438-50.699219 40-84.800781 40s-64.601562-15.601562-84.800781-40c-.5-.699219-1-1.398438-1.597657-2-14.800781-18.699219-23.601562-42.398438-23.601562-68zm110 249.5c-5.5 0-10 4.5-10 10v10.703124c-23.199219-1.800781-44.699219-10.101562-61.398438-23.601562-18.5-15-28.601562-34.601562-28.601562-55.300781v-32.097657c1.5-.902343 2.898438-1.800781 4.398438-2.703124 23.800781 25.800781 57.800781 42 95.601562 42s71.800781-16.199219 95.601562-42c1.5.902343 3 1.703124 4.398438 2.703124v32.097657c0 20.699219-10.199219 40.300781-28.601562 55.300781-16.699219 13.5-38.199219 21.800781-61.398438 23.601562v-10.703124c0-5.5-4.5-10-10-10zm150-45.296876c2.199219 2.898438 4.398438 5.796876 6.398438 8.699219.402343.699219.902343 1.398438 1.402343 2 18.800781 28 30.097657 60.898438 31.898438 95.597657h-39.699219zm-311.699219-33.300781c-3.402343-6.800781-6.199219-12.699219-6.101562-22.199219.199219-10.5 3.800781-15.203124 8.300781-21.101562 4.800781-6.300781 10.800781-14.101562 10.101562-27.699219-.703124-14.902343-10.203124-22.699219-17-28.402343-6-5-8.203124-7.199219-8.203124-11 0-5.296876 2.300781-8.199219 6.703124-13.398438 4.796876-5.601562 10.796876-12.699219 11-24.398438.199219-10.601562-3.601562-16.902343-6.601562-21.902343-2.800781-4.597657-4.800781-7.898438-4.300781-15.898438.5-8.5 4.199219-12.101562 9.402343-17.101562 4.296876-4.199219 9.199219-9 11.296876-16.597657 1.800781-6.703124.800781-13.203124-.199219-19.5-1.398438-9.101562-2.097657-15 2.601562-20.703124 3.699219-4.398438 8.800781-4.898438 17.398438-5.296876 8.402343-.402343 19-.800781 26.699219-9.101562 6.300781-6.699219 8.101562-15.101562 9.601562-22.5 2.101562-9.800781 3.601562-15.601562 10.898438-19.5 8.203124-4.398438 14-2.5 21.300781-.101562 6.199219 2 13.300781 4.300781 21.300781 2 6.699219-1.898438 12.699219-5.796876 18.5-9.5 6.699219-4.398438 13.101562-8.5 18.898438-8.5 5.800781 0 12.203124 4.101562 19 8.5 5.800781 3.800781 11.800781 7.703124 18.5 9.5 8 2.203124 15 0 21.300781-2 7.300781-2.398438 13.101562-4.199219 21.300781.101562 7.300781 3.898438 8.898438 9.699219 10.898438 19.5 1.601562 7.398438 3.300781 15.800781 9.601562 22.5 7.800781 8.300781 18.300781 8.699219 26.699219 9.101562 8.699219.398438 13.800781.796876 17.402343 5.296876 4.699219 5.703124 4.097657 11.601562 2.597657 20.703124-1 6.296876-2 12.796876-.199219 19.5 2.101562 7.597657 7 12.398438 11.300781 16.597657 5.097657 5 8.898438 8.601562 9.398438 17.101562.5 8-1.5 11.300781-4.300781 15.898438-3 5-6.796876 11.300781-6.597657 21.902343.199219 11.796876 6.199219 18.796876 11 24.398438 4.398438 5.101562 6.699219 8 6.699219 13.398438 0 3.800781-2.300781 6-8.199219 11-6.902343 5.703124-16.300781 13.5-17 28.402343-.699219 13.5 5.300781 21.398438 10.097657 27.699219 4.5 5.898438 8.101562 10.601562 8.300781 21.101562.199219 9.5-2.699219 15.398438-6.097657 22.199219-1.601562 3.300781-3.300781 6.699219-4.703124 10.5-14-15.699219-30.398438-29.5-49-40.601562 13.800781-20.699219 21.902343-45.5 21.902343-72.199219v-69.199219c1.898438-.300781 3.800781-.699219 5.597657-1.199219 5.300781-1.402343 8.601562-6.800781 7.203124-12.203124-1.402343-5.296876-6.800781-8.597657-12.203124-7.199219-3.699219 1-7.796876 1.601562-10.699219 1.601562-6.597657 0-10.097657-5.601562-15.800781-17.5-5.097657-10.5-11.398438-23.601562-25.597657-25.601562-15.402343-2.199219-25.699219 7.902343-33.902343 16.101562-5.796876 5.699219-11.296876 11.097657-17.699219 12.398438-6 1.199219-10.097657-.800781-16.800781-4.597657-5.898438-3.300781-12.699219-7.101562-21.398438-6.703124-7.699219.402343-14.199219 4.601562-20.398438 8.703124-4.902343 3.296876-10.101562 6.597657-14.601562 7-5.601562.398438-13.398438-2.5-19.800781-4.902343-6.097657-2.300781-11.300781-4.300781-16.199219-4.300781-12.101562 0-18.898438 7.402343-23.800781 12.800781-5 5.402343-7.398438 7.699219-13.097657 7.300781-6.402343-.5-8.5-.800781-8.703124-.898438-5.398438-.902343-10.597657 2.699219-11.5 8.097657-1 5.402343 2.601562 10.601562 8.101562 11.601562.199219 0 .601562.097657 1.300781.199219v68.5c0 26.699219 8.097657 51.5 21.898438 72.199219-18.5 11.199219-35 24.902343-49 40.601562-1.097657-3.800781-2.800781-7.300781-4.398438-10.5zm3.898438 44.097657c.601562-.597657 1-1.296876 1.402343-2.097657 2-3 4.199219-5.902343 6.398438-8.699219v106.398438h-39.699219c1.800781-34.699219 13-67.601562 31.898438-95.601562zm0 0"/><path d="m306 237.5c-6.898438 0-12.5 5.601562-12.5 12.5s5.601562 12.5 12.5 12.5 12.5-5.601562 12.5-12.5-5.601562-12.5-12.5-12.5zm0 0"/><path d="m206 237.5c-6.898438 0-12.5 5.601562-12.5 12.5s5.601562 12.5 12.5 12.5 12.5-5.601562 12.5-12.5-5.601562-12.5-12.5-12.5zm0 0"/><path d="m198.199219 221c5.101562-1.398438 10.5-1.398438 15.5 0 .902343.199219 1.699219.300781 2.601562.300781 4.398438 0 8.5-2.902343 9.699219-7.402343 1.398438-5.296876-1.699219-10.796876-7.101562-12.199219-8.398438-2.300781-17.398438-2.300781-25.898438 0-5.300781 1.402343-8.5 6.902343-7.101562 12.199219 1.5 5.402343 7 8.601562 12.300781 7.101562zm0 0"/><path d="m298.199219 221c5.101562-1.398438 10.5-1.398438 15.5 0 .902343.199219 1.699219.300781 2.601562.300781 4.398438 0 8.5-2.902343 9.699219-7.402343 1.398438-5.296876-1.699219-10.796876-7.101562-12.199219-8.398438-2.300781-17.398438-2.300781-25.898438 0-5.300781 1.402343-8.5 6.902343-7.101562 12.199219 1.5 5.402343 7 8.601562 12.300781 7.101562zm0 0"/><path d="m231 312.300781c7.601562 4.398438 16.199219 6.699219 25 6.699219s17.398438-2.300781 25-6.699219c4.800781-2.800781 6.398438-8.902343 3.699219-13.699219-2.800781-4.800781-8.898438-6.402343-13.699219-3.703124-4.601562 2.601562-9.699219 4-15 4s-10.398438-1.398438-15-4c-4.800781-2.796876-10.898438-1.097657-13.699219 3.703124-2.699219 4.796876-1.101562 11 3.699219 13.699219zm0 0"/><path d="m270.5 81c2.398438 0 4.898438-.898438 6.800781-2.699219 4.097657-3.699219 4.398438-10 .597657-14.101562-3.699219-4.097657-10-4.398438-14.097657-.699219-.101562.101562-.300781.300781-.5.398438-3.902343 3.902343-3.902343 10.203124 0 14.101562 2.097657 2 4.699219 3 7.199219 3zm0 0"/><path d="m198.800781 88.199219c2.097657 0 4.199219-.699219 6-2 15-11.300781 31.300781-10.097657 36-9.398438 5.5.800781 10.5-3.101562 11.300781-8.5.796876-5.5-3.101562-10.5-8.5-11.300781-17.5-2.398438-36.5 2.5-50.800781 13.300781-4.402343 3.300781-5.300781 9.597657-2 14 2 2.597657 5 3.898438 8 3.898438zm0 0"/></g></svg>