<svg height="512pt" viewBox="0 0 512 512" width="512pt" xmlns="http://www.w3.org/2000/svg"><path d="m245.832031 453.839844 13.835938 38.054687 22.53125-61.964843-12.960938-29.640626zm0 0" fill="#7aeae7" fill-rule="evenodd"/><path d="m168.453125 135.316406c4.9375-6.941406 11.414063-12.894531 18.640625-17.96875-8.46875 1.78125-16.785156 3.949219-24.800781 6.566406 1.964843 3.933594 4.050781 7.761719 6.160156 11.402344zm0 0" fill="#0586ad"/><path d="m151.046875 64.171875c6.527344-4.5 12.140625-9.492187 17.503906-14.578125-9.132812 2.84375-14.632812 8.011719-17.503906 14.578125zm0 0" fill="#0586ad"/><path d="m423.566406 103.25c-1.832031-11.394531-9.367187-20.363281-26.324218-23.882812-23.734376-4.925782-37.925782-15.222657-50.183594-26.414063-10.074219-9.203125-18.851563-19-30.550782-26.914063-13.792968-9.332031-31.644531-16.039062-60.507812-16.039062-3.214844 0-6.28125.09375-9.234375.253906-43.292969 2.359375-59.28125 21.40625-78.214844 39.339844-5.367187 5.085938-10.976562 10.078125-17.503906 14.578125-6.875 15.703125 1.253906 39.386719 10.539063 58.316406.234374.476563.46875.953125.707031 1.425781 8.015625-2.613281 16.332031-4.785156 24.800781-6.5625 14.222656-2.992187 28.882812-4.875 43.308594-5.863281-1.78125-3.875-3.074219-8.1875-3.785156-12.785156-.402344-2.613281-.617188-5.3125-.617188-8.085937 0-22.089844 13.429688-40 30-40 15.746094 0 28.652344 16.183593 29.894531 36.75.0625 1.074218.105469 2.15625.105469 3.25 0 7.648437-1.609375 14.792968-4.402344 20.871093 26.230469 1.796875 53.238282 6.535157 76.980469 15.550781 17.714844 6.730469 36.5625 17.386719 47.648437 32.972657 10.265626-17.71875 20.054688-39.898438 17.339844-56.761719zm0 0" fill="#0586ad"/><path d="m269 54.558594c-10.058594 6.457031-17 20.175781-17 36.058594 0 7.648437 1.609375 14.792968 4.398438 20.867187 3.007812 6.542969 7.386718 11.835937 12.601562 15.183594 5.214844-3.347657 9.59375-8.640625 12.597656-15.183594 2.792969-6.074219 4.402344-13.21875 4.402344-20.867187 0-15.878907-6.941406-29.601563-17-36.058594zm0 0" fill="#f9d973" fill-rule="evenodd"/><path d="m180.027344 160.007812c0-3.757812 1.109375-7.414062 3.203125-10.933593-3.238281.832031-6.363281 1.71875-9.382813 2.65625 3.695313 5.171875 6.179688 8.277343 6.179688 8.277343zm0 0" fill="#7aeae7"/><path d="m358.578125 127.039062c-23.113281-8.777343-49.324219-13.496093-74.894531-15.394531-.753906.058594-1.503906.121094-2.253906.183594-5.304688 11.28125-14.707032 18.789063-25.429688 18.789063-8.011719 0-15.289062-4.199219-20.671875-11.027344-1.894531-2.398438-3.554687-5.117188-4.925781-8.105469-21.769532 1.492187-44.070313 5.019531-64.597656 11.328125-2.175782 2.277344-4.203126 4.667969-6.003907 7.207031 5.042969 8.707031 10.203125 16.328125 14.046875 21.710938 3.019532-.9375 6.148438-1.824219 9.382813-2.652344 20.765625-5.339844 45.808593-8.457031 72.769531-8.457031 71.796875 0 130 22.105468 130 49.378906 0 0 10.335938-12.917969 20.226562-29.992188-11.085937-15.585937-29.933593-26.238281-47.648437-32.96875zm0 0" fill="#7aeae7"/><path d="m281.429688 111.828125c.746093-.0625 1.496093-.125 2.25-.183594-.691407-.054687-1.390626-.109375-2.082032-.15625-.054687.113281-.113281.222657-.167968.339844zm0 0" fill="#7aeae7"/><g fill-rule="evenodd"><path d="m279.925781 141.457031c-60.371093 4.265625-106.078125 24.375-106.078125 48.542969h212.152344c0-24.167969-45.707031-44.277344-106.074219-48.542969zm0 0" fill="#0586ad"/><path d="m136 246.636719v-53.269531c-9.625 4.996093-16.203125 15.042968-16.203125 26.632812s6.578125 21.640625 16.203125 26.636719zm0 0" fill="#fcd0ac"/><path d="m376 190v60h10c16.566406 0 29.996094-13.429688 29.996094-30 0-16.566406-13.429688-30-29.996094-30zm0 0" fill="#fcd0ac"/><path d="m87.996094 501.992188h28.003906v-101.710938c-17.769531 29.847656-28.003906 64.636719-28.003906 101.710938zm0 0" fill="#0586ad"/><path d="m167.382812 348.804688c-1.34375-4.671876-8.015624-20.28125-11.804687-16.554688v117.503906l26.25-28.128906zm0 0" fill="#0586ad"/><path d="m225.578125 501.988281-70-52.238281v52.242188zm0 0" fill="#0586ad"/><path d="m162.714844 325.261719 19.113281 96.363281-26.25 28.125 70 52.238281h30.421875l-26.203125-72.058593-26.199219-72.058594c-15.894531-7.777344-29.847656-18.972656-40.882812-32.609375zm0 0" fill="#0586ad"/><path d="m203.597656 357.871094 26.199219 72.058594 26.199219-59.9375c-18.757813 0-36.542969-4.363282-52.398438-12.121094zm0 0" fill="#bdbcbc"/><path d="m255.996094 369.992188 26.203125 59.9375 26.203125-72.058594c-15.855469 7.757812-33.644532 12.121094-52.40625 12.121094zm0 0" fill="#bdbcbc"/><path d="m308.402344 357.871094-26.203125 72.058594-26.199219 72.0625h30.421875l69.996094-52.238282-26.246094-28.128906 19.109375-96.359375c-11.035156 13.632813-24.988281 24.828125-40.878906 32.605469zm0 0" fill="#0586ad"/><path d="m349.28125 325.261719-19.109375 96.363281 26.246094 28.125-69.996094 52.238281 109.578125.003907v-142.476563c-13.789062-13.546875-29.515625-25.125-46.714844-34.269531zm0 0" fill="#0586ad"/><path d="m396 359.515625v142.476563h60c0-55.628907-23.019531-106.132813-60-142.476563zm0 0" fill="#0586ad"/><path d="m282.199219 367.117188c53.671875-11.957032 93.796875-59.851563 93.796875-117.125h.003906v-59.992188h-187.597656v59.992188c0 57.273437 40.125 105.167968 93.796875 117.125zm0 0" fill="#fcd0ac"/></g><path d="m473.03125 491.988281h-7.273438c-3.328124-69.960937-41.386718-133.480469-101.675781-169.839843 12.089844-18.050782 19.785157-39.277344 21.535157-62.148438h.382812c22.054688 0 39.996094-17.941406 39.996094-40 0-15.96875-9.410156-29.78125-22.976563-36.183594 14.378907-20.664062 38.632813-61.445312 28.59375-89.316406-3.230469-8.980469-11.46875-20.589844-32.339843-24.921875-26.429688-5.484375-39.632813-18.230469-53.613282-31.722656-19.277344-18.613281-39.214844-37.855469-89.660156-37.855469s-70.382812 19.242188-89.660156 37.855469c-13.980469 13.492187-27.183594 26.238281-53.613282 31.722656-20.871093 4.332031-29.105468 15.941406-32.339843 24.921875-10.042969 27.871094 14.214843 68.652344 28.59375 89.3125-13.566407 6.40625-22.980469 20.21875-22.980469 36.1875 0 22.058594 17.941406 40.003906 40 40.003906h.382812c1.746094 22.867188 9.445313 44.09375 21.535157 62.144532-60.292969 36.363281-98.351563 99.882812-101.675781 169.84375h-7.273438c-5.523438 0-10 4.476562-10 10 0 5.523437 4.476562 10 10 10h16.980469c.015625 0 .03125.003906.046875.003906.019531 0 .035156-.003906.050781-.003906h59.90625c.015625 0 .03125.003906.046875.003906s.03125-.003906.046875-.003906h109.511719.011718.007813 30.347656.039063c.011718 0 .023437.003906.03125.003906h.003906c.011719 0 .023438-.003906.035156-.003906h.039063 30.34375.011719.011718 109.511719c.015625 0 .03125.003906.050781.003906.015625 0 .03125-.003906.046875-.003906h59.902344c.015625 0 .03125.003906.050781.003906.015625 0 .027344-.003906.046875-.003906h16.984375c5.523438 0 10-4.476563 10-10-.003906-5.523438-4.480468-10.003907-10.003906-10.003907zm-202.757812 0 46.152343-126.921875c5.90625-3.113281 11.546875-6.667968 16.871094-10.617187l-12.9375 65.230469c-.625 3.152343.304687 6.417968 2.5 8.765624l18.632813 19.96875-58.394532 43.578126h-12.824218zm-41.375 0-58.394532-43.574219 18.632813-19.96875c2.195312-2.351562 3.125-5.613281 2.5-8.769531l-12.9375-65.230469c5.328125 3.953126 10.96875 7.503907 16.875 10.617188l46.148437 126.925781zm-102.898438-128.308593c9.015625-8.457032 18.914062-16.101563 29.617188-22.792969l15.40625 77.660156-22.753907 24.378906c-1.941406 2.078125-2.90625 4.886719-2.652343 7.71875.253906 2.828125 1.703124 5.417969 3.980468 7.121094l45.859375 34.222656h-69.457031zm145.433594 66.59375-15.433594 42.449218-15.4375-42.453125 15.433594-35.308593zm9.914062-27.257813-10.441406-23.882813c7.050781-.808593 13.9375-2.175781 20.605469-4.070312zm-50.695312-.003906-10.164063-27.949219c6.664063 1.894531 13.546875 3.257812 20.597657 4.070312zm131.746094 54.753906c2.277343-1.699219 3.726562-4.289063 3.980468-7.121094s-.710937-5.636719-2.648437-7.714843l-22.757813-24.382813 15.40625-77.660156c10.703125 6.691406 20.605469 14.339843 29.621094 22.796875v128.308594h-69.460938zm43.601562-72.167969c23.523438 30.203125 37.671875 67.160156 39.734375 106.390625h-39.734375zm-54.523438-239.863281c-20.070312-7.621094-45.191406-12.550781-72.363281-14.34375 3.011719-2.675781 5.714844-5.851563 8.027344-9.4375 25.386719 2.210937 48.75 7.164063 67.886719 14.433594 12.234375 4.648437 28.265625 12.523437 39.089844 24.519531-1.863282 3.039062-3.773438 6-5.679688 8.832031-7.335938-9.300781-19.859375-17.507812-36.960938-24.003906zm-95.476562-25.117187c-10.839844 0-20-13.738282-20-30 0-16.261719 9.160156-30 20-30 10.84375 0 20.003906 13.738281 20.003906 30 0 16.261718-9.160156 30-20.003906 30zm-23.113281 10.773437c-27.167969 1.792969-52.292969 6.71875-72.363281 14.34375-17.105469 6.5-29.632813 14.707031-36.964844 24.011719-1.910156-2.828125-3.820313-5.789063-5.6875-8.828125 10.824218-12.003907 26.863281-19.882813 39.101562-24.53125 19.140625-7.269531 42.5-12.222657 67.886719-14.433594 2.316406 3.585937 5.019531 6.761719 8.027344 9.4375zm-91.941407 48.609375c13.675782-14.417969 55.003907-29.378906 115.054688-29.378906s101.378906 14.960937 115.054688 29.378906zm245.054688 60v-40c11.027344.003906 19.996094 8.972656 19.996094 20s-8.972656 20-19.996094 20zm-286.796875-138.722656c.8125-2.265625 3.292969-9.152344 17.585937-12.117188 32.09375-6.660156 48.746094-22.734375 63.441407-36.917968 17.921875-17.300782 33.402343-32.242188 75.769531-32.242188s57.847656 14.941406 75.769531 32.242188c14.691407 14.183593 31.347657 30.257812 63.441407 36.917968 14.289062 2.964844 16.769531 9.847656 17.585937 12.109375 3.605469 10-.988281 25.628907-8.625 41.390625-12.960937-12.152344-29.292969-20.125-42.042969-24.972656-19.609375-7.445312-42.203125-12.503906-67.292968-15.09375.757812-3.839844 1.167968-7.851562 1.167968-11.976562 0-27.570313-17.945312-50-40.003906-50-22.054688 0-40 22.429687-40 50 0 4.125.410156 8.132812 1.167969 11.972656-25.089844 2.589844-47.6875 7.648437-67.296875 15.097656-12.753906 4.847656-29.09375 12.828125-42.058594 24.988281-7.632812-15.753906-12.21875-31.378906-8.609375-41.398437zm6.796875 118.722656c0-11.027344 8.96875-19.996094 19.996094-20h.003906v40c-11.027344 0-20-8.972656-20-20zm40-20h220v49.992188c0 25.660156-8.832031 49.292968-23.613281 68.023437-.144531.136719-.277344.277344-.410157.421875-.132812.144531-.269531.28125-.394531.429688-.011719.015624-.023437.03125-.035156.046874-.199219.246094-.386719.5-.566406.761719-.070313.105469-.128907.214844-.195313.324219-9.8125 11.863281-22.066406 21.632812-35.976562 28.550781-.554688.214844-1.09375.476563-1.601563.785157-14.316406 6.828124-30.324219 10.65625-47.210937 10.65625-16.878906 0-32.882813-3.824219-47.191406-10.648438-.523438-.320312-1.070313-.585938-1.644532-.804688-13.898437-6.917968-26.140625-16.683593-35.949218-28.539062-.042969-.074219-.085938-.148438-.132813-.222656-.023437-.035156-.042969-.074219-.066406-.109375-.128907-.191407-.269531-.367188-.410157-.546875-.304687-.398438-.636718-.769532-.992187-1.105469-14.777344-18.730469-23.609375-42.363281-23.609375-68.019531zm-40 185.59375v106.394531h-39.738281c2.0625-39.230469 16.210937-76.1875 39.738281-106.394531zm0 0" fill="#000001"/><path d="m502 491.988281h-.234375c-5.523437 0-10 4.480469-10 10 0 5.523438 4.476563 10 10 10h.234375c5.523438 0 10-4.476562 10-10 0-5.519531-4.476562-10-10-10zm0 0" fill="#000001"/><path d="m10.234375 491.988281h-.234375c-5.523438 0-10 4.480469-10 10 0 5.523438 4.476562 10 10 10h.234375c5.523437 0 10-4.476562 10-10 0-5.519531-4.476563-10-10-10zm0 0" fill="#000001"/><path d="m191 244.011719c4.550781-2.628907 9.738281-4.015625 14.996094-4.015625 5.261718 0 10.449218 1.386718 15 4.015625 1.574218.910156 3.292968 1.34375 4.992187 1.34375 3.453125 0 6.8125-1.792969 8.667969-5 2.761719-4.78125 1.125-10.898438-3.65625-13.660157-7.589844-4.382812-16.234375-6.699218-25.003906-6.699218-8.765625 0-17.410156 2.316406-25 6.699218-4.78125 2.761719-6.417969 8.878907-3.65625 13.660157 2.761718 4.78125 8.878906 6.421875 13.660156 3.65625zm0 0" fill="#000001"/><path d="m291 244.015625c4.550781-2.628906 9.738281-4.019531 15-4.019531 5.257812 0 10.445312 1.390625 15 4.019531 1.574219.910156 3.292969 1.339844 4.988281 1.339844 3.457031 0 6.816407-1.792969 8.671875-5 2.761719-4.78125 1.121094-10.898438-3.660156-13.660157-7.589844-4.382812-16.234375-6.699218-25-6.699218-8.769531 0-17.414062 2.316406-25.003906 6.699218-4.78125 2.761719-6.417969 8.878907-3.65625 13.660157 2.761718 4.78125 8.875 6.421875 13.660156 3.660156zm0 0" fill="#000001"/><path d="m227.339844 298.660156c-2.761719 4.785156-1.125 10.898438 3.65625 13.660156 7.589844 4.382813 16.234375 6.699219 25.003906 6.699219 8.765625 0 17.410156-2.316406 25-6.699219 4.78125-2.761718 6.421875-8.875 3.660156-13.660156-2.765625-4.78125-8.878906-6.417968-13.660156-3.660156-4.554688 2.628906-9.742188 4.019531-15 4.019531-5.261719 0-10.449219-1.390625-15-4.019531-4.785156-2.761719-10.898438-1.121094-13.660156 3.660156zm0 0" fill="#000001"/></svg>