<svg height="511pt" viewBox="1 0 511.999 511" width="511pt" xmlns="http://www.w3.org/2000/svg"><path d="m99.457031 206.515625c5.027344-9.523437 15.023438-16.019531 26.542969-16.019531v-50c0-37.960938 16.265625-72.117188 42.214844-95.878906-6.429688-13.339844-17.664063-23.976563-31.417969-29.636719-21.847656 8.988281-37.339844 30.523437-37.339844 55.515625zm0 0" fill="#45ba88" fill-rule="evenodd"/><path d="m140.21875 282c-2.75-10.050781-4.222656-20.613281-4.222656-31.503906h-9.996094c-11.519531 0-21.515625-6.492188-26.542969-16.019532v16.023438c0 24.367188-29.859375 65.121094-54.226562 65.117188 9.957031 12.488281 33.964843 9.617187 48.433593 5.003906 19.777344-6.003906 36.714844-19.730469 46.554688-38.621094zm0 0" fill="#45ba88" fill-rule="evenodd"/><path d="m343.78125 44.613281c-17.441406-15.980469-39.261719-27.257812-63.453125-31.839843-24.1875 4.582031-46.007813 15.859374-63.449219 31.839843-25.949218 23.765625-42.214844 57.921875-42.214844 95.878907v47.492187c40.875-5.078125 97.65625-19.945313 121.957032-62.039063 0 0 3.738281 16.773438 16.011718 33.222657 11.800782 15.816406 31.496094 31.328125 63.359376 31.328125h10v-50.003906c.003906-37.953126-16.265626-72.113282-42.210938-95.878907zm0 0" fill="#45ba88"/><path d="m386 140.496094c0-37.960938-16.265625-72.117188-42.21875-95.878906 9.707031-20.136719 30.347656-34.117188 54.09375-34.117188 33 0 60 26.996094 60 59.996094v180.003906c0 24.367188 19.753906 44.121094 44.121094 44.121094-14.804688 18.5625-37.253906 29.375-61 29.375-29.09375 0-55.769532-16.1875-69.21875-42 2.753906-10.046875 4.222656-20.609375 4.222656-31.5h10c16.570312 0 30-13.433594 30-30s-13.429688-30-30-30zm0 0" fill="#45ba88" fill-rule="evenodd"/><path d="m349.28125 325.75c10.300781-12.71875 18.058594-27.566406 22.496094-43.75 2.746094-10.050781 4.21875-20.613281 4.222656-31.503906h10c16.570312 0 30-13.429688 30-29.996094 0-16.570312-13.429688-30.003906-30.003906-30.003906h-10c-59.996094-4.5-68.359375-45.703125-80.308594-60.8125-25.789062 36.132812-85.304688 60.8125-106.359375 60.8125v60c0 10.890625 1.472656 21.453125 4.222656 31.503906 4.433594 16.183594 12.1875 31.03125 22.488281 43.75 16.667969 20.605469 39.996094 35.628906 66.625 41.730469 26.625-6.101563 49.949219-21.125 66.617188-41.730469zm0 0" fill="#fcd0ac"/><path d="m415.992188 382.859375c-7.300782-9.722656-15.476563-18.753906-24.386719-27-12.707031-11.765625-26.917969-21.921875-42.324219-30.113281-22.035156 27.25-55.714844 44.746094-93.285156 44.746094-6.582032 0-13.042969-.546876-19.34375-1.582032-13.710938-2.246094-26.660156-6.832031-38.417969-13.34375-19.949219 12.933594-37.484375 29.3125-51.730469 48.285156-7.476562 9.953126-14.042968 20.613282-19.582031 31.871094 5.4375 3.253906 11.007813 6.34375 16.683594 9.28125 35.488281 11.476563 73.625 17.492188 112.390625 17.492188 64.746094 0 127.75-16.761719 179.574218-47.773438-5.539062-11.25-12.105468-21.914062-19.578124-31.863281zm0 0" fill="#fcd0ac"/><path d="m445.738281 439.449219c-2.851562-8.503907-6.246093-16.765625-10.167969-24.726563-43.574218 26.074219-95.054687 42.070313-148.828124 46.503906-10.179688.835938-20.441407 1.265626-30.746094 1.265626-44.605469 0-88.378906-7.953126-128.242188-23.042969-6.644531 19.839843-10.257812 41.035156-10.257812 63.039062h338.5c0-22.003906-3.617188-43.199219-10.257813-63.039062zm0 0" fill="#bdbcbc"/><g fill="#000001"><path d="m10.234375 492.492188h-.234375c-5.523438 0-10 4.480468-10 10 0 5.523437 4.476562 10 10 10h.234375c5.523437 0 10-4.476563 10-10 0-5.519532-4.476563-10-10-10zm0 0"/><path d="m501.992188 492.492188h-.234376c-5.523437 0-10 4.480468-10 10 0 5.523437 4.476563 10 10 10h.234376c5.523437 0 10-4.476563 10-10 0-5.519532-4.476563-10-10-10zm0 0"/><path d="m473.027344 492.492188h-7.277344c-3.324219-69.957032-41.382812-133.476563-101.671875-169.839844 3.996094-5.96875 7.519531-12.28125 10.496094-18.890625 16.484375 19.007812 40.515625 30.238281 66.421875 30.238281 26.839844 0 51.839844-11.996094 68.632812-32.914062.058594-.074219.117188-.144532.175782-.21875.003906-.003907.007812-.007813.011718-.011719.007813-.007813.011719-.019531.019532-.027344.199218-.25.386718-.507813.558593-.777344.023438-.039062.046875-.078125.070313-.117187.148437-.234375.292968-.480469.421875-.730469.03125-.0625.058593-.121094.085937-.179687.113282-.230469.222656-.46875.316406-.707032.03125-.074218.054688-.152344.082032-.226562.085937-.226563.164062-.457032.230468-.695313.027344-.085937.046876-.175781.070313-.261719.058594-.222656.109375-.449218.152344-.679687.019531-.101563.03125-.203125.046875-.304687.035156-.21875.066406-.4375.085937-.660157.007813-.113281.011719-.226562.015625-.34375.007813-.171875.027344-.34375.027344-.519531 0-.042969-.007812-.082031-.007812-.125 0-.09375-.011719-.191406-.015626-.289062-.007812-.238282-.019531-.472657-.042968-.707032-.003906-.011718-.007813-.027344-.007813-.042968-.191406-1.628907-.765625-3.140626-1.640625-4.433594-.105468-.15625-.226562-.304688-.339844-.453125-.082031-.109375-.15625-.21875-.242187-.320313-.105469-.128906-.226563-.25-.339844-.375-.105469-.117187-.210937-.238281-.328125-.351562-.101562-.101563-.214844-.195313-.320312-.292969-.140625-.125-.277344-.253906-.421875-.375-.023438-.015625-.042969-.039063-.066407-.054687-.09375-.074219-.191406-.136719-.289062-.210938-.144531-.105469-.289062-.214844-.445312-.316406-.136719-.09375-.28125-.175782-.421876-.257813-.136718-.082031-.273437-.164062-.414062-.238281-.164062-.085938-.328125-.160156-.496094-.238281-.125-.058594-.25-.117188-.378906-.171875-.1875-.074219-.375-.140625-.5625-.207032-.117188-.039062-.230469-.082031-.351562-.117187-.210938-.0625-.421876-.113281-.632813-.164063-.101563-.019531-.203125-.046874-.308594-.066406-.242187-.046875-.484375-.082031-.726562-.113281-.078125-.007813-.15625-.019531-.238281-.027344-.285157-.027343-.570313-.042969-.855469-.042969-.035157-.003906-.070313-.007812-.109375-.007812-18.816406 0-34.125-15.308594-34.125-34.125v-180c0-38.597656-31.402344-70-70-70-22.476563 0-43.589844 11.078125-56.652344 29.011719-23.621094-18.183594-53.179688-29.011719-85.226562-29.011719-32.042969 0-61.601563 10.828125-85.222657 29.007812-13.058593-17.929687-34.171875-29.007812-56.648437-29.007812-38.597656 0-69.996094 31.402344-69.996094 70v180c0 18.816406-15.308594 34.125-34.125 34.125-.035156 0-.070312.007812-.109375.007812-.285156 0-.574219.015626-.859375.042969-.074219.003907-.148438.019531-.222656.027344-.25.03125-.5.066406-.746094.113281-.09375.019532-.1875.042969-.28125.0625-.222656.050782-.441406.105469-.664062.171875-.105469.03125-.207032.070313-.3125.105469-.199219.066406-.402344.136719-.601563.21875-.113281.046875-.226563.101562-.335937.152344-.183594.082031-.363282.164062-.539063.261718-.125.0625-.242187.136719-.363281.207032-.15625.09375-.316406.183594-.476563.289062-.128906.085938-.253906.179688-.382812.273438-.109375.082031-.226563.15625-.339844.242187-.023437.023438-.046875.046875-.074219.066407-.117187.097656-.226562.203124-.339844.304687-.136718.121094-.277343.238281-.402343.363281-.070313.070313-.136719.148438-.203125.222656-.609375.644532-1.132813 1.347657-1.539063 2.101563-.558593 1.03125-.933593 2.175781-1.101562 3.382813-.011719.09375-.0312502.1875-.042969.285156-.0195312.179687-.0273438.363281-.0351562.550781-.0078126.148437-.0195313.296875-.02343755.449219 0 .03125-.00390625.066406-.00390625.097656 0 .144531.015625.28125.0195312.421875.0078126.15625.0117188.3125.0234376.46875.0195312.1875.046875.367187.0703122.554687.023438.136719.039063.273438.0625.410157.039063.195312.085938.390625.136719.582031.027344.121094.054688.242188.089844.359375.0625.203125.128906.40625.203125.605469.039062.105468.074219.207031.113281.3125.085938.210937.179688.417968.277344.621094.042968.089843.082031.175781.128906.261718.113281.222656.242188.4375.371094.652344.042968.0625.078125.128906.121094.195312.15625.238282.324218.46875.496093.691407.023438.03125.042969.0625.070313.09375.007812.015625.019531.027343.03125.039062.042968.058594.089844.113281.136718.167969 16.792969 20.933594 41.796876 32.9375 68.648438 32.9375 25.90625 0 49.933594-11.230469 66.417969-30.234375 2.976562 6.605469 6.496093 12.917969 10.492187 18.886719-60.289062 36.359375-98.347656 99.878906-101.671875 169.84375h-7.277343c-5.519532 0-10 4.476562-10 10 0 5.519531 4.480468 10 10 10h16.996093.039063.039062 59.921875.039063.039062 279.921875.035157.039062 59.921875.039063.039062 16.992188c5.523437 0 10-4.480469 10-10 .003906-5.523438-4.472657-10.003906-9.996094-10.003906zm-301.832032-172.003907c-.453124-.734375-.984374-1.394531-1.585937-1.96875-14.78125-18.730469-23.613281-42.363281-23.613281-68.019531 0-5.523438-4.476563-10-10-10h-9.996094c-11.027344 0-20-8.972656-20-20 0-11.03125 8.972656-20 20-20h9.996094c12.636718 0 45.785156-1.019531 80.65625-10.433594 34.0625-9.199218 59.890625-23.65625 77.070312-43.097656 2.507813 5.285156 5.816406 11.207031 10.117188 17.128906 12.058594 16.605469 34.363281 36.398438 72.152344 36.398438h10c11.027343 0 20 8.972656 20 20.003906 0 11.023438-8.972657 19.996094-20 19.996094h-10c-5.519532 0-10 4.476562-10 10 0 25.652344-8.824219 49.28125-23.601563 68.007812-.609375.582032-1.152344 1.25-1.609375 2-20.195312 24.410156-50.707031 39.992188-84.789062 39.992188-34.085938 0-64.601563-15.585938-84.796876-40.007813zm226.679688-299.988281c27.570312 0 50 22.429688 50 50v180c0 22.605469 13.9375 42.011719 33.664062 50.097656-11.585937 8.632813-25.691406 13.402344-40.542968 13.402344-24.222656 0-46.316406-12.703125-58.53125-33.382812 1.558594-6.53125 2.625-13.25 3.148437-20.117188h.382813c22.054687 0 39.996094-17.941406 39.996094-40 0-18.601562-12.765626-34.28125-29.996094-38.734375v-41.265625c0-37.921875-15.164063-72.363281-39.738282-97.601562 9.222657-13.792969 24.894532-22.398438 41.617188-22.398438zm-21.878906 120v40c-55.980469 0-69.089844-54.433594-69.613282-56.722656-.898437-4.023438-4.171874-7.085938-8.242187-7.710938s-8.117187 1.3125-10.179687 4.882813c-32.722657 56.679687-132.328126 59.550781-151.960938 59.550781v-16.292969c9.21875 0 21.152344-.945312 32.75-2.59375 5.46875-.777343 9.269531-5.839843 8.492188-11.308593-.777344-5.46875-5.839844-9.269532-11.308594-8.492188-15.203125 2.160156-26 2.394531-29.9375 2.394531v-3.707031c0-66.167969 53.832031-120 119.996094-120 66.171874 0 120.003906 53.832031 120.003906 120zm-304.992188 173.5c-14.851562 0-28.957031-4.769531-40.542968-13.402344 19.726562-8.085937 33.664062-27.492187 33.664062-50.097656v-180c0-27.570312 22.429688-50 49.996094-50 16.722656 0 32.394531 8.605469 41.617187 22.394531-24.574219 25.234375-39.738281 59.679688-39.738281 97.605469v41.265625c-17.234375 4.453125-30 20.128906-30 38.734375 0 22.054688 17.941406 40 40 40h.378906c.523438 6.871094 1.59375 13.589844 3.148438 20.125-12.214844 20.675781-34.308594 33.375-58.523438 33.375zm89.394532 24.496094c23.773437 25.804687 57.828124 42 95.597656 42 37.769531 0 71.820312-16.195313 95.59375-42 30.195312 17.6875 54.394531 42.820312 70.726562 72.316406-45.734375 25.410156-100.550781 39.976562-156.320312 41.539062v-10.960937c0-5.523437-4.476563-10.003906-9.996094-10.003906-.003906 0-.003906 0-.003906 0-5.519532 0-10 4.480469-10 10v10.964843c-55.773438-1.5625-110.585938-16.125-156.320313-41.535156 16.332031-29.503906 40.53125-54.636718 70.722657-72.320312zm-79.488282 90.332031c51.222656 28.222656 112.929688 43.671875 175.085938 43.671875 62.152344 0 123.859375-15.453125 175.082031-43.671875 8.433594 19.949219 13.484375 41.441406 14.652344 63.664063h-39.734375v-19.949219c0-5.523438-4.480469-10-10-10-5.523438 0-10 4.476562-10 10v19.949219h-260v-19.949219c0-5.523438-4.476563-10-10-10-5.523438 0-10 4.476562-10 10v19.949219h-39.734375c1.167969-22.222657 6.21875-43.710938 14.648437-63.664063zm0 0"/><path d="m305.996094 238c-6.886719 0-12.5 5.613281-12.5 12.5s5.613281 12.5 12.5 12.5c6.882812 0 12.503906-5.613281 12.503906-12.5s-5.621094-12.5-12.503906-12.5zm0 0"/><path d="m205.996094 238c-6.886719 0-12.5 5.613281-12.5 12.5s5.613281 12.5 12.5 12.5c6.886718 0 12.5-5.613281 12.5-12.5s-5.613282-12.5-12.5-12.5zm0 0"/><path d="m195.636719 221.867188c.855469 0 1.730469-.113282 2.59375-.34375 5.0625-1.359376 10.46875-1.359376 15.527343 0 5.335938 1.429687 10.816407-1.734376 12.25-7.070313 1.429688-5.332031-1.734374-10.816406-7.070312-12.246094-8.433594-2.261719-17.445312-2.265625-25.882812-.003906-5.335938 1.429687-8.5 6.914063-7.070313 12.25 1.195313 4.46875 5.238281 7.414063 9.652344 7.414063zm0 0"/><path d="m295.636719 221.867188c.855469 0 1.730469-.113282 2.597656-.34375 5.058594-1.359376 10.46875-1.359376 15.523437 0 5.332032 1.433593 10.816407-1.734376 12.25-7.070313 1.429688-5.332031-1.734374-10.816406-7.066406-12.246094-8.4375-2.261719-17.449218-2.265625-25.886718-.003906-5.335938 1.429687-8.5 6.914063-7.070313 12.25 1.195313 4.46875 5.238281 7.414063 9.652344 7.414063zm0 0"/><path d="m230.996094 312.828125c7.59375 4.382813 16.238281 6.695313 25 6.695313 8.761718 0 17.40625-2.3125 25-6.695313 4.78125-2.761719 6.421875-8.875 3.660156-13.660156-2.761719-4.785157-8.875-6.425781-13.65625-3.664063-4.558594 2.628906-9.746094 4.019532-15.003906 4.019532-5.257813 0-10.445313-1.390626-15-4.019532-4.785156-2.761718-10.898438-1.121094-13.660156 3.664063-2.761719 4.785156-1.121094 10.898437 3.660156 13.660156zm0 0"/><path d="m196.109375 156.046875c.804687 0 1.621094-.09375 2.433594-.296875l.390625-.105469c5.324218-1.464843 8.453125-6.96875 6.988281-12.296875-1.460937-5.296875-6.921875-8.414062-12.21875-7.003906-.03125.007812-.148437.039062-.179687.042969-5.328126 1.382812-8.492188 6.800781-7.136719 12.132812 1.152343 4.523438 5.246093 7.527344 9.722656 7.527344zm0 0"/></g></svg>