<svg height="512pt" viewBox="0 0 512 512.001" width="512pt" xmlns="http://www.w3.org/2000/svg"><path d="m180.195312 139.40625c-14.097656-7.503906-24.1875-16.527344-31.679687-25.625-6.238281 15.007812-13.289063 35.699219-14.921875 44.964844-2.066406 11.726562 2.992188 23.042968 12.050781 29.558594 15.566407-5.519532 28.402344-24.101563 34.550781-48.898438zm0 0" fill="#0586ad" fill-rule="evenodd"/><path d="m331.796875 139.40625c29.570313-15.742188 41.546875-38.171875 48.773437-53.933594 4.25-11.542968 1.089844-25-8.875-33.359375-9.960937-8.359375-23.765624-9.136719-34.390624-2.945312.007812-2.070313-.21875-4.121094-.628907-6.121094-5.046875-9.457031-15.003906-15.898437-26.472656-15.898437-13.007813 0-31.261719-5.699219-43.523437-9.84375-58.105469 26.511718-101.976563 98.792968-97.726563 110.332031 7.132813 15.566406 45.929687 28.835937 64.378906 28.332031 7.414063 1.003906 14.976563 1.539062 22.664063 1.539062 27.285156 0 53.039062-6.527343 75.800781-18.101562zm0 0" fill="#d3e567" fill-rule="evenodd"/><path d="m331.796875 139.40625c7.378906 29.761719 24.390625 50.59375 44.199219 50.59375h9.996094c4.882812 0 9.488281 1.164062 13.558593 3.230469 2.007813.808593 6.980469.691406 9.378907.265625 16.3125-2.875 27.207031-18.4375 24.332031-34.753906-2.257813-12.808594-12.332031-22.273438-24.453125-24.359376 7.941406-9.390624 9.574218-23.121093 3.070312-34.382812s-19.207031-16.710938-31.308594-14.527344c-7.226562 15.757813-19.203124 38.191406-48.773437 53.933594zm0 0" fill="#0586ad" fill-rule="evenodd"/><path d="m359.828125 309.972656c10.273437-17.671875 16.167969-38.164062 16.167969-59.972656v-60c-16.152344 0-35.429688-30.046875-44.160156-51.289062-8.578126 4.117187-13.382813 7.722656-24.019532 10.980468-8.347656 2.558594-17.785156 7.140625-26.152344 5.851563-8.367187 1.289062-16.9375 1.964843-25.667968 1.964843-10.066406 0-19.925782-.898437-29.5-2.601562-12.371094-.753906-23.523438-5.386719-39.167969-14.308594v109.402344c0 21.804688 5.894531 42.300781 16.171875 59.972656 16.671875 28.679688 44.886719 49.90625 78.160156 57.230469 33.273438-7.324219 61.492188-28.550781 78.167969-57.230469zm-103.832031-19.820312c-11.046875 0-20-8.953125-20-19.996094 0-11.046875 8.953125-20.003906 20-20.003906 11.042968 0 19.996094 8.957031 19.996094 20.003906 0 11.042969-8.953126 19.996094-19.996094 19.996094zm0 0" fill="#fffaeb" fill-rule="evenodd"/><path d="m265.160156 252.390625c-6.429687 3.328125-10.832031 10.027344-10.832031 17.765625 0 7.734375 4.402344 14.433594 10.832031 17.761719 6.429688-3.328125 10.832032-10.023438 10.832032-17.761719s-4.402344-14.4375-10.832032-17.765625zm0 0" fill="#ff5a5a" fill-rule="evenodd"/><path d="m135.996094 247.273438v-54.542969c-.433594.199219-.867188.402343-1.289063.621093-9.628906 4.992188-16.210937 15.050782-16.210937 26.648438 0 12.105469 7.171875 22.53125 17.5 27.273438zm0 0" fill="#fcd0ac" fill-rule="evenodd"/><path d="m375.996094 190v60h9.996094c16.570312 0 30-13.429688 30-29.996094 0-11.691406-6.683594-21.820312-16.441407-26.773437-4.070312-2.066407-8.675781-3.230469-13.558593-3.230469zm0 0" fill="#fcd0ac" fill-rule="evenodd"/><path d="m176.964844 340.449219c-2.175782 25.285156 6.351562 58.117187 27.015625 69.964843 20.953125-7.769531 42.664062-24.214843 52.011719-40.414062-30.183594 0-57.851563-11.296875-78.996094-29.867188-.007813.105469-.019532.210938-.03125.316407zm0 0" fill="#0586ad" fill-rule="evenodd"/><path d="m359.828125 309.972656c-20.824219 35.8125-59.636719 60.027344-103.832031 60.027344 11.730468 20.3125 42.898437 41.039062 67.632812 44.519531 37.199219 5.238281 52.753906-40.914062 49.890625-74.066406-1.222656-14.296875-5.878906-26.175781-13.691406-30.480469zm0 0" fill="#0586ad" fill-rule="evenodd"/><path d="m373.519531 340.453125c1.886719 21.820313-4.210937 49.273437-19.207031 63.996094-7.785156 7.644531-17.972656 11.859375-30.6875 10.066406-12.09375-1.699219-25.730469-7.535156-37.878906-15.421875-12.6875-8.238281-23.761719-18.71875-29.753906-29.09375-7.382813 12.789062-22.472657 25.738281-38.8125 34.449219-9.613282 5.121093-19.65625 8.78125-28.8125 10.066406-4.621094.652344-8.910157.507813-12.871094-.304687v87.789062h220.5v-142.476562c-7.015625-6.882813-14.527344-13.261719-22.476563-19.070313zm0 0" fill="#ff5a5a"/><path d="m395.996094 359.523438v142.476562h60c0-55.628906-23.023438-106.132812-60-142.476562zm0 0" fill="#d3e567" fill-rule="evenodd"/><path d="m86.496094 502h29.5v-104.199219c-18.691406 30.394531-29.5 66.09375-29.5 104.199219zm0 0" fill="#d3e567" fill-rule="evenodd"/><g fill="#000001"><path d="m255.996094 340c31.738281 0 61.511718-17.164062 77.703125-44.789062 2.792969-4.765626 1.195312-10.894532-3.570313-13.6875-4.765625-2.792969-10.890625-1.191407-13.683594 3.574218-12.617187 21.527344-35.78125 34.902344-60.449218 34.902344-24.667969 0-47.832032-13.375-60.453125-34.902344-2.792969-4.765625-8.917969-6.367187-13.683594-3.570312-4.765625 2.792968-6.363281 8.917968-3.570313 13.683594 16.195313 27.625 45.96875 44.789062 77.707032 44.789062zm0 0"/><path d="m183.128906 107.671875c11.429688 9.304687 25.179688 15.351563 39.769532 17.480469.488281.074218.976562.109375 1.457031.109375 4.882812 0 9.15625-3.582031 9.882812-8.558594.796875-5.464844-2.984375-10.539063-8.449219-11.339844-11.015624-1.609375-21.402343-6.171875-30.03125-13.199219-4.285156-3.484374-10.582031-2.839843-14.070312 1.441407s-2.84375 10.582031 1.441406 14.066406zm0 0"/><path d="m253.136719 123.597656c.683593 0 1.378906-.070312 2.070312-.21875.296875-.0625.566407-.128906.847657-.210937 5.300781-1.546875 8.347656-7.097657 6.800781-12.398438-1.515625-5.191406-6.867188-8.214843-12.058594-6.894531-5.238281 1.265625-8.550781 6.472656-7.433594 11.78125.992188 4.707031 5.144531 7.941406 9.773438 7.941406zm0 0"/><path d="m501.996094 491.996094h-.234375c-5.523438 0-10 4.476562-10 10 0 5.523437 4.476562 10 10 10h.234375c5.519531 0 10-4.476563 10-10 0-5.523438-4.480469-10-10-10zm0 0"/><path d="m473.03125 491.996094h-7.300781c-1.457031-30.109375-9.457031-59.835938-23.394531-86.539063-10.082032-19.324219-23.265626-37.089843-38.800782-52.488281-.285156-.324219-.589844-.628906-.910156-.917969-6.167969-6.035156-12.707031-11.6875-19.5625-16.925781-1.488281-10.925781-4.96875-20.628906-10.625-27.371094 7.265625-14.585937 11.875-30.710937 13.175781-47.75h.378907c22.058593 0 40-17.945312 40-40 0-7.21875-1.929688-13.988281-5.289063-19.839844 15.949219-7.488281 25.609375-24.992187 22.40625-43.15625-2.113281-11.988281-9.554687-22.132812-19.785156-27.910156 4.125-11 3.300781-23.554687-2.785157-34.097656-6.085937-10.539062-16.546874-17.527344-28.136718-19.457031.113281-11.75-4.953125-23.265625-14.277344-31.089844s-21.546875-10.8125-33.09375-8.664063c-3.914062-11.078124-12.613281-20.164062-24.050781-24.328124-11.441407-4.164063-23.945313-2.796876-34.0625 3.175781-7.464844-9.070313-18.75-14.636719-30.921875-14.636719s-23.453125 5.566406-30.917969 14.636719c-10.121094-5.972657-22.628906-7.339844-34.066406-3.179688-11.4375 4.164063-20.136719 13.253907-24.050781 24.332031-11.546876-2.152343-23.769532.839844-33.09375 8.664063-9.324219 7.824219-14.390626 19.339844-14.277344 31.085937-11.589844 1.929688-22.050782 8.921876-28.136719 19.460938-6.085937 10.542969-6.910156 23.097656-2.789063 34.097656-10.226562 5.777344-17.664062 15.921875-19.777343 27.910156-3.203125 18.160157 6.453125 35.660157 22.398437 43.152344-3.355468 5.851563-5.289062 12.625-5.289062 19.84375 0 22.054688 17.945312 39.996094 40 39.996094h.378906c1.304688 17.042969 5.914062 33.167969 13.175781 47.753906-5.652343 6.742188-9.132812 16.449219-10.621093 27.371094-6.847657 5.234375-13.382813 10.878906-19.542969 16.910156-.335938.296875-.652344.613282-.945313.953125-15.53125 15.394531-28.703125 33.152344-38.78125 52.464844-13.9375 26.707031-21.9375 56.433594-23.398437 86.542969h-7.296875c-5.523438 0-10 4.476562-10 10 0 5.523437 4.476562 10 10 10h16.957031c.023437 0 .050781.003906.074219.003906.027344 0 .050781-.003906.078125-.003906h59.84375c.027343 0 .050781.003906.078125.003906s.050781-.003906.078125-.003906h279.84375c.027343 0 .050781.003906.078125.003906.023437 0 .050781-.003906.074218-.003906h59.847657c.027343 0 .054687.003906.078125.003906.027344 0 .050781-.003906.078125-.003906h16.957031c5.519531 0 10-4.476563 10-10 0-5.523438-4.480469-10-10-10zm-27.316406 0h-39.71875v-106.117188c23.539062 30.390625 37.632812 67.433594 39.71875 106.117188zm-319.71875-128.171875c.945312-.890625 1.90625-1.769531 2.871094-2.644531.875 7.390624 2.46875 14.722656 4.746093 21.550781 8.957031 26.875 27.023438 42.191406 49.128907 42.191406 2.296874 0 4.640624-.167969 7.019531-.5 18.773437-2.644531 40.160156-13.597656 56.238281-27.609375v35.410156c0 5.523438 4.476562 10 10 10s10-4.476562 10-10l-.003906-35.40625c16.074218 14.007813 37.464844 24.960938 56.238281 27.605469 2.378906.332031 4.71875.5 7.015625.5 22.101562-.003906 40.171875-15.320313 49.128906-42.191406 2.277344-6.828125 3.871094-14.160157 4.75-21.550781.964844.875 1.921875 1.753906 2.867188 2.644531v128.171875h-260zm35.289062-57.9375c-.113281-.25-.226562-.496094-.359375-.742188-.207031-.375-.441406-.722656-.6875-1.058593-9.0625-15.984376-14.242187-34.4375-14.242187-54.085938v-51.34375c17.117187-4.667969 31.917968-21.183594 40.453125-45.292969 21.960937 9.390625 45.300781 14.144531 69.546875 14.144531 24.25 0 47.59375-4.753906 69.546875-14.144531 8.53125 24.105469 23.332031 40.625 40.453125 45.289063v51.347656c0 19.652344-5.1875 38.113281-14.253906 54.097656-.238282.332032-.472657.679688-.671876 1.046875-.128906.234375-.238281.472657-.347656.707031-19.164062 32.382813-54.449218 54.148438-94.726562 54.148438h-.003906c-40.265626 0-75.539063-21.75-94.707032-54.113281zm198.121094 70.519531c-3.660156 10.980469-12.3125 28.507812-30.253906 28.507812-1.324219 0-2.703125-.097656-4.132813-.296874-15.90625-2.242188-35.921875-13.289063-49.335937-26.105469 34.71875-5.300781 64.957031-24.382813 84.953125-51.46875 4.019531 11.035156 5 30.671875-1.230469 49.363281zm26.589844-136.40625v-40c11.027344.003906 19.996094 8.976562 19.996094 20.003906 0 11.023438-8.96875 19.996094-19.996094 19.996094zm17.222656-135c4.207031 7.289062 3.386719 16.503906-2.046875 22.925781-2.316406 2.738281-2.988281 6.507813-1.761719 9.878907 1.226563 3.371093 4.164063 5.824218 7.699219 6.433593 8.289063 1.425781 14.839844 7.953125 16.300781 16.242188 1.914063 10.859375-5.359375 21.253906-16.230468 23.171875-1.019532.179687-3.179688.230468-4.265626.117187-5.144531-2.410156-10.875-3.769531-16.921874-3.769531h-9.996094c-12.886719 0-25.449219-14.117188-32.453125-35.828125 23.289062-14.4375 35.585937-33.058594 43.546875-49.132813 6.597656.402344 12.726562 4.070313 16.128906 9.960938zm-256.496094-45.226562c6.445313-5.410157 15.660156-6.199219 22.929688-1.964844 3.101562 1.804687 6.929687 1.8125 10.035156.019531 3.109375-1.792969 5.015625-5.113281 5-8.703125-.035156-8.40625 5.257812-15.992188 13.164062-18.871094 7.910157-2.882812 16.839844-.472656 22.21875 5.996094 2.296876 2.753906 5.890626 4.070312 9.425782 3.449219 3.53125-.621094 6.457031-3.089844 7.671875-6.464844 2.847656-7.917969 10.414062-13.234375 18.828125-13.234375 8.417968 0 15.984375 5.316406 18.824218 13.230469 1.214844 3.378906 4.144532 5.84375 7.675782 6.46875 3.535156.621093 7.128906-.695313 9.421875-3.449219 5.382812-6.46875 14.316406-8.875 22.222656-5.996094s13.199219 10.464844 13.164063 18.875c-.011719 3.585938 1.894531 6.90625 5 8.699219 3.105468 1.792969 6.9375 1.785156 10.035156-.019531 7.269531-4.230469 16.484375-3.445313 22.929687 1.964844 6.375 5.347656 8.761719 14.144531 6.003907 21.972656-7.671876 16.644531-18.960938 35.375-44.082032 48.785156-22.183594 11.265625-46.136718 16.976562-71.195312 16.976562-25.046875 0-48.996094-5.710937-71.1875-16.972656-25.117188-13.40625-36.410156-32.136718-44.082032-48.777344-2.765624-7.832031-.382812-16.632812 5.996094-21.984374zm-58.140625 100.707031c1.460938-8.289063 8.011719-14.816407 16.296875-16.242188 3.535156-.609375 6.472656-3.0625 7.699219-6.433593 1.230469-3.371094.558594-7.140626-1.757813-9.878907-5.433593-6.425781-6.257812-15.636719-2.046874-22.925781 3.398437-5.890625 9.53125-9.558594 16.128906-9.960938 7.960937 16.074219 20.257812 34.695313 43.546875 49.132813-7.007813 21.710937-19.570313 35.828125-32.453125 35.828125h-10c-6.015625 0-11.722656 1.34375-16.84375 3.734375-2.058594.324219-2.835938.1875-3.910156-.007813l-.4375-.078124c-10.863282-1.914063-18.136719-12.308594-16.222657-23.167969zm17.414063 59.523437c0-11.027344 8.972656-20.003906 20-20.003906v40c-11.027344 0-20-8.96875-20-19.996094zm130.3125 158.507813c-13.410156 12.816406-33.429688 23.867187-49.335938 26.105469-20.769531 2.925781-30.453125-16.417969-34.386718-28.210938-6.230469-18.691406-5.25-38.324219-1.230469-49.359375 19.996093 27.085937 50.234375 46.167969 84.953125 51.464844zm-130.3125 7.371093v106.113282h-39.714844c2.082031-38.683594 16.179688-75.726563 39.714844-106.113282zm0 0"/><path d="m10.234375 491.996094h-.234375c-5.523438 0-10 4.476562-10 10 0 5.523437 4.476562 10 10 10h.234375c5.519531 0 10-4.476563 10-10 0-5.523438-4.476563-10-10-10zm0 0"/><path d="m256 451.304688c-5.523438 0-10 4.480468-10 10v.476562c0 5.523438 4.476562 10 10 10 5.519531 0 10-4.476562 10-10v-.476562c0-5.519532-4.480469-10-10-10zm0 0"/><path d="m192.867188 232.503906h3.128906v3.125c0 5.523438 4.476562 10 10 10 5.519531 0 10-4.476562 10-10v-3.125h3.125c5.519531 0 10-4.476562 10-10 0-5.523437-4.480469-10-10-10h-3.125v-3.125c0-5.523437-4.480469-10-10-10-5.523438 0-10 4.476563-10 10v3.125h-3.128906c-5.519532 0-10 4.476563-10 10 0 5.523438 4.476562 10 10 10zm0 0"/><path d="m292.871094 232.503906h3.125v3.125c0 5.523438 4.480468 10 10 10 5.523437 0 10-4.476562 10-10v-3.125h3.125c5.519531 0 10-4.476562 10-10 0-5.523437-4.480469-10-10-10h-3.125v-3.125c0-5.523437-4.476563-10-10-10-5.519532 0-10 4.476563-10 10v3.125h-3.125c-5.523438 0-10 4.476563-10 10 0 5.523438 4.476562 10 10 10zm0 0"/><path d="m255.996094 300.152344c16.542968 0 30-13.457032 30-29.996094 0-16.542969-13.457032-30.003906-30-30.003906-16.539063 0-29.996094 13.460937-29.996094 30.003906 0 16.539062 13.457031 29.996094 29.996094 29.996094zm0-40c5.515625 0 10 4.488281 10 10.003906 0 5.511719-4.484375 9.996094-10 9.996094-5.511719 0-9.996094-4.484375-9.996094-9.996094 0-5.515625 4.484375-10.003906 9.996094-10.003906zm0 0"/></g></svg>