<svg height="512pt" viewBox="0 0 512 512.001" width="512pt" xmlns="http://www.w3.org/2000/svg"><path d="m281 12.089844c-65.394531 11.046875-115.007812 64.664062-115.007812 129.144531v44.949219c51.613281-13.40625 90.011718-60.527344 90.011718-116.179688 0 27.441406 9.34375 52.808594 24.996094 73.082032 21.992188 28.480468 56.445312 46.914062 95 46.914062h10.003906c3.507813 0 6.875.605469 10.003906 1.710938v-50.476563c0-64.480469-49.613281-118.097656-115.007812-129.144531zm0 0" fill="#5f5148"/><path d="m138.9375 340.113281c7.550781-5.480469 15.488281-10.457031 23.769531-14.859375-11.378906-14.0625-19.65625-30.726562-23.769531-48.917968zm0 0" fill="#5f5148" fill-rule="evenodd"/><path d="m376 250c0 28.433594-10.019531 54.640625-26.714844 75.253906 5.5625 2.957032 10.972656 6.171875 16.210938 9.621094 10.957031 7.21875 21.175781 15.484375 30.5 24.648438l.003906-111.226563c-3.128906 1.105469-6.492188 1.703125-9.996094 1.703125zm0 0" fill="#5f5148" fill-rule="evenodd"/><path d="m396.007812 191.710938c-3.128906-1.105469-6.496093-1.710938-10.003906-1.710938h-10.003906c-25.925781 0-50-8.335938-69.675781-22.457031-.109375.003906-.214844.015625-.324219.015625-10.472656 0-19.054688-8.058594-19.914062-18.316406-1.761719-1.992188-3.457032-4.046876-5.085938-6.15625-1.625 2.109374-3.320312 4.160156-5.078125 6.152343-.855469 10.257813-9.441406 18.320313-19.917969 18.320313-11.046875 0-20-8.957032-20-20 0-7.824219 4.5-14.582032 11.046875-17.867188-2.183593-1.320312-4.179687-2.136718-5.851562-2.136718-.105469 0-29.269531 51.460937-55.195313 51.460937v70.984375c0 28.433594 10.019532 54.636719 26.703125 75.253906 17.011719 21.027344 40.960938 36.238282 68.277344 42.09375 16.285156-3.484375 31.382813-10.28125 44.519531-19.671875 8.902344-6.367187 16.910156-13.917969 23.78125-22.421875 16.691406-20.613281 26.714844-46.820312 26.714844-75.253906h10.003906c3.503906 0 6.867188-.601562 9.996094-1.703125 11.652344-4.121094 20.003906-15.234375 20.003906-28.296875 0-13.058594-8.347656-24.167969-19.996094-28.289062zm0 0" fill="#fcd0ac"/><path d="m264.75 129.59375c-6.652344 3.246094-11.25 10.058594-11.25 17.964844 0 7.902344 4.597656 14.71875 11.25 17.964844 6.65625-3.246094 11.257812-10.0625 11.257812-17.964844 0-7.90625-4.601562-14.71875-11.257812-17.964844zm0 0" fill="#ff5a5a" fill-rule="evenodd"/><path d="m306 167.558594c.109375 0 .214844-.011719.324219-.015625-7.417969-5.320313-14.207031-11.46875-20.238281-18.296875.859374 10.253906 9.441406 18.3125 19.914062 18.3125zm0 0" fill="#fcd0ac"/><path d="m255.679688 167.542969c.109374.003906.214843.015625.324218.015625 10.476563 0 19.0625-8.0625 19.917969-18.320313-6.03125 6.832031-12.820313 12.980469-20.242187 18.304688zm0 0" fill="#fcd0ac"/><path d="m115.996094 400.292969c-17.765625 29.847656-27.996094 64.636719-27.996094 101.707031h27.996094zm0 0" fill="#45ba88" fill-rule="evenodd"/><path d="m168.617188 332.761719v130.171875c93.691406-13.890625 132.863281-63.835938 148.089843-93.226563-2.671875.179688-5.363281.292969-8.082031.292969-9.039062 0-17.851562-1.023438-26.335938-2.941406-8.46875 1.910156-17.261718 2.941406-26.285156 2.941406-26.945312 0-51.886718-9-71.972656-24.144531-3.855469-2.800781-10.921875-10.980469-15.414062-13.09375zm0 0" fill="#45ba88" fill-rule="evenodd"/><path d="m368.878906 334.875c-5.796875 0-26.179687-6.890625-38.746094 8.300781-34.277343 41.4375-80.785156 123.441407-161.378906 123.441407v35.382812l87.242188-.003906c63.773437-17.089844 106.292968-97.136719 112.882812-167.121094zm0 0" fill="#f9d973"/><path d="m365.496094 334.875s-.085938 137.804688-109.5 167.121094l140 .003906v-142.476562c-9.324219-9.164063-19.542969-17.429688-30.5-24.648438zm0 0" fill="#f4ba64" fill-rule="evenodd"/><path d="m395.996094 359.523438v142.476562h60c0-55.628906-23.015625-106.132812-60-142.476562zm0 0" fill="#f9d973" fill-rule="evenodd"/><g fill="#000001"><path d="m271 295.011719c-4.550781 2.628906-9.734375 4.015625-14.996094 4.015625-5.261718 0-10.445312-1.390625-15-4.015625-4.785156-2.765625-10.898437-1.125-13.660156 3.65625-2.761719 4.785156-1.125 10.898437 3.660156 13.664062 7.585938 4.382813 16.230469 6.695313 25 6.695313 8.765625 0 17.414063-2.316406 25-6.699219 4.78125-2.761719 6.417969-8.878906 3.65625-13.660156-2.761718-4.78125-8.878906-6.417969-13.660156-3.65625zm0 0"/><path d="m405.996094 254.625c11.945312-6.925781 20.007812-19.847656 20.007812-34.621094 0-14.773437-8.054687-27.6875-19.996094-34.617187v-44.152344c0-77.875-67.292968-141.234375-150.003906-141.234375-82.714844 0-150.007812 63.359375-150.007812 141.234375v44.152344c-11.9375 6.929687-19.988282 19.847656-19.988282 34.617187 0 14.769532 8.050782 27.683594 19.988282 34.613282v100.652343c-35.660156 36.367188-57.285156 84.769531-59.757813 136.726563h-7.273437c-5.523438 0-10 4.476562-10 10 0 5.523437 4.476562 10 10 10h16.957031c.023437 0 .050781.003906.074219.003906.027344 0 .054687-.003906.078125-.003906h59.84375c.027343 0 .054687.003906.078125.003906.027344 0 .050781-.003906.078125-.003906h139.859375c.019531 0 .039062.003906.058594.003906.011718 0 .023437-.003906.035156-.003906h139.890625c.027343 0 .050781.003906.078125.003906s.050781-.003906.078125-.003906h59.84375c.027343 0 .054687.003906.078125.003906.027344 0 .050781-.003906.078125-.003906h16.957031c5.519531 0 10-4.476563 10-10 0-5.523438-4.480469-10-10-10h-7.277344c-2.472656-51.957032-24.097656-100.359375-59.757812-136.726563m-280 136.726563v-15.515625c38.835937-.9375 73.585937-7.355469 103.40625-19.148438 26.234375-10.375 48.734375-24.886719 66.875-43.136719 25.222656-25.363281 34.925781-50.824218 37.886718-60.386718 6.277344-4.738282 12.113282-10.03125 17.429688-15.804688 1.246094.726563 2.480469 1.464844 3.699219 2.21875-.601563 10.753906-3.046875 36.339844-12.929688 63.835938-16.839843 46.863281-46.367187 76.433594-87.753906 87.9375zm130.007812-111.996094c17.269532 0 33.757813-3.394531 48.847656-9.535156-5.277343 9.140625-12.863281 19.84375-23.613281 30.484375-35.046875 34.695312-88.582031 53.796875-155.242187 55.523437v-18.054687c8.527344-.253907 16.875-.835938 24.921875-1.742188 5.488281-.621093 9.4375-5.570312 8.816406-11.058593-.617187-5.488282-5.570313-9.433594-11.058594-8.816407-7.3125.824219-14.917969 1.347657-22.679687 1.597657v-54.710938c10.34375-9.703125 21.859375-18.339844 34.410156-25.691406 23.773438 25.808594 57.828125 42.003906 95.597656 42.003906zm129.617188-120h.375v77.320312c-6.929688-5.464843-14.238282-10.535156-21.910156-15.164062 12.089843-18.050781 19.785156-39.28125 21.535156-62.15625zm-24.433594 150.824219c7.972656-22.191407 11.503906-43.058594 13.066406-57.292969 4.0625 3.238281 7.980469 6.628906 11.742188 10.15625v128.308594h-84.320313c26.460938-18.074219 46.691407-45.5 59.511719-81.171875zm44.808594-25.222657c23.523437 30.207032 37.671875 67.164063 39.738281 106.394532h-39.738281zm-19.992188-145.601562h-10.003906c-5.519531 0-10 4.480469-10 10 0 25.648438-8.824219 49.273438-23.59375 68-.617188.585938-1.164062 1.261719-1.628906 2.019531-5.933594 7.171875-12.761719 13.574219-20.304688 19.046875-.527344.308594-1.023437.664063-1.488281 1.066406-17.851563 12.511719-39.574219 19.867188-62.984375 19.867188-34.09375 0-64.617188-15.59375-84.808594-40.023438-.449218-.722656-.976562-1.375-1.566406-1.941406-14.785156-18.734375-23.621094-42.371094-23.621094-68.035156 0-5.519531-4.476562-10-10-10h-10c-11.027344 0-19.996094-8.96875-19.996094-19.996094 0-11.03125 8.96875-20.003906 19.996094-20.003906h10c36.4375 0 69.410156-15.070312 93.035156-39.300781 4.882813 9.976562 15.132813 16.863281 26.96875 16.863281 11.828126 0 22.078126-6.886719 26.960938-16.859375 23.625 24.226563 56.601562 39.296875 93.03125 39.296875h10.003906c11.027344 0 20 8.972656 20 20.003906 0 11.027344-8.972656 19.996094-20 19.996094zm-129.996094-102.441406c5.511719 0 10 4.484375 10 10s-4.488281 10.003906-10 10.003906c-5.519531 0-10.003906-4.488281-10.003906-10.003906s4.484375-10 10.003906-10zm-130.011718 3.675781c0-66.847656 58.320312-121.234375 130.007812-121.234375 71.683594 0 130.003906 54.386719 130.003906 121.234375v7.835937c-8.453124-1.0625-16.628906-3.476562-24.398437-7.230468-4.972656-2.402344-10.949219-.316406-13.355469 4.65625-2.398437 4.972656-.316406 10.953125 4.65625 13.355468 10.511719 5.078126 21.609375 8.199219 33.097656 9.347657v10.800781h-.003906-10c-60.65625 0-110-49.34375-110-109.996094 0-5.523437-4.480468-10-10-10-5.523437 0-10 4.476563-10 10 0 60.652344-49.347656 109.996094-110 109.996094h-10s-.003906 0-.007812 0zm.007812 118.765625h.378906c1.75 22.871094 9.445313 44.101562 21.535157 62.152344-7.675781 4.628906-14.992188 9.699218-21.921875 15.167968v-77.320312zm-20.007812 125.601562v106.394532h-39.734375c2.0625-39.230469 16.210937-76.1875 39.734375-106.394532zm0 0"/><path d="m10.234375 491.996094h-.234375c-5.523438 0-10 4.476562-10 10 0 5.523437 4.476562 10 10 10h.234375c5.523437 0 10-4.476563 10-10 0-5.523438-4.480469-10-10-10zm0 0"/><path d="m501.996094 491.996094h-.234375c-5.523438 0-10 4.476562-10 10 0 5.523437 4.476562 10 10 10h.234375c5.523437 0 10-4.476563 10-10 0-5.523438-4.476563-10-10-10zm0 0"/><path d="m306.007812 237.5c-6.886718 0-12.507812 5.613281-12.507812 12.5 0 6.882812 5.621094 12.5 12.507812 12.5 6.878907 0 12.5-5.617188 12.5-12.5 0-6.886719-5.621093-12.5-12.5-12.5zm0 0"/><path d="m206.003906 237.5c-6.882812 0-12.5 5.613281-12.5 12.5 0 6.882812 5.617188 12.5 12.5 12.5 6.886719 0 12.5-5.617188 12.5-12.5 0-6.886719-5.613281-12.5-12.5-12.5zm0 0"/><path d="m218.945312 201.703125c-8.4375-2.261719-17.449218-2.261719-25.886718.003906-5.332032 1.429688-8.496094 6.914063-7.066406 12.246094 1.429687 5.335937 6.914062 8.5 12.25 7.070313 5.058593-1.355469 10.464843-1.355469 15.523437 0 .867187.230468 1.738281.34375 2.59375.34375 4.417969 0 8.457031-2.945313 9.65625-7.414063 1.429687-5.335937-1.734375-10.816406-7.070313-12.25zm0 0"/><path d="m318.945312 201.703125c-8.441406-2.261719-17.449218-2.261719-25.882812 0-5.335938 1.433594-8.5 6.914063-7.070312 12.25 1.429687 5.332031 6.90625 8.5 12.246093 7.070313 5.058594-1.355469 10.464844-1.359376 15.53125 0 .867188.230468 1.738281.34375 2.59375.34375 4.414063 0 8.457031-2.949219 9.652344-7.414063 1.429687-5.335937-1.734375-10.816406-7.070313-12.25zm0 0"/><path d="m178.613281 431.800781c.796875 0 1.601563-.097656 2.40625-.296875.050781-.011718.128907-.027344.15625-.035156 5.363281-1.320312 8.664063-6.742188 7.347657-12.105469-1.316407-5.363281-6.707032-8.648437-12.074219-7.328125l-.332031.082032c-5.347657 1.382812-8.5625 6.835937-7.179688 12.183593 1.167969 4.507813 5.226562 7.5 9.675781 7.5zm0 0"/><path d="m326.210938 141.035156c1.933593 1.824219 4.402343 2.726563 6.867187 2.726563 2.65625 0 5.308594-1.050781 7.273437-3.132813 3.789063-4.019531 3.609376-10.34375-.40625-14.132812l-.183593-.183594c-3.878907-3.933594-10.203125-3.964844-14.132813-.089844-3.933594 3.878906-3.964844 10.21875-.089844 14.152344.222657.222656.445313.445312.671876.660156zm0 0"/></g></svg>