<svg height="512pt" viewBox="0 0 512 512" width="512pt" xmlns="http://www.w3.org/2000/svg"><path d="m84.796875 501.996094h31.203125v-106.917969c-19.738281 30.972656-31.203125 67.667969-31.203125 106.917969zm0 0" fill="#0586ad" fill-rule="evenodd"/><path d="m160.191406 502.742188h95.8125v-94.785157l-5.921875-33.023437-19.503906 17.21875-33.960937 28.597656-25.277344-70.644531c-4.179688-13.15625-5.175782-17.625-11.148438-20.605469zm0 0" fill="#7aeae7" fill-rule="evenodd"/><path d="m256 369.996094c-21.167969 0-41.101562-5.554688-58.414062-15.277344l17.726562 49.542969zm0 0" fill="#0586ad" fill-rule="evenodd"/><path d="m396.007812 501.996094v-142.476563c8.996094 8.84375 17.167969 18.523438 24.382813 28.910157 22.4375 32.3125 35.617187 71.472656 35.617187 113.566406zm0 0" fill="#0586ad" fill-rule="evenodd"/><path d="m396.007812 359.519531v142.480469l-140.003906-.003906v-132l59.386719 50.007812 33.898437-94.738281c.003907-.003906.007813-.003906.007813-.015625 17.195313 9.144531 32.925781 20.722656 46.710937 34.269531zm0 0" fill="#7aeae7" fill-rule="evenodd"/><path d="m349.289062 325.265625-33.898437 94.738281-59.382813-50.007812c37.558594 0 71.238282-17.488282 93.28125-44.730469zm0 0" fill="#0586ad" fill-rule="evenodd"/><path d="m224.875 148.792969c17.003906 15.371093 69.019531 4.5 107.808594 8.398437 3.386718-.347656 6.753906-.742187 10.09375-1.191406 15.171875-2.054688 29.816406-5.222656 43.226562-9.597656 30.980469-10.109375 55.355469-26.664063 64.375-50.773438-52.933594-14.183594-74.125-68.628906-154.527344-82.429687-104.097656 48.648437-78.757812 127.957031-70.976562 135.59375zm0 0" fill="#f9d973" fill-rule="evenodd"/><path d="m386.003906 146.402344c-13.410156 4.375-28.054687 7.542968-43.226562 9.597656 5.816406 20.507812 16.535156 34.003906 33.226562 34.003906h10zm0 0" fill="#f4ba64" fill-rule="evenodd"/><path d="m174.125 127.5c-4.632812-4.546875-11.511719-11.46875-17.535156-23.816406-3.347656 11.527344-5.152344 23.707031-5.152344 36.316406v44.90625c13.59375-9.878906 21.105469-32.839844 22.6875-57.40625zm0 0" fill="#f4ba64" fill-rule="evenodd"/><path d="m342.777344 156c-5.5625.75-11.199219 1.351562-16.871094 1.804688 5.828125.464843 11.742188.78125 17.703125.949218-.285156-.902344-.566406-1.820312-.832031-2.753906zm0 0" fill="#c99e81"/><path d="m349.636719 325.269531.003906-.019531c16.691406-20.613281 26.707031-46.816406 26.707031-75.246094h10c16.570313 0 30.003906-13.433594 30.003906-30.003906 0-16.566406-13.433593-30-30.003906-30h-10c-15.929687 0-26.414062-12.296875-32.394531-31.246094-5.957031-.167968-11.875-.484375-17.703125-.949218-34.761719 2.796874-70.871094.117187-100.257812-7.023438-13.507813-2.730469-19.042969-3.882812-34.636719-12.632812v111.855468c0 28.429688 10.019531 54.632813 26.710937 75.246094l.007813.023438c16.492187 20.382812 39.5 35.300781 65.773437 41.519531 26.28125-6.21875 49.292969-21.140625 65.789063-41.523438zm0 0" fill="#c99e81"/><g fill="#000001"><path d="m10.234375 491.996094h-.234375c-5.523438 0-10 4.480468-10 10 0 5.523437 4.476562 10 10 10h.234375c5.519531 0 10-4.476563 10-10 0-5.519532-4.476563-10-10-10zm0 0"/><path d="m502 491.996094h-.234375c-5.523437 0-10 4.480468-10 10 0 5.523437 4.476563 10 10 10h.234375c5.523438 0 10-4.476563 10-10 0-5.519532-4.476562-10-10-10zm0 0"/><path d="m473.035156 491.996094h-7.273437c-3.328125-69.960938-41.386719-133.476563-101.675781-169.84375 12.089843-18.050782 19.789062-39.28125 21.535156-62.148438h.382812c22.054688 0 40-17.945312 40-40 0-18.605468-12.765625-34.285156-30-38.734375v-27.742187c33.015625-12.121094 54.867188-30.671875 63.742188-54.394532.003906-.011718.003906-.023437.007812-.035156.105469-.285156.203125-.578125.285156-.878906 0-.007812 0-.015625.003907-.023438.070312-.261718.117187-.519531.167969-.777343.011718-.070313.03125-.140625.042968-.210938.042969-.269531.066406-.535156.089844-.804687.003906-.0625.015625-.128906.019531-.191406.015625-.222657.011719-.445313.007813-.667969 0-.109375.007812-.214844.003906-.324219-.007812-.128906-.023438-.257812-.035156-.386719-.105469-1.3125-.46875-2.578125-1.058594-3.730469-.597656-1.183593-1.433594-2.246093-2.46875-3.113281-.101562-.085937-.191406-.175781-.292969-.253906-.082031-.0625-.171875-.117187-.253906-.179687-.1875-.132813-.367187-.269532-.5625-.390626-.046875-.03125-.101563-.054687-.148437-.085937-.234376-.140625-.476563-.28125-.726563-.402344-.054687-.03125-.117187-.050781-.175781-.078125-.246094-.117187-.492188-.226562-.75-.324218-.007813-.003907-.015625-.007813-.019532-.011719-.148437-.054688-.296874-.089844-.445312-.140625-.15625-.050782-.308594-.109375-.472656-.152344-20.605469-5.519531-36.042969-17.832031-53.921875-32.09375-31.664063-25.25-67.550781-53.875-143.039063-53.875-31.9375 0-61.40625 10.757812-84.988281 28.828125-.679687.40625-1.296875.890625-1.851563 1.4375-11.875 9.417969-22.191406 20.722656-30.492187 33.449219-.457031.5625-.847656 1.175781-1.171875 1.828125-13.609375 21.578125-21.496094 47.113281-21.496094 74.457031v41.269531c-17.234375 4.449219-30 20.128907-30 38.734375 0 22.054688 17.945313 40 40 40h.378906c1.746094 22.867188 9.441407 44.097656 21.53125 62.148438-60.289062 36.359375-98.347656 99.882812-101.671874 169.84375h-7.277344c-5.523438 0-10 4.480468-10 10 0 5.523437 4.476562 10 10 10h16.996094.039062.039062 59.921876.039062.035156 279.929688.035156.039062 59.925782.035156.039062 16.996094c5.523438 0 10-4.476563 10-10 0-5.519532-4.476562-10-10-10zm-347.035156-128.3125c9.488281-8.898438 19.960938-16.898438 31.316406-23.839844l29.886719 83.53125c1.105469 3.082031 3.648437 5.433594 6.8125 6.285156.855469.230469 1.730469.34375 2.601563.34375 2.332031 0 4.617187-.8125 6.441406-2.347656l42.945312-36.164062v100.503906h-120.003906zm59.464844-4.535156c13.746094 8.914062 29.273437 15.300781 45.921875 18.503906l-30.203125 25.433594zm80.539062 32.34375 42.945313 36.164062c1.824219 1.535156 4.113281 2.347656 6.441406 2.347656.871094 0 1.746094-.109375 2.605469-.34375 3.164062-.855468 5.707031-3.203125 6.808594-6.285156l29.886718-83.523438c11.351563 6.9375 21.824219 14.9375 31.308594 23.835938v128.308594h-119.996094zm14.617188-13.839844c16.648437-3.203125 32.179687-9.589844 45.925781-18.507813l-15.722656 43.941407zm125.378906 7.949218c23.527344 30.207032 37.675781 67.164063 39.738281 106.394532h-39.738281zm-29.996094-205.597656c-8.21875 0-14.820312-5.398437-19.722656-16.027344 5.582031-.984374 11.035156-2.105468 16.296875-3.386718 1.152344-.28125 2.289063-.570313 3.425781-.867188zm-205.90625-123.695312c4.84375 19.484375 16.515625 48.003906 56.742188 59.570312.921875.265625 1.855468.390625 2.769531.390625 4.34375 0 8.34375-2.855469 9.605469-7.238281 1.523437-5.308594-1.539063-10.847656-6.847656-12.375-36.023438-10.355469-41.304688-36.65625-44.796876-54.054688-.066406-.339843-.132812-.652343-.199218-.980468 19.464844-13.617188 43.128906-21.621094 68.632812-21.621094 68.488282 0 100.046875 25.171875 130.570313 49.511719 15.746093 12.5625 30.777343 24.519531 49.707031 31.960937-11.390625 17.6875-35.191406 31.585938-68.4375 39.6875-66.207031 16.128906-156.957031 5.925782-186.910156-20.988281-6.570313-6.449219-18.316406-18.222656-23.925782-47.914063 3.90625-5.691406 8.289063-11.027343 13.089844-15.949218zm-26.636718 42.046875c6.292968 16.976562 14.4375 26.847656 20.320312 32.9375-2.40625 24.242187-11.773438 48.707031-27.777344 48.710937v-40.003906c0-14.636719 2.636719-28.664062 7.457032-41.644531zm-7.460938 141.648437h-9.996094c-11.027344 0-20-8.972656-20-20s8.972656-20 20-20h9.996094c10.285156 0 24.851562-4.195312 35.828125-24.1875 5.320313-9.691406 8.429687-20.59375 10.226563-30.597656 18.085937 10.144531 43.839843 17.523438 74.667968 21.226562 26.0625 3.125 53.5 3.203126 79.128906.429688 10.855469 28.582031 29.46875 33.128906 40.152344 33.128906h10c11.027344 0 20 8.972656 20 20s-8.972656 20-20 20h-10c-5.523437 0-10 4.476563-10 10 0 25.640625-8.820312 49.257813-23.585937 67.984375-.144531.136719-.285157.28125-.425781.433594-.042969.042969-.082032.089844-.125.132813-.171876.195312-.339844.398437-.5.605468-.042969.054688-.085938.109375-.125.167969-.15625.210937-.300782.425781-.4375.648437-.019532.027344-.039063.050782-.054688.078126-20.167969 24.355468-50.609375 39.90625-84.617188 39.945312-.023437 0-.050781 0-.074218 0-.019532 0-.039063 0-.054688 0-.019531 0-.035156 0-.054687 0-.027344 0-.050781 0-.078125 0-34-.039062-64.4375-15.582031-84.601563-39.933594-.050781-.078125-.105469-.148437-.15625-.226562-.074219-.117188-.152343-.234375-.234375-.347656-.109375-.15625-.222656-.3125-.34375-.460938-.089844-.113281-.179687-.222656-.277344-.332031-.113281-.136719-.234374-.269531-.359374-.394531-.097657-.101563-.191407-.199219-.292969-.296876-14.773438-18.726562-23.601563-42.355468-23.601563-68.003906-.003906-5.523437-4.480468-10-10.003906-10zm-30 145.597656v106.394532h-39.738281c2.066406-39.230469 16.210937-76.191406 39.738281-106.394532zm0 0"/><path d="m291.851562 439.855469h-.234374c-5.523438 0-10 4.476562-10 10 0 5.523437 4.476562 10 10 10h.234374c5.523438 0 10-4.476563 10-10 0-5.523438-4.476562-10-10-10zm0 0"/><path d="m306.003906 237.503906c-6.886718 0-12.5 5.613282-12.5 12.5 0 6.882813 5.613282 12.5 12.5 12.5 6.886719 0 12.5-5.617187 12.5-12.5 0-6.886718-5.613281-12.5-12.5-12.5zm0 0"/><path d="m206.003906 237.503906c-6.886718 0-12.5 5.613282-12.5 12.5 0 6.882813 5.613282 12.5 12.5 12.5 6.882813 0 12.5-5.617187 12.5-12.5 0-6.886718-5.617187-12.5-12.5-12.5zm0 0"/><path d="m191.003906 224.023438c4.554688-2.628907 9.738282-4.019532 14.996094-4.019532 5.261719 0 10.445312 1.390625 15 4.019532 1.578125.910156 3.296875 1.34375 4.992188 1.34375 3.457031 0 6.816406-1.796876 8.671874-5.003907 2.761719-4.78125 1.121094-10.898437-3.660156-13.660156-7.59375-4.382813-16.238281-6.699219-25.003906-6.699219-8.761719 0-17.410156 2.316406-25 6.699219-4.78125 2.761719-6.421875 8.878906-3.65625 13.660156 2.761719 4.785157 8.875 6.421875 13.660156 3.660157zm0 0"/><path d="m291.007812 224.023438c4.550782-2.628907 9.734376-4.023438 14.996094-4.023438 5.257813 0 10.445313 1.394531 14.996094 4.023438 1.578125.910156 3.296875 1.34375 4.992188 1.34375 3.457031 0 6.816406-1.792969 8.667968-5 2.765625-4.785157 1.125-10.898438-3.65625-13.664063-7.589844-4.382813-16.234375-6.699219-25-6.699219-8.769531 0-17.414062 2.316406-25 6.699219-4.785156 2.765625-6.421875 8.878906-3.660156 13.664063 2.765625 4.78125 8.878906 6.417968 13.664062 3.65625zm0 0"/><path d="m227.34375 298.667969c-2.761719 4.78125-1.125 10.898437 3.65625 13.660156 7.59375 4.386719 16.238281 6.703125 25.003906 6.703125 8.761719 0 17.40625-2.316406 25-6.703125 4.78125-2.761719 6.421875-8.875 3.660156-13.660156-2.761718-4.78125-8.878906-6.417969-13.660156-3.660157-4.558594 2.632813-9.746094 4.023438-15 4.023438-5.257812 0-10.445312-1.390625-14.996094-4.019531-4.785156-2.765625-10.902343-1.128907-13.664062 3.65625zm0 0"/><path d="m257.789062 120.8125c.191407.011719.394532.023438.585938.03125.148438.007812.296875.007812.445312.007812 5.320313 0 9.746094-4.191406 9.980469-9.5625.242188-5.519531-4.035156-10.1875-9.550781-10.425781l-.226562-.015625c-5.507813-.339844-10.257813 3.855469-10.597657 9.363282-.34375 5.515624 3.851563 10.261718 9.363281 10.601562zm0 0"/></g></svg>