<svg height="512pt" viewBox="0 0 512 512" width="512pt" xmlns="http://www.w3.org/2000/svg"><path d="m437.558594 233.101562c-4.367188-4.289062-9.632813-7.730468-15.589844-10.007812 4.890625-18.246094 7.34375-34.867188 7.847656-49.960938 3.464844-104.382812-86.835937-135.378906-116.3125-121.527343-19.277344-19.277344-43.527344-32.433594-69.730468-38.238281-63.628907 14.082031-111.222657 70.824218-111.222657 138.6875 0 11.304687 1.363281 22.519531 4 33.414062 66.511719-49.460938 135.46875 18.480469 176.953125-79.097656 7.996094 23.808594 16.363282 37.863281 24.929688 47.054687 12.277344 13.179688 24.96875 16.363281 37.570312 23.910157v72.660156c0 14.542968-2.621094 28.503906-7.417968 41.433594 8.484374 12.15625 22.371093 19.398437 37.199218 19.398437 11.882813 0 22.695313-4.574219 30.78125-12.054687 8.960938-8.285157 14.578125-20.136719 14.578125-33.304688 0-12.429688-5.074219-24.007812-13.585937-32.367188zm0 0" fill="#fffaeb"/><path d="m349.289062 325.25c8.15625-10.066406 14.71875-21.472656 19.296876-33.816406 4.796874-12.929688 7.417968-26.890625 7.417968-41.433594v-72.660156c-13.867187-8.304688-51.964844-46.359375-65.378906-63.222656-28.503906 51.277343-80.457031 48.578124-123.121094 51.277343v84.605469c0 14.542969 2.625 28.503906 7.417969 41.433594 4.578125 12.347656 11.140625 23.75 19.292969 33.820312 9.238281 11.425782 20.523437 21.132813 33.289062 28.554688 10.519532 6.125 22.046875 10.675781 34.25 13.375 12.203125-2.695313 23.730469-7.25 34.25-13.371094 12.761719-7.425781 24.046875-17.132812 33.285156-28.5625zm0 0" fill="#fcd0ac"/><path d="m87.996094 501.996094h28.003906v-101.722656c-17.769531 29.851562-28.003906 64.648437-28.003906 101.722656zm0 0" fill="#45ba88" fill-rule="evenodd"/><path d="m240.417969 383.125-43.800781 36.882812-22.148438-61.902343c-.492188.472656-.984375.941406-1.46875 1.417969v142.472656h83.003906v-131.996094zm0 0" fill="#45ba88"/><path d="m256 370c-20.496094 0-39.832031-5.214844-56.753906-14.375l17.09375 47.773438zm0 0" fill="#ff5a5a" fill-rule="evenodd"/><path d="m396.007812 501.996094v-142.472656c8.996094 8.839843 17.167969 18.523437 24.382813 28.910156 22.433594 32.308594 35.617187 71.472656 35.617187 113.5625zm0 0" fill="#45ba88" fill-rule="evenodd"/><path d="m396.007812 359.523438v142.476562l-140.003906-.003906v-131.996094l59.386719 50.007812 33.898437-94.738281c.003907-.003906.007813-.007812.003907-.015625 17.199219 9.144532 32.929687 20.722656 46.714843 34.269532zm0 0" fill="#45ba88" fill-rule="evenodd"/><path d="m349.289062 325.269531-33.898437 94.738281-59.382813-50.007812c37.5625 0 71.238282-17.488281 93.28125-44.730469zm0 0" fill="#ff5a5a" fill-rule="evenodd"/><g fill="#000001"><path d="m195.644531 241.367188c.855469 0 1.730469-.109376 2.601563-.34375 5.042968-1.359376 10.460937-1.359376 15.511718 0 5.332032 1.433593 10.820313-1.730469 12.253907-7.0625 1.433593-5.332032-1.730469-10.820313-7.0625-12.253907-8.4375-2.265625-17.464844-2.265625-25.894531 0-5.335938 1.433594-8.496094 6.921875-7.0625 12.253907 1.199218 4.464843 5.238281 7.40625 9.652343 7.40625zm0 0"/><path d="m298.246094 241.023438c5.050781-1.359376 10.46875-1.359376 15.515625 0 .867187.234374 1.742187.34375 2.601562.34375 4.410157 0 8.449219-2.941407 9.648438-7.40625 1.433593-5.332032-1.726563-10.820313-7.058594-12.253907-8.433594-2.265625-17.460937-2.265625-25.898437 0-5.332032 1.433594-8.496094 6.921875-7.0625 12.253907 1.433593 5.332031 6.925781 8.496093 12.253906 7.0625zm0 0"/><path d="m231 312.324219c7.589844 4.386719 16.234375 6.703125 25.003906 6.703125 8.765625 0 17.410156-2.316406 25-6.703125 4.78125-2.761719 6.417969-8.878907 3.65625-13.660157-2.765625-4.78125-8.878906-6.421874-13.660156-3.65625-4.554688 2.628907-9.738281 4.019532-14.996094 4.019532-5.261718 0-10.445312-1.390625-15-4.019532-4.78125-2.765624-10.898437-1.128906-13.660156 3.65625-2.761719 4.78125-1.125 10.898438 3.65625 13.660157zm0 0"/><path d="m121.992188 138.542969c1.628906-10.972657 5.183593-21.453125 10.566406-31.15625 2.679687-4.828125.9375-10.917969-3.890625-13.597657-4.832031-2.679687-10.917969-.9375-13.597657 3.894532-6.554687 11.808594-10.878906 24.566406-12.863281 37.921875-.808593 5.464843 2.960938 10.550781 8.425781 11.359375.496094.074218.992188.109375 1.480469.109375 4.875 0 9.144531-3.566407 9.878907-8.53125zm0 0"/><path d="m140.761719 90.015625c2.539062 0 5.082031-.960937 7.03125-2.886719l.207031-.207031c3.882812-3.929687 3.847656-10.261719-.082031-14.144531-3.925781-3.882813-10.257813-3.84375-14.140625.082031l-.046875.046875c-3.925781 3.882812-3.964844 10.214844-.082031 14.140625 1.957031 1.980469 4.535156 2.96875 7.113281 2.96875zm0 0"/><path d="m10.234375 491.996094h-.234375c-5.523438 0-10 4.476562-10 10 0 5.523437 4.476562 10 10 10h.234375c5.523437 0 10-4.476563 10-10 0-5.523438-4.476563-10-10-10zm0 0"/><path d="m502 491.996094h-.234375c-5.523437 0-10 4.476562-10 10 0 5.523437 4.476563 10 10 10h.234375c5.523438 0 10-4.476563 10-10 0-5.523438-4.476562-10-10-10zm0 0"/><path d="m473.03125 491.996094h-7.273438c-3.324218-69.960938-41.382812-133.480469-101.667968-169.839844 2.796875-4.179688 5.363281-8.523438 7.671875-13.023438 9.605469 7.484376 21.550781 11.699219 34.023437 11.699219 30.527344 0 55.359375-24.835937 55.359375-55.363281 0-19.761719-10.753906-38.003906-27.492187-47.8125 20.808594-87.929688-14.589844-133.605469-38.0625-153.242188-27.636719-23.121093-59.683594-29.351562-79.570313-24.238281-28.144531-25.953125-64.460937-40.175781-102.964843-40.175781-83.847657 0-152.058594 68.210938-152.058594 152.058594 0 23.148437 5.324218 46.023437 15.453125 66.769531-15.640625 10.046875-25.589844 27.640625-25.589844 46.644531 0 30.527344 24.835937 55.359375 55.363281 55.359375 12.472656 0 24.417969-4.214843 34.023438-11.699219 2.308594 4.5 4.875 8.84375 7.671875 13.019532-60.292969 36.359375-98.351563 99.882812-101.679688 169.84375h-7.269531c-5.527344 0-10 4.480468-10 10 0 5.523437 4.472656 10 10 10h16.992188c.011718 0 .023437.003906.035156.003906.015625 0 .027344-.003906.039062-.003906h59.925782c.015624 0 .027343.003906.039062.003906s.023438-.003906.039062-.003906h279.921876c.015624 0 .023437.003906.039062.003906s.023438-.003906.039062-.003906h59.921876c.011718 0 .023437.003906.039062.003906.011719 0 .023438-.003906.039062-.003906h16.992188c5.523438 0 10-4.476563 10-10 0-5.523438-4.476562-10-10-10zm-347.03125-128.3125c9.488281-8.898438 19.960938-16.902344 31.3125-23.835938l29.890625 83.527344c1.101563 3.082031 3.644531 5.429688 6.808594 6.28125.859375.234375 1.734375.347656 2.605469.347656 2.328124 0 4.617187-.8125 6.4375-2.351562l42.949218-36.160156v100.5h-120.003906zm27.027344-75.023438c-.132813-.449218-.300782-.886718-.492188-1.316406-4.222656-11.664062-6.53125-24.238281-6.53125-37.34375v-59.007812c23.699219-16.089844 47.542969-16.375 72.511719-16.667969 33.375-.390625 67.75-.789063 93.804687-43.570313 15.382813 33.5 32.476563 41.9375 47.839844 49.515625 2 .988281 3.945313 1.949219 5.847656 2.941407v66.789062c0 13.09375-2.308593 25.664062-6.523437 37.320312-.203125.449219-.382813.910157-.515625 1.382813-4.011719 10.644531-9.628906 20.507813-16.554688 29.292969-.136718.128906-.269531.265625-.398437.402344-.058594.0625-.113281.125-.171875.1875-.15625.175781-.308594.359374-.457031.546874-.058594.078126-.113281.15625-.171875.230469-.136719.1875-.265625.382813-.390625.582031-.023438.035157-.050781.070313-.074219.109376-20.195312 24.382812-50.6875 39.945312-84.746094 39.945312-34.066406 0-64.566406-15.570312-84.757812-39.964844-.042969-.070312-.089844-.128906-.132813-.195312-.078125-.121094-.15625-.234375-.234375-.347656-.109375-.15625-.222656-.308594-.339844-.457032-.09375-.117187-.1875-.230468-.285156-.339844-.113281-.132812-.230468-.261718-.351562-.386718-.089844-.09375-.179688-.1875-.273438-.273438-6.953125-8.808594-12.582031-18.699218-16.601562-29.375zm173.519531 70.484375-15.722656 43.941407-30.207031-25.4375c16.648437-3.199219 32.179687-9.585938 45.929687-18.503907zm-95.15625 18.507813-30.207031 25.433594-15.722656-43.945313c13.746093 8.917969 29.277343 15.304687 45.929687 18.511719zm34.613281 13.839844 42.945313 36.164062c1.820312 1.535156 4.109375 2.347656 6.4375 2.347656.871093 0 1.746093-.113281 2.605469-.34375 3.164062-.855468 5.707031-3.203125 6.8125-6.285156l29.886718-83.523438c11.351563 6.9375 21.820313 14.9375 31.308594 23.835938v128.308594h-119.996094zm139.996094-5.890626c23.523438 30.203126 37.671875 67.160157 39.734375 106.394532h-39.734375zm-299.777344-84.769531c-19.5 0-35.363281-15.863281-35.363281-35.363281 0-14.558594 9.140625-27.835938 22.746094-33.03125 1.492187-.570312 2.757812-1.464844 3.773437-2.566406 0 0 0 0 0-.003906.21875-.234376.417969-.476563.609375-.726563.011719-.011719.015625-.023437.027344-.035156.183594-.242188.355469-.496094.515625-.753907.011719-.019531.023438-.035156.03125-.054687.15625-.253906.300781-.515625.433594-.785156.007812-.019531.019531-.042969.03125-.0625.128906-.269531.246094-.542969.351562-.824219.007813-.019531.015625-.039062.023438-.058594.101562-.28125.195312-.566406.273437-.855468.007813-.019532.011719-.039063.015625-.058594.078125-.285156.140625-.574219.191406-.867188.003907-.023437.007813-.050781.011719-.074218.046875-.28125.082031-.5625.101563-.847657.003906-.042969.007812-.085937.011718-.128906.019532-.261719.019532-.523437.019532-.789063 0-.066406 0-.136718-.003906-.207031-.007813-.230469-.027344-.464843-.050782-.699219-.015625-.105468-.023437-.207031-.035156-.308593-.03125-.203125-.066406-.402344-.105469-.605469-.027343-.136719-.054687-.269531-.089843-.40625-.042969-.171875-.089844-.34375-.140626-.515625-.050781-.15625-.101562-.3125-.15625-.46875-.023437-.070313-.039062-.140625-.066406-.210937-.035156-.089844-.082031-.175782-.117187-.265626-.0625-.148437-.128907-.300781-.199219-.453124-.082031-.167969-.164062-.332032-.253906-.492188-.039063-.074219-.074219-.152344-.117188-.230469-11.574218-20.050781-17.691406-42.882812-17.691406-66.027343 0-72.816407 59.238281-132.058594 132.054688-132.058594 35.273437 0 68.4375 13.738281 93.378906 38.683594.054687.050781.109375.089843.160156.140624.144531.140626.292969.273438.445312.40625.113282.09375.222657.183594.335938.269532.136719.105468.273438.207031.414062.304687.140626.101563.285157.191407.429688.28125.117188.074219.238281.148438.359375.21875.167969.09375.339844.1875.511719.269531.109375.054688.21875.105469.328125.152344.1875.082032.375.164063.566406.234375.109375.042969.222656.078125.332031.117188.1875.0625.378906.121093.570313.175781.125.03125.253906.0625.378906.089844.179687.042968.359375.082031.539063.113281.148437.023437.296874.042969.445312.0625.160156.019531.320312.039063.484375.050781.167969.015625.335937.019532.507813.027344.144531.003906.292968.003906.441406.003906.175781-.003906.351562-.015625.527344-.027344.144531-.007812.292968-.019531.4375-.039062.167968-.019531.335937-.042969.503906-.070312.160156-.027344.320312-.058594.480468-.09375.148438-.03125.296876-.066407.441407-.105469.183593-.050781.363281-.101563.542969-.160157.125-.042968.246093-.085937.371093-.128906.195313-.074218.390625-.15625.585938-.242187.0625-.027344.125-.046875.183593-.074219 11.320313-5.320312 40.210938-1.644531 65 19.09375 20.523438 17.167969 51.648438 58.277344 29.5625 140.734375-.179687.667969-.289062 1.339844-.332031 2.007813-.003906.101562 0 .203124-.003906.304687-.003906.226563-.015625.449219-.003906.671875.003906.167969.027343.335938.039062.503906.015625.152344.023438.308594.042969.460938.027344.191406.066406.382812.105469.574218.023437.125.042969.25.070312.371094.042969.191406.105469.378906.160157.566406.035156.121094.0625.246094.105468.363282.058594.167968.128906.328125.191406.492187.054688.136719.105469.273438.164063.40625.058594.136719.132813.265625.203125.402344.078125.152344.148438.308594.234375.457031.0625.105469.132813.207032.195313.3125.105468.167969.210937.339844.324218.503906.058594.082032.125.160157.1875.238282.132813.175781.261719.351562.40625.519531.066406.074219.140625.144531.207032.21875.148437.164063.296874.328125.460937.480469.085937.085937.1875.160156.277344.242187.148437.132813.296875.265625.453125.390625.144531.113282.300781.21875.453125.320313.117187.082031.226562.167969.34375.242187.25.15625.511719.304688.777343.441406.03125.015626.054688.03125.082032.046876.304687.152343.621094.292968.945312.414062 13.597656 5.199219 22.734375 18.472656 22.734375 33.03125 0 19.496094-15.863281 35.359375-35.363281 35.359375-9.90625 0-19.28125-4.167969-25.921875-11.328125 3.984375-12.460938 6.144531-25.734375 6.144531-39.503906v-51.1875c.28125.335937.558594.660156.84375 1.007812 3.460938 4.308594 9.753906 4.992188 14.058594 1.527344 4.304688-3.457031 4.988281-9.753906 1.527344-14.058594-7.167969-8.914062-14.53125-14.5-21.613282-18.710937-.019531-.011719-.039062-.023438-.0625-.035157-4.039062-2.398437-7.988281-4.351562-11.75-6.207031-16.824218-8.300781-31.351562-15.46875-46.027343-59.148437-1.320313-3.933594-4.941407-6.644532-9.089844-6.804688-4.140625-.175781-7.964844 2.257813-9.59375 6.078125-21.726563 51.117188-50.097656 51.449219-86.015625 51.867188-31.808594.375-67.855469.796875-102.71875 36.273437-3.871094 3.9375-3.816406 10.269532.125 14.140625 1.945312 1.914063 4.476562 2.867188 7.007812 2.867188 1.121094 0 2.238282-.199219 3.308594-.570313v42.960938c0 13.769531 2.15625 27.039062 6.140625 39.503906-6.636719 7.160156-16.015625 11.332031-25.921875 11.332031zm-.222656 84.765625v106.394532h-39.738281c2.0625-39.230469 16.210937-76.1875 39.738281-106.394532zm0 0"/><path d="m291.851562 439.855469h-.234374c-5.523438 0-10 4.476562-10 10 0 5.523437 4.476562 10 10 10h.234374c5.523438 0 10-4.476563 10-10 0-5.523438-4.472656-10-10-10zm0 0"/></g></svg>