<svg height="512pt" viewBox="0 0 512 512" width="512pt" xmlns="http://www.w3.org/2000/svg"><path d="m427.382812 94.679688c-.382812-1.917969-.585937-3.898438-.585937-5.929688 0-7.59375 2.824219-14.527344 7.476563-19.8125-42.355469-33.382812-88.628907-49.414062-131.855469-55.652344-57.757813 13.238282-100.839844 64.945313-100.839844 126.714844h184.421875c0-12.476562-1.761719-24.542969-5.042969-35.964844zm0 0" fill="#ff5a5a" fill-rule="evenodd"/><path d="m427.382812 94.679688c2.753907 13.730468 14.875 24.070312 29.414063 24.070312 16.566406 0 30-13.429688 30-30 0-16.566406-13.433594-30-30-30-8.976563 0-17.027344 3.941406-22.523437 10.1875-4.652344 5.285156-7.476563 12.21875-7.476563 19.8125 0 2.03125.203125 4.011719.585937 5.929688zm0 0" fill="#fffaeb" fill-rule="evenodd"/><path d="m396 180.003906v-30.003906c0-5.5-4.5-10-10-10h-186.269531c-5.5 0-10 4.5-10 10v30.003906c0 5.5 4.5 10 10 10h186.269531c5.5 0 10-4.5 10-10zm0 0" fill="#fffaeb" fill-rule="evenodd"/><path d="m386 190.003906h-190.257812c0 .136719 2.316406 60 2.316406 60 0 15.011719 2.792968 29.402344 7.886718 42.675782 2.917969-1.691407 6.285157-2.675782 9.882813-2.675782h80.34375c10.902344 0 19.828125 8.921875 19.828125 19.824219v40.175781c0 1.304688-.042969 2.601563-.128906 3.886719 18.1875-10.550781 33.390625-25.742187 43.960937-43.917969 3.199219-5.503906 5.972657-11.285156 8.28125-17.292968 5.089844-13.273438 7.886719-27.664063 7.886719-42.675782h10c16.566406 0 29.996094-13.433594 29.996094-30 0-16.570312-13.429688-30-29.996094-30zm0 0" fill="#fcd0ac"/><path d="m236.667969 309.828125v40.175781c0 1.304688.042969 2.601563.128906 3.886719 1.203125 18.621094 11 35 25.441406 45.179687 4.320313 3.046876 9.050781 5.53125 14.09375 7.363282 5.042969-1.832032 9.773438-4.316406 14.089844-7.363282 14.445313-10.179687 24.25-26.558593 25.449219-45.179687.085937-1.285156.128906-2.582031.128906-3.886719v-40.175781c0-10.902344-8.925781-19.824219-19.828125-19.824219h-39.679687c-10.902344 0-19.824219 8.921875-19.824219 19.824219zm0 0" fill="#fffaeb" fill-rule="evenodd"/><path d="m196.128906 353.890625c-9.375-5.4375-17.949218-12.117187-25.511718-19.796875-.347657 2.054688-.625 4.175781-.816407 6.359375-2.261719 26.253906 7.023438 60.640625 29.449219 71.226563 6.835938-2.535157 14.265625-6.628907 22.324219-12.609376-14.441407-10.179687-24.242188-26.558593-25.445313-45.179687zm0 0" fill="#fffaeb" fill-rule="evenodd"/><path d="m315.871094 353.890625c-1.199219 18.621094-11.003906 35-25.445313 45.179687 61.148438 45.390626 86.699219-16.898437 83.097657-58.613281-1.222657-14.296875-5.875-26.175781-13.691407-30.480469-10.570312 18.171876-25.773437 33.363282-43.960937 43.914063zm0 0" fill="#fffaeb" fill-rule="evenodd"/><path d="m264.773438 409.351562c-2.867188.425782-5.792969.652344-8.773438.652344-12.78125 0-24.664062-4.050781-34.425781-10.933594-1.839844 1.363282-3.644531 2.628907-5.417969 3.800782 10.9375 11.855468 27.007812 16.707031 48.617188 6.480468zm0 0" fill="#ff5a5a"/><path d="m290.425781 399.070312c-1.429687 1.007813-2.910156 1.945313-4.425781 2.832032 6.425781 3.738281 13.597656 6.316406 21.230469 7.449218-5.273438-2.496093-10.867188-5.875-16.804688-10.28125zm0 0" fill="#ff5a5a"/><path d="m281.574219 399.070312c-5.933594 4.40625-11.53125 7.785157-16.800781 10.28125 7.628906-1.132812 14.800781-3.710937 21.226562-7.449218-1.515625-.882813-2.996094-1.824219-4.425781-2.832032zm0 0" fill="#ff5a5a"/><path d="m355.84375 402.871094c-1.773438-1.171875-3.578125-2.4375-5.417969-3.800782-9.761719 6.882813-21.644531 10.933594-34.425781 10.933594-2.980469 0-5.90625-.226562-8.769531-.652344 21.605469 10.222657 37.675781 5.371094 48.613281-6.480468zm0 0" fill="#ff5a5a"/><path d="m373.53125 340.453125c1.816406 21.070313-3.808594 47.375-17.6875 62.417969-10.9375 11.851562-27.007812 16.703125-48.613281 6.480468-7.632813-1.128906-14.804688-3.710937-21.230469-7.449218-6.425781 3.738281-13.597656 6.316406-21.226562 7.449218-22.308594 3.136719-31.164063.1875-48.617188-6.480468-15.921875 10.53125-29.261719 13.503906-40.15625 11.4375v87.691406h220v-142.472656c-7.015625-6.882813-14.527344-13.261719-22.46875-19.074219zm0 0" fill="#ff5a5a"/><path d="m92.667969 502h23.332031v-93.421875c-14.875 27.925781-23.332031 59.730469-23.332031 93.421875zm0 0" fill="#ff5a5a" fill-rule="evenodd"/><path d="m396 359.527344v142.472656h60c0-55.625-23.023438-106.128906-60-142.472656zm0 0" fill="#ff5a5a" fill-rule="evenodd"/><g fill="#000001"><path d="m502 492h-.234375c-5.523437 0-10 4.476562-10 9.996094 0 5.523437 4.476563 10 10 10h.234375c5.519531 0 10-4.476563 10-10 0-5.519532-4.476562-9.996094-10-9.996094zm0 0"/><path d="m10.238281 492h-.238281c-5.523438 0-10 4.476562-10 9.996094 0 5.523437 4.476562 10 10 10h.234375c5.523437 0 10-4.476563 10-10 .003906-5.519532-4.472656-9.996094-9.996094-9.996094zm0 0"/><path d="m231 226.703125c-7.585938-4.382813-16.230469-6.699219-25-6.699219s-17.414062 2.316406-25 6.699219c-4.785156 2.761719-6.421875 8.878906-3.660156 13.660156 2.765625 4.785157 8.882812 6.421875 13.664062 3.660157 4.546875-2.628907 9.734375-4.019532 14.996094-4.019532s10.445312 1.390625 14.996094 4.019532c1.574218.910156 3.296875 1.339843 4.992187 1.339843 3.453125 0 6.816407-1.792969 8.667969-5 2.761719-4.78125 1.125-10.898437-3.65625-13.660156zm0 0"/><path d="m331 226.703125c-7.585938-4.382813-16.230469-6.699219-25-6.699219s-17.414062 2.316406-25 6.699219c-4.78125 2.761719-6.421875 8.878906-3.65625 13.660156 2.761719 4.785157 8.878906 6.421875 13.660156 3.660157 4.550782-2.628907 9.734375-4.019532 14.996094-4.019532s10.449219 1.390625 14.996094 4.019532c1.578125.910156 3.296875 1.339843 4.992187 1.339843 3.457031 0 6.816407-1.792969 8.671875-5 2.761719-4.78125 1.125-10.898437-3.660156-13.660156zm0 0"/><path d="m271 322.6875c-4.554688 2.628906-9.742188 4.019531-15 4.019531s-10.445312-1.390625-15-4.019531c-4.785156-2.761719-10.898438-1.121094-13.660156 3.660156-2.761719 4.785156-1.121094 10.898438 3.660156 13.660156 7.59375 4.382813 16.238281 6.699219 25 6.699219 8.765625 0 17.40625-2.316406 25-6.699219 4.78125-2.761718 6.421875-8.878906 3.660156-13.660156-2.761718-4.78125-8.878906-6.421875-13.660156-3.660156zm0 0"/><path d="m420.8125 106.203125c6.496094 13.335937 20.183594 22.546875 35.988281 22.546875 22.054688 0 40-17.945312 40-40s-17.945312-40-40-40c-8.546875 0-16.46875 2.703125-22.972656 7.285156-49.585937-36.679687-110.871094-56.035156-177.828125-56.035156-74.710938 0-135.9375 58.820312-139.804688 132.585938-6.078124 3.433593-10.199218 9.949218-10.199218 17.414062v30.003906c0 1.730469.246094 3.398438.660156 5-12.304688 6.828125-20.65625 19.953125-20.65625 35 0 22.054688 17.945312 39.996094 40 39.996094h.40625c1.3125 16.734375 5.878906 32.898438 13.238281 47.664062-5.417969 6.445313-9.09375 15.902344-10.65625 27.417969-6.859375 5.242188-13.410156 10.898438-19.585937 16.941407-.34375.300781-.667969.625-.964844.972656-15.527344 15.390625-28.699219 33.152344-38.777344 52.460937-13.933594 26.707031-21.933594 56.433594-23.394531 86.542969h-7.296875c-5.523438 0-10 4.476562-10 9.996094 0 5.523437 4.476562 10 10 10h16.992188c.015624 0 .027343.003906.039062.003906.015625 0 .027344-.003906.039062-.003906h59.921876c.011718 0 .023437.003906.039062.003906.011719 0 .023438-.003906.039062-.003906h279.921876c.011718 0 .027343.003906.039062.003906s.027344-.003906.039062-.003906h59.921876c.015624 0 .027343.003906.039062.003906s.023438-.003906.039062-.003906h16.992188c5.523438 0 10-4.476563 10-10 0-5.519532-4.476562-9.996094-10-9.996094h-7.296875c-1.460937-30.109375-9.457031-59.835938-23.394531-86.542969-10.078125-19.3125-23.253906-37.070312-38.78125-52.464843-.296875-.34375-.617188-.664063-.957032-.964844-6.175781-6.042969-12.726562-11.699219-19.59375-16.945313-1.5625-11.515625-5.234374-20.972656-10.65625-27.417969 7.363282-14.765624 11.929688-30.929687 13.238282-47.664062h.410156c22.054688 0 39.996094-17.941406 39.996094-39.996094 0-15.046875-8.351563-28.171875-20.65625-35 .414062-1.601562.65625-3.273437.65625-5v-30.003906c0-7.472656-4.125-13.992188-10.214844-17.425781-.371094-7.015625-1.253906-13.964844-2.652344-20.792969zm55.988281-17.453125c0 11.027344-8.972656 20-20 20-11.03125 0-20.003906-8.972656-20.003906-20s8.972656-20 20.003906-20c11.027344 0 20 8.972656 20 20zm-220.800781-68.75c63.046875 0 118.441406 17.253906 164.820312 51.285156-2.277343 4.667969-3.671874 9.847656-3.964843 15.3125l-29.152344 5.875c-3.378906-9.371094-7.757813-18.394531-13.113281-26.910156-2.9375-4.675781-9.113282-6.082031-13.789063-3.140625s-6.082031 9.113281-3.140625 13.789063c10.222656 16.257812 16.320313 34.679687 17.90625 53.789062h-198.757812c1.289062-9.003906 4.101562-17.792969 8.316406-25.847656 2.5625-4.894532.671875-10.9375-4.222656-13.496094-4.890625-2.5625-10.933594-.671875-13.496094 4.21875-5.710938 10.90625-9.359375 22.890625-10.757812 35.125h-20.230469c5.101562-61.507812 56.78125-110 119.582031-110zm-69.292969 339.851562c2.070313 14.628907 8.675781 27.808594 18.347657 38.082032-10.566407 5.917968-22.765626 9.644531-33.144532 4.582031-15.609375-7.609375-23.25-32.28125-23.742187-51.980469-.246094-9.835937 1.164062-17.960937 3.273437-23.601562 9.496094 12.894531 21.394532 24.121094 35.265625 32.917968zm196.386719 1.296876c.976562.886718 1.949219 1.773437 2.90625 2.675781v128.175781h-260v-128.175781c.957031-.902344 1.929688-1.789063 2.90625-2.675781 2.679688 22.71875 12.695312 48.84375 34.238281 59.34375 5.09375 2.480468 11.574219 4.410156 19.445313 4.40625 10.59375 0 23.695312-3.507813 39.265625-13.820313 7.335937 4.117187 15.484375 6.957031 24.148437 8.199219v12.945312c0 5.523438 4.476563 10 10 10 5.523438 0 10-4.480468 10-10v-12.945312c8.65625-1.246094 16.804688-4.082032 24.140625-8.199219 15.570313 10.3125 28.671875 13.820313 39.261719 13.820313 7.871094 0 14.359375-1.925782 19.449219-4.40625 21.539062-10.503907 31.558593-36.625 34.238281-59.34375zm-77.09375-11.144532c0 16.636719-8.175781 31.390625-20.707031 40.484375-.417969.246094-.808594.53125-1.191407.84375-8.011718 5.46875-17.691406 8.671875-28.101562 8.671875-10.429688 0-20.117188-3.214844-28.140625-8.695312-.351563-.285156-.714844-.550782-1.09375-.78125-12.566406-9.089844-20.765625-23.863282-20.765625-40.523438v-40.175781c0-5.417969 4.40625-9.828125 9.824219-9.828125h80.347656c5.417969 0 9.824219 4.410156 9.824219 9.828125v40.175781zm-200 35.878906v106.117188h-39.714844c2.082032-38.6875 16.175782-75.726562 39.714844-106.117188zm339.714844 106.117188h-39.714844v-106.117188c23.539062 30.390626 37.632812 67.429688 39.714844 106.117188zm-81.878906-141.46875c-.496094 19.703125-8.132813 44.371094-23.746094 51.980469-10.378906 5.0625-22.578125 1.335937-33.144532-4.578125 9.671876-10.273438 16.277344-23.453125 18.347657-38.078125 13.871093-8.804688 25.773437-20.027344 35.269531-32.925781 2.105469 5.644531 3.519531 13.765624 3.273438 23.601562zm22.164062-110.53125h-10c-5.523438 0-10 4.480469-10 10 0 32.839844-14.976562 63.890625-40 84.664062v-24.835937c0-16.445313-13.382812-29.828125-29.828125-29.828125h-80.347656c-16.445313 0-29.824219 13.382812-29.824219 29.828125v24.835937c-25.027344-20.773437-40-51.824218-40-84.664062 0-5.519531-4.480469-10-10-10h-10c-11.027344 0-20-8.96875-20-19.996094 0-11.03125 8.972656-20.003906 20-20.003906h260c11.027344 0 19.996094 8.972656 19.996094 20.003906 0 11.027344-8.96875 19.996094-19.996094 19.996094zm0-60h-10s0 0-.003906 0l-239.980469.003906c-.003906 0-.011719-.003906-.015625-.003906h-10-.003906l.003906-30h260zm0 0"/><path d="m256.003906 451.308594c-5.523437 0-10 4.476562-10 10v.476562c0 5.519532 4.476563 10 10 10 5.519532 0 10-4.480468 10-10v-.476562c0-5.523438-4.480468-10-10-10zm0 0"/><path d="m193.277344 86.710938c2.457031 0 4.917968-.894532 6.851562-2.714844.027344-.023438.082032-.078125.125-.121094 3.96875-3.757812 4.183594-10.019531.460938-14.046875-3.753906-4.050781-10.078125-4.296875-14.132813-.546875-.054687.046875-.144531.136719-.207031.195312-3.972656 3.789063-4.148438 10.082032-.382812 14.085938 1.96875 2.09375 4.625 3.148438 7.285156 3.148438zm0 0"/></g></svg>