<svg height="512pt" viewBox="0 0 512 512.001" width="512pt" xmlns="http://www.w3.org/2000/svg"><path d="m256.246094 399.621094c0 5.535156 2.25 10.542968 5.882812 14.164062 1.1875 1.183594 2.539063 2.203125 3.992188 3.0625 1.457031-.859375 2.808594-1.878906 3.996094-3.0625 3.632812-3.621094 5.878906-8.628906 5.878906-14.164062s-2.246094-10.542969-5.878906-14.164063c-1.1875-1.1875-2.539063-2.203125-3.996094-3.0625-1.453125.859375-2.804688 1.878907-3.996094 3.0625-3.628906 3.621094-5.878906 8.628907-5.878906 14.164063zm0 0" fill="#0586ad" fill-rule="evenodd"/><path d="m235.996094 399.621094c0-5.535156 2.25-10.542969 5.882812-14.164063-7.757812-7.027343-17.769531-15.175781-27.539062-20.753906-10.394532 9.703125-15.449219 27.410156-15.449219 34.917969 0 7.507812 5.054687 25.214844 15.449219 34.914062 9.773437-5.574218 19.78125-13.722656 27.539062-20.75-3.632812-3.621094-5.882812-8.628906-5.882812-14.164062zm0 0" fill="#0586ad" fill-rule="evenodd"/><path d="m424.332031 304.136719c-4.78125-6.328125-9.484375-11.765625-8.957031-22.273438.792969-15.777343 15.25-20.207031 21.929688-29.585937.011718-.757813.023437-1.515625.023437-2.28125v-20.28125c-5.070313-8.632813-14.199219-13.636719-14.398437-25.6875-.25-14.996094 9.722656-17.261719 10.855468-32.542969-21.539062-3.59375-20.816406-40.308594-39.269531-42.925781-16.820313-2.390625-25.414063 17.503906-40.625 25.597656 4.8125 9.335938 10.6875 17.628906 22.105469 17.617188v78.222656c0 28.433594-10.019532 54.640625-26.714844 75.257812 17.203125 9.144532 32.929688 20.722656 46.714844 34.269532 9.378906 9.21875 17.859375 19.34375 25.300781 30.234374-5.125-24.855468 8.492187-31.746093 11.777344-50.589843-7.15625-5.109375-14.652344-9.761719-22.457031-13.914063 5.273437-6.515625 9.878906-13.589844 13.714843-21.117187zm0 0" fill="#f9d973"/><path d="m285.003906 156.9375c7.078125-1.464844 12.714844-5.691406 17.875-10.453125-5.824218 1.808594-11.792968 6.792969-18.332031 10.535156.152344-.03125.300781-.050781.457031-.082031zm0 0" fill="#f9d973"/><path d="m228.773438 153.558594c-1.832032.773437-3.449219 1.847656-4.949219 3.109375 1.683593-.988281 3.332031-2.050781 4.949219-3.109375zm0 0" fill="#f9d973"/><path d="m424.332031 304.136719c-3.835937 7.527343-8.441406 14.601562-13.714843 21.117187 7.804687 4.148438 15.300781 8.804688 22.453124 13.914063.484376-2.78125.75-5.8125.691407-9.207031-.222657-12.90625-4.863281-19.773438-9.429688-25.824219zm0 0" fill="#f9d973"/><path d="m394.515625 128.558594c18.453125 2.621094 17.730469 39.332031 39.269531 42.925781.128906-1.742187.148438-3.648437.019532-5.769531-1.265626-20.714844-17.636719-23.410156-21.007813-35.695313-3.371094-12.289062 8.097656-28.816406-4.417969-43.894531-12.519531-15.078125-33.84375-3.394531-44.585937-14.808594-10.738281-11.414062-3.226563-33.3125-23.109375-43.984375-19.878906-10.671875-31.875 4.628907-44.589844 1.074219-3.148438-.878906-6.277344-2.453125-9.429688-4.324219-3.152343 1.867188-20.984374-12.722656-24.132812-11.84375-12.714844 3.554688-9.917969 4.589844-29.886719 15.09375-45.820312 24.105469-91.851562 117.667969-93.121093 138.378907-.152344 2.484374-.101563 4.675781.09375 6.652343 16.832031-1.058593 18.660156-20.03125 34.175781-20.074219 7.488281-.015624 23.542969 10.183594 36.722656 9.171876 4.746094-.363282 9.140625-2.351563 13.308594-4.796876 1.5-1.257812 3.117187-2.332031 4.949219-3.105468 5.742187-3.765625 11.105468-7.503906 16.429687-7.761719 13.320313-.644531 21.976563 14.519531 39.34375 11.222656 6.539063-3.742187 12.507813-8.726562 18.332031-10.539062 9.65625-8.914063 17.65625-19.722657 30.304688-17.925781 10.621094 1.507812 14.890625 14.316406 20.707031 25.597656 15.207031-8.089844 23.804687-27.984375 40.625-25.59375zm0 0" fill="#f9d973"/><path d="m437.304688 252.277344c2.019531-2.835938 3.339843-6.125 3.335937-10.320313 0-5.03125-1.355469-8.90625-3.3125-12.242187v20.28125c0 .761718-.011719 1.523437-.023437 2.28125zm0 0" fill="#f9d973"/><path d="m210.515625 161.460938c5.605469-.429688 10.730469-3.128907 15.5625-6.167969-2.03125-.613281-3.824219-1.003907-5.289063-1-6.414062.015625-10.484374 3.273437-14.25 7.15625 1.347657.097656 2.675782.113281 3.976563.011719zm0 0" fill="#fcd0ac"/><path d="m285.003906 156.9375c5.746094-1.1875 10.539063-4.195312 14.902344-7.835938-2.449219-.898437-4.976562-1.4375-7.703125-1.304687-5.910156.285156-11.871094 4.859375-18.347656 9.003906 3.339843.792969 6.992187.996094 11.148437.136719zm0 0" fill="#fcd0ac"/><path d="m350.714844 147.703125c-4.476563-9.253906-8.910156-17.921875-17.53125-19.144531-13.921875-1.980469-22.207032 11.3125-33.277344 20.542968-4.363281 3.640626-9.15625 6.648438-14.902344 7.835938-4.152344.859375-7.808594.65625-11.148437-.136719-10.871094-2.585937-18.371094-11.5-28.652344-11.003906-6.148437.296875-12.347656 5.234375-19.125 9.496094-4.832031 3.039062-9.957031 5.738281-15.5625 6.167969-1.300781.101562-2.628906.085937-3.976563-.011719-11.320312-2.011719-11.125-4.554688-23.539062-5.550781v96.097656c0 28.433594 10.019531 54.640625 26.707031 75.257812 16.289063 20.132813 38.9375 34.933594 64.808594 41.292969 30.003906-4.699219 56.417969-20.613281 74.765625-43.292969 16.691406-20.617187 26.714844-46.824218 26.714844-75.257812v-78.222656c-14.015625.015624-19.679688-12.488282-25.28125-24.070313zm0 0" fill="#fcd0ac"/><path d="m87.996094 502h28v-101.722656c-17.765625 29.847656-28 64.644531-28 101.722656zm0 0" fill="#7aeae7" fill-rule="evenodd"/><path d="m379.625 345.085938c-9.464844-7.480469-19.617188-14.128907-30.335938-19.832032-16.949218 20.945313-40.777343 36.121094-67.957031 42.019532 8.171875 1.777343 16.644531 2.722656 25.332031 2.722656 27.390626 0 52.707032-9.308594 72.960938-24.910156zm0 0" fill="#7aeae7"/><path d="m379.625 345.085938c-20.253906 15.601562-45.570312 24.910156-72.960938 24.910156-8.6875 0-17.160156-.945313-25.332031-2.722656-8.175781 1.777343-16.648437 2.722656-25.332031 2.722656-27.394531 0-52.710938-9.308594-72.964844-24.910156-5.222656-6.574219-11.183594-20.828126-16.371094-15.730469v55.804687c4.773438-13.640625 15.257813-29.605468 31.8125-26.773437 13.625 2.332031 31.265626 16.078125 43.402344 27.070312 3.617188-3.605469 8.605469-5.835937 14.117188-5.835937 5.515625 0 10.503906 2.230468 14.121094 5.832031 3.632812 3.625 5.878906 8.632813 5.878906 14.164063 0 5.535156-2.246094 10.542968-5.878906 14.164062-3.617188 3.605469-8.605469 5.835938-14.121094 5.835938-5.511719 0-10.5-2.226563-14.117188-5.835938-12.136718 10.996094-29.777344 24.738281-43.402344 27.070312-16.554687 2.832032-27.039062-13.132812-31.8125-26.773437v87.917969h229.332032v-142.472656c-5.191406-5.101563-10.65625-9.921876-16.371094-14.4375zm0 0" fill="#7aeae7"/><path d="m275.996094 399.621094c0 5.535156-2.246094 10.542968-5.878906 14.164062 12.132812 10.992188 29.773437 24.738282 43.398437 27.070313 23.5625 4.023437 34.839844-30.011719 34.839844-41.234375s-11.277344-45.261719-34.839844-41.234375c-13.625 2.332031-31.265625 16.078125-43.398437 27.070312 3.632812 3.621094 5.878906 8.628907 5.878906 14.164063zm0 0" fill="#0586ad" fill-rule="evenodd"/><path d="m395.996094 359.523438v142.476562h60c0-41.523438-12.824219-80.1875-34.699219-112.246094-7.441406-10.886718-15.921875-21.011718-25.300781-30.230468zm0 0" fill="#7aeae7" fill-rule="evenodd"/><g fill="#000001"><path d="m501.996094 492h-.238282c-5.519531 0-10 4.476562-10 10 0 5.519531 4.480469 9.996094 10 9.996094h.238282c5.519531 0 10-4.476563 10-9.996094 0-5.523438-4.480469-10-10-10zm0 0"/><path d="m473.03125 492h-7.277344c-1.832031-38.550781-14.210937-75.144531-35.042968-106.316406-1.808594-10.925782 1.042968-16.71875 4.90625-24.554688 3.738281-7.574218 8.390624-17 8.144531-31.339844-.292969-17.027343-7.273438-26.195312-12.367188-32.890624-4.089843-5.371094-6.34375-8.332032-6.03125-14.535157.292969-5.839843 3.570313-8.824219 9.824219-14.023437 6.523438-5.421875 15.457031-12.851563 15.457031-26.378906 0-12.953126-6.636719-20.699219-11.480469-26.355469-4.046874-4.730469-6.164062-7.398438-6.234374-11.742188-.082032-4.898437 1.363281-7.308593 3.761718-11.300781 3.359375-5.597656 7.964844-13.265625 7.097656-27.457031-.992187-16.1875-9.316406-24.296875-15.398437-30.214844-3.289063-3.203125-5.335937-5.28125-5.949219-7.515625-.691406-2.519531-.042968-6.667969.648438-11.058594 1.5625-9.984375 3.707031-23.65625-7.015625-36.574218-9.53125-11.484376-22.496094-12.050782-31.960938-12.460938-6.738281-.292969-10.980469-.628906-13.035156-2.816406-2.453125-2.605469-3.457031-7.378906-4.621094-12.910156-2.179687-10.34375-5.164062-24.507813-21.042969-33.03125-15.652343-8.402344-27.921874-4.449219-36.882812-1.5625-4.046875 1.304687-7.539062 2.429687-9.742188 1.816406-3.738281-1.046875-8.203124-3.953125-12.933593-7.027344-8.464844-5.507812-18.058594-11.75-29.859375-11.75-11.796875 0-21.390625 6.242188-29.855469 11.75-4.726563 3.074219-9.191406 5.980469-12.933594 7.027344-2.199219.617187-5.695312-.511719-9.742187-1.816406-8.957032-2.886719-21.226563-6.839844-36.882813 1.566406-15.878906 8.523437-18.863281 22.683594-21.042969 33.027344-1.164062 5.527343-2.171874 10.308593-4.625 12.914062-2.054687 2.183594-6.292968 2.519531-13.03125 2.8125-9.464843.414062-22.429687.976562-31.960937 12.460938-10.722656 12.921874-8.578125 26.59375-7.015625 36.574218.691406 4.394532 1.339844 8.539063.648438 11.054688-.613282 2.238281-2.660157 4.316406-5.949219 7.519531-6.078125 5.921875-14.40625 14.027344-15.398438 30.214844-.867187 14.191406 3.738281 21.859375 7.097657 27.460937 2.398437 3.988282 3.84375 6.398438 3.761718 11.300782-.070312 4.34375-2.1875 7.011718-6.234375 11.738281-4.84375 5.65625-11.480469 13.402343-11.480469 26.355469 0 13.53125 8.933594 20.957031 15.457032 26.378906 6.253906 5.199218 9.535156 8.1875 9.828125 14.023437.308593 6.203125-1.945313 9.164063-6.035157 14.539063-5.09375 6.691406-12.074218 15.859375-12.367187 32.886718-.246094 14.34375 4.40625 23.765626 8.140625 31.34375 3.867188 7.835938 6.71875 13.625 4.914062 24.550782-20.835937 31.171875-33.214843 67.765625-35.046874 106.316406h-7.273438c-5.523438 0-10 4.476562-10 10s4.476562 10 10 10h16.992188.039062.039062 59.921876.039062.039062 279.917969.039063.039062 59.925782.039062.039062 16.992188c5.523438 0 10-4.476562 10-10s-4.476562-10-10-10zm-347.035156-128.308594c10.34375-9.703125 21.859375-18.339844 34.410156-25.691406 5.171875 5.613281 10.828125 10.769531 16.902344 15.402344-1.203125.792968-2.378906 1.664062-3.523438 2.628906-14.238281 12.007812-20.148437 34.316406-20.148437 43.59375 0 9.273438 5.910156 31.585938 20.148437 43.59375 6.238282 5.261719 13.371094 7.96875 20.890625 7.96875 1.808594 0 3.640625-.15625 5.488281-.472656 13.835938-2.371094 29.84375-13.585938 42.433594-24.261719 1.097656.550781 2.230469 1.035156 3.398438 1.449219v9.566406c.003906 5.523438 4.476562 10 10 10h.003906c5.519531 0 10-4.476562 9.996094-10v-9.566406c1.167968-.414063 2.304687-.898438 3.398437-1.449219 12.589844 10.675781 28.59375 21.890625 42.4375 24.261719 1.847657.316406 3.675781.472656 5.488281.472656 7.511719 0 14.648438-2.707031 20.886719-7.96875 14.238281-12.007812 20.148438-34.320312 20.148438-43.59375 0-9.277344-5.910157-31.585938-20.148438-43.59375-1.144531-.96875-2.320312-1.835938-3.523437-2.628906 6.078125-4.632813 11.734375-9.789063 16.902344-15.402344 12.550781 7.351562 24.066406 15.988281 34.410156 25.6875v128.3125h-260zm20.003906-182.273437c8.980469-2.34375 14.578125-8.382813 18.628906-12.777344 4.328125-4.695313 6.117188-6.335937 9.136719-6.34375 1.484375.078125 5.925781 1.753906 9.167969 2.980469 8.164062 3.085937 18.316406 6.921875 28.347656 6.15625 9.644531-.738282 17.617188-5.984375 24.019531-10.199219 3.800781-2.5 8.109375-5.335937 10.386719-5.445313 2.839844-.136718 5.910156 1.492188 10.664062 4.164063 7.199219 4.050781 17.058594 9.597656 30.679688 6.78125 12.226562-2.53125 20.441406-10.628906 27.695312-17.777344 7.316407-7.210937 11.722657-11.25 17.050782-10.496093 3.617187.515624 7.046875 7.617187 10.367187 14.488281 4.773438 9.898437 10.984375 22.765625 23.851563 27.222656v69.828125c0 25.660156-8.835938 49.296875-23.621094 68.03125-.597656.570312-1.125 1.226562-1.578125 1.953125-20.195313 24.421875-50.710937 40.011719-84.800781 40.011719-34.09375 0-64.613282-15.59375-84.808594-40.019532-.449219-.722656-.972656-1.371093-1.5625-1.9375-14.789062-18.734374-23.628906-42.375-23.628906-68.039062v-68.582031zm100 218.207031c0-5.515625 4.484375-10 10-10 5.511719 0 9.996094 4.484375 9.996094 10 0 5.511719-4.484375 9.996094-9.996094 9.996094-5.515625 0-10-4.484375-10-9.996094zm-59.320312-28.308594c3.226562-2.722656 6.4375-3.695312 10.113281-3.066406 7.535156 1.285156 18.929687 8.109375 31.898437 18.980469-1.726562 3.78125-2.691406 7.972656-2.691406 12.394531 0 4.417969.96875 8.609375 2.691406 12.390625-12.96875 10.871094-24.367187 17.695313-31.898437 18.984375-3.671875.628906-6.886719-.347656-10.113281-3.070312-8.605469-7.257813-13.039063-23.128907-13.039063-28.304688s4.433594-21.050781 13.039063-28.308594zm96.625 15.910156c12.96875-10.867187 24.363281-17.691406 31.898437-18.976562 3.675781-.628906 6.886719.347656 10.109375 3.066406 8.605469 7.257813 13.042969 23.132813 13.042969 28.308594s-4.441407 21.046875-13.042969 28.308594c-3.226562 2.71875-6.433594 3.691406-10.109375 3.066406-7.535156-1.289062-18.929687-8.113281-31.898437-18.980469 1.726562-3.78125 2.691406-7.976562 2.691406-12.394531 0-4.421875-.96875-8.617188-2.691406-12.398438zm122.691406-1.621093c2.226562 2.859375 4.371094 5.785156 6.429687 8.765625.375.726562.835938 1.394531 1.363281 1.996094 18.847657 28.039062 30.117188 60.945312 31.945313 95.632812h-39.738281zm-311.683594-33.324219c-3.351562-6.789062-6.246094-12.652344-6.082031-22.152344.179687-10.46875 3.753906-15.167968 8.28125-21.113281 4.800781-6.304687 10.773437-14.148437 10.097656-27.652344-.75-14.878906-10.152344-22.695312-17.019531-28.402343-5.980469-4.972657-8.242188-7.210938-8.242188-11 .003906-5.308594 2.289063-8.226563 6.675782-13.347657 4.832031-5.644531 10.847656-12.667969 11.042968-24.417969.175782-10.621093-3.589844-16.890624-6.613281-21.925781-2.769531-4.613281-4.769531-7.945312-4.28125-15.941406.519531-8.476563 4.238281-12.097656 9.386719-17.109375 4.3125-4.199219 9.199218-8.957031 11.285156-16.550781 1.828125-6.664063.808594-13.160157-.175781-19.445313-1.433594-9.136718-2.074219-15.023437 2.644531-20.707031 3.6875-4.445313 8.773438-4.875 17.441406-5.25 8.445313-.371094 18.953125-.828125 26.726563-9.089844 6.300781-6.695312 8.070312-15.089843 9.628906-22.496093 2.074219-9.839844 3.605469-15.597657 10.933594-19.53125 8.15625-4.378907 13.949219-2.511719 21.285156-.148438 6.222656 2.003906 13.273437 4.277344 21.269531 2.039062 6.691406-1.871093 12.671875-5.761718 18.449219-9.523437 6.730469-4.378906 13.085937-8.515625 18.949219-8.515625 5.867187 0 12.222656 4.136719 18.953125 8.515625 5.78125 3.761719 11.757812 7.648437 18.449219 9.523437 7.996093 2.234376 15.046874-.039062 21.269531-2.042968 7.332031-2.363282 13.125-4.230469 21.285156.148437 7.328125 3.933594 8.859375 9.691407 10.929687 19.53125 1.5625 7.40625 3.328126 15.800781 9.628907 22.496094 7.773437 8.265625 18.285156 8.722656 26.730469 9.089844 8.667968.378906 13.75.808593 17.441406 5.253906 4.714844 5.679687 4.078125 11.566406 2.644531 20.703125-.984375 6.285156-2.003906 12.785156-.175781 19.445312 2.085937 7.597657 6.972656 12.355469 11.285156 16.554688 5.148438 5.011719 8.867188 8.636719 9.386719 17.105469.488281 7.996093-1.511719 11.328125-4.28125 15.941406-3.023438 5.039063-6.789063 11.308594-6.613281 21.925781.195312 11.753906 6.210937 18.777344 11.042968 24.417969 4.382813 5.121094 6.671875 8.039063 6.671875 13.351563 0 3.789062-2.261719 6.027343-8.242187 11-6.863282 5.707031-16.265625 13.519531-17.015625 28.398437-.675781 13.503906 5.296875 21.351563 10.09375 27.652344 4.527343 5.949219 8.105469 10.648437 8.285156 21.117187.164063 9.496094-2.730469 15.359375-6.082031 22.152344-1.609375 3.261719-3.285156 6.6875-4.652344 10.519531-13.972656-15.71875-30.410156-29.464843-48.953125-40.644531 13.839844-20.660156 21.921875-45.480469 21.921875-72.160156v-69.203125c1.871094-.332031 3.769531-.730469 5.628906-1.214844 5.351563-1.375 8.570313-6.828125 7.191406-12.175781-1.375-5.347656-6.824218-8.566406-12.175781-7.191406-3.726562.960937-7.8125 1.558593-10.65625 1.5625-.007812 0-.011719 0-.015625 0-6.632812 0-10.070312-5.613282-15.816406-17.519532-5.074219-10.507812-11.386719-23.578125-25.566406-25.597656-15.386719-2.1875-25.652344 7.929688-33.902344 16.054688-5.792969 5.710937-11.265625 11.105468-17.707031 12.4375-5.992188 1.242187-10.09375-.839844-16.824219-4.628907-5.945312-3.34375-12.683594-7.132812-21.433594-6.707031-7.734375.371094-14.179687 4.613281-20.414062 8.714844-4.945313 3.257812-10.0625 6.621094-14.554688 6.964844-5.597656.425781-13.441406-2.539063-19.75-4.925782-6.066406-2.289062-11.304687-4.269531-16.1875-4.269531-.015625 0-.03125 0-.046875 0-12.078125.03125-18.878906 7.402344-23.839843 12.785156-4.960938 5.378907-7.402344 7.738281-13.132813 7.277344-6.410156-.515625-8.472656-.828125-8.660156-.855469-5.398438-.929687-10.550781 2.660156-11.53125 8.0625-.992188 5.433594 2.609375 10.640625 8.042969 11.628906.195312.035157.613281.105469 1.351562.203126v68.601562c0 26.675781 8.082031 51.496094 21.917969 72.152344-18.539063 11.183594-34.980469 24.929687-48.953125 40.648437-1.367188-3.832031-3.042969-7.253906-4.652344-10.519531zm3.886719 44.09375c.535156-.605469.996093-1.28125 1.378906-2.015625 2.054687-2.976563 4.191406-5.894531 6.417969-8.753906v106.394531h-39.734375c1.824219-34.6875 13.09375-67.589844 31.9375-95.625zm0 0"/><path d="m10.234375 492h-.234375c-5.523438 0-10 4.476562-10 10 0 5.519531 4.476562 9.996094 10 9.996094h.234375c5.519531 0 10-4.476563 10-9.996094 0-5.523438-4.476563-10-10-10zm0 0"/><path d="m256 456.554688c-5.523438 0-10 4.476562-10 10v.476562c0 5.523438 4.476562 10 10 10 5.519531 0 10-4.476562 10-10v-.476562c0-5.523438-4.480469-10-10-10zm0 0"/><path d="m198.230469 241.023438c5.058593-1.355469 10.464843-1.355469 15.527343 0 .867188.230468 1.738282.34375 2.59375.34375 4.417969 0 8.457032-2.949219 9.652344-7.414063 1.429688-5.339844-1.734375-10.820313-7.070312-12.246094-8.441406-2.261719-17.445313-2.261719-25.878906 0-5.335938 1.429688-8.503907 6.910157-7.074219 12.246094 1.429687 5.335937 6.914062 8.5 12.25 7.070313zm0 0"/><path d="m298.230469 241.023438c5.058593-1.355469 10.464843-1.355469 15.527343 0 .867188.230468 1.734376.34375 2.59375.34375 4.414063 0 8.457032-2.945313 9.652344-7.414063 1.429688-5.335937-1.734375-10.816406-7.070312-12.246094-8.4375-2.261719-17.445313-2.261719-25.878906 0-5.335938 1.429688-8.5 6.910157-7.070313 12.246094s6.914063 8.5 12.246094 7.070313zm0 0"/><path d="m230.996094 312.328125c7.589844 4.378906 16.238281 6.695313 25 6.695313 8.757812 0 17.402344-2.316407 24.996094-6.695313 4.78125-2.761719 6.421874-8.878906 3.660156-13.660156-2.757813-4.785157-8.871094-6.425781-13.65625-3.664063-4.558594 2.628906-9.746094 4.023438-15 4.023438-5.257813 0-10.445313-1.394532-15.003906-4.023438-4.785157-2.761718-10.902344-1.121094-13.660157 3.664063-2.761719 4.78125-1.121093 10.898437 3.664063 13.660156zm0 0"/><path d="m151.960938 127.25c.460937 0 .929687-.03125 1.402343-.097656 17.675781-2.480469 34.609375-12.390625 45.296875-26.515625 3.332032-4.402344 2.464844-10.675781-1.941406-14.007813-4.402344-3.332031-10.675781-2.460937-14.007812 1.9375-2.832032 3.746094-13.527344 16.167969-32.128907 18.777344-5.46875.769531-9.277343 5.824219-8.511719 11.292969.699219 5 4.984376 8.613281 9.890626 8.613281zm0 0"/><path d="m207.8125 81.628906c.160156 0 .320312-.003906.484375-.011718.101563-.003907.214844-.011719.300781-.015626 5.511719-.382812 9.667969-5.15625 9.289063-10.664062-.375-5.4375-5.050781-9.566406-10.449219-9.300781-.101562.003906-.214844.007812-.304688.015625-5.511718.378906-9.667968 5.152344-9.289062 10.664062.367188 5.277344 4.757812 9.3125 9.96875 9.3125zm0 0"/></g></svg>