<svg height="512pt" viewBox="0 0 512 512" width="512pt" xmlns="http://www.w3.org/2000/svg"><g fill-rule="evenodd"><path d="m239.65625 298.6875c-21.332031 19.574219-43.933594 5.953125-43.933594 5.953125 1.234375 3.933594 2.765625 7.335937 4.535156 10.285156 13.660157 7.765625 31.582032 4.191407 44.53125-1.894531 9.605469-4.511719 12.074219-12.804688 10.230469-19.816406-4.546875-.894532-9.917969.476562-15.363281 5.472656zm0 0" fill="#5f5148"/><path d="m218.746094 197.410156c-13.023438 5.097656-22.25 17.761719-22.25 32.589844s9.226562 27.496094 22.25 32.59375c13.023437-5.097656 22.25-17.761719 22.25-32.59375 0-14.828125-9.226563-27.492188-22.25-32.589844zm0 0" fill="#7aeae7"/><path d="m86.617188 502.015625h29.386718v-104.015625c-18.625 30.355469-29.386718 65.984375-29.386718 104.015625zm0 0" fill="#c99e81"/><path d="m156.109375 449.210938 25.722656-27.5625-14.371093-72.441407c-1.835938-12.949219-7.703126-26.972656-11.351563-23.386719zm0 0" fill="#c99e81"/><path d="m156.109375 450.164062v51.847657h69.472656zm0 0" fill="#c99e81"/><path d="m282.203125 429.957031-26.199219 72.054688h30.417969l70-52.238281-26.25-28.125 19.113281-96.359376c-11.035156 13.636719-24.988281 24.828126-40.882812 32.605469zm0 0" fill="#c99e81"/><path d="m256 370.015625 26.203125 59.941406 26.199219-72.0625c-15.855469 7.761719-33.640625 12.121094-52.402344 12.121094zm0 0" fill="#bdbcbc"/><path d="m246.46875 454.289062 13.441406 36.972657 22.292969-61.304688-12.550781-28.710937zm0 0" fill="#ff5a5a"/><path d="m349.285156 325.289062-19.113281 96.359376 26.25 28.125-70 52.238281h109.582031v-142.472657c-13.789062-13.546874-29.515625-25.125-46.714844-34.269531zm0 0" fill="#c99e81"/><path d="m396.003906 359.539062v142.476563h60c0-55.628906-23.019531-106.132813-60-142.476563zm0 0" fill="#c99e81"/><path d="m229.796875 429.9375 26.199219 72.058594h-30.417969l-70-52.238282 26.25-28.128906-19.113281-96.359375c11.035156 13.636719 24.988281 24.828125 40.882812 32.609375zm0 0" fill="#c99e81"/><path d="m256 370-26.203125 59.9375-26.199219-72.058594c15.855469 7.757813 33.640625 12.121094 52.402344 12.121094zm0 0" fill="#bdbcbc"/></g><path d="m385.992188 190v-40h-208.496094l2.8125 56.238281c6.394531-6.90625 15.53125-11.234375 25.6875-11.234375 19.332031 0 35 15.667969 35 34.996094s-15.667969 35-35 35c-8.96875 0-17.148438-3.378906-23.339844-8.925781.710938 14.035156 3.875 27.441406 9.042969 39.824219 8.460937 2.351562 22.503906 3.308593 36.046875-9.121094 20.929687-19.207032 40.800781 15.09375 17.046875 26.253906-12.25 5.757812-28.953125 9.273438-42.285157 3.066406 2.097657 3.152344 4.324219 6.21875 6.703126 9.15625 17.375 21.484375 41.988281 36.894532 70.035156 42.460938 28.046875-5.566406 52.660156-20.976563 70.039062-42.460938 16.691406-20.617187 26.714844-46.820312 26.714844-75.253906h9.996094c16.566406 0 30-13.433594 30-29.996094-.003906-16.570312-13.433594-30.003906-30.003906-30.003906zm0 0" fill="#fcd0ac"/><path d="m284.246094 286.777344c-20.929688-19.207032-40.800782 15.09375-17.046875 26.253906 19.613281 9.21875 50.644531 12.691406 60.980469-20.300781-.003907 0-22.605469 13.621093-43.933594-5.953125zm0 0" fill="#5f5148" fill-rule="evenodd"/><path d="m360.996094 10h-138.832032c-10.996093 0-19.089843 9.042969-20 20l-5 60h188.828126l-5-60c-.910157-10.964844-9-20-19.996094-20zm0 0" fill="#c99e81" fill-rule="evenodd"/><path d="m237.164062 90h-40l-2.5 30h193.832032l-2.503906-30zm0 0" fill="#f4ba64" fill-rule="evenodd"/><path d="m455.996094 135c0-8.25-6.753906-15-15-15h-249.480469c-8.242187 0-14.996094 6.75-14.996094 15s6.753907 15 14.996094 15h249.484375c8.242188 0 14.996094-6.75 14.996094-15zm0 0" fill="#c99e81" fill-rule="evenodd"/><path d="m345.992188 150c0 22.089844 17.910156 40 40 40v-40zm0 0" fill="#5f5148" fill-rule="evenodd"/><path d="m171 150c0 22.089844-17.910156 40-40.003906 40v-40zm0 0" fill="#5f5148" fill-rule="evenodd"/><path d="m291 231.339844c4.550781-2.628906 9.738281-4.019532 14.996094-4.019532 5.253906 0 10.441406 1.390626 15.003906 4.019532 1.574219.910156 3.292969 1.339844 4.988281 1.339844 3.457031 0 6.816407-1.792969 8.667969-5.003907 2.761719-4.78125 1.121094-10.894531-3.660156-13.65625-7.597656-4.382812-16.242188-6.699219-25-6.699219-8.765625 0-17.410156 2.316407-25 6.699219-4.78125 2.765625-6.421875 8.878907-3.65625 13.660157 2.761718 4.785156 8.871094 6.421874 13.660156 3.660156zm0 0" fill="#000001"/><path d="m166 49.804688c5.523438 0 10-4.476563 10-9.996094v-.476563c0-5.519531-4.476562-10-10-10s-10 4.480469-10 10v.476563c0 5.519531 4.476562 9.996094 10 9.996094zm0 0" fill="#000001"/><path d="m10.234375 491.996094h-.234375c-5.523438 0-10 4.480468-10 10 0 5.523437 4.476562 10 10 10h.234375c5.523437 0 10-4.476563 10-10 0-5.519532-4.480469-10-10-10zm0 0" fill="#000001"/><path d="m501.996094 491.996094h-.234375c-5.523438 0-10 4.480468-10 10 0 5.523437 4.476562 10 10 10h.234375c5.523437 0 10-4.476563 10-10 0-5.519532-4.476563-10-10-10zm0 0" fill="#000001"/><path d="m473.03125 491.996094h-7.277344c-3.324218-69.960938-41.386718-133.480469-101.671875-169.839844 12.089844-18.054688 19.785157-39.285156 21.535157-62.15625h.375c22.058593 0 40.003906-17.941406 40.003906-39.996094 0-18.605468-12.769532-34.285156-30.003906-38.738281v-21.265625h45.007812c13.78125 0 24.996094-11.214844 24.996094-25s-11.214844-25-24.996094-25h-43.300781l-6.742188-80.828125c-1.378906-16.632813-14.261719-29.171875-29.960937-29.171875h-210c-15.699219 0-28.582032 12.539062-29.964844 29.167969l-6.734375 80.832031h-43.300781c-13.785156 0-25 11.214844-25 25s11.214844 25 25 25h45v21.265625c-17.230469 4.453125-30 20.132813-30 38.738281 0 22.054688 17.945312 39.996094 40 39.996094h.382812c1.746094 22.871094 9.445313 44.101562 21.535156 62.152344-60.289062 36.363281-98.347656 99.882812-101.671874 169.84375h-7.277344c-5.523438 0-10 4.480468-10 10 0 5.523437 4.476562 10 10 10h16.992187.039063.039062 59.921875.039063.039062 109.507813.023437.019532 30.335937.019531c.019532 0 .035156.003906.050782.003906h.003906c.019531 0 .03125-.003906.050781-.003906h.019531 30.339844.019531.023438 109.507812.039063.039062 59.921875.039063.039062 16.996094c5.519531 0 9.996094-4.476563 9.996094-10 0-5.519532-4.476563-10-9.996094-10zm-202.761719 0 46.152344-126.925782c5.90625-3.113281 11.546875-6.664062 16.875-10.617187l-12.9375 65.230469c-.625 3.152344.304687 6.417968 2.496094 8.769531l18.636719 19.964844-58.394532 43.578125zm-41.371093 0-58.394532-43.578125 18.632813-19.964844c2.195312-2.351563 3.125-5.613281 2.5-8.769531l-12.941407-65.230469c5.328126 3.953125 10.96875 7.503906 16.871094 10.617187l46.152344 126.925782zm-102.902344-128.308594c9.015625-8.457031 18.917968-16.105469 29.621094-22.796875l15.402343 77.660156-22.753906 24.382813c-1.941406 2.078125-2.902344 4.886718-2.648437 7.714844.253906 2.832031 1.699218 5.421874 3.976562 7.125l45.863281 34.222656h-69.460937zm155.347656 39.332031-10.441406-23.878906c7.054687-.8125 13.9375-2.175781 20.605468-4.070313zm-9.910156 27.257813-15.4375 42.449218-15.4375-42.449218 15.433594-35.3125zm-40.785156-27.257813-10.164063-27.949219c6.664063 1.894532 13.550781 3.257813 20.601563 4.066407zm131.75 54.75c2.277343-1.699219 3.726562-4.289062 3.976562-7.121093.253906-2.828126-.707031-5.636719-2.648438-7.714844l-22.753906-24.382813 15.402344-77.660156c10.703125 6.691406 20.605469 14.339844 29.621094 22.796875v128.308594h-69.460938zm43.597656-72.167969c23.523437 30.207032 37.671875 67.164063 39.734375 106.394532h-39.734375zm-30.003906-207.320312c-8.507813-3.019531-15.261719-9.773438-18.28125-18.28125h18.28125zm-224.996094-158.28125h209.996094c5.996093 0 9.585937 5.445312 10.035156 10.832031l4.097656 49.167969h-199.125v-11.109375c0-5.519531-4.476562-10-10-10s-10 4.480469-10 10v11.109375h-19.136719l4.097657-49.171875c.449218-5.382813 4.039062-10.828125 10.035156-10.828125zm-15.796875 80h241.59375l.835937 10h-243.261718zm-69.203125 35c0-2.710938 2.289062-5 5-5h370c2.710937 0 5 2.289062 5 5s-2.289063 5-5 5h-370c-2.710938 0-5-2.289062-5-5zm88.28125 25c-3.015625 8.507812-9.769532 15.261719-18.28125 18.28125v-18.28125zm7.851562 80c4.5625 20.015625 22.492188 35 43.867188 35 24.8125 0 45-20.1875 45-45s-20.1875-44.996094-45-44.996094c-21.375 0-39.304688 14.984375-43.867188 34.996094h-26.132812c-5.519532 0-10 4.480469-10 10v10c-11.027344 0-20-8.972656-20-19.996094 0-11.03125 8.972656-20.003906 20-20.003906 24.148437 0 44.351562-17.203125 48.996094-40h162.003906c4.648437 22.796875 24.851562 40 48.996094 40 11.027343 0 20 8.972656 20 20.003906 0 11.023438-8.972657 19.996094-20 19.996094h-9.996094c-5.523438 0-10 4.480469-10 10 0 25.65625-8.832032 49.292969-23.613282 68.023438-.367187.347656-.707031.730468-1.019531 1.140624-.128906.167969-.257812.332032-.375.503907-.035156.054687-.066406.109375-.101562.164062-.035157.054688-.066407.113281-.101563.167969-9.8125 11.867188-22.066406 21.636719-35.980468 28.554688-.554688.214843-1.09375.476562-1.601563.785156-14.3125 6.828125-30.320313 10.660156-47.210937 10.660156-16.882813 0-32.886719-3.828125-47.199219-10.65625-.511719-.3125-1.054688-.574219-1.613281-.789062-13.90625-6.917969-26.160157-16.6875-35.96875-28.550782-.054688-.089844-.105469-.183594-.164063-.269531-.011719-.019531-.023437-.039063-.035156-.058594-.167969-.246093-.347657-.484375-.535157-.71875-.023437-.027343-.042968-.058593-.066406-.085937-.128906-.152344-.269531-.296875-.40625-.445313-.128906-.136719-.257812-.273437-.390625-.402343-14.785156-18.730469-23.617187-42.367188-23.617187-68.023438v-10zm18.867188-10c0-13.78125 11.214844-24.996094 25-24.996094s25 11.214844 25 24.996094c0 13.785156-11.214844 25-25 25s-25-11.214844-25-25zm-75 155.601562v106.394532h-39.734375c2.0625-39.230469 16.210937-76.1875 39.734375-106.394532zm0 0" fill="#000001"/><path d="m218.410156 329.375c9.75 0 20.628906-2.589844 30.636719-7.289062 2.601563-1.222657 4.914063-2.726563 6.949219-4.429688 2.035156 1.703125 4.347656 3.207031 6.953125 4.429688 10.003906 4.699218 20.878906 7.289062 30.632812 7.289062 21.664063 0 37.339844-11.953125 44.140625-33.652344 1.25-4 0-8.429687-3.316406-10.984375-3.320312-2.558593-7.757812-2.847656-11.308594-.617187-.054687.03125-5.6875 3.226562-13.175781 3.226562-.003906 0-.003906 0-.003906 0-6.8125 0-13.175781-2.671875-18.910157-7.933594-7.53125-6.914062-14.761718-8.367187-19.496093-8.367187-5.8125 0-11.214844 2.097656-15.515625 5.695313-4.300782-3.597657-9.703125-5.695313-15.511719-5.695313-4.738281 0-11.96875 1.453125-19.5 8.367187-5.734375 5.261719-12.097656 7.933594-18.914063 7.933594-7.46875 0-13.089843-3.179687-13.09375-3.179687-3.546874-2.230469-8.023437-1.964844-11.347656.59375-3.320312 2.554687-4.609375 6.964843-3.355468 10.960937 6.796874 21.699219 22.472656 33.652344 44.136718 33.652344zm48.160156-33.34375c.539063-2.417969 2.453126-4.984375 4.941407-4.984375 1.671875 0 3.792969 1.101563 5.972656 3.101563 8.121094 7.453124 17.585937 11.871093 27.621094 12.941406-3.320313 1.527344-7.15625 2.285156-11.523438 2.285156-6.871093 0-14.730469-1.914062-22.128906-5.390625-4-1.878906-5.640625-4.550781-4.882813-7.953125zm-32.0625-1.886719c2.179688-1.996093 4.300782-3.097656 5.976563-3.097656 2.484375 0 4.398437 2.566406 4.9375 4.984375.757813 3.394531-.886719 6.074219-4.882813 7.953125-7.398437 3.476563-15.257812 5.390625-22.128906 5.390625-4.367187 0-8.199218-.757812-11.519531-2.285156 10.03125-1.070313 19.5-5.492188 27.617187-12.945313zm0 0" fill="#000001"/></svg>