<svg height="512pt" viewBox="0 0 512 512" width="512pt" xmlns="http://www.w3.org/2000/svg"><path d="m415.992188 220c0-16.566406-13.433594-29.996094-30-29.996094v-50.003906c0-60.519531-41.355469-111.378906-97.347657-125.863281-55.992187 14.484375-97.347656 65.34375-97.347656 125.863281 0 0-.652344 76.289062 4.8125 107.261719 2.847656 16.136719 8.523437 34.769531 14.539063 49.03125 5.476562-1.363281 11.332031-4.214844 17.09375-9.507813 20.929687-19.207031 40.804687 15.09375 17.046874 26.253906-6.316406 2.96875-13.816406 5.332032-21.425781 6.082032 1.488281 2.09375 3.035157 4.140625 4.652344 6.132812 6.695313 8.292969 14.476563 15.683594 23.121094 21.941406 11.214843 8.132813 23.878906 14.375 37.507812 18.253907 13.632813-3.878907 26.300781-10.121094 37.515625-18.257813 8.640625-6.257812 16.421875-13.644531 23.121094-21.9375 16.691406-20.613281 26.710938-46.820312 26.710938-75.25h10c16.570312 0 30-13.433594 30-30.003906zm-148.796876 93.039062c-23.753906-11.160156-3.882812-45.460937 17.046876-26.253906 21.328124 19.578125 43.933593 5.953125 43.933593 5.953125-10.339843 32.992188-41.363281 29.519531-60.980469 20.300781zm0 0" fill="#fcd0ac" fill-rule="evenodd"/><path d="m239.1875 298.230469c-21.328125 19.578125-43.933594 5.953125-43.933594 5.953125 1.273438 4.054687 2.859375 7.554687 4.695313 10.566406 13.699219 7.996094 31.792969 4.421875 44.839843-1.710938 9.785157-4.597656 12.164063-13.117187 10.121094-20.210937-4.625-1.039063-10.136718.277344-15.722656 5.402344zm0 0" fill="#f4ba64" fill-rule="evenodd"/><path d="m284.242188 286.785156c-20.929688-19.207031-40.800782 15.09375-17.046876 26.253906 19.617188 9.21875 50.640626 12.691407 60.980469-20.300781 0 0-22.605469 13.625-43.933593-5.953125zm0 0" fill="#f4ba64" fill-rule="evenodd"/><path d="m276.246094 403.636719c18.660156-5.542969 34.285156-18.546875 43.117187-35.851563-7.410156 1.445313-15.050781 2.214844-22.867187 2.214844-6.898438 0-13.664063-.605469-20.25-1.738281-6.589844 1.132812-13.351563 1.738281-20.25 1.738281-7.816406 0-15.460938-.769531-22.867188-2.214844 8.832032 17.304688 24.457032 30.308594 43.117188 35.851563zm0 0" fill="#fcd0ac" fill-rule="evenodd"/><path d="m88.710938 462.003906c-2.652344 12.933594-4.046876 26.308594-4.046876 39.996094h31.332032v-39.996094zm0 0" fill="#fcd0ac" fill-rule="evenodd"/><path d="m396 462.003906v39.996094h60c0-13.6875-1.394531-27.0625-4.046875-39.996094zm0 0" fill="#fcd0ac" fill-rule="evenodd"/><path d="m396 462.003906h55.953125c-8.128906-39.625-28.074219-75.078125-55.953125-102.476562zm0 0" fill="#0586ad" fill-rule="evenodd"/><path d="m380.917969 346.128906c-9.832031-7.90625-20.417969-14.914062-31.636719-20.875-6.699219 8.292969-14.480469 15.679688-23.121094 21.945313-4.191406 25.015625-21.136718 45.140625-43.5 54.191406-8.269531 3.351563-17.277344 5.195313-26.664062 5.195313-34.757813 0-64.425782-25.117188-70.164063-59.390626-.480469-.351562-.949219-.714843-1.421875-1.070312-6.191406-8.71875-7.789062-7.121094-15.078125-18.300781v174.175781h226.667969v-142.472656c-4.796875-4.714844-9.832031-9.183594-15.082031-13.398438zm0 0" fill="#0586ad"/><path d="m88.042969 462.003906h27.953125v-68.167968c-13.265625 20.484374-22.894532 43.515624-27.953125 68.167968zm0 0" fill="#0586ad" fill-rule="evenodd"/><g fill="#000001"><path d="m256 468.367188c5.523438 0 10-4.476563 10-10v-.476563c0-5.519531-4.476562-10-10-10s-10 4.480469-10 10v.476563c0 5.523437 4.476562 10 10 10zm0 0"/><path d="m501.996094 492h-.234375c-5.523438 0-10 4.476562-10 10s4.476562 10 10 10h.234375c5.523437 0 10-4.476562 10-10s-4.476563-10-10-10zm0 0"/><path d="m473.03125 492h-7.273438c-.519531-10.847656-1.867187-21.535156-4.007812-31.996094 0-.011718-.003906-.023437-.003906-.03125-11.664063-56.992187-46.730469-107.097656-97.667969-137.816406 12.089844-18.050781 19.785156-39.285156 21.535156-62.152344h.378907c22.058593 0 40-17.945312 40-40 0-18.605468-12.769532-34.28125-30-38.734375v-41.269531c0-77.195312-62.800782-140-140-140-77.195313 0-139.996094 62.804688-139.996094 140v41.269531c-17.234375 4.453125-30 20.128907-30 38.730469 0 22.058594 17.941406 40.003906 40 40.003906h.378906c1.746094 22.871094 9.445312 44.101563 21.535156 62.15625-50.929687 30.71875-85.996094 80.8125-97.660156 137.808594 0 .011719-.003906.027344-.007812.042969-2.136719 10.457031-3.488282 21.144531-4 31.988281h-7.277344c-5.523438 0-10 4.476562-10 10s4.476562 10 10 10h434.066406c5.523438 0 10-4.476562 10-10s-4.476562-10-10-10zm-67.03125-106.394531c15.324219 19.679687 26.667969 42.226562 33.285156 66.398437h-33.285156zm0 86.398437h37.609375c1.054687 6.582032 1.773437 13.257813 2.125 19.996094h-39.734375zm-270.007812-232h-9.996094c-11.027344 0-20-8.972656-20-20.003906 0-11.027344 8.972656-19.996094 20-19.996094 5.519531 0 10-4.476562 10-10v-50.003906c0-66.167969 53.828125-120 119.996094-120 66.167968 0 120 53.832031 120 120v50.003906c0 5.523438 4.480468 10 10 10 11.027343 0 20 8.96875 20 19.996094 0 11.03125-8.972657 20.003906-20 20.003906h-10c-5.519532 0-10 4.476563-10 10 0 25.65625-8.832032 49.289063-23.613282 68.023438-.597656.570312-1.132812 1.226562-1.585937 1.960937-5.714844 6.914063-12.257813 13.117188-19.476563 18.460938-.703125.386719-1.355468.863281-1.945312 1.410156-17.925782 12.679687-39.796875 20.140625-63.378906 20.140625-23.585938 0-45.457032-7.460938-63.386719-20.148438-.582031-.535156-1.222657-1.003906-1.914063-1.386718-7.214844-5.34375-13.761718-11.539063-19.476562-18.445313-.460938-.753906-1.007813-1.429687-1.625-2.011719-14.769532-18.730468-23.597656-42.355468-23.597656-68.003906 0-5.523437-4.476563-10-10-10zm120.003906 156.582032c-20.945313 0-39.621094-10.476563-50.675782-26.867188 15.582032 6.617188 32.707032 10.28125 50.675782 10.28125 17.964844 0 35.09375-3.664062 50.671875-10.28125-11.054688 16.390625-29.730469 26.867188-50.671875 26.867188zm-79.207032-43.574219c7.457032 33.8125 35.265626 58.804687 69.207032 62.953125l.003906 12.84375c0 5.523437 4.476562 10 10 10 5.523438-.003906 10-4.480469 10-10.003906l-.003906-12.839844c33.941406-4.148438 61.75-29.140625 69.207031-62.957032 5.878906-4.53125 11.363281-9.554687 16.386719-15.007812 12.550781 7.351562 24.066406 15.988281 34.410156 25.691406v128.308594h-260.003906v-128.308594c10.34375-9.703125 21.855468-18.335937 34.402344-25.6875 5.027343 5.453125 10.507812 10.472656 16.390624 15.007813zm-70.792968 98.992187h-33.285156c6.617187-24.171875 17.960937-46.71875 33.285156-66.398437zm-37.609375 20h37.609375v19.996094h-39.734375c.355469-6.738281 1.070312-13.414062 2.125-19.996094zm0 0"/><path d="m10.234375 492h-.234375c-5.523438 0-10 4.476562-10 10s4.476562 10 10 10h.234375c5.519531 0 10-4.476562 10-10s-4.476563-10-10-10zm0 0"/><path d="m220.980469 279.417969c-5.734375 5.265625-12.097657 7.933593-18.914063 7.933593-7.46875 0-13.09375-3.175781-13.09375-3.175781-3.546875-2.234375-8.027344-1.96875-11.347656.589844s-4.609375 6.964844-3.355469 10.964844c6.796875 21.699219 22.472657 33.648437 44.136719 33.648437 9.75 0 20.628906-2.585937 30.636719-7.289062 2.601562-1.222656 4.914062-2.722656 6.949219-4.425782 2.035156 1.703126 4.347656 3.203126 6.953124 4.425782 10.003907 4.699218 20.882813 7.289062 30.632813 7.289062h.003906c21.660157 0 37.335938-11.949218 44.136719-33.648437 1.242188-3.964844-.097656-8.285157-3.363281-10.851563-3.265625-2.570312-7.78125-2.847656-11.339844-.703125-.054687.03125-5.613281 3.175781-13.097656 3.175781 0 0 0 0-.003907 0-6.8125 0-13.171874-2.667968-18.90625-7.933593-7.535156-6.914063-14.765624-8.363281-19.5-8.363281-5.808593 0-11.210937 2.097656-15.515624 5.695312-4.300782-3.597656-9.703126-5.695312-15.511719-5.695312-4.738281 0-11.964844 1.449218-19.5 8.363281zm45.585937 16.621093c.539063-2.417968 2.453125-4.984374 4.941406-4.984374 1.675782 0 3.796876 1.101562 5.972657 3.097656 8.121093 7.453125 17.585937 11.875 27.617187 12.945312-3.320312 1.527344-7.152344 2.285156-11.519531 2.28125-6.871094 0-14.730469-1.914062-22.128906-5.390625-3.996094-1.878906-5.640625-4.554687-4.882813-7.949219zm-21.148437 0c.757812 3.394532-.882813 6.070313-4.882813 7.949219-7.398437 3.476563-15.257812 5.390625-22.128906 5.390625-4.363281 0-8.195312-.753906-11.515625-2.28125 10.03125-1.074218 19.496094-5.492187 27.617187-12.945312 2.175782-1.996094 4.296876-3.097656 5.972657-3.097656 2.484375 0 4.398437 2.566406 4.9375 4.984374zm0 0"/><path d="m293.496094 250.003906c0 6.882813 5.613281 12.5 12.5 12.5 6.882812 0 12.5-5.617187 12.5-12.5 0-6.886718-5.617188-12.5-12.5-12.5-6.886719 0-12.5 5.613282-12.5 12.5zm0 0"/><path d="m193.492188 250.003906c0 6.882813 5.617187 12.5 12.503906 12.5 6.882812 0 12.5-5.617187 12.5-12.5 0-6.886718-5.617188-12.5-12.5-12.5-6.886719 0-12.503906 5.613282-12.503906 12.5zm0 0"/><path d="m234.652344 220.363281c2.761718-4.78125 1.125-10.898437-3.660156-13.660156-7.589844-4.382813-16.230469-6.699219-25-6.699219-8.769532 0-17.414063 2.316406-25 6.699219-4.78125 2.761719-6.417969 8.878906-3.65625 13.660156 1.851562 3.207031 5.210937 5 8.667968 5 1.695313 0 3.417969-.429687 4.992188-1.339843 4.550781-2.628907 9.734375-4.019532 14.996094-4.019532 5.261718 0 10.445312 1.390625 15 4.019532 4.78125 2.757812 10.898437 1.121093 13.660156-3.660157zm0 0"/><path d="m286.003906 225.363281c1.699219 0 3.417969-.429687 4.992188-1.339843 4.550781-2.628907 9.738281-4.019532 15-4.019532 5.257812 0 10.445312 1.390625 14.996094 4.019532 4.785156 2.757812 10.898437 1.121093 13.660156-3.660157 2.761718-4.78125 1.125-10.898437-3.65625-13.660156-7.589844-4.382813-16.234375-6.699219-25-6.699219-8.769532 0-17.414063 2.316406-25.003906 6.699219-4.78125 2.761719-6.417969 8.878906-3.65625 13.660156 1.851562 3.207031 5.214843 5 8.667968 5zm0 0"/><path d="m196.464844 82.503906c2.351562 0 4.710937-.824218 6.613281-2.503906 9.207031-8.121094 20.347656-14.09375 32.210937-17.273438 5.335938-1.429687 8.5-6.914062 7.070313-12.246093-1.429687-5.335938-6.914063-8.503907-12.246094-7.070313-14.832031 3.972656-28.757812 11.441406-40.265625 21.59375-4.144531 3.65625-4.539062 9.972656-.886718 14.117188 1.976562 2.238281 4.734374 3.382812 7.503906 3.382812zm0 0"/><path d="m173.078125 103.636719c1.5625.902343 3.273437 1.332031 4.960937 1.332031 3.472657 0 6.855469-1.8125 8.710938-5.03125l.074219-.132812c2.761719-4.78125 1.105469-10.871094-3.679688-13.632813-4.78125-2.761719-10.914062-1.09375-13.675781 3.6875l-.085938.152344c-2.753906 4.785156-1.09375 10.871093 3.695313 13.625zm0 0"/></g></svg>