<svg height="512pt" viewBox="0 0 512 512" width="512pt" xmlns="http://www.w3.org/2000/svg"><path d="m415.996094 220c0-16.566406-13.429688-29.996094-29.996094-29.996094v-50.003906c0-61.144531-42.21875-112.421875-99.089844-126.292969-56.875 13.871094-99.089844 65.148438-99.089844 126.292969v47.007812c5.449219-2.796874 11.605469-4.390624 18.121094-4.390624h100.109375c21.972657 0 39.945313 17.976562 39.945313 39.945312s-17.972656 39.945312-39.945313 39.945312h-100.109375c-2.574218 0-5.09375-.257812-7.539062-.730468 2.355468 23.871094 11.769531 45.742187 26.128906 63.476562 15.773438 19.503906 37.515625 34.007813 62.375 40.679688 24.863281-6.671875 46.601562-21.175782 62.378906-40.679688 16.691406-20.613281 26.714844-46.816406 26.714844-75.25h10c16.566406 0 29.996094-13.433594 29.996094-30.003906zm0 0" fill="#5f5148" fill-rule="evenodd"/><path d="m346 222.5625c0-21.96875-17.972656-39.941406-39.945312-39.941406h-52.09375c-21.972657 0-39.945313 17.972656-39.945313 39.941406s17.972656 39.945312 39.945313 39.945312h52.09375c21.972656 0 39.945312-17.976562 39.945312-39.945312zm0 0" fill="#fcd0ac" fill-rule="evenodd"/><path d="m381.539062 346.625c-10.007812-8.109375-20.800781-15.28125-32.253906-21.371094-16.53125 20.441406-39.617187 35.394532-65.976562 41.589844-8.78125 2.066406-17.925782 3.15625-27.3125 3.15625-26.480469 0-51.019532-8.699219-70.917969-23.375-6.378906-4.570312-8.96875-10.109375-14.460937-14.359375v169.734375h225.382812v-142.472656c-4.609375-4.527344-9.4375-8.832032-14.460938-12.902344zm0 0" fill="#5f5148"/><path d="m86.609375 502h29.390625v-104.019531c-18.625 30.355469-29.390625 65.988281-29.390625 104.019531zm0 0" fill="#5f5148" fill-rule="evenodd"/><path d="m396 359.527344v142.472656h60c0-55.625-23.019531-106.132812-60-142.472656zm0 0" fill="#5f5148" fill-rule="evenodd"/><g fill="#000001"><path d="m256 451.785156c5.523438 0 10-4.480468 10-10v-.480468c0-5.519532-4.476562-10-10-10s-10 4.480468-10 10v.480468c0 5.519532 4.476562 10 10 10zm0 0"/><path d="m502 492h-.238281c-5.523438 0-10 4.476562-10 10s4.476562 10 10 10h.238281c5.523438 0 10-4.476562 10-10s-4.476562-10-10-10zm0 0"/><path d="m10.234375 492h-.234375c-5.523438 0-10 4.476562-10 10s4.476562 10 10 10h.234375c5.523437 0 10-4.476562 10-10s-4.476563-10-10-10zm0 0"/><path d="m473.03125 492h-7.273438c-3.324218-69.960938-41.382812-133.480469-101.675781-169.84375 12.089844-18.050781 19.789063-39.28125 21.535157-62.152344h.382812c22.054688 0 39.996094-17.945312 39.996094-40.003906 0-18.601562-12.765625-34.277344-29.996094-38.730469v-41.269531c0-77.195312-62.804688-140-140-140s-140 62.804688-140 140v41.269531c-17.230469 4.449219-30 20.128907-30 38.730469 0 22.058594 17.941406 40.003906 40 40.003906h.378906c1.75 22.871094 9.445313 44.101563 21.535156 62.152344-60.289062 36.363281-98.347656 99.882812-101.671874 169.84375h-7.273438c-5.523438 0-10 4.476562-10 10s4.476562 10 10 10h434.0625c5.523438 0 10-4.476562 10-10s-4.476562-10-10-10zm-67.03125-106.394531c23.523438 30.207031 37.671875 67.164062 39.734375 106.394531h-39.734375zm-270-145.601563h-10c-11.03125 0-20-8.972656-20-20.003906 0-11.027344 8.96875-19.996094 20-19.996094 5.523438 0 10-4.476562 10-10v-50.003906c0-66.167969 53.832031-120 119.996094-120 66.167968 0 120 53.832031 120 120v50.003906c0 5.523438 4.476562 10 10 10 11.027344 0 20 8.96875 20 19.996094 0 11.03125-8.972656 20.003906-20 20.003906h-10c-5.519532 0-10 4.476563-10 10 0 25.65625-8.828125 49.285156-23.609375 68.015625-.601563.578125-1.136719 1.238281-1.59375 1.976563-20.191407 24.417968-50.707031 40.003906-84.796875 40.003906-34.085938 0-64.601563-15.582031-84.789063-40-.457031-.738281-.996093-1.402344-1.601562-1.976562-14.777344-18.730469-23.605469-42.363282-23.605469-68.019532 0-5.523437-4.476562-10-10-10zm109.996094 139.617188.003906 32.605468c0 5.523438 4.476562 10 10 10s10-4.480468 10-10l-.003906-32.605468c33.757812-2.578125 63.941406-18.113282 85.597656-41.617188 12.550781 7.351563 24.0625 15.984375 34.40625 25.6875v128.3125h-260v-128.316406c10.34375-9.699219 21.855469-18.335938 34.402344-25.683594 21.65625 23.503906 51.839844 39.035156 85.59375 41.617188zm-139.996094 5.980468v106.398438h-39.738281c2.0625-39.230469 16.210937-76.191406 39.738281-106.398438zm0 0"/><path d="m306 235.117188c6.886719 0 12.5-5.617188 12.5-12.503907 0-6.882812-5.613281-12.496093-12.5-12.496093s-12.5 5.613281-12.5 12.496093c0 6.886719 5.617188 12.503907 12.5 12.503907zm0 0"/><path d="m206 235.117188c6.882812 0 12.5-5.617188 12.5-12.503907 0-6.882812-5.617188-12.496093-12.5-12.496093-6.886719 0-12.5 5.613281-12.5 12.496093 0 6.886719 5.613281 12.503907 12.5 12.503907zm0 0"/><path d="m205.941406 272.507812h100.113282c27.535156 0 49.941406-22.40625 49.941406-49.945312s-22.40625-49.941406-49.941406-49.941406h-100.113282c-27.539062 0-49.941406 22.402344-49.941406 49.941406s22.402344 49.945312 49.941406 49.945312zm0-79.890624h100.113282c16.511718 0 29.941406 13.433593 29.941406 29.945312s-13.433594 29.945312-29.941406 29.945312h-100.113282c-16.511718 0-29.941406-13.4375-29.941406-29.945312 0-16.511719 13.429688-29.945312 29.941406-29.945312zm0 0"/><path d="m196.46875 82.503906c2.351562 0 4.710938-.824218 6.613281-2.503906 9.207031-8.121094 20.347657-14.09375 32.210938-17.273438 5.335937-1.429687 8.5-6.914062 7.070312-12.246093-1.429687-5.335938-6.914062-8.503907-12.25-7.070313-14.828125 3.972656-28.753906 11.441406-40.261719 21.59375-4.144531 3.65625-4.539062 9.972656-.886718 14.117188 1.980468 2.238281 4.734375 3.382812 7.503906 3.382812zm0 0"/><path d="m173.117188 103.691406c1.558593.886719 3.253906 1.308594 4.929687 1.308594 3.480469 0 6.863281-1.820312 8.707031-5.0625.011719-.019531.066406-.117188.078125-.132812 2.753907-4.773438 1.101563-10.835938-3.660156-13.605469-4.765625-2.769531-10.894531-1.121094-13.679687 3.632812l-.128907.226563c-2.730469 4.800781-1.046875 10.90625 3.753907 13.632812zm0 0"/></g></svg>