<svg height="512pt" viewBox="0 0 512 512.001" width="512pt" xmlns="http://www.w3.org/2000/svg"><path d="m349.285156 325.253906c16.6875-20.613281 26.710938-46.824218 26.710938-75.257812v-78.222656c-14.660156.015624-20.183594-13.664063-26.054688-25.660157-5.269531 4.914063-11.019531-18.617187-18.277344-17.113281-13.203124 2.730469-21.382812 22.75-30.273437 18.832031-4.761719 4.199219-9.984375 7.78125-16.386719 9.105469-5.1875 1.074219-9.59375.496094-13.578125-.828125-4.445312 2.691406-18.660156-7.835937-23.761719-7.445313-9.679687.742188-11.386718 8.238282-19.632812 5.378907-5.402344 3.515625-11.148438 6.929687-17.515625 7.417969-1.949219.148437-3.960937.046874-5.996094-.222657-5.316406 5.746094-10.621093-4.671875-21.851562-5.574219l-.007813 34.425782c5.832032.148437 11.722656.566406 17.5 1.304687 7.421875-.84375 16.859375 2.394531 24.503906 5.9375 54.667969 25.332031 17.710938 74.847657 5.351563 69.09375-1.847656.742188-3.828125 1.488281-5.972656 2.25-14.222657 5.035157-27.972657 3.535157-40.210938-2.03125 3.082031 21.972657 12.167969 42.085938 25.546875 58.605469 17.359375 21.464844 41.9375 36.863281 69.953125 42.441406 28.011719-5.574218 52.589844-20.976562 69.953125-42.4375zm0 0" fill="#fcd0ac" fill-rule="evenodd"/><path d="m254.683594 224.636719c-6.789063-21.042969-30.289063-30.347657-55.753906-33.398438-7.117188.761719-13.578126 1.816407-18.917969 3.003907 0 27.574218 21.503906 60.605468 52.042969 71.929687 13.699218-5.636719 22.738281-16.949219 23.960937-29.390625-.1875-1.90625-.191406-3.839844 0-5.777344-.210937-2.117187-.648437-4.246094-1.332031-6.367187zm0 0" fill="#0586ad" fill-rule="evenodd"/><path d="m427.410156 148.457031c1.636719 3.390625 3.296875 6.832031 5.179688 9.996094-1.171875-4.070313-3.035156-7.265625-5.179688-9.996094zm0 0" fill="#f4ba64"/><path d="m425.613281 325.253906c2.757813 1.464844 5.464844 3.011719 8.144531 4.601563-.097656-5.089844-.886718-9.234375-2.085937-12.765625-1.90625 2.804687-3.925781 5.53125-6.058594 8.164062zm0 0" fill="#f4ba64"/><path d="m441.0625 240.484375c0-18.066406-17.4375-21.226563-17.714844-37.933594-.273437-16.703125 12.148438-17.597656 10.878906-38.308593-.167968-2.710938-.59375-5.105469-1.214843-7.261719-1.886719-3.164063-3.542969-6.605469-5.179688-9.996094-5.394531-6.867187-12.519531-10.800781-14.617187-18.4375-.054688-.207031-.097656-.417969-.144532-.625-2.839843-12.21875 8.035157-28.441406-4.273437-43.269531-12.515625-15.078125-33.839844-3.394532-44.582031-14.808594-10.738282-11.414062-3.226563-33.3125-23.109375-43.980469-19.878907-10.671875-31.875 4.625-44.589844 1.070313-.644531-.183594-1.289063-.398438-1.929687-.632813-.644532.234375-1.289063.449219-1.933594.632813-12.714844 3.554687-13.40625-9.957032-32.570313-13.328125-22.222656-3.90625-129.71875 133.296875-105.050781 149.613281 5.574219-5.664062 9.960938-12.375 19.183594-12.398438 7.488281-.019531 23.539062 10.175782 36.722656 9.167969 13.472656-1.03125 24.15625-15.15625 34.6875-15.664062 13.4375-.652344 22.121094 14.800781 39.800781 11.140625 20.3125-4.203125 28.769531-31.136719 48.179688-28.378906 11.6875 1.660156 15.683593 16.992187 22.511719 28.929687 4.515624 7.886719 10.265624 14.296875 20.300781 14.285156v78.222657c0 28.433593-10.023438 54.640624-26.714844 75.253906 28.898437 15.367187 53.644531 37.605468 72.011719 64.507812-5.882813-28.519531 12.921875-33.386718 12.46875-59.800781 0-.035156-.003906-.066406-.003906-.101563-2.679688-1.589843-5.386719-3.136718-8.144532-4.605468 2.128906-2.632813 4.152344-5.355469 6.058594-8.164063-4.996094-14.710937-17.128906-18.675781-16.296875-35.226562 1.03125-20.550781 25.269531-21.835938 25.265625-39.902344zm0 0" fill="#f4ba64"/><path d="m156.652344 317.09375c-1.199219 3.53125-1.988282 7.671875-2.085938 12.761719 2.679688-1.585938 5.382813-3.132813 8.140625-4.597657-2.128906-2.632812-4.148437-5.355468-6.054687-8.164062zm0 0" fill="#f4ba64"/><path d="m257.328125 224.636719c-.6875 2.121093-1.125 4.25-1.332031 6.367187.1875 1.9375.1875 3.867188 0 5.777344 1.445312 14.726562 13.839844 27.863281 31.953125 31.894531 48.21875 10.726563 88.046875-36.910156 88.046875-74.433593-32.371094-7.203126-105.753906-9.636719-118.667969 30.394531zm0 0" fill="#0586ad" fill-rule="evenodd"/><path d="m421.296875 389.757812c-6.050781-8.859374-12.804687-17.199218-20.15625-24.96875-14.976563-15.820312-32.472656-29.230468-51.855469-39.53125-22.042968 27.242188-55.722656 44.734376-93.285156 44.734376-5.257812 0-10.433594-.351563-15.515625-1.015626-10.140625-1.324218-19.886719-3.925781-29.082031-7.636718-22.992188 14.6875-42.835938 33.910156-58.199219 56.417968-5.3125 7.78125-10.09375 15.957032-14.28125 24.46875.953125.570313 1.921875 1.128907 2.882813 1.691407 36 11.859375 74.769531 18.085937 114.191406 18.085937 64.746094 0 127.75-16.761718 179.574218-47.773437-4.1875-8.515625-8.96875-16.683594-14.273437-24.472657zm0 0" fill="#fcd0ac"/><path d="m447.3125 443.878906c-3.136719-10.25-7.066406-20.160156-11.742188-29.648437-41.476562 24.820312-90.113281 40.5-141.074218 45.777343 12.714844 1.316407 25.570312 1.996094 38.5 1.996094 39.46875 0 78.28125-6.242187 114.316406-18.125zm0 0" fill="#ff5a5a"/><path d="m332.996094 462.003906c-12.929688 0-25.785156-.679687-38.5-1.996094-12.714844 1.316407-25.570313 1.996094-38.5 1.996094-39.464844 0-78.28125-6.238281-114.3125-18.128906-5.636719 18.414062-8.6875 37.929688-8.6875 58.125h323c0-20.195312-3.050782-39.710938-8.6875-58.121094-36.03125 11.882813-74.84375 18.125-114.3125 18.125zm0 0" fill="#ff5a5a"/><g fill="#000001"><path d="m501.996094 491.996094h-.238282c-5.519531 0-10 4.476562-10 10 0 5.523437 4.480469 10 10 10h.238282c5.519531 0 10-4.476563 10-10 0-5.523438-4.480469-10-10-10zm0 0"/><path d="m10.238281 491.996094h-.238281c-5.523438 0-10 4.476562-10 10 0 5.523437 4.476562 10 10 10h.238281c5.519531 0 9.996094-4.476563 9.996094-10 0-5.523438-4.476563-10-9.996094-10zm0 0"/><path d="m473.027344 491.996094h-7.273438c-1.832031-38.546875-14.210937-75.140625-35.042968-106.3125-1.804688-10.929688 1.042968-16.71875 4.910156-24.558594 3.734375-7.574219 8.386718-17 8.140625-31.339844-.292969-17.027344-7.269531-26.191406-12.367188-32.886718-4.089843-5.375-6.34375-8.332032-6.03125-14.539063.292969-5.839844 3.570313-8.824219 9.824219-14.023437 6.523438-5.421876 15.457031-12.847657 15.457031-26.375 0-12.953126-6.636719-20.703126-11.480469-26.359376-4.046874-4.726562-6.164062-7.398437-6.234374-11.742187-.082032-4.894531 1.367187-7.304687 3.761718-11.296875 3.363282-5.601562 7.964844-13.269531 7.097656-27.457031-.992187-16.1875-9.316406-24.300781-15.398437-30.21875-3.289063-3.203125-5.335937-5.277344-5.949219-7.515625-.691406-2.519532-.039062-6.667969.648438-11.058594 1.5625-9.984375 3.707031-23.65625-7.015625-36.574219-9.53125-11.480469-22.496094-12.046875-31.960938-12.460937-6.738281-.292969-10.976562-.628906-13.03125-2.8125-2.453125-2.605469-3.460937-7.382813-4.625-12.910156-2.179687-10.34375-5.160156-24.507813-21.039062-33.03125-15.65625-8.398438-27.925781-4.449219-36.882813-1.5625-4.046875 1.304687-7.542968 2.429687-9.746094 1.8125-3.738281-1.042969-8.203124-3.949219-12.933593-7.023438-8.464844-5.507812-18.058594-11.75-29.859375-11.75-11.796875 0-21.390625 6.242188-29.855469 11.746094-4.726563 3.078125-9.191406 5.984375-12.933594 7.03125-2.203125.617187-5.699219-.511719-9.742187-1.816406-8.957032-2.886719-21.226563-6.839844-36.882813 1.566406-15.878906 8.523437-18.863281 22.683594-21.042969 33.027344-1.164062 5.527343-2.171874 10.304687-4.625 12.910156-2.054687 2.1875-6.292968 2.523437-13.027343 2.816406-9.46875.410156-22.429688.976562-31.960938 12.457031-10.726562 12.921875-8.582031 26.59375-7.015625 36.578125.6875 4.390625 1.339844 8.539063.648438 11.054688-.613282 2.238281-2.664063 4.3125-5.949219 7.515625-6.082031 5.921875-14.410156 14.027343-15.402344 30.21875-.867187 14.191406 3.738281 21.859375 7.097657 27.457031 2.398437 3.992188 3.847656 6.402344 3.765624 11.300781-.074218 4.34375-2.1875 7.011719-6.234374 11.738281-4.847657 5.660157-11.480469 13.40625-11.484376 26.359376 0 13.53125 8.933594 20.957031 15.457032 26.378906 6.257812 5.199218 9.53125 8.183594 9.828125 14.023437.3125 6.203125-1.941407 9.164063-6.035157 14.535157-5.09375 6.695312-12.074218 15.863281-12.367187 32.890624-.246094 14.339844 4.402344 23.765626 8.140625 31.339844 3.867188 7.835938 6.71875 13.628906 4.914062 24.554688-20.835937 31.171875-33.210937 67.765625-35.042968 106.3125h-7.277344c-5.523438 0-10 4.480468-10 10 0 5.523437 4.476562 10 10 10h16.953125c.027344 0 .050781.003906.078125.003906.023438 0 .050781-.003906.078125-.003906h59.84375c.023437 0 .050781.003906.078125.003906.023438 0 .050781-.003906.074219-.003906h279.84375c.027343 0 .050781.003906.078125.003906s.050781-.003906.078125-.003906h59.84375c.023437 0 .050781.003906.078125.003906.023437 0 .050781-.003906.074218-.003906h16.957032c5.523437 0 10-4.476563 10-10 0-5.523438-4.476563-10-10-10zm-217.027344-61.105469c-5.523438 0-10 4.476563-10 10v10.960937c-55.777344-1.558593-110.589844-16.125-156.324219-41.535156 2.640625-4.761718 5.480469-9.414062 8.523438-13.9375.535156-.609375 1-1.285156 1.378906-2.023437 15.628906-22.613281 36.238281-41.953125 60.828125-56.355469 23.773438 25.800781 57.824219 41.996094 95.59375 41.996094 37.765625 0 71.816406-16.195313 95.589844-41.996094 24.59375 14.402344 45.203125 33.746094 60.832031 56.367188.378906.726562.839844 1.402343 1.371094 2.007812 3.042969 4.523438 5.886719 9.179688 8.527343 13.945312-45.734374 25.40625-100.550781 39.972657-156.320312 41.53125v-10.957031c0-5.523437-4.476562-10-10-10.003906zm109.996094-248.613281c-10.019532-1.453125-21.015625-2.253906-31.585938-2.253906-37.421875 0-64.488281 9.28125-78.414062 26.472656-13.925782-17.1875-40.996094-26.472656-78.417969-26.472656-10.570313 0-21.5625.800781-31.578125 2.253906v-.863282c8.980469-2.339843 14.578125-8.382812 18.632812-12.773437 4.328126-4.695313 6.113282-6.335937 9.132813-6.347656 1.484375.082031 5.921875 1.757812 9.164063 2.980469 8.167968 3.085937 18.332031 6.925781 28.347656 6.15625 9.648437-.738282 17.621094-5.984376 24.027344-10.199219 3.800781-2.5 8.109374-5.335938 10.382812-5.441407 2.847656-.148437 5.914062 1.488282 10.664062 4.160157 7.199219 4.054687 17.0625 9.601562 30.679688 6.78125 12.222656-2.53125 20.445312-10.628907 27.695312-17.773438 7.316407-7.210937 11.722657-11.253906 17.050782-10.496093 3.621094.511718 7.050781 7.617187 10.363281 14.488281 4.777344 9.894531 10.992187 22.765625 23.855469 27.21875zm-99.960938 48.984375c.15625-1.144531.414063-2.332031.808594-3.550781 8.0625-24.988282 49.9375-27.6875 67.566406-27.6875 10.433594 0 21.265625.84375 30.863282 2.367187-2.101563 12.210937-8.65625 25.339844-18.140626 35.835937-12.808593 14.179688-28.917968 21.988282-45.351562 21.988282-3.867188 0-7.789062-.441406-11.660156-1.300782-9.5-2.113281-17.289063-7.421874-21.375-14.558593-1.152344-2.015625-2.277344-4.675781-2.707032-7.808594.117188-1.757813.113282-3.519531-.003906-5.285156zm-20.082031 5.285156c-.429687 3.136719-1.554687 5.796875-2.707031 7.808594-4.085938 7.144531-11.878906 12.449219-21.375 14.558593-3.871094.863282-7.796875 1.300782-11.660156 1.300782-16.4375 0-32.542969-7.808594-45.355469-21.988282-9.480469-10.496093-16.03125-23.625-18.136719-35.835937 9.59375-1.519531 20.425781-2.363281 30.859375-2.363281 17.628906 0 59.503906 2.695312 67.570313 27.683594.394531 1.222656.648437 2.40625.804687 3.554687-.117187 1.757813-.117187 3.523437 0 5.28125zm-99.953125 10.3125c1.289062 1.625 2.617188 3.222656 4.015625 4.773437 16.648437 18.429688 38.027344 28.578126 60.195313 28.578126 5.324218 0 10.707031-.597657 16.003906-1.773438 12.078125-2.6875 22.566406-8.9375 29.78125-17.554688 7.214844 8.617188 17.699218 14.867188 29.78125 17.554688 5.292968 1.179688 10.679687 1.773438 16 1.773438 22.167968 0 43.546875-10.148438 60.195312-28.578126 1.402344-1.554687 2.730469-3.152343 4.023438-4.78125v3.144532c0 25.664062-8.835938 49.296875-23.621094 68.03125-.597656.570312-1.125 1.226562-1.578125 1.953125-20.191406 24.425781-50.710937 40.011719-84.804687 40.011719-34.089844 0-64.609376-15.589844-84.800782-40.015626-.449218-.726562-.976562-1.375-1.566406-1.941406-14.789062-18.734375-23.625-42.375-23.625-68.039062zm-51.6875 105.417969c-3.351562-6.789063-6.246094-12.652344-6.082031-22.148438.179687-10.472656 3.757812-15.167968 8.285156-21.117187 4.796875-6.304688 10.773437-14.148438 10.09375-27.652344-.75-14.878906-10.152344-22.695313-17.019531-28.402344-5.976563-4.96875-8.238282-7.207031-8.238282-10.996093 0-5.3125 2.289063-8.230469 6.675782-13.351563 4.832031-5.644531 10.84375-12.667969 11.039062-24.417969.175782-10.617187-3.589844-16.886718-6.613281-21.925781-2.769531-4.613281-4.769531-7.945313-4.28125-15.941406.519531-8.472657 4.238281-12.09375 9.386719-17.105469 4.316406-4.199219 9.203125-8.957031 11.289062-16.550781 1.828125-6.664063.808594-13.164063-.179687-19.449219-1.433594-9.136719-2.070313-15.023438 2.644531-20.703125 3.691406-4.445313 8.777344-4.878906 17.441406-5.253906 8.445313-.367188 18.957032-.824219 26.730469-9.089844 6.300781-6.695313 8.066406-15.089844 9.628906-22.496094 2.070313-9.835937 3.601563-15.597656 10.929688-19.527343 8.160156-4.378907 13.953125-2.515626 21.289062-.148438 6.214844 2.003906 13.265625 4.277344 21.261719 2.039062 6.695312-1.871093 12.675781-5.761718 18.457031-9.527343 6.726563-4.378907 13.082031-8.511719 18.945313-8.511719 5.867187 0 12.222656 4.136719 18.953125 8.511719 5.78125 3.765625 11.761719 7.652343 18.449219 9.527343 8 2.234376 15.046874-.035156 21.265624-2.039062 7.335938-2.363281 13.132813-4.230469 21.289063.148438 7.328125 3.933593 8.859375 9.6875 10.929687 19.527343 1.5625 7.40625 3.328126 15.800781 9.628907 22.496094 7.777343 8.265625 18.285156 8.722656 26.730469 9.089844 8.664062.375 13.75.808593 17.441406 5.253906 4.714844 5.679687 4.074218 11.566406 2.644531 20.703125-.984375 6.285156-2.003906 12.785156-.175781 19.449219 2.082031 7.589843 6.972656 12.351562 11.285156 16.550781 5.148438 5.011719 8.867188 8.632812 9.386719 17.105469.488281 7.996093-1.511719 11.328125-4.28125 15.941406-3.023438 5.039063-6.789063 11.308594-6.609375 21.925781.191406 11.75 6.207031 18.773438 11.039062 24.417969 4.382813 5.117187 6.671875 8.039063 6.671875 13.351563 0 3.789062-2.261719 6.027343-8.238281 10.996093-6.867188 5.707031-16.273438 13.523438-17.015625 28.402344-.683594 13.503906 5.292969 21.351563 10.09375 27.652344 4.523437 5.949219 8.101563 10.648437 8.28125 21.117187.160156 9.496094-2.730469 15.359375-6.078125 22.148438-1.613281 3.265625-3.289062 6.6875-4.65625 10.519531-13.972656-15.714844-30.410156-29.464844-48.953125-40.644531 13.839844-20.660156 21.917969-45.480469 21.917969-72.15625v-55.617188c0-.046875.003906-.089844.003906-.136718 0-.03125-.003906-.058594-.003906-.089844v-13.359375c1.871094-.332031 3.769531-.734375 5.628906-1.210938 5.351562-1.375 8.574219-6.824219 7.199219-12.175781-1.375-5.347656-6.824219-8.566406-12.175781-7.195312-3.734376.960937-7.820313 1.558593-10.664063 1.5625-.003906 0-.007813 0-.015625 0-6.628906 0-10.066406-5.613282-15.8125-17.519532-5.074219-10.507812-11.386719-23.582031-25.566406-25.597656-15.394532-2.191406-25.652344 7.925781-33.898438 16.050781-5.792968 5.710938-11.265625 11.105469-17.710937 12.4375-5.996094 1.242188-10.09375-.839843-16.824219-4.625-5.945312-3.34375-12.691406-7.148437-21.433594-6.710937-7.730468.375-14.179687 4.613281-20.410156 8.714844-4.945312 3.257812-10.0625 6.621093-14.558594 6.964843-5.589844.4375-13.441406-2.539062-19.753906-4.925781-6.082031-2.296875-11.34375-4.277344-16.230469-4.269531-12.074219.03125-18.875 7.402343-23.839843 12.789062-4.957032 5.378907-7.394532 7.730469-13.125 7.277344-6.40625-.515625-8.480469-.828125-8.675782-.859375-5.402344-.921875-10.550781 2.675781-11.527344 8.078125-.980468 5.433594 2.628907 10.636719 8.0625 11.621094.191407.035156.605469.101562 1.339844.195312v12.652344c-.003906.066406-.011718.128906-.011718.195313 0 .09375.011718.191406.011718.289062v55.464844c0 26.675781 8.078125 51.5 21.914063 72.15625-18.539063 11.183594-34.980469 24.929687-48.949219 40.644531-1.371094-3.832031-3.046875-7.253906-4.65625-10.519531zm-13.398438 76.054687c51.21875 28.21875 112.925782 43.671875 175.082032 43.671875s123.863281-15.449218 175.085937-43.667968c8.429688 19.949218 13.480469 41.4375 14.648438 63.660156h-39.734375v-19.953125c0-5.519531-4.476563-10-10-10-5.523438 0-10 4.480469-10 10v19.953125h-260v-19.953125c0-5.519531-4.476563-10-9.996094-10-5.523438 0-10 4.480469-10 10v19.953125h-39.734375c1.167969-22.222656 6.21875-43.710938 14.648437-63.664063zm0 0"/><path d="m230.992188 312.324219c7.597656 4.382812 16.242187 6.699219 25 6.699219 8.761718 0 17.410156-2.316407 25.003906-6.699219 4.78125-2.765625 6.421875-8.878907 3.660156-13.664063-2.761719-4.777344-8.878906-6.417968-13.660156-3.65625-4.558594 2.628906-9.746094 4.023438-15.003906 4.023438-5.253907 0-10.4375-1.394532-14.996094-4.023438-4.785156-2.761718-10.898438-1.125-13.660156 3.65625-2.761719 4.785156-1.125 10.902344 3.65625 13.664063zm0 0"/><path d="m151.960938 127.25c.464843 0 .933593-.03125 1.402343-.097656 17.675781-2.480469 34.605469-12.394532 45.296875-26.515625 3.332032-4.402344 2.464844-10.671875-1.9375-14.007813-4.402344-3.328125-10.675781-2.464844-14.011718 1.9375-2.832032 3.746094-13.527344 16.167969-32.128907 18.78125-5.46875.765625-9.277343 5.820313-8.511719 11.289063.703126 5 4.984376 8.613281 9.890626 8.613281zm0 0"/><path d="m207.824219 81.628906c.214843 0 .519531-.011718.730469-.027344 5.511718-.351562 9.6875-5.109374 9.335937-10.621093-.351563-5.445313-4.988281-9.566407-10.4375-9.347657-5.351563.195313-9.628906 4.59375-9.628906 9.996094 0 5.519532 4.476562 10 10 10zm0 0"/></g></svg>