<svg height="512pt" viewBox="0 0 512 512" width="512pt" xmlns="http://www.w3.org/2000/svg"><path d="m451.371094 95.628906c-54.238282-14.535156-75.148438-71.339844-160.570313-83.375-74.46875 27.082032-94.84375 108.082032-102.839843 120.570313 47.195312 23.421875 50.582031 16.316406 64.941406 19.871093 13.949218 3.457032 34.539062 1.539063 75.519531 4.988282 5.15625-.4375 10.28125-1 15.351563-1.683594 15.171874-2.054688 29.816406-5.222656 43.222656-9.597656 30.980468-10.113282 55.355468-26.664063 64.375-50.773438zm0 0" fill="#c99e81" fill-rule="evenodd"/><path d="m385.996094 146.402344c-13.40625 4.375-28.050782 7.542968-43.222656 9.597656 5.8125 20.507812 16.53125 34 33.222656 34h10zm0 0" fill="#5f5148" fill-rule="evenodd"/><path d="m174.121094 127.5c-4.757813-4.667969-11.878906-11.847656-18.015625-24.824219-3.535157 11.824219-5.441407 24.351563-5.441407 37.324219v45.429688c14.078126-9.566407 21.84375-32.90625 23.457032-57.929688zm0 0" fill="#5f5148" fill-rule="evenodd"/><path d="m342.773438 156c-6.785157.917969-13.675782 1.605469-20.605469 2.085938 7.070312.484374 14.253906.753906 21.476562.804687-.300781-.949219-.59375-1.910156-.871093-2.890625zm0 0" fill="#fcd0ac"/><g fill-rule="evenodd"><path d="m89.332031 502h26.664063v-99.441406c-16.945313 29.335937-26.664063 63.304687-26.664063 99.441406zm0 0" fill="#ff5a5a"/><path d="m154.996094 501.996094h70.582031l-70.003906-52.238282 26.25-28.125-14.523438-73.234374c-1.875-15.273438-8.359375-28.6875-12.304687-24.8125zm0 0" fill="#ff5a5a"/><path d="m282.195312 429.9375-26.199218 72.058594h30.421875l69.996093-52.238282-26.246093-28.125 19.109375-96.363281c-11.035156 13.636719-24.984375 24.832031-40.878906 32.609375zm0 0" fill="#ff5a5a"/><path d="m255.996094 370 26.199218 59.9375 26.203126-72.058594c-15.855469 7.761719-33.644532 12.121094-52.402344 12.121094zm0 0" fill="#bdbcbc"/><path d="m245.128906 456.9375 13.625 37.472656 23.441406-64.472656-12.632812-28.898438zm0 0" fill="#f9d973"/><path d="m349.277344 325.269531-19.109375 96.363281 26.246093 28.125-69.996093 52.238282 109.578125.003906v-142.476562c-13.785156-13.546876-29.511719-25.125-46.714844-34.269532zm0 0" fill="#ff5a5a"/><path d="m395.996094 359.523438v142.476562h60.003906c0-55.625-23.023438-106.132812-60.003906-142.476562zm0 0" fill="#ff5a5a"/><path d="m229.792969 429.921875 26.199219 72.058594h-30.417969l-70-52.238281 26.25-28.128907-19.113281-96.359375c11.035156 13.636719 24.984374 24.832032 40.878906 32.609375zm0 0" fill="#ff5a5a"/><path d="m255.996094 369.980469-26.203125 59.941406-26.203125-72.058594c15.855468 7.757813 33.644531 12.117188 52.40625 12.117188zm0 0" fill="#bdbcbc"/></g><path d="m385.996094 190h-10c-15.890625 0-26.367188-12.238281-32.351563-31.109375-7.222656-.050781-14.40625-.320313-21.476562-.804687-36.457031 2.515624-74.0625-.921876-103.601563-9.148438-7.429687-2.851562-18.609375-4.183594-35.070312-15.4375v116.503906c0 16.34375 3.316406 31.949219 9.304687 46.1875 8.542969 2.121094 21.976563 2.496094 34.949219-9.410156 20.925781-19.207031 40.796875 15.09375 17.042969 26.253906-11.835938 5.5625-27.820313 9.019532-40.914063 3.648438 1.984375 2.949218 4.097656 5.8125 6.332032 8.570312 17.269531 21.359375 41.695312 36.71875 69.535156 42.367188 27.839844-5.648438 52.261718-21.007813 69.535156-42.367188 16.691406-20.613281 26.714844-46.820312 26.714844-75.25h10c16.566406 0 30-13.433594 30-30.003906 0-16.566406-13.433594-30-30-30zm0 0" fill="#fcd0ac"/><path d="m238.640625 297.675781c-21.332031 19.574219-43.933594 5.949219-43.933594 5.949219 1.320313 4.21875 2.980469 7.828125 4.910157 10.917969 13.738281 8.253906 32.019531 4.675781 45.175781-1.507813 9.988281-4.695312 12.261719-13.480468 9.988281-20.65625-4.710938-1.21875-10.386719.011719-16.140625 5.296875zm0 0" fill="#c99e81" fill-rule="evenodd"/><path d="m284.246094 286.78125c-20.929688-19.207031-40.800782 15.09375-17.046875 26.253906 19.617187 9.21875 50.640625 12.691406 60.980469-20.300781 0 0-22.605469 13.625-43.933594-5.953125zm0 0" fill="#c99e81" fill-rule="evenodd"/><path d="m293.496094 250.003906c0 6.882813 5.617187 12.5 12.503906 12.5 6.882812 0 12.5-5.617187 12.5-12.5 0-6.886718-5.617188-12.5-12.5-12.5-6.886719 0-12.503906 5.613282-12.503906 12.5zm0 0" fill="#000001"/><path d="m193.496094 250.003906c0 6.882813 5.617187 12.5 12.5 12.5 6.886718 0 12.5-5.617187 12.5-12.5 0-6.886718-5.613282-12.5-12.5-12.5-6.882813 0-12.5 5.613282-12.5 12.5zm0 0" fill="#000001"/><path d="m190.996094 224.023438c4.554687-2.632813 9.742187-4.019532 15-4.019532 5.257812 0 10.445312 1.386719 15 4.019532 1.574218.910156 3.292968 1.339843 4.988281 1.339843 3.457031 0 6.820313-1.792969 8.671875-5 2.761719-4.78125 1.121094-10.898437-3.660156-13.660156-7.589844-4.382813-16.234375-6.699219-25-6.699219s-17.410156 2.316406-25 6.699219c-4.78125 2.761719-6.421875 8.878906-3.660156 13.660156 2.761718 4.78125 8.875 6.417969 13.660156 3.660157zm0 0" fill="#000001"/><path d="m291 224.023438c4.554688-2.632813 9.738281-4.019532 14.996094-4.019532 5.257812 0 10.445312 1.386719 14.996094 4.019532 1.578124.910156 3.296874 1.339843 4.992187 1.339843 3.457031 0 6.816406-1.792969 8.671875-5 2.761719-4.78125 1.125-10.898437-3.660156-13.660156-7.585938-4.382813-16.230469-6.699219-25-6.699219-8.765625 0-17.410156 2.316406-25 6.699219-4.78125 2.761719-6.421875 8.878906-3.65625 13.660156 2.761718 4.78125 8.871094 6.417969 13.660156 3.660157zm0 0" fill="#000001"/><path d="m257.964844 120.824219.1875.007812c.222656.015625.441406.023438.664062.023438 5.222656 0 9.621094-4.058594 9.96875-9.34375.363282-5.511719-3.8125-10.273438-9.324218-10.636719-.203126-.011719-.417969-.023438-.625-.03125-5.503907-.28125-10.1875 4.035156-10.425782 9.554688-.242187 5.515624 4.035156 10.183593 9.554688 10.425781zm0 0" fill="#000001"/><path d="m501.996094 491.996094h-.234375c-5.523438 0-10 4.476562-10 10 0 5.519531 4.476562 10 10 10h.234375c5.523437 0 10-4.480469 10-10 0-5.523438-4.476563-10-10-10zm0 0" fill="#000001"/><path d="m10.234375 491.996094h-.234375c-5.523438 0-10 4.476562-10 10 0 5.519531 4.476562 10 10 10h.234375c5.519531 0 10-4.480469 10-10 0-5.523438-4.476563-10-10-10zm0 0" fill="#000001"/><path d="m473.03125 491.996094h-7.277344c-3.324218-69.957032-41.382812-133.476563-101.675781-169.839844 12.09375-18.050781 19.789063-39.28125 21.535156-62.152344h.382813c22.054687 0 40-17.945312 40-40.003906 0-18.601562-12.769532-34.28125-30-38.734375v-27.738281c33.019531-12.121094 54.867187-30.667969 63.738281-54.394532.003906-.011718.007813-.019531.011719-.03125.105468-.289062.199218-.582031.28125-.882812.003906-.011719.003906-.019531.007812-.027344.0625-.242187.109375-.492187.15625-.738281.015625-.082031.039063-.164063.054688-.246094.039062-.253906.0625-.503906.082031-.757812.007813-.078125.019531-.160157.023437-.238281.011719-.203126.007813-.40625.007813-.609376 0-.125.007813-.257812.003906-.382812-.003906-.097656-.019531-.195312-.027343-.292969-.097657-1.414062-.496094-2.769531-1.148438-3.992187-.582031-1.09375-1.367188-2.078125-2.324219-2.894532-.117187-.105468-.234375-.210937-.355469-.308593-.066406-.050781-.140624-.09375-.207031-.144531-.199219-.144532-.394531-.292969-.605469-.425782-.039062-.023437-.078124-.042968-.117187-.0625-.246094-.148437-.496094-.296875-.757813-.425781-.046874-.019531-.101562-.042969-.148437-.0625-.253906-.121094-.511719-.238281-.777344-.335937-.007812-.003907-.011719-.007813-.019531-.011719-.140625-.050781-.28125-.085938-.417969-.132813-.167969-.054687-.328125-.113281-.496093-.160156-20.605469-5.519531-36.046876-17.835938-53.921876-32.09375-31.664062-25.253906-67.554687-53.875-143.042968-53.875-31.933594 0-61.398438 10.757812-84.980469 28.824219-.683594.410156-1.304687.898437-1.859375 1.445312-11.871094 9.414063-22.183594 20.714844-30.488281 33.441407-.457031.566406-.851563 1.183593-1.175781 1.835937-13.605469 21.582031-21.492188 47.109375-21.492188 74.453125v41.265625c-17.234375 4.453125-30.003906 20.132813-30.003906 38.734375 0 22.058594 17.945312 40.003906 40.003906 40.003906h.375c1.75 22.871094 9.445312 44.101563 21.539062 62.152344-60.289062 36.363281-98.347656 99.882812-101.671874 169.839844h-7.277344c-5.523438 0-10 4.476562-10 10 0 5.519531 4.476562 10 10 10h16.9375c.03125 0 .0625.003906.097656.003906.03125 0 .0625-.003906.097656-.003906h59.804688c.03125 0 .0625.003906.097656.003906.03125 0 .0625-.003906.09375-.003906h109.453125.023437.019532 30.335937.039063.03125.003906.03125.039062 30.339844.015625.027344 109.449219c.03125 0 .0625.003906.097656.003906.03125 0 .0625-.003906.09375-.003906h59.808594c.035156 0 .066406.003906.097656.003906.035156 0 .066406-.003906.097656-.003906h16.9375c5.519532 0 10-4.480469 10-10-.003906-5.523438-4.480468-10-10.003906-10zm-202.757812 0 46.148437-126.921875c5.90625-3.113281 11.546875-6.664063 16.875-10.617188l-12.9375 65.230469c-.628906 3.152344.300781 6.417969 2.496094 8.769531l18.632812 19.964844-58.390625 43.574219zm-41.375 0-58.394532-43.574219 18.632813-19.964844c2.191406-2.351562 3.121093-5.613281 2.496093-8.769531l-12.9375-65.230469c5.328126 3.953125 10.96875 7.503907 16.875 10.617188l46.148438 126.921875zm-102.902344-128.304688c9.015625-8.457031 18.917968-16.105468 29.621094-22.796875l15.402343 77.660157-22.753906 24.378906c-1.941406 2.078125-2.902344 4.886718-2.648437 7.714844.253906 2.832031 1.699218 5.421874 3.976562 7.125l45.863281 34.222656h-69.460937zm155.347656 39.328125-10.4375-23.878906c7.050781-.808594 13.933594-2.171875 20.597656-4.070313zm-9.910156 27.257813-15.4375 42.449218-15.433594-42.445312 15.433594-35.316406zm-40.785156-27.257813-10.164063-27.949219c6.667969 1.894532 13.550781 3.261719 20.601563 4.070313zm131.746093 54.753907c2.277344-1.703126 3.726563-4.292969 3.980469-7.125.253906-2.828126-.710938-5.636719-2.648438-7.714844l-22.753906-24.378906 15.402344-77.660157c10.703125 6.6875 20.605469 14.339844 29.621094 22.796875v128.304688h-69.460938zm43.601563-72.171876c23.523437 30.207032 37.675781 67.164063 39.738281 106.394532h-39.738281zm-30-205.601562c-8.21875 0-14.820313-5.394531-19.722656-16.023438 5.582031-.984374 11.039062-2.105468 16.300781-3.386718 1.152343-.28125 2.289062-.574219 3.421875-.867188zm-205.90625-123.691406c4.847656 19.480468 16.519531 48.003906 56.742187 59.570312.925781.265625 1.855469.394532 2.769531.394532 4.34375 0 8.34375-2.855469 9.605469-7.242188 1.527344-5.308594-1.539062-10.847656-6.847656-12.371094-36.019531-10.359375-41.300781-36.65625-44.796875-54.058594-.066406-.335937-.128906-.652343-.195312-.980468 19.460937-13.617188 43.125-21.621094 68.628906-21.621094 68.492187 0 100.050781 25.171875 130.570312 49.515625 15.746094 12.558594 30.777344 24.515625 49.703125 31.957031-11.386719 17.6875-35.46875 30.5-68.429687 39.6875-65.765625 18.320313-156.328125 9.027344-186.90625-20.980468-6.570313-6.453126-18.320313-18.226563-23.933594-47.917969 3.90625-5.691407 8.289062-11.027344 13.089844-15.953125zm-26.636719 42.046875c6.296875 16.976562 14.4375 26.84375 20.320313 32.9375-2.40625 24.238281-11.769532 48.707031-27.773438 48.707031v-40c0-14.636719 2.636719-28.664062 7.453125-41.644531zm-7.457031 141.648437h-9.996094c-11.03125 0-20.003906-8.972656-20.003906-20.003906 0-11.027344 8.972656-20 20.003906-20h9.996094c10.285156 0 24.851562-4.195312 35.828125-24.183594 5.316406-9.6875 8.425781-20.59375 10.226562-30.597656 18.085938 10.148438 43.835938 17.527344 74.667969 21.222656 26.0625 3.128906 53.5 3.207032 79.125.433594 10.855469 28.582031 29.46875 33.125 40.152344 33.125h10c11.027344 0 20 8.972656 20 20 0 11.03125-8.972656 20.003906-20 20.003906h-10c-5.523438 0-10 4.476563-10 10 0 25.65625-8.832032 49.289063-23.613282 68.019532-.257812.246093-.507812.507812-.742187.785156-.015625.019531-.035156.039062-.054687.058594-.050782.0625-.09375.128906-.144532.191406-.15625.199218-.3125.402344-.457031.617187-.027344.035157-.046875.078125-.070313.117188-.046874.070312-.085937.140625-.128906.210937-9.8125 11.863282-22.0625 21.632813-35.972656 28.550782-.5625.214843-1.101562.476562-1.617188.792968-14.308593 6.824219-30.316406 10.652344-47.199218 10.652344-16.882813 0-32.886719-3.824219-47.191406-10.648438-.523438-.316406-1.070313-.585937-1.636719-.800781-13.902344-6.917969-26.148438-16.683593-35.953125-28.535156-.0625-.101563-.117188-.207031-.183594-.304687-.007812-.007813-.011719-.019532-.019531-.03125-.179688-.269532-.375-.527344-.578125-.777344-.007813-.007813-.015625-.019532-.019532-.027344-.191406-.226562-.390624-.441406-.597656-.648438-.070312-.070312-.144531-.140624-.214844-.207031-14.777343-18.730469-23.605468-42.359375-23.605468-68.015625 0-5.523437-4.480469-10-10-10zm-30 145.601563v106.390625h-39.734375c2.0625-39.230469 16.210937-76.183594 39.734375-106.390625zm0 0" fill="#000001"/><path d="m218.414062 329.375c9.746094 0 20.628907-2.585938 30.632813-7.289062 2.601563-1.222657 4.914063-2.722657 6.949219-4.425782 2.035156 1.703125 4.347656 3.203125 6.953125 4.425782 10.003906 4.699218 20.882812 7.289062 30.632812 7.289062h.003907c21.660156 0 37.335937-11.949219 44.136718-33.648438 1.242188-3.964843-.097656-8.285156-3.363281-10.851562-3.269531-2.570312-7.78125-2.851562-11.339844-.703125-.054687.03125-5.613281 3.175781-13.097656 3.175781-.003906 0-.003906 0-.003906 0-6.8125 0-13.175781-2.667968-18.910157-7.933594-7.53125-6.914062-14.761718-8.363281-19.5-8.363281-5.808593 0-11.210937 2.097657-15.511718 5.695313-4.300782-3.597656-9.703125-5.695313-15.511719-5.695313-4.734375 0-11.964844 1.449219-19.5 8.363281-5.734375 5.265626-12.097656 7.933594-18.914063 7.933594-7.46875 0-13.09375-3.175781-13.09375-3.175781-3.546874-2.230469-8.027343-1.964844-11.347656.589844-3.320312 2.558593-4.609375 6.964843-3.359375 10.964843 6.800781 21.699219 22.476563 33.648438 44.144531 33.648438zm48.15625-33.339844c.539063-2.417968 2.453126-4.984375 4.9375-4.984375 1.675782 0 3.796876 1.101563 5.976563 3.097657 8.121094 7.453124 17.582031 11.875 27.617187 12.945312-3.320312 1.527344-7.152343 2.285156-11.519531 2.28125-6.871093 0-14.726562-1.914062-22.128906-5.390625-4-1.878906-5.640625-4.554687-4.882813-7.949219zm-32.058593-1.886718c2.175781-1.996094 4.296875-3.097657 5.972656-3.097657 2.484375 0 4.398437 2.566407 4.9375 4.980469.761719 3.398438-.882813 6.074219-4.878906 7.953125-7.402344 3.476563-15.261719 5.390625-22.128907 5.390625-4.367187 0-8.199218-.757812-11.519531-2.28125 10.03125-1.074219 19.496094-5.492188 27.617188-12.945312zm0 0" fill="#000001"/></svg>