<svg height="512pt" viewBox="0 0 512 512" width="512pt" xmlns="http://www.w3.org/2000/svg"><path d="m285.160156 13.285156c-57.757812 13.238282-100.839844 64.941406-100.839844 126.714844v1.429688c15.136719 7.175781 31.519532 12.136718 48.734376 14.496093 7.503906 1.03125 15.160156 1.578125 22.945312 1.578125 9.949219 0 19.691406-.875 29.160156-2.539062 16.503906-2.898438 32.175782-8.203125 46.636719-15.554688 1.460937 5.886719 3.304687 11.421875 5.464844 16.519532 8.761719 20.660156 22.84375 34.070312 38.738281 34.070312h9.996094v-50c0-61.773438-43.082032-113.476562-100.835938-126.714844zm0 0" fill="#f4ba64"/><path d="m385.996094 190h-9.996094c-16.273438 0-30.648438-14.054688-39.355469-35.5625-1.894531-4.679688-3.527343-9.707031-4.847656-15.027344-15.863281 8.0625-33.183594 13.667969-51.464844 16.332032-7.941406 1.15625-16.066406 1.761718-24.332031 1.761718-10.941406 0-21.628906-1.066406-31.984375-3.066406-14.351563-3.101562-23.015625-7.101562-39.351563-14.101562v109.667968c0 19.0625 4.511719 37.121094 12.511719 53.171875 2.753907-7.652343 10.074219-13.175781 18.644531-13.175781h80.347657c10.902343 0 19.824219 8.925781 19.824219 19.828125v40.175781c0 1.308594-.042969 2.601563-.125 3.882813v.007812c12.8125-7.4375 24.144531-17.175781 33.417968-28.640625 5.496094-6.789062 10.265625-14.1875 14.195313-22.070312 8.003906-16.050782 12.515625-34.113282 12.515625-53.179688h10c16.566406 0 30-13.433594 30-30 0-16.570312-13.429688-30.003906-30-30.003906zm0 0" fill="#fcd0ac"/><path d="m374.988281 341.535156c-8.121093-6.046875-16.703125-11.5-25.695312-16.277344-9.273438 11.460938-20.605469 21.199219-33.425781 28.636719-1.550782 24.003907-17.398438 44.269531-39.058594 52.347657-6.492188 2.421874-13.5 3.761718-20.8125 3.761718-31.695313 0-57.855469-24.90625-59.871094-56.117187-6.199219-3.597657-12.042969-7.742188-17.484375-12.351563-11.496094-9.519531-14.722656-15.265625-21.011719-19.601562v180.066406h238.371094v-142.476562c-6.578125-6.460938-13.601562-12.472657-21.011719-17.988282zm0 0" fill="#45ba88"/><path d="m86.796875 502h29.203125v-103.707031c-18.507812 30.289062-29.203125 65.804687-29.203125 103.707031zm0 0" fill="#45ba88" fill-rule="evenodd"/><path d="m396 359.523438v142.476562h60c0-55.625-23.019531-106.132812-60-142.476562zm0 0" fill="#45ba88" fill-rule="evenodd"/><path d="m233.222656 309.828125v40.175781c0 1.304688.042969 2.597656.128906 3.882813 1.605469 24.816406 18.480469 45.632812 41.257813 53.125 22.777344-7.492188 39.652344-28.308594 41.257813-53.125.085937-1.285157.125-2.578125.125-3.882813v-40.175781c0-10.902344-8.917969-19.828125-19.824219-19.828125h-43.117188c-10.90625 0-19.828125 8.925781-19.828125 19.828125zm0 0" fill="#f4ba64" fill-rule="evenodd"/><g fill="#000001"><path d="m473.03125 491.996094h-7.273438c-3.328124-70-41.429687-133.550782-101.78125-169.902344 12.28125-18.355469 19.859376-39.714844 21.617188-62.089844h.402344c22.058594 0 40-17.945312 40-40.003906 0-18.601562-12.765625-34.28125-30-38.734375v-41.265625c0-77.195312-62.804688-140-140-140-77.191406 0-139.996094 62.804688-139.996094 140v41.265625c-17.234375 4.453125-30 20.132813-30 38.734375 0 22.058594 17.941406 40.003906 40 40.003906h.40625c1.753906 22.375 9.335938 43.734375 21.613281 62.085938-60.347656 36.351562-98.449219 99.90625-101.777343 169.90625h-7.277344c-5.519532 0-10 4.476562-10 10 0 5.519531 4.480468 10 10 10h16.9375c.03125 0 .0625.003906.097656.003906.03125 0 .0625-.003906.097656-.003906h59.804688c.035156 0 .066406.003906.097656.003906s.066406-.003906.097656-.003906h279.808594c.03125 0 .0625.003906.09375.003906.035156 0 .066406-.003906.097656-.003906h59.808594c.03125 0 .0625.003906.097656.003906.03125 0 .0625-.003906.097656-.003906h16.933594c5.523438 0 10-4.480469 10-10-.003906-5.523438-4.480468-10-10.003906-10zm-67.03125-106.394532c23.523438 30.207032 37.671875 67.164063 39.734375 106.394532h-39.734375zm-20-21.910156v128.304688h-120v-72.71875c30.65625-4.40625 54.949219-28.746094 59.289062-59.421875 9.761719-6.191407 18.546876-13.582031 26.203126-21.910157 12.589843 7.363282 24.136718 16.015626 34.507812 25.746094zm-180-13.6875v-40.175781c0-5.417969 4.40625-9.828125 9.824219-9.828125h80.347656c5.417969 0 9.824219 4.410156 9.824219 9.828125v40.175781c0 27.570313-22.429688 50-49.996094 50h-.003906c-27.566406 0-49.996094-22.429687-49.996094-50zm199.996094-130.003906c0 11.027344-8.96875 20-19.996094 20.003906v-40.003906c11.027344.003906 19.996094 8.972656 19.996094 20zm-269.996094-80c0-66.167969 53.828125-120 119.996094-120 66.167968 0 120 53.832031 120 120v40c-14.253906 0-28.117188-17.28125-34.492188-43-.734375-2.957031-2.777344-5.417969-5.550781-6.6875-2.773437-1.265625-5.972656-1.199219-8.6875.183594-22.203125 11.285156-46.179687 17.007812-71.265625 17.007812-25.082031 0-49.0625-5.722656-71.269531-17.011718-2.71875-1.382813-5.917969-1.449219-8.6875-.179688-2.773438 1.265625-4.816407 3.730469-5.550781 6.6875-6.378907 25.71875-20.238282 43-34.492188 43zm-30.003906 80c0-11.027344 8.972656-20 20.003906-20v40.003906c-11.03125 0-20.003906-8.972656-20.003906-20.003906zm40.003906-21.351562c17.117188-4.667969 31.917969-21.179688 40.449219-45.285157 21.957031 9.390625 45.300781 14.140625 69.550781 14.140625s47.59375-4.75 69.542969-14.140625c8.535156 24.105469 23.335937 40.617188 40.457031 45.285157v51.355468c0 32.835938-14.976562 63.886719-40.003906 84.660156v-24.835937c0-16.445313-13.378906-29.828125-29.824219-29.828125h-80.347656c-16.445313 0-29.824219 13.382812-29.824219 29.828125v24.835937c-25.027344-20.777343-40-51.824218-40-84.660156zm40.707031 161.203124c4.339844 30.679688 28.632813 55.019532 59.292969 59.425782v72.71875h-120.003906v-128.304688c10.371094-9.730468 21.917968-18.386718 34.507812-25.746094 7.660156 8.328126 16.441406 15.714844 26.203125 21.90625zm-80.710937 25.75v106.394532h-39.734375c2.066406-39.230469 16.210937-76.1875 39.734375-106.394532zm0 0"/><path d="m10.234375 491.996094h-.234375c-5.523438 0-10 4.476562-10 10 0 5.519531 4.476562 10 10 10h.234375c5.523437 0 10-4.480469 10-10 0-5.523438-4.476563-10-10-10zm0 0"/><path d="m502 491.996094h-.238281c-5.519531 0-10 4.476562-10 10 0 5.519531 4.480469 10 10 10h.238281c5.519531 0 10-4.480469 10-10 0-5.523438-4.476562-10-10-10zm0 0"/><path d="m306 237.503906c-6.886719 0-12.5 5.613282-12.5 12.5 0 6.882813 5.613281 12.5 12.5 12.5 6.882812 0 12.5-5.617187 12.5-12.5 0-6.886718-5.617188-12.5-12.5-12.5zm0 0"/><path d="m206 237.503906c-6.886719 0-12.5 5.613282-12.5 12.5 0 6.882813 5.613281 12.5 12.5 12.5 6.882812 0 12.5-5.617187 12.5-12.5 0-6.886718-5.617188-12.5-12.5-12.5zm0 0"/><path d="m191 224.023438c4.550781-2.632813 9.738281-4.019532 15-4.019532 5.257812 0 10.441406 1.386719 14.996094 4.019532 1.574218.910156 3.296875 1.339843 4.992187 1.339843 3.453125 0 6.816407-1.792969 8.667969-5 2.761719-4.78125 1.125-10.898437-3.65625-13.660156-7.59375-4.382813-16.238281-6.699219-25-6.699219-8.769531 0-17.414062 2.316406-25.003906 6.699219-4.78125 2.761719-6.421875 8.878906-3.660156 13.660156 2.761718 4.78125 8.875 6.417969 13.664062 3.660157zm0 0"/><path d="m286.011719 225.363281c1.695312 0 3.414062-.429687 4.988281-1.339843 4.554688-2.632813 9.738281-4.019532 15-4.019532 5.253906 0 10.441406 1.390625 15 4.019532 4.78125 2.757812 10.898438 1.121093 13.660156-3.664063 2.761719-4.78125 1.121094-10.894531-3.664062-13.65625-7.589844-4.386719-16.234375-6.699219-24.996094-6.699219-8.769531 0-17.414062 2.3125-25.003906 6.699219-4.78125 2.761719-6.417969 8.878906-3.65625 13.660156 1.855468 3.207031 5.214844 5 8.671875 5zm0 0"/><path d="m231 340.003906c7.585938 4.382813 16.230469 6.703125 25 6.703125 8.765625 0 17.410156-2.320312 25-6.703125 4.78125-2.761718 6.417969-8.878906 3.65625-13.660156s-8.878906-6.421875-13.660156-3.65625c-4.550782 2.628906-9.734375 4.019531-14.996094 4.019531s-10.445312-1.390625-14.996094-4.019531c-4.785156-2.765625-10.898437-1.125-13.664062 3.65625-2.761719 4.78125-1.125 10.898438 3.660156 13.660156zm0 0"/><path d="m183.132812 107.675781c11.4375 9.308594 25.1875 15.351563 39.769532 17.476563.488281.070312.976562.105468 1.457031.105468 4.882813 0 9.15625-3.582031 9.882813-8.558593.796874-5.464844-2.988282-10.539063-8.453126-11.335938-11.011718-1.605469-21.394531-6.171875-30.035156-13.199219-4.28125-3.484374-10.582031-2.839843-14.066406 1.445313s-2.839844 10.582031 1.445312 14.066406zm0 0"/><path d="m253.140625 123.59375c.703125 0 1.414063-.070312 2.125-.226562.253906-.054688.5-.117188.738281-.183594 5.308594-1.519532 8.386719-7.054688 6.867188-12.363282-1.488282-5.222656-6.859375-8.277343-12.09375-6.941406-5.246094 1.277344-8.550782 6.519532-7.398438 11.828125 1.011719 4.6875 5.15625 7.886719 9.761719 7.886719zm0 0"/><path d="m156 472.003906h30.035156c5.519532 0 10-4.480468 10-10 0-5.523437-4.480468-10-10-10h-30.035156c-5.523438 0-10 4.476563-10 10 0 5.519532 4.476562 10 10 10zm0 0"/><path d="m215.121094 472.003906h.472656c5.519531 0 10-4.480468 10-10 0-5.523437-4.480469-10-10-10h-.472656c-5.523438 0-10 4.476563-10 10 0 5.519532 4.476562 10 10 10zm0 0"/><path d="m285.558594 452.003906h-.472656c-5.523438 0-10 4.476563-10 10 0 5.519532 4.476562 10 10 10h.472656c5.519531 0 10-4.480468 10-10 0-5.527344-4.480469-10-10-10zm0 0"/></g></svg>