<svg height="512pt" viewBox="0 0 512 512" width="512pt" xmlns="http://www.w3.org/2000/svg"><path d="m168.335938 110h36.730468c3.234375-35.144531 12.324219-64.820312 24.613282-82.5-30.429688 17.664062-53.03125 47.316406-61.34375 82.5zm0 0" fill="#45ba88" fill-rule="evenodd"/><path d="m256 10c-24.863281 0-45.667969 42.75-50.933594 100h101.867188c-5.261719-57.25-26.070313-100-50.933594-100zm0 0" fill="#45ba88" fill-rule="evenodd"/><path d="m256 10c24.863281 0 45.671875 42.75 50.933594 100h69.066406c2.382812 0 4.667969.425781 6.792969 1.199219-13.105469-57.941407-64.894531-101.199219-126.792969-101.199219zm0 0" fill="#45ba88" fill-rule="evenodd"/><path d="m396 170.003906v-40.003906c0-8.617188-5.523438-16.011719-13.207031-18.804688-2.125-.769531-4.410157-1.195312-6.792969-1.195312h-185.957031c-2.378907 0-4.667969.425781-6.789063 1.195312-7.683594 2.792969-13.210937 10.1875-13.210937 18.804688v40.003906c0 10.996094 9 20 20 20h185.957031c11 0 20-9.003906 20-20zm0 0" fill="#45ba88" fill-rule="evenodd"/><path d="m183.855469 190.003906-.003907 60c0 19.445313 4.691407 37.847656 12.996094 54.136719 2.460938-8.152344 10.050782-14.136719 18.980469-14.136719h80.347656c10.902344 0 19.824219 8.921875 19.824219 19.828125v40.171875c0 1.304688-.039062 2.601563-.128906 3.886719 12.8125-7.433594 24.144531-17.167969 33.414062-28.621094v-.015625c5.273438-6.515625 9.882813-13.589844 13.71875-21.117187 8.304688-16.285157 12.996094-34.6875 12.996094-54.132813v-60zm0 0" fill="#fcd0ac"/><g fill-rule="evenodd"><path d="m136 247.007812v-54.007812c-10.011719 4.859375-16.917969 15.125-16.917969 27.003906s6.90625 22.140625 16.917969 27.003906zm0 0" fill="#fcd0ac"/><path d="m376 190.003906v60h10c16.570312 0 30-13.433594 30-30 0-16.570312-13.429688-30-30-30zm0 0" fill="#fcd0ac"/><path d="m235.410156 309.832031v40.171875c0 1.304688.042969 2.601563.128906 3.886719 1.199219 18.601563 10.976563 34.960937 25.390626 45.144531 4.511718 3.183594 9.476562 5.757813 14.773437 7.613282 5.296875-1.855469 10.265625-4.429688 14.773437-7.613282 14.417969-10.183594 24.195313-26.542968 25.394532-45.144531.089844-1.285156.132812-2.582031.132812-3.886719v-40.171875c0-10.90625-8.925781-19.828125-19.828125-19.828125h-40.941406c-10.902344 0-19.824219 8.921875-19.824219 19.828125zm0 0" fill="#ff5a5a"/><path d="m185.105469 414.28125 36.417969-15.25c-14.414063-10.179688-24.195313-26.542969-25.394532-45.140625-3.398437-1.972656-6.6875-4.117187-9.867187-6.402344zm0 0" fill="#5f5148"/><path d="m315.871094 353.890625c-1.199219 18.601563-10.980469 34.960937-25.394532 45.144531l60.527344 25.34375-1.71875-99.109375c-9.269531 11.453125-20.601562 21.1875-33.414062 28.621094zm0 0" fill="#5f5148"/><path d="m351.003906 424.378906-60.527344-25.34375c-9.769531 6.902344-21.671874 10.964844-34.476562 10.964844l.003906 91.992188 139.996094.007812v-142.476562c-13.785156-13.546876-29.511719-25.128907-46.714844-34.253907zm0 0" fill="#bdbcbc"/><path d="m396 359.523438v142.476562h60c0-55.628906-23.019531-106.136719-60-142.476562zm0 0" fill="#bdbcbc"/><path d="m256 410c-3.875 0-7.667969-.375-11.34375-1.085938l-18.265625-6.226562-18.328125 1.980469-45.335938 18.984375v78.34375l93.277344-.003906zm0 0" fill="#bdbcbc"/><path d="m84.710938 502h31.289062v-107.042969c-19.789062 31-31.289062 67.738281-31.289062 107.042969zm0 0" fill="#bdbcbc"/></g><path d="m187.78125 140h-.476562c-5.523438 0-10 4.476562-10 10s4.476562 10 10 10h.476562c5.523438 0 10-4.476562 10-10s-4.476562-10-10-10zm0 0" fill="#000001"/><path d="m271.003906 322.6875c-4.558594 2.628906-9.746094 4.019531-15.003906 4.019531-5.253906 0-10.441406-1.390625-15.003906-4.023437-4.78125-2.757813-10.898438-1.117188-13.65625 3.667968-2.761719 4.785157-1.117188 10.898438 3.667968 13.660157 7.59375 4.378906 16.238282 6.695312 24.992188 6.695312 8.757812 0 17.402344-2.316406 24.996094-6.695312 4.785156-2.761719 6.425781-8.875 3.667968-13.660157-2.761718-4.785156-8.878906-6.425781-13.660156-3.664062zm0 0" fill="#000001"/><path d="m473.035156 491.992188h-7.273437c-3.332031-70-41.433594-133.554688-101.78125-169.902344 12.28125-18.351563 19.859375-39.710938 21.613281-62.085938h.40625c22.054688 0 40-17.945312 40-40 0-16.097656-9.5625-29.996094-23.304688-36.335937 2.109376-4.101563 3.304688-8.746094 3.304688-13.664063v-40.003906c0-10.925781-5.871094-20.5-14.621094-25.746094-7.550781-28.597656-24.246094-54.429687-47.398437-73.15625-24.789063-20.050781-56.035157-31.097656-87.980469-31.097656s-63.191406 11.046875-87.980469 31.097656c-23.152343 18.726563-39.847656 44.558594-47.398437 73.15625-8.75 5.246094-14.621094 14.820313-14.621094 25.746094v40.003906c0 4.917969 1.195312 9.5625 3.304688 13.664063-13.742188 6.339843-23.304688 20.238281-23.304688 36.335937 0 22.054688 17.945312 40 40 40h.40625c1.753906 22.375 9.335938 43.734375 21.613281 62.085938-60.351562 36.347656-98.449219 99.898437-101.777343 169.902344h-7.277344c-5.523438 0-10 4.480468-10 10 0 5.523437 4.476562 10 10 10h16.9375c.03125 0 .0625.007812.097656.007812.03125 0 .0625-.007812.09375-.007812h59.808594c.03125 0 .0625.007812.097656.007812.03125 0 .0625-.007812.09375-.007812h279.8125c.03125 0 .0625.007812.097656.007812.03125 0 .0625-.007812.097656-.007812h59.804688c.035156 0 .066406.007812.097656.007812s.0625-.007812.097656-.007812h16.9375c5.523438 0 10-4.476563 10-10-.003906-5.519532-4.480468-10-10.003906-10zm-347.035156-128.304688c8.105469-7.605469 16.925781-14.550781 26.402344-20.738281l-1.40625 81.253906c-.058594 3.378906 1.589844 6.554687 4.386718 8.453125 1.679688 1.136719 3.640626 1.722656 5.613282 1.722656 1.304687 0 2.617187-.257812 3.859375-.777344l55.648437-23.304687c7.683594 4.542969 16.304688 7.65625 25.496094 8.980469l.003906 72.714844h-120.003906zm60.707031-3.832031c1.933594 13.664062 7.828125 26.0625 16.480469 36.011719l-31.929688 13.371093 1.039063-59.980469c4.527344 3.832032 9.335937 7.378907 14.410156 10.597657zm152.992188-10.59375 1.042969 59.976562-31.929688-13.367187c8.652344-9.949219 14.546875-22.351563 16.480469-36.015625 5.074219-3.21875 9.882812-6.765625 14.40625-10.59375zm-33.699219.742187c0 16.652344-8.191406 31.417969-20.746094 40.511719-.40625.246094-.796875.523437-1.167968.828125-8.011719 5.460938-17.679688 8.65625-28.085938 8.65625-10.410156 0-20.089844-3.203125-28.105469-8.667969-.355469-.296875-.734375-.5625-1.128906-.804687-12.566406-9.089844-20.765625-23.863282-20.765625-40.523438v-40.171875c0-5.421875 4.410156-9.828125 9.828125-9.828125h80.347656c5.417969 0 9.824219 4.40625 9.824219 9.828125zm-40 69.273438c9.195312-1.324219 17.8125-4.4375 25.496094-8.976563l55.644531 23.300781c1.242187.519532 2.554687.777344 3.863281.777344 1.972656 0 3.929688-.585937 5.613282-1.722656 2.792968-1.898438 4.441406-5.074219 4.386718-8.453125l-1.410156-81.257813c9.480469 6.1875 18.300781 13.136719 26.40625 20.738282v128.308594h-119.996094zm140-33.675782c23.527344 30.203126 37.671875 67.160157 39.738281 106.390626h-39.738281zm-269.996094-205.597656c-.003906 0 0 0 0 0h-.003906c-5.515625 0-10-4.488281-10-10v-10.003906h32.21875c5.523438 0 10-4.476562 10-10s-4.476562-10-10-10h-32.21875v-10c0-5.511719 4.484375-10 10-10h170.902344c.007812 0 .015625.003906.019531.003906.007813 0 .015625-.003906.023437-.003906h69.054688c5.515625 0 10 4.488281 10 10v40.003906c0 5.511719-4.484375 10-10 10zm119.996094-160.003906c7.824219 0 16.53125 8.390625 23.882812 23.019531 7.382813 14.691407 12.902344 34.636719 15.863282 56.980469h-79.492188c2.960938-22.34375 8.484375-42.289062 15.863282-56.980469 7.355468-14.628906 16.058593-23.019531 23.882812-23.019531zm130 220.003906v-40c11.027344 0 20 8.972656 20 20s-8.972656 20-20 20zm-16.828125-140.003906h-53.269531c-3.160156-25.585938-9.503906-48.753906-18.148438-65.957031-1.503906-2.992188-3.035156-5.722657-4.582031-8.234375 35.199219 11.316406 63.484375 38.402344 76 74.191406zm-150.34375-74.1875c-1.546875 2.507812-3.078125 5.238281-4.582031 8.230469-8.644532 17.203125-14.988282 40.371093-18.148438 65.957031h-53.269531c12.515625-35.789062 40.800781-62.875 76-74.1875zm-112.828125 194.191406c0-11.027344 8.972656-20 20-20v40c-11.027344 0-20-8.972656-20-20zm40-20h220v50c0 32.835938-14.972656 63.886719-40 84.660156v-24.832031c0-16.449219-13.378906-29.828125-29.824219-29.828125h-80.347656c-16.445313 0-29.828125 13.378906-29.828125 29.828125v24.832031c-25.023438-20.773437-40-51.824218-40-84.660156zm-40 185.597656v106.390626h-39.738281c2.066406-39.230469 16.210937-76.1875 39.738281-106.390626zm0 0" fill="#000001"/><path d="m502 491.992188h-.234375c-5.523437 0-10 4.480468-10 10 0 5.523437 4.476563 10 10 10h.234375c5.523438 0 10-4.476563 10-10 0-5.519532-4.476562-10-10-10zm0 0" fill="#000001"/><path d="m10.234375 491.992188h-.234375c-5.523438 0-10 4.480468-10 10 0 5.523437 4.476562 10 10 10h.234375c5.519531 0 10-4.476563 10-10 0-5.519532-4.476563-10-10-10zm0 0" fill="#000001"/><path d="m291.851562 439.855469h-.234374c-5.523438 0-10 4.476562-10 10 0 5.519531 4.476562 10 10 10h.234374c5.523438 0 10-4.480469 10-10 0-5.523438-4.476562-10-10-10zm0 0" fill="#000001"/><path d="m186 245.363281h10.007812c.113282 5.425781 4.539063 9.792969 9.992188 9.792969s9.878906-4.367188 9.988281-9.792969h10.007813c5.523437 0 10-4.476562 10-10 0-5.523437-4.476563-10-10-10h-39.996094c-5.523438 0-10 4.476563-10 10 0 5.523438 4.476562 10 10 10zm0 0" fill="#000001"/><path d="m286.003906 245.363281h10.007813c.109375 5.425781 4.535156 9.792969 9.988281 9.792969s9.878906-4.367188 9.992188-9.792969h10.007812c5.523438 0 10-4.476562 10-10 0-5.523437-4.476562-10-10-10h-39.996094c-5.523437 0-10 4.476563-10 10 0 5.523438 4.476563 10 10 10zm0 0" fill="#000001"/></svg>