<svg height="512pt" viewBox="0 0 512 512" width="512pt" xmlns="http://www.w3.org/2000/svg"><path d="m292.453125 14.175781c-53.011719 12.351563-95.894531 51.0625-114.097656 101.5625 24.433593-2.207031 50.566406-3.40625 77.726562-3.40625 12.386719 0 24.558594.25 36.453125.730469 11.894532-.480469 24.0625-.730469 36.449219-.730469 27.101563 0 53.175781 1.191407 77.554687 3.390625-18.203124-50.492187-61.082031-89.195312-114.085937-101.546875zm0 0" fill="#7aeae7" fill-rule="evenodd"/><path d="m410.167969 127.082031c-29.226563-6.402343-63.949219-11.011719-101.933594-13.242187-38.058594 2.234375-72.839844 6.859375-102.101563 13.269531-55.902343 12.25-91.660156 31.019531-91.660156 52.054687 0 .285157.027344.570313.042969.855469 7.09375-2.777343 14.257813-5.347656 21.488281-7.695312 38.695313-12.570313 79.214844-19.011719 120.078125-19.011719 17.488281 0 34.90625 1.191406 52.152344 3.523438 22.996094 3.117187 45.679687 8.277343 67.765625 15.441406 13.578125 4.402344 26.929688 9.558594 40 15.457031l-.003906 42.199219c53.785156-12.511719 85.058594-30.707032 85.960937-49.914063.011719-.285156.042969-.570312.042969-.855469 0-21.058593-35.832031-39.839843-91.832031-52.082031zm0 0" fill="#0586ad"/><path d="m136.003906 172.277344c-4.960937 1.996094-9.882812 4.101562-14.761718 6.308594l.003906 68.136718-.003906 49.34375c0 22.09375-25.332032 71.121094-47.425782 71.121094 10.304688 10.730469 10.015625 10.160156 21.636719 15.933594 6.238281-8.386719 13.101563-16.28125 20.546875-23.597656 9.183594-9.023438 19.230469-17.179688 30-24.316407 5.394531-3.582031 10.96875-6.898437 16.707031-9.949219-16.6875-20.621093-26.703125-46.824218-26.703125-75.253906zm0 0" fill="#bdbcbc" fill-rule="evenodd"/><path d="m376 250c0 28.433594-10.019531 54.636719-26.714844 75.253906 5.742188 3.050782 11.320313 6.375 16.714844 9.953125 10.769531 7.140625 20.816406 15.292969 30 24.316407 8.996094 8.84375 17.167969 18.523437 24.386719 28.90625 22.351562-15.949219 35.621093-41.726563 35.621093-69.183594-22.097656 0-40.007812-17.910156-40.007812-40.007813l-.003906-49.308593.003906-42.195313c-13.070312-5.898437-26.421875-11.054687-40-15.457031zm0 0" fill="#bdbcbc" fill-rule="evenodd"/><path d="m207.589844 156.367188c-3.207032.953124-6.40625 1.929687-9.585938 2.960937v77.671875c0 28.433594 10.019532 54.636719 26.707032 75.253906 20.582031 25.445313 51.3125 42.378906 85.886718 44.507813 14.984375-7.71875 28.167969-18.496094 38.6875-31.507813 16.691406-20.617187 26.714844-46.820312 26.714844-75.253906v-77.722656c-38.648438-12.539063-79.109375-18.964844-119.917969-18.964844-16.25 0-32.445312 1.035156-48.492187 3.054688zm0 0" fill="#c99e81" fill-rule="evenodd"/><path d="m349.292969 325.257812c-16.460938 20.34375-39.40625 35.246094-65.613281 41.492188-8.894532 2.121094-18.160157 3.246094-27.675782 3.246094-19.652344 0-38.234375-4.792969-54.648437-13.257813v15.976563c0 41.355468 35.105469 76.375 82.324219 86.402344 47.214843-10.027344 82.320312-45.046876 82.320312-86.402344v-37.507813c-5.394531-3.578125-10.972656-6.902343-16.707031-9.949219zm0 0" fill="#c99e81"/><path d="m94.164062 502h21.835938v-90.574219c-13.949219 27.230469-21.835938 58.023438-21.835938 90.574219zm0 0" fill="#c99e81" fill-rule="evenodd"/><path d="m396 359.523438v142.476562h60c0-42.097656-13.179688-81.253906-35.613281-113.570312-7.21875-10.382813-15.390625-20.0625-24.386719-28.90625zm0 0" fill="#c99e81" fill-rule="evenodd"/><path d="m366 335.207031v37.507813c0 41.992187-36.195312 77.449218-84.507812 86.84375-8.1875 1.59375-16.722657 2.441406-25.492188 2.441406-36.492188 0-68.976562-14.621094-89.015625-36.996094v76.996094h229.015625v-142.476562c-9.183594-9.023438-19.234375-17.175782-30-24.316407zm0 0" fill="#7aeae7"/><g fill="#000001"><path d="m306 237.496094c-6.886719 0-12.5 5.621094-12.5 12.503906 0 6.886719 5.613281 12.5 12.5 12.5s12.5-5.613281 12.5-12.5c0-6.882812-5.613281-12.503906-12.5-12.503906zm0 0"/><path d="m206 237.496094c-6.886719 0-12.5 5.621094-12.5 12.503906 0 6.886719 5.613281 12.5 12.5 12.5 6.882812 0 12.5-5.613281 12.5-12.5 0-6.882812-5.617188-12.503906-12.5-12.503906zm0 0"/><path d="m198.242188 221.023438c5.058593-1.359376 10.453124-1.359376 15.511718 0 .871094.234374 1.742188.347656 2.601563.347656 4.414062 0 8.449219-2.945313 9.652343-7.410156 1.433594-5.332032-1.730468-10.816407-7.0625-12.25-8.441406-2.269532-17.449218-2.269532-25.894531 0-5.335937 1.433593-8.496093 6.917968-7.0625 12.25 1.433594 5.335937 6.921875 8.496093 12.253907 7.0625zm0 0"/><path d="m295.640625 221.371094c.859375-.003906 1.730469-.113282 2.601563-.347656 5.054687-1.359376 10.453124-1.359376 15.515624 0 5.332032 1.433593 10.816407-1.726563 12.25-7.0625 1.433594-5.332032-1.726562-10.816407-7.058593-12.25-8.445313-2.273438-17.457031-2.273438-25.898438 0-5.332031 1.433593-8.496093 6.917968-7.0625 12.25 1.203125 4.464843 5.238281 7.410156 9.652344 7.410156zm0 0"/><path d="m231 312.328125c7.585938 4.382813 16.230469 6.699219 25 6.699219 8.765625 0 17.410156-2.316406 25-6.699219 4.78125-2.761719 6.421875-8.878906 3.660156-13.660156-2.761718-4.785157-8.878906-6.417969-13.660156-3.660157-4.554688 2.628907-9.738281 4.019532-15 4.019532s-10.449219-1.390625-15-4.019532c-4.785156-2.761718-10.898438-1.121093-13.660156 3.660157-2.761719 4.78125-1.125 10.898437 3.660156 13.660156zm0 0"/><path d="m283.699219 74.226562c1.121093 4.558594 5.203125 7.613282 9.703125 7.613282.789062 0 1.589844-.09375 2.394531-.292969 5.335937-1.3125 8.609375-6.679687 7.34375-12.015625-.039063-.160156-.074219-.316406-.113281-.460938-1.433594-5.332031-6.921875-8.488281-12.253906-7.0625-5.261719 1.414063-8.414063 6.777344-7.117188 12.042969.011719.0625.03125.136719.042969.175781zm0 0"/><path d="m10.234375 491.992188h-.234375c-5.523438 0-10 4.480468-10 10 0 5.523437 4.476562 10 10 10h.234375c5.523437 0 10-4.476563 10-10 0-5.519532-4.476563-10-10-10zm0 0"/><path d="m502 491.992188h-.238281c-5.523438 0-10 4.480468-10 10 0 5.523437 4.476562 10 10 10h.238281c5.523438 0 10-4.476563 10-10 0-5.519532-4.476562-10-10-10zm0 0"/><path d="m473.03125 491.992188h-7.273438c-1.742187-36.582032-12.976562-71.40625-31.925781-101.503907 20.296875-17.917969 32.175781-43.886719 32.175781-71.238281 0-5.523438-4.480468-10-10-10-16.546874 0-30.007812-13.460938-30.007812-30.007812v-41.445313c40.933594-10.335937 86-28.550781 86-58.632813 0-23.113281-27.457031-42.792968-79.40625-56.910156-4.6875-1.273437-9.539062-2.488281-14.523438-3.648437-10.410156-32.773438-30.960937-62.179688-58.351562-83.300781-29.945312-23.097657-65.808594-35.304688-103.714844-35.304688-37.914062 0-73.785156 12.210938-103.734375 35.3125-27.394531 21.132812-47.945312 50.550781-58.347656 83.335938-4.925781 1.144531-9.714844 2.347656-14.351563 3.605468-51.949218 14.117188-79.40625 33.796875-79.40625 56.910156 0 30.050782 44.980469 48.257813 85.839844 58.59375v41.484376c0 16.546874-13.460937 30.007812-30.007812 30.007812-5.519532 0-10 4.476562-10 10 0 27.347656 11.878906 53.320312 32.171875 71.234375-18.949219 30.101563-30.1875 64.925781-31.925781 101.507813h-7.273438c-5.523438 0-10 4.480468-10 10 0 5.523437 4.476562 10 10 10h16.933594c.03125 0 .0625.007812.097656.007812.03125 0 .0625-.007812.097656-.007812h59.808594c.03125 0 .0625.007812.09375.007812.035156 0 .066406-.007812.097656-.007812h279.808594c.03125 0 .0625.007812.097656.007812.03125 0 .0625-.007812.09375-.007812h59.808594c.03125 0 .0625.007812.097656.007812.03125 0 .0625-.007812.09375-.007812h16.9375c5.523438 0 10-4.476563 10-10-.003906-5.519532-4.480468-10-10.003906-10zm-347.03125-128.304688c3.222656-3.019531 6.554688-5.9375 10-8.746094v17.773438c0 54.746094 53.832031 99.285156 120 99.285156s120-44.539062 120-99.285156v-17.773438c3.445312 2.808594 6.777344 5.726563 10 8.75v128.304688h-260zm20.003906-184.058594c35.550782-10.835937 72.40625-16.316406 110.078125-16.316406 37.613281 0 74.414063 5.460938 109.917969 16.269531v70.421875c0 25.652344-8.828125 49.28125-23.605469 68.015625-.609375.578125-1.148437 1.238281-1.605469 1.980469-20.191406 24.414062-50.703124 39.996094-84.789062 39.996094-34.097656 0-64.617188-15.589844-84.808594-40.019532-.449218-.722656-.972656-1.375-1.5625-1.941406-14.789062-18.730468-23.625-42.371094-23.625-68.03125zm109.996094 251.261719c-5.523438 0-10 4.480469-10 10v10.714844c-23.195312-1.835938-44.699219-10.050781-61.386719-23.59375-18.449219-14.980469-28.613281-34.617188-28.613281-55.296875v-32.0625c1.453125-.902344 2.925781-1.785156 4.40625-2.652344 23.773438 25.804688 57.828125 41.996094 95.597656 41.996094 37.765625 0 71.816406-16.191406 95.589844-41.996094 1.480469.871094 2.953125 1.75 4.40625 2.652344v32.0625c0 20.679687-10.164062 40.316406-28.617188 55.296875-16.683593 13.542969-38.1875 21.757812-61.382812 23.59375v-10.714844c0-5.519531-4.476562-10-10-10zm150-45.289063c1.921875 2.472657 3.78125 4.984376 5.574219 7.539063.199219.371094.417969.742187.671875 1.097656.183594.261719.390625.5.597656.738281 19.414062 28.335938 31.035156 61.753907 32.890625 97.015626h-39.734375zm39.472656-57.480468c-2.097656 17.515625-10.339844 33.785156-23.1875 45.839844-15.769531-20.40625-35.394531-38.046876-58.203125-51.804688 13.839844-20.65625 21.917969-45.480469 21.917969-72.15625v-63.714844c6.71875 2.460938 13.386719 5.117188 20 7.972656v35.898438.042969 49.042969c0 23.960937 16.941406 44.03125 39.472656 48.878906zm-189.46875-308.121094c4.660156 0 12.5625 8.410156 19.714844 27.207031 1.515625 3.992188 5.316406 6.445313 9.347656 6.445313 1.183594 0 2.382813-.210938 3.554688-.65625 5.160156-1.964844 7.753906-7.738282 5.789062-12.898438-2.429687-6.394531-5.023437-12.023437-7.777344-16.894531 48.605469 10.199219 89.722657 44.152344 108.5 90.652344-7.511718-1.378907-15.265624-2.636719-23.230468-3.777344-.480469-.070313-.96875-.136719-1.453125-.207031-1.949219-.273438-3.90625-.542969-5.875-.800782-.871094-.117187-1.742188-.230468-2.617188-.34375-1.8125-.230468-3.636719-.457031-5.46875-.675781-1.363281-.164062-2.738281-.324219-4.109375-.480469-.753906-.085937-1.507812-.167968-2.261718-.253906-14.441407-1.605468-29.40625-2.832031-44.773438-3.664062-.113281-.007813-.222656-.011719-.332031-.019532-1.8125-.097656-3.628907-.1875-5.453125-.273437-.636719-.03125-1.28125-.058594-1.917969-.085937-2.648437-.121094-5.304687-.230469-7.972656-.328126-1.222657-.042968-2.445313-.085937-3.675781-.128906-1.273438-.039062-2.550782-.078125-3.832032-.113281-1.882812-.054687-3.769531-.101563-5.664062-.140625-.929688-.023438-1.863282-.042969-2.800782-.0625-2.339843-.042969-4.6875-.078125-7.039062-.101562-.777344-.011719-1.558594-.019532-2.335938-.023438-2.738281-.023438-5.484374-.042969-8.234374-.042969-2.757813 0-5.503907.019531-8.246094.042969-.785156.007812-1.566406.015625-2.351563.023438-2.332031.023437-4.664062.058593-6.984375.101562-1.015625.019531-2.027344.042969-3.039062.066406-1.8125.039063-3.617188.085938-5.421875.136719-1.328125.035156-2.652344.074219-3.976563.117187-1.109375.035157-2.214844.078126-3.320312.117188-2.890625.105469-5.769532.222656-8.632813.351562-.460937.023438-.921875.042969-1.378906.0625-17.753906.84375-35 2.203126-51.550781 4.0625-.3125.035157-.628906.070313-.941406.105469-1.675782.191407-3.34375.382813-5 .582031-.765626.09375-1.519532.191407-2.28125.285157-2.125.265625-4.238282.535156-6.339844.816406-1.492188.195313-2.976563.398437-4.453125.605469-.796875.109375-1.589844.222656-2.382813.339844-2.410156.34375-4.800781.699218-7.167968 1.070312-.023438 0-.046876.003906-.070313.011719-5.335937.832031-10.566406 1.71875-15.6875 2.65625 22.609375-56.027344 77.636719-93.886719 139.144531-93.886719zm-235.839844 159.164062c0-9.242187 16.933594-24.640624 64.652344-37.609374 6.058594-1.644532 12.394532-3.191407 18.96875-4.640626.058594-.011718.121094-.015624.183594-.027343 38.769531-8.5 86.738281-13.542969 136.515625-14.417969.09375 0 .1875-.003906.28125-.003906 1.515625-.023438 3.03125-.046875 4.546875-.066406.714844-.007813 1.429688-.015626 2.140625-.019532 1.035156-.011718 2.070313-.019531 3.105469-.027344 1.839844-.011718 3.679687-.019531 5.527344-.019531 1.84375 0 3.683593.007813 5.523437.019531 1.03125.007813 2.0625.015626 3.089844.027344.714843.007813 1.429687.011719 2.140625.019532 1.535156.019531 3.066406.042968 4.597656.066406.066406 0 .128906.003906.195312.003906 49.703126.871094 97.632813 5.902344 136.398438 14.382812.058594.011719.113281.015626.171875.023438 6.636719 1.460938 13.03125 3.019531 19.148437 4.679688 47.71875 12.96875 64.648438 28.367187 64.648438 37.609374 0 10.460938-20.539062 25.777344-66 37.957032v-29.386719c0-.085937-.011719-.167969-.011719-.25-.007812-.21875-.015625-.433594-.035156-.648437-.011719-.140626-.03125-.28125-.050781-.425782-.023438-.171875-.046875-.347656-.078125-.519531-.035157-.171875-.074219-.339844-.113281-.507813-.035157-.140624-.066407-.277343-.109376-.414062-.050781-.183594-.109374-.363281-.175781-.542969-.042969-.125-.085937-.246093-.132812-.367187-.070313-.175782-.148438-.347656-.226563-.519532-.058594-.125-.113281-.25-.179687-.371093-.078125-.15625-.164063-.308594-.25-.457031-.078125-.136719-.160157-.269532-.246094-.398438-.082031-.128906-.167969-.253906-.257813-.378906-.101562-.144532-.207031-.289063-.316406-.425782-.085937-.105468-.171875-.207031-.257812-.308593-.125-.144531-.253906-.289063-.390625-.429688-.085938-.089843-.179688-.175781-.269531-.265625-.140626-.132812-.28125-.261718-.429688-.390625-.105469-.089843-.21875-.175781-.328125-.261719-.140625-.105468-.277344-.214843-.425781-.316406-.140625-.097656-.285156-.191406-.429688-.28125-.125-.078125-.246094-.15625-.375-.226562-.1875-.105469-.378906-.199219-.570312-.292969-.078125-.039063-.148438-.082031-.226563-.117187-.066406-.027344-.125-.054688-.191406-.082032-.015625-.007812-.03125-.015625-.046875-.023437-51.828125-23.355469-106.929688-35.199219-163.792969-35.199219-56.925781 0-112.085937 11.867188-163.953125 35.273438-.019531.007812-.035156.015624-.054687.023437-.0625.027344-.125.054687-.191407.082031-.074218.035156-.144531.078125-.21875.113282-.195312.09375-.386718.191406-.574218.296874-.128906.070313-.25.148438-.371094.226563-.144531.089844-.292969.183594-.4375.28125-.144531.101563-.28125.207031-.421875.316406-.109375.085938-.222656.171875-.328125.265625-.148438.125-.289062.253906-.425781.386719-.09375.085937-.1875.175781-.277344.269531-.132813.136719-.257813.28125-.382813.425782-.089843.101562-.175781.203124-.261718.308593-.109375.140625-.214844.28125-.316406.425781-.089844.125-.175782.25-.257813.378907-.085937.128906-.164063.265625-.242187.398437-.089844.148438-.175782.304688-.253907.457032-.0625.125-.121093.246093-.179687.367187-.078125.175781-.15625.347656-.226563.523437-.046875.121094-.089843.242188-.132812.367188-.0625.179688-.121094.359375-.175781.542969-.039063.136719-.074219.273437-.105469.414062-.042969.167969-.082031.335938-.113281.507813s-.054688.34375-.078126.519531c-.019531.144531-.039062.28125-.054687.429687-.019531.210938-.023437.425782-.03125.640626 0 .085937-.011719.167968-.011719.253906v29.269531c-45.347656-12.171875-65.839844-27.46875-65.839844-37.914063zm46.367188 148.957032c22.53125-4.847656 39.472656-24.917969 39.472656-48.878906v-49.050782c.003906-.050781 0-.097656 0-.144531v-35.71875c6.613282-2.859375 13.28125-5.519531 20-7.984375v63.65625c0 26.675781 8.078125 51.496094 21.914063 72.152344-22.804688 13.753906-42.433594 31.394531-58.203125 51.804687-12.84375-12.054687-21.089844-28.324219-23.183594-45.835937zm32.585938 66.90625c.222656-.25.441406-.511719.640624-.789063.261719-.363281.480469-.742187.6875-1.128906 1.789063-2.542969 3.640626-5.050781 5.554688-7.507813v106.390626h-39.738281c1.855469-35.238282 13.460937-68.640626 32.855469-96.964844zm0 0"/></g></svg>