<svg height="512pt" viewBox="0 0 512 512" width="512pt" xmlns="http://www.w3.org/2000/svg"><path d="m129.066406 121.523438v68.480468h11.9375c8.25 0 14.996094-6.75 14.996094-15v-68.480468c0-5.5625-3.074219-10.433594-7.601562-13.023438-11.273438 4.324219-19.332032 15.277344-19.332032 28.023438zm0 0" fill="#c99e81" fill-rule="evenodd"/><path d="m356.003906 106.523438v68.480468c0 8.25 6.746094 15 14.996094 15h15c16.566406 0 30 13.433594 30 30v-98.480468c0-16.5-13.496094-30-29.996094-30h-15.003906c-8.25 0-14.996094 6.75-14.996094 15zm0 0" fill="#c99e81" fill-rule="evenodd"/><path d="m386 190.003906h-15c-8.25 0-15-6.75-15-15v-68.480468c0-8.25 6.75-15 15-15h5.652344c-16.339844-40.632813-52.613282-71.09375-96.707032-79.308594-44.097656 8.214844-84.445312 38.285156-96.710937 79.308594-11.351563 37.960937-18.234375 181.976562 13.621094 212.574218 2.476562-8.128906 10.058593-14.09375 18.96875-14.09375h80.347656c10.90625 0 19.828125 8.925782 19.828125 19.828125v40.171875c0 1.308594-.042969 2.601563-.128906 3.886719 12.8125-7.433594 24.140625-17.160156 33.414062-28.621094v-.015625c5.285156-6.527344 9.898438-13.617187 13.742188-21.15625 8.289062-16.277344 12.96875-34.664062 12.96875-54.089844h10c16.570312 0 30-13.4375 30.003906-30.003906 0-16.566406-13.433594-30-30-30zm0 0" fill="#fcd0ac"/><path d="m238 309.832031v40.175781c0 1.304688.042969 2.597657.128906 3.882813 1.203125 18.601563 10.980469 34.960937 25.394532 45.144531 4.136718 2.925782 8.664062 5.335938 13.476562 7.148438 4.8125-1.8125 9.335938-4.222656 13.476562-7.148438 14.417969-10.183594 24.195313-26.542968 25.394532-45.144531.085937-1.285156.128906-2.578125.128906-3.882813v-40.175781c0-10.902343-8.921875-19.828125-19.824219-19.828125h-38.347656c-10.90625 0-19.828125 8.925782-19.828125 19.828125zm0 0" fill="#c99e81" fill-rule="evenodd"/><path d="m186.175781 413.835938 35.347657-14.800782c-14.414063-10.183594-24.191407-26.542968-25.394532-45.144531-3.027344-1.757813-5.960937-3.648437-8.816406-5.65625zm0 0" fill="#0586ad" fill-rule="evenodd"/><path d="m315.871094 353.890625c-1.199219 18.601563-10.976563 34.960937-25.394532 45.144531l60.527344 25.347656-1.71875-99.109374c-9.273437 11.457031-20.601562 21.183593-33.414062 28.617187zm0 0" fill="#0586ad" fill-rule="evenodd"/><path d="m351.003906 424.382812-60.523437-25.34375c-9.773438 6.898438-21.675781 10.96875-34.476563 10.96875v91.984376l139.996094.007812v-142.476562c-13.785156-13.546876-29.511719-25.121094-46.714844-34.253907zm0 0" fill="#f9d973" fill-rule="evenodd"/><path d="m302.503906 501.992188-.003906-91.984376c-12.804688 0-24.707031-4.070312-34.476562-10.972656l-23.53125 9.851563c3.726562.734375 7.574218 1.121093 11.507812 1.121093l.003906 91.984376-93.503906.003906v.003906zm0 0" fill="#f9d973"/><path d="m256 410.007812c-3.933594 0-7.78125-.386718-11.507812-1.121093-8.40625-1.648438-16.199219-5.070313-22.96875-9.851563l-13.691407 5.730469-45.332031 18.984375v78.246094l93.503906-.003906zm0 0" fill="#f9d973"/><path d="m88 502h28v-101.710938c-17.765625 29.847657-28 64.640626-28 101.710938zm0 0" fill="#f9d973" fill-rule="evenodd"/><path d="m396 359.523438v142.476562h60c0-55.628906-23.019531-106.132812-60-142.476562zm0 0" fill="#f9d973" fill-rule="evenodd"/><g fill="#000001"><path d="m217.492188 69.3125c1.492187 0 3.011718-.335938 4.4375-1.046875 11.003906-5.464844 23.308593-8.351563 35.585937-8.351563 5.523437 0 10-4.480468 10-10 0-5.523437-4.476563-10-10-10-15.347656 0-30.730469 3.609376-44.480469 10.4375-4.945312 2.457032-6.964844 8.457032-4.507812 13.40625 1.746094 3.515626 5.285156 5.554688 8.964844 5.554688zm0 0"/><path d="m193.890625 86.230469c2.578125 0 5.160156-.984375 7.121094-2.945313l.09375-.09375c3.90625-3.90625 3.875-10.207031-.03125-14.113281-3.902344-3.902344-10.269531-3.875-14.171875.03125l-.097656.097656c-3.90625 3.902344-3.875 10.203125.03125 14.109375 1.945312 1.941406 4.5 2.914063 7.054687 2.914063zm0 0"/><path d="m271 322.691406c-4.550781 2.628906-9.738281 4.015625-14.996094 4.015625-5.261718 0-10.449218-1.386719-15-4.015625-4.785156-2.761718-10.902344-1.125-13.660156 3.660156-2.761719 4.78125-1.125 10.894532 3.660156 13.65625 7.589844 4.382813 16.230469 6.699219 25 6.699219 8.765625 0 17.40625-2.316406 24.996094-6.699219 4.785156-2.761718 6.425781-8.875 3.660156-13.65625-2.761718-4.785156-8.875-6.421874-13.660156-3.660156zm0 0"/><path d="m10.238281 491.992188h-.238281c-5.523438 0-10 4.480468-10 10 0 5.523437 4.476562 10 10 10h.234375c5.523437 0 10-4.476563 10-10 .003906-5.519532-4.472656-10-9.996094-10zm0 0"/><path d="m473.03125 491.992188h-7.273438c-3.328124-69.996094-41.429687-133.546876-101.777343-169.898438 12.277343-18.355469 19.855469-39.714844 21.613281-62.085938h.40625c22.027344 0 39.953125-17.902343 39.996094-39.925781 0-.023437.003906-.050781.003906-.078125v-98.480468c0-22.058594-17.941406-40-39.996094-40h-2.792968c-10.535157-22.914063-26.984376-42.5-47.921876-56.914063-23.382812-16.097656-50.800781-24.609375-79.285156-24.609375-28.488281 0-55.90625 8.511719-79.289062 24.609375-20.9375 14.414063-37.386719 34-47.917969 56.914063h-2.796875c-22.054688 0-40 17.941406-40 40v98.480468c0 22.058594 17.945312 40.003906 40.003906 40.003906h.40625c1.753906 22.371094 9.332032 43.730469 21.609375 62.082032-60.347656 36.351562-98.445312 99.90625-101.773437 169.902344h-7.277344c-5.523438 0-10 4.480468-10 10 0 5.523437 4.476562 10 10 10h16.9375c.03125 0 .0625.007812.09375.007812.035156 0 .066406-.007812.101562-.007812h59.804688c.03125 0 .0625.007812.097656.007812.03125 0 .0625-.007812.09375-.007812h279.808594c.035156 0 .066406.007812.097656.007812s.0625-.007812.097656-.007812h59.804688c.035156 0 .066406.007812.097656.007812s.0625-.007812.097656-.007812h16.933594c5.523438 0 10-4.476563 10-10-.003906-5.519532-4.480468-10-10.003906-10zm-347.03125-128.304688c8.105469-7.601562 16.925781-14.550781 26.40625-20.738281l-1.410156 81.261719c-.0625 3.375 1.589844 6.554687 4.386718 8.449218 1.679688 1.140625 3.640626 1.722656 5.613282 1.722656 1.304687 0 2.617187-.253906 3.859375-.777343l55.648437-23.300781c7.683594 4.542968 16.304688 7.65625 25.5 8.980468v72.710938h-120.003906zm60.707031-3.832031c1.933594 13.664062 7.828125 26.066406 16.480469 36.015625l-31.929688 13.371094 1.039063-59.984376c4.527344 3.832032 9.335937 7.378907 14.410156 10.597657zm152.992188-10.59375 1.042969 59.980469-31.925782-13.367188c8.652344-9.953125 14.546875-22.351562 16.476563-36.019531 5.074219-3.21875 9.882812-6.761719 14.40625-10.59375zm-33.699219.746093c0 16.632813-8.171875 31.390626-20.707031 40.484376-.433594.261718-.847657.554687-1.238281.882812-8.003907 5.445312-17.660157 8.632812-28.050782 8.632812h-.003906c-10.398438 0-20.0625-3.195312-28.070312-8.648437-.382813-.316406-.785157-.597656-1.203126-.855469-12.546874-9.09375-20.726562-23.851562-20.726562-40.496094v-40.175781c0-5.417969 4.40625-9.828125 9.824219-9.828125h80.347656c5.421875 0 9.828125 4.410156 9.828125 9.828125zm-39.996094 69.273438c9.191406-1.320312 17.8125-4.4375 25.496094-8.980469l55.644531 23.304688c1.238281.519531 2.554688.777343 3.859375.777343 1.972656 0 3.933594-.585937 5.613282-1.722656 2.796874-1.898437 4.445312-5.074218 4.386718-8.453125l-1.410156-81.257812c9.480469 6.1875 18.304688 13.136719 26.40625 20.738281v128.304688h-119.996094zm139.996094-33.679688c23.523438 30.207032 37.671875 67.160157 39.734375 106.390626h-39.734375zm0-264.078124v63.863281c-5.886719-3.414063-12.714844-5.382813-19.996094-5.382813h-.003906-15c-2.710938 0-4.996094-2.289062-4.996094-5v-68.480468c0-2.710938 2.285156-5 4.996094-5h5.617188.039062.0625 9.285156c11.027344 0 19.996094 8.972656 19.996094 20zm-280-20h9.285156.0625.039063 5.617187c2.707032 0 4.996094 2.289062 4.996094 5v68.480468c0 2.710938-2.289062 5-4.996094 5h-15c-7.285156 0-14.113281 1.96875-20.003906 5.382813v-63.863281c0-11.027344 8.972656-20 20-20zm10.003906 138.484374h-10c-11.03125 0-20.003906-8.972656-20.003906-20.003906 0-11.027344 8.972656-20 20.003906-20h15c13.78125 0 24.996094-11.214844 24.996094-25v-68.480468c0-10.53125-6.546875-19.558594-15.785156-23.234376 20.742187-38.835937 60.960937-63.289062 105.789062-63.289062 44.824219 0 85.042969 24.453125 105.785156 63.289062-9.238281 3.675782-15.785156 12.703126-15.785156 23.234376v68.480468c0 13.785156 11.210938 25 24.996094 25h15c11.027344 0 20 8.972656 20 20 0 11.03125-8.972656 20.003906-20 20.003906h-10c-5.523438 0-10 4.476563-10 10 0 32.835938-14.976562 63.882813-40 84.660157v-24.835938c0-16.445312-13.378906-29.828125-29.828125-29.828125h-80.347656c-16.445313 0-29.824219 13.382813-29.824219 29.828125v24.835938c-25.023438-20.777344-40-51.824219-40-84.660157.003906-5.523437-4.476562-10-9.996094-10zm-30.003906 145.59375v106.390626h-39.734375c2.0625-39.226563 16.210937-76.183594 39.734375-106.390626zm0 0"/><path d="m502 491.992188h-.234375c-5.523437 0-10 4.480468-10 10 0 5.523437 4.476563 10 10 10h.234375c5.519531 0 10-4.476563 10-10 0-5.519532-4.476562-10-10-10zm0 0"/><path d="m291.855469 439.855469h-.238281c-5.523438 0-10 4.476562-10 10 0 5.523437 4.476562 10 10 10h.238281c5.519531 0 10-4.476563 10-10 0-5.523438-4.480469-10-10-10zm0 0"/><path d="m186 245.367188h10.011719c.109375 5.425781 4.535156 9.792968 9.988281 9.792968s9.878906-4.367187 9.988281-9.792968h10.011719c5.523438 0 10-4.480469 10-10 0-5.523438-4.476562-10-10-10h-40c-5.523438 0-10 4.476562-10 10 0 5.519531 4.476562 10 10 10zm0 0"/><path d="m286 245.367188h10.011719c.109375 5.425781 4.535156 9.792968 9.988281 9.792968s9.878906-4.367187 9.988281-9.792968h10.011719c5.523438 0 10-4.480469 10-10 0-5.523438-4.476562-10-10-10h-40c-5.523438 0-10 4.476562-10 10 0 5.519531 4.476562 10 10 10zm0 0"/></g></svg>