<svg height="512pt" viewBox="0 0 512 512" width="512pt" xmlns="http://www.w3.org/2000/svg"><path d="m296 49.996094c0-16.636719-10.164062-30.902344-24.625-36.929688-14.453125 6.027344-24.617188 20.289063-24.617188 36.929688 0 .113281.003907.226562.003907.339844 3.050781-.214844 6.128906-.339844 9.238281-.339844 5.203125 0 10.332031.308594 15.378906.90625 5.042969-.597656 10.171875-.90625 15.375-.90625 3.109375 0 6.1875.125 9.238282.339844 0-.113282.007812-.226563.007812-.339844zm0 0" fill="#c99e81" fill-rule="evenodd"/><path d="m295.527344 56.117188c-3.796875-1.210938-7.679688-2.226563-11.621094-3.089844-3.941406.863281-7.824219 1.882812-11.621094 3.089844-44.632812 14.230468-78.796875 51.914062-88.003906 98.558593-1.617188 8.191407-2.46875 16.660157-2.46875 25.324219v3.4375c43.542969-13.046875 74.183594-44.117188 74.183594-80.378906 0 21.210937 10.492187 40.644531 27.910156 55.738281 22.011719 19.074219 55.09375 31.210937 92.09375 31.210937h10v-10.007812c0-58.015625-38.003906-107.152344-90.472656-123.882812zm0 0" fill="#c99e81"/><path d="m386 190.003906h-10c-37.15625 0-97.132812-13.722656-121.621094-72.953125-14.238281 27.335938-25.976562 60.371094-63.132812 60.371094v72.578125c0 28.4375 10.019531 54.640625 26.710937 75.253906 9.234375 11.425782 20.523438 21.140625 33.285157 28.558594 9.980468 5.808594 20.863281 10.21875 32.375 12.957031 11.515624-2.738281 22.398437-7.148437 32.382812-12.953125 12.761719-7.421875 24.050781-17.132812 33.28125-28.5625 16.695312-20.613281 26.71875-46.816406 26.71875-75.253906h10c16.570312 0 30-13.429688 30-30 0-16.5625-13.429688-29.996094-30-29.996094zm-130 129.023438c-22.09375 0-40-17.910156-40-40h80c0 22.089844-17.90625 40-40 40zm0 0" fill="#fcd0ac"/><path d="m273.941406 314.777344c13.078125-6.578125 22.058594-20.113282 22.058594-35.75h-44.117188c0 15.636718 8.976563 29.171875 22.058594 35.75zm0 0" fill="#ff5a5a" fill-rule="evenodd"/><path d="m87.890625 502h28.105469v-101.882812c-17.828125 29.886718-28.105469 64.738281-28.105469 101.882812zm0 0" fill="#fcd0ac" fill-rule="evenodd"/><path d="m378.792969 344.441406c-9.226563-7.21875-19.097657-13.652344-29.511719-19.1875-9.230469 11.429688-20.519531 21.140625-33.28125 28.5625v48.1875c0 24.285156-14.632812 45.308594-35.511719 54.722656-7.492187 3.378907-15.777343 5.277344-24.492187 5.277344-33 0-60-27.003906-60-60v-48.191406c-4.824219-2.808594-9.441406-5.941406-13.8125-9.371094-4.464844-5.363281-11.765625-22.492187-17.207032-17.144531v174.703125h231.019532v-142.472656c-5.441406-5.347656-11.1875-10.382813-17.203125-15.085938zm0 0" fill="#f4ba64"/><path d="m293.496094 370c-6.375 0-12.632813-.515625-18.75-1.488281-6.113282.972656-12.375 1.488281-18.75 1.488281-7.6875 0-15.203125-.746094-22.5-2.144531v34.148437c0 26.457032 17.363281 49.042969 41.25 56.964844 23.890625-7.921875 41.253906-30.507812 41.253906-56.964844v-34.148437c-7.296875 1.398437-14.816406 2.144531-22.503906 2.144531zm0 0" fill="#fcd0ac" fill-rule="evenodd"/><path d="m395.996094 359.527344v142.472656h60.003906c0-55.628906-23.023438-106.132812-60.003906-142.472656zm0 0" fill="#fcd0ac" fill-rule="evenodd"/><g fill="#000001"><path d="m10.234375 492h-.234375c-5.523438 0-10 4.476562-10 10 0 5.519531 4.476562 10 10 10h.234375c5.519531 0 10-4.480469 10-10 0-5.523438-4.476563-10-10-10zm0 0"/><path d="m501.996094 492h-.234375c-5.523438 0-10 4.476562-10 10 0 5.519531 4.476562 10 10 10h.234375c5.523437 0 10-4.480469 10-10 0-5.523438-4.476563-10-10-10zm0 0"/><path d="m473.03125 492h-7.277344c-3.324218-69.960938-41.382812-133.480469-101.671875-169.84375 12.089844-18.050781 19.789063-39.28125 21.535157-62.15625h.382812c22.054688 0 40-17.941406 40-40 0-18.601562-12.769531-34.277344-30-38.730469v-1.269531c0-59.597656-37.433594-110.605469-90.019531-130.769531-.417969-27.214844-22.667969-49.230469-49.980469-49.230469s-49.566406 22.015625-49.980469 49.230469c-44.246093 16.964843-77.757812 55.769531-87.277343 103.148437-.058594.246094-.105469.496094-.144532.75-1.699218 8.699219-2.597656 17.679688-2.597656 26.871094v1.269531c-17.230469 4.453125-30 20.128907-30 38.730469 0 22.058594 17.945312 40 40 40h.378906c1.75 22.871094 9.445313 44.101562 21.535156 62.152344-60.289062 36.363281-98.347656 99.882812-101.675781 169.847656h-7.273437c-5.523438 0-10 4.476562-10 10 0 5.519531 4.476562 10 10 10h434.066406c5.519531 0 10-4.480469 10-10 0-5.523438-4.476562-10-10-10zm-67.035156-106.398438c23.527344 30.207032 37.675781 67.164063 39.738281 106.398438h-39.738281zm-149.996094-365.601562c14.152344 0 26.042969 9.859375 29.183594 23.066406-9.417969-2.003906-19.179688-3.066406-29.183594-3.066406-10.007812 0-19.765625 1.0625-29.183594 3.066406 3.140625-13.207031 15.027344-23.066406 29.183594-23.066406zm0 39.996094c66.167969 0 120 53.832031 120 120.003906v.003906c-60.652344 0-110-34.515625-110-76.945312 0-5.519532-4.480469-10-10-10-5.523438 0-10 4.480468-10 10 0 42.429687-49.347656 76.945312-110 76.945312v-.003906c0-5.28125.347656-10.484375 1.011719-15.585938 8.75-.539062 17.351562-1.90625 25.664062-4.082031 5.339844-1.402343 8.539063-6.867187 7.136719-12.210937-1.398438-5.339844-6.871094-8.539063-12.207031-7.136719-5.230469 1.367187-10.601563 2.347656-16.066407 2.957031 15.34375-48.605468 60.851563-83.945312 114.460938-83.945312zm-120 180.003906h-10c-11.027344 0-20-8.96875-20-20 0-11.023438 8.972656-19.996094 20-19.996094h10c34.144531 0 66.359375-9.71875 90.71875-27.367187 12.757812-9.246094 22.625-20.101563 29.28125-31.988281 6.65625 11.886718 16.519531 22.742187 29.277344 31.988281 24.359375 17.648437 56.578125 27.367187 90.722656 27.367187h10c11.027344 0 20 8.972656 20 19.996094 0 11.03125-8.972656 20-20 20h-10c-5.523438 0-10 4.480469-10 10 0 25.652344-8.828125 49.277344-23.601562 68.007812-.613282.582032-1.15625 1.253907-1.621094 2.007813-8.125 9.824219-17.929688 18.210937-28.960938 24.734375-.285156.132812-.570312.261719-.84375.421875-14.546875 8.457031-30.859375 13.4375-47.585937 14.574219-.140625.011718-.28125.019531-.425781.027344-.953126.0625-1.90625.109374-2.863282.144531-.25.007812-.5.019531-.753906.027343-1.113281.035157-2.230469.054688-3.347656.054688-1.117188 0-2.234375-.019531-3.351563-.054688-.246093-.007812-.496093-.019531-.746093-.027343-.957032-.035157-1.914063-.082031-2.871094-.144531-.140625-.011719-.28125-.015626-.421875-.027344-16.722657-1.136719-33.039063-6.117188-47.582031-14.578125-.285157-.167969-.582032-.300781-.878907-.4375-11.023437-6.527344-20.824219-14.917969-28.949219-24.746094-.453124-.726563-.984374-1.382813-1.578124-1.957031-14.785157-18.726563-23.617188-42.367188-23.617188-68.023438 0-5.523437-4.476562-10.003906-10-10.003906zm120 190.894531c-5.523438 0-10 4.476563-10 10l-.003906 10.105469c-22.792969-4.648438-40-24.851562-40-48.996094v-32.007812c14.457031 6.046875 30.230468 9.558594 46.757812 9.964844 1.082032.027343 2.164063.039062 3.246094.039062s2.164062-.011719 3.246094-.039062c16.527344-.40625 32.296875-3.917969 46.753906-9.964844v32.007812c0 24.148438-17.207031 44.347656-40.003906 48.996094l.003906-10.105469c0-5.519531-4.476562-10-10-10zm-70.003906-71.390625v42.5c0 38.597656 31.402344 70 70 70 38.601562 0 70.003906-31.402344 70.003906-70v-42.5c9.433594-6.050781 18.03125-13.292968 25.59375-21.5 12.546875 7.347656 24.0625 15.984375 34.402344 25.683594v128.3125h-260v-128.308594c10.34375-9.703125 21.859375-18.339844 34.40625-25.691406 7.5625 8.210938 16.160156 15.449219 25.59375 21.503906zm-80 26.097656v106.398438h-39.734375c2.0625-39.230469 16.210937-76.1875 39.734375-106.398438zm0 0"/><path d="m198.230469 241.027344c5.074219-1.359375 10.460937-1.359375 15.53125 0 .867187.230468 1.738281.339844 2.59375.339844 4.414062 0 8.457031-2.945313 9.652343-7.414063 1.429688-5.335937-1.738281-10.820313-7.074218-12.246094-8.445313-2.261719-17.425782-2.261719-25.875 0-5.335938 1.425781-8.5 6.910157-7.074219 12.246094 1.429687 5.332031 6.90625 8.5 12.246094 7.074219zm0 0"/><path d="m298.230469 241.027344c5.070312-1.359375 10.460937-1.359375 15.535156 0 .863281.230468 1.734375.339844 2.589844.339844 4.417969 0 8.457031-2.945313 9.652343-7.414063 1.429688-5.335937-1.738281-10.820313-7.070312-12.246094-8.449219-2.261719-17.433594-2.261719-25.878906 0-5.335938 1.425781-8.5 6.910157-7.074219 12.246094 1.429687 5.332031 6.90625 8.5 12.246094 7.074219zm0 0"/><path d="m206 279.027344c0 27.570312 22.429688 50 50 50s50-22.429688 50-50c0-5.523438-4.476562-10-10-10h-80c-5.519531 0-10 4.476562-10 10zm50 30c-13.035156 0-24.152344-8.359375-28.277344-20h56.558594c-4.128906 11.640625-15.246094 20-28.28125 20zm0 0"/><path d="m187.480469 149.410156c1.648437 0 3.320312-.40625 4.863281-1.265625l.371094-.214843c4.800781-2.730469 6.480468-8.835938 3.75-13.636719-2.730469-4.800781-8.835938-6.476563-13.636719-3.75l-.265625.152343c-4.792969 2.699219-6.507812 8.773438-3.824219 13.585938 1.832031 3.28125 5.234375 5.128906 8.742188 5.128906zm0 0"/></g></svg>