<svg height="512pt" viewBox="0 0 512 512" width="512pt" xmlns="http://www.w3.org/2000/svg"><path d="m118.9375 200v40.003906c0 10 7.445312 18.320313 17.0625 19.757813v-79.515625c-9.617188 1.433594-17.0625 9.753906-17.0625 19.753906zm0 0" fill="#5f5148" fill-rule="evenodd"/><path d="m376 180.003906v80h20c11 0 20-9 20-20v-40.003906c0-11-9-19.996094-20-19.996094zm0 0" fill="#5f5148" fill-rule="evenodd"/><path d="m283 145.324219c-17.296875-2.804688-33.707031-8.242188-48.800781-15.914063-1.402344 5.652344-3.152344 10.984375-5.207031 15.914063 8.792968 1.425781 17.8125 2.183593 27.007812 2.183593s18.210938-.757812 27-2.183593zm0 0" fill="#fcd0ac"/><path d="m337.003906 145.324219c-2.050781-4.929688-3.800781-10.257813-5.203125-15.914063-15.089843 7.671875-31.503906 13.109375-48.800781 15.914063-8.789062 1.425781-17.804688 2.183593-27 2.183593s-18.214844-.757812-27.007812-2.183593c-12.992188-1.570313-22.742188-4.570313-38.992188-13.570313v118.25c0 28.433594 10.019531 54.640625 26.710938 75.25 1.0625 1.332032 2.164062 2.628906 3.285156 3.910156 16.316406 18.511719 38.21875 31.992188 63 37.746094 24.78125-5.753906 46.6875-19.234375 63-37.746094 1.125-1.273437 2.222656-2.578124 3.289062-3.910156 16.691406-20.613281 26.714844-46.816406 26.714844-75.253906v-69.996094c-16.046875 0-30.253906-13.671875-38.996094-34.679687zm0 0" fill="#fcd0ac"/><path d="m346 425.921875.796875-91.921875c-12.527344 4.464844-21.296875 19.5-38.796875 26-8.03125 2.984375-18.929688 9.082031-27 7.355469-8.070312 1.726562-16.433594 2.644531-25 2.644531-14.011719 0-27.476562-2.441406-40-6.90625v62.828125c0 12.378906 10.125 22.5 22.496094 22.5h85.003906c12.371094 0 22.5-10.121094 22.5-22.5zm0 0" fill="#fcd0ac" fill-rule="evenodd"/><path d="m392 355.714844c-12.804688-11.917969-27.152344-22.1875-42.714844-30.460938-1.066406 1.332032-2.164062 2.632813-3.285156 3.910156v96.757813c0 12.378906-10.128906 22.5-22.5 22.5h-135.003906c-12.371094 0-22.496094-10.121094-22.496094-22.5v-70.207031c-1.351562 1.253906-2.6875 2.523437-4 3.8125v142.472656h234v-142.472656c-1.316406-1.289063-2.652344-2.558594-4-3.8125zm0 0" fill="#ff5a5a"/><path d="m89.496094 502h26.5v-99.144531c-16.839844 29.265625-26.5 63.128906-26.5 99.144531zm0 0" fill="#fcd0ac" fill-rule="evenodd"/><path d="m396 359.527344v142.472656h60c0-55.628906-23.019531-106.132812-60-142.472656zm0 0" fill="#fcd0ac" fill-rule="evenodd"/><path d="m385.675781 130.941406c-3.988281-57.949218-45.945312-105.445312-101.175781-117.800781-55.234375 12.355469-97.191406 59.851563-101.183594 117.796875 15.050782 7.261719 31.347656 12.339844 48.488282 14.824219 7.902343 1.144531 15.976562 1.746093 24.195312 1.746093 9.71875 0 19.238281-.84375 28.5-2.433593 16.746094-2.871094 32.648438-8.214844 47.300781-15.664063 1.441407 5.824219 3.261719 11.300782 5.390625 16.351563 8.757813 20.757812 22.875 34.242187 38.804688 34.242187h10v-40.003906c0-3.042969-.113282-6.066406-.320313-9.058594zm0 0" fill="#f9d973"/><g fill="#000001"><path d="m306 237.5c-6.886719 0-12.5 5.617188-12.5 12.5 0 6.886719 5.613281 12.5 12.5 12.5 6.882812 0 12.5-5.613281 12.5-12.5 0-6.882812-5.617188-12.5-12.5-12.5zm0 0"/><path d="m206 237.5c-6.886719 0-12.5 5.617188-12.5 12.5 0 6.886719 5.613281 12.5 12.5 12.5s12.5-5.613281 12.5-12.5c0-6.882812-5.617188-12.5-12.5-12.5zm0 0"/><path d="m191 224.023438c4.554688-2.628907 9.738281-4.019532 15-4.019532 5.257812 0 10.445312 1.390625 15 4.019532 1.574219.910156 3.292969 1.339843 4.988281 1.339843 3.457031 0 6.816407-1.792969 8.671875-5 2.761719-4.78125 1.121094-10.898437-3.660156-13.660156-7.589844-4.382813-16.234375-6.699219-25-6.699219-8.769531 0-17.410156 2.316406-25 6.699219-4.785156 2.761719-6.421875 8.878906-3.660156 13.660156 2.761718 4.78125 8.875 6.421875 13.660156 3.660157zm0 0"/><path d="m291 224.023438c4.554688-2.628907 9.738281-4.019532 15-4.019532s10.445312 1.390625 14.996094 4.019532c1.574218.910156 3.296875 1.339843 4.992187 1.339843 3.457031 0 6.816407-1.792969 8.667969-5 2.765625-4.78125 1.125-10.898437-3.65625-13.660156-7.585938-4.382813-16.230469-6.699219-25-6.699219s-17.414062 2.316406-25.003906 6.699219c-4.78125 2.761719-6.417969 8.878906-3.65625 13.660156 2.765625 4.785157 8.878906 6.421875 13.660156 3.660157zm0 0"/><path d="m227.339844 298.667969c-2.761719 4.78125-1.125 10.898437 3.660156 13.660156 7.589844 4.382813 16.234375 6.703125 25 6.703125s17.410156-2.320312 25-6.703125c4.78125-2.761719 6.417969-8.878906 3.65625-13.660156-2.761719-4.785157-8.878906-6.421875-13.660156-3.660157-4.554688 2.632813-9.738282 4.023438-14.996094 4.023438s-10.441406-1.390625-14.996094-4.023438c-4.785156-2.761718-10.898437-1.125-13.664062 3.660157zm0 0"/><path d="m183.132812 97.671875c11.425782 9.304687 25.175782 15.351563 39.769532 17.480469.488281.074218.976562.109375 1.457031.109375 4.882813 0 9.15625-3.582031 9.882813-8.554688.800781-5.464843-2.984376-10.542969-8.449219-11.34375-11.019531-1.609375-21.40625-6.175781-30.035157-13.199219-4.28125-3.488281-10.578124-2.839843-14.066406 1.441407-3.488281 4.28125-2.84375 10.582031 1.441406 14.066406zm0 0"/><path d="m253.160156 113.59375c.765625 0 1.542969-.089844 2.320313-.269531.398437-.097657.878906-.238281 1.261719-.382813 5.175781-1.925781 7.8125-7.679687 5.890624-12.855468-1.828124-4.925782-7.128906-7.550782-12.097656-6.140626-5.207031 1.40625-8.363281 6.710938-7.097656 11.984376 1.101562 4.582031 5.203125 7.664062 9.722656 7.664062zm0 0"/><path d="m473.03125 492h-7.273438c-3.328124-69.960938-41.386718-133.480469-101.675781-169.84375 10.308594-15.390625 17.421875-33.09375 20.378907-52.152344h11.539062c16.542969 0 30-13.457031 30-30v-70.003906c0-45.230469-17.730469-87.875-49.929688-120.070312-32.195312-32.195313-74.839843-49.929688-120.070312-49.929688-45.234375 0-87.875 17.734375-120.074219 49.929688-32.195312 32.195312-49.929687 74.839843-49.929687 120.070312v70.003906c0 16.542969 13.460937 30 30 30h11.542968c2.953126 19.058594 10.066407 36.761719 20.375 52.152344-60.289062 36.363281-98.347656 99.882812-101.671874 169.84375h-7.277344c-5.523438 0-10 4.476562-10 10 0 5.519531 4.476562 10 10 10h434.066406c5.523438 0 10-4.480469 10-10 0-5.523438-4.476562-10-10-10zm-347.035156-128.308594c9.125-8.558594 19.148437-16.289062 30-23.039062v85.269531c0 17.921875 14.582031 32.5 32.5 32.5h135.003906c17.917969 0 32.496094-14.578125 32.496094-32.5v-85.269531c10.851562 6.75 20.878906 14.480468 30 23.035156v128.3125h-260zm130.003906 16.308594c30.144531 0 57.921875-10.3125 79.996094-27.597656v73.519531c0 6.894531-5.605469 12.5-12.496094 12.5h-135.003906c-6.890625 0-12.496094-5.605469-12.496094-12.5v-73.519531c22.074219 17.28125 49.851562 27.597656 80 27.597656zm150 5.601562c23.523438 30.207032 37.671875 67.164063 39.734375 106.398438h-39.734375zm-270-215.597656v-30.003906c0-65.132812 52.160156-118.3125 116.90625-119.960938 1.03125-.019531 2.058594-.039062 3.09375-.039062 1.03125 0 2.0625.019531 3.09375.039062 64.742188 1.644532 116.902344 54.828126 116.902344 119.960938v30.003906c-14.253906-.003906-28.117188-17.285156-34.488282-43-.734374-2.960937-2.777343-5.421875-5.550781-6.6875-2.769531-1.269531-5.972656-1.203125-8.6875.179688-22.207031 11.289062-46.183593 17.011718-71.273437 17.011718-25.078125 0-49.054688-5.722656-71.265625-17.011718-2.71875-1.382813-5.917969-1.449219-8.6875-.179688-2.773438 1.265625-4.816407 3.726563-5.550781 6.6875-6.375 25.71875-20.238282 43-34.492188 43zm270 70c0 5.515625-4.484375 10-10 10h-10v-60h10c5.515625 0 10 4.484375 10 9.996094zm0-68.28125c-3.128906-1.109375-6.496094-1.71875-10-1.71875h-.003906v-30.003906c0-11.449219-1.390625-22.574219-3.996094-33.230469 8.976562 19.226563 14 40.652344 14 63.230469zm-286.007812-64.9375c-2.605469 10.652344-3.992188 21.773438-3.992188 33.214844v30.003906c-3.507812 0-6.871094.609375-10 1.71875v-1.722656c-.003906-22.574219 5.019531-43.992188 13.992188-63.214844zm6.007812 143.21875h-10.003906c-5.511719 0-10-4.484375-10-10v-40.003906c0-5.511719 4.488281-9.996094 10-9.996094h10.003906zm20-61.351562c17.117188-4.667969 31.917969-21.179688 40.453125-45.289063 21.957031 9.390625 45.300781 14.144531 69.546875 14.144531 24.25 0 47.59375-4.753906 69.546875-14.140624 8.53125 24.101562 23.332031 40.617187 40.453125 45.28125v61.351562c0 25.65625-8.832031 49.285156-23.609375 68.015625-.605469.578125-1.144531 1.246094-1.601563 1.988281-.480468.578125-.96875 1.15625-1.460937 1.726563-.597656.535156-1.136719 1.136719-1.589844 1.800781-20.152343 22.375-49.332031 36.46875-81.742187 36.46875-32.414063 0-61.59375-14.09375-81.742188-36.476562-.453125-.660157-.988281-1.257813-1.582031-1.789063-.492187-.574219-.980469-1.148437-1.464844-1.734375-.457031-.738281-.996093-1.402344-1.601562-1.980469-14.777344-18.730469-23.605469-42.363281-23.605469-68.015625zm-40.003906 196.949218v106.398438h-39.734375c2.0625-39.230469 16.210937-76.191406 39.734375-106.398438zm0 0"/><path d="m10.234375 492h-.234375c-5.523438 0-10 4.476562-10 10 0 5.519531 4.476562 10 10 10h.234375c5.523437 0 10-4.480469 10-10 0-5.523438-4.476563-10-10-10zm0 0"/><path d="m502 492h-.238281c-5.519531 0-10 4.476562-10 10 0 5.519531 4.480469 10 10 10h.238281c5.519531 0 10-4.480469 10-10 0-5.523438-4.476562-10-10-10zm0 0"/><path d="m56 230c5.519531 0 10-4.476562 10-10 0-5.519531-4.476562-10-10-10h-20.003906c-5.519532 0-10 4.480469-10 10 0 5.523438 4.480468 10 10 10zm0 0"/><path d="m59.039062 241.34375-17.320312 10c-4.785156 2.757812-6.425781 8.875-3.664062 13.660156 1.851562 3.207032 5.214843 5 8.671874 5 1.695313 0 3.414063-.429687 4.988282-1.339844l17.320312-9.996093c4.785156-2.761719 6.421875-8.878907 3.664063-13.660157-2.761719-4.785156-8.875-6.425781-13.660157-3.664062zm0 0"/><path d="m41.714844 188.664062 17.320312 9.996094c1.574219.910156 3.292969 1.34375 4.992188 1.34375 3.457031 0 6.816406-1.796875 8.667968-5.003906 2.761719-4.785156 1.121094-10.898438-3.660156-13.660156l-17.320312-10c-4.785156-2.757813-10.898438-1.121094-13.660156 3.664062-2.761719 4.78125-1.121094 10.898438 3.660156 13.660156zm0 0"/><path d="m476.003906 210h-20.003906c-5.523438 0-10 4.480469-10 10 0 5.523438 4.476562 10 10 10h20.003906c5.519532 0 10-4.476562 10-10 0-5.519531-4.480468-10-10-10zm0 0"/><path d="m442.964844 258.667969 17.320312 9.996093c1.574219.910157 3.292969 1.339844 4.988282 1.339844 3.457031 0 6.820312-1.792968 8.671874-5.003906 2.761719-4.78125 1.121094-10.898438-3.664062-13.65625l-17.320312-10c-4.785157-2.761719-10.902344-1.117188-13.660157 3.664062-2.757812 4.785157-1.121093 10.898438 3.664063 13.660157zm0 0"/><path d="m447.972656 200.003906c1.695313 0 3.414063-.433594 4.988282-1.34375l17.320312-9.996094c4.785156-2.761718 6.425781-8.878906 3.664062-13.660156-2.761718-4.785156-8.878906-6.421875-13.660156-3.664062l-17.320312 10c-4.785156 2.761718-6.425782 8.875-3.664063 13.660156 1.851563 3.207031 5.214844 5.003906 8.671875 5.003906zm0 0"/></g></svg>