<svg height="435pt" viewBox="0 0 435.80188 435" width="435pt" xmlns="http://www.w3.org/2000/svg"><path d="m384 226.402344c0-12.402344-6-23.902344-15.601562-31v17.796875c0 12.402343-2.199219 24.300781-6.296876 35.300781 2.097657 3.101562 4.699219 5.699219 7.5 8 8.796876-7.097656 14.398438-18 14.398438-30.097656zm0 0" fill="#ff5a5a"/><path d="m362.101562 248.5c4.097657-11 6.296876-22.898438 6.296876-35.300781v-17.898438c-2.796876-2.101562-5.898438-3.800781-9.199219-5.101562 3.902343-14.699219 6-28.199219 6.601562-40.5 4.199219-90.398438-73.699219-117.296875-98.902343-105.398438-16.898438-16.898437-38.296876-28.300781-61.398438-33-55.199219 11.199219-96.699219 60-96.699219 118.5 0 13.800781 2.398438 27.5 7 40.5v-11.699219c56.800781-42.800781 115.699219 15.597657 151.097657-67.699218 6.402343 18.898437 13 30.597656 19.800781 38.398437 10.902343 12.601563 22.199219 15.300781 33.402343 22v61.898438c0 12.402343-2.203124 24.300781-6.300781 35.300781 7.199219 10.402344 19 16.5 31.699219 16.5 9.199219 0 17.601562-3.199219 24.199219-8.5-2.898438-2.300781-5.5-5-7.597657-8zm0 0" fill="#ff5a5a"/><path d="m297.300781 277.300781c6.898438-8.601562 12.5-18.300781 16.398438-28.800781 4.101562-11 6.300781-22.898438 6.300781-35.300781v-61.898438c-11.101562-6.699219-31.101562-8.101562-55.699219-54.398437-27.902343 54.199218-69.5 39.296875-99.601562 45.898437v70.398438c0 12.402343 2.199219 24.300781 6.300781 35.300781 3.898438 10.5 9.5 20.199219 16.398438 28.800781 7.902343 9.699219 17.5 18 28.300781 24.300781 8.199219 4.800782 17.101562 8.398438 26.601562 10.800782 9.398438-2.300782 18.398438-6 26.597657-10.800782 10.902343-6.300781 20.601562-14.601562 28.402343-24.300781zm0 0" fill="#fcd0ac"/><path d="m79.398438 427.699219h19.300781v-78.398438c-12.300781 23.5-19.300781 50.199219-19.300781 78.398438zm0 0" fill="#fcd0ac"/><path d="m326.398438 296.800781c-9-7.398437-18.699219-14-29.097657-19.5-7.902343 9.699219-17.5 18-28.300781 24.300781v41c0 19-10.601562 35.699219-26.101562 44.5-7.398438 4.199219-15.898438 6.597657-25 6.597657-28.097657 0-51.097657-23-51.097657-51.097657v-41c-2.601562-1.5-5-3.101562-7.5-4.800781-2.402343-1.101562-5-5.398437-10.699219-11.199219v142.199219h188.398438v-121.398437c-3.300781-3.300782-6.898438-6.601563-10.601562-9.601563zm0 0" fill="#0586ad"/><path d="m252.5 315.402344c-5.898438 0-11.699219-.5-17.300781-1.5-5.597657 1-11.398438 1.5-17.300781 1.5-5.597657 0-11.097657-.5-16.5-1.300782v28.597657c0 22 14.101562 40.902343 33.800781 48 19.601562-7.097657 33.800781-26 33.800781-48v-28.597657c-5.398438.800782-10.898438 1.300782-16.5 1.300782zm0 0" fill="#fcd0ac"/><path d="m337.101562 306.402344v121.296875h51.097657c0-47.296875-19.597657-90.296875-51.097657-121.296875zm0 0" fill="#fcd0ac"/><g fill="#000001"><path d="m427.300781 419.199219h-.199219c-4.703124 0-8.5 3.800781-8.5 8.5 0 4.703125 3.796876 8.5 8.5 8.5h.199219c4.699219 0 8.5-3.796875 8.5-8.5.097657-4.699219-3.800781-8.5-8.5-8.5zm0 0"/><path d="m8.699219 419.199219h-.199219c-4.699219 0-8.5 3.800781-8.5 8.5 0 4.703125 3.800781 8.5 8.5 8.5h.199219c4.699219 0 8.5-3.796875 8.5-8.5 0-4.699219-3.800781-8.5-8.5-8.5zm0 0"/><path d="m402.699219 419.199219h-6.199219c-2.800781-59.597657-35.199219-113.597657-86.601562-144.597657 2.402343-3.601562 4.601562-7.300781 6.5-11.101562 8.203124 6.402344 18.300781 10 29 10 26 0 47.101562-21.097656 47.101562-47.097656 0-16.800782-9.199219-32.402344-23.398438-40.703125 17.699219-74.898438-12.402343-113.699219-32.402343-130.5-23.5-19.699219-50.800781-25-67.699219-20.597657-24-22.101562-54.898438-34.199218-87.699219-34.199218-71.402343-.101563-129.402343 58-129.402343 129.398437 0 19.699219 4.5 39.199219 13.203124 56.800781-13.300781 8.597657-21.800781 23.5-21.800781 39.699219 0 26 21.097657 47.101563 47.097657 47.101563 10.601562 0 20.800781-3.601563 29-10 2 3.796875 4.203124 7.5 6.5 11.097656-51.296876 31-83.699219 85-86.597657 144.601562h-6.199219c-4.703124 0-8.5 3.800782-8.5 8.5 0 4.699219 3.796876 8.5 8.5 8.5h14.398438.101562.097657 51 .101562.097657 238.300781.101562.097657 51 .101562.101562 14.398438c4.699219 0 8.5-3.800781 8.5-8.5-.300781-4.601562-4.101562-8.402343-8.800781-8.402343zm-57.097657-90.597657c20 25.699219 32.097657 57.199219 33.796876 90.597657h-33.796876zm-127.703124 38.597657c-4.699219 0-8.5 3.800781-8.5 8.5v8.601562c-19.398438-4-34.097657-21.199219-34.097657-41.699219v-27.300781c12.300781 5.101563 25.699219 8.101563 39.800781 8.5h2.796876 2.800781c14.101562-.300781 27.5-3.300781 39.800781-8.5v27.300781c0 20.597657-14.601562 37.800782-34.101562 41.699219v-8.601562c0-4.699219-3.796876-8.5-8.5-8.5zm47.601562-73.398438c-.300781.101563-.5.199219-.800781.398438-12.398438 7.203125-26.300781 11.402343-40.5 12.402343-.097657 0-.199219 0-.398438 0-.800781.097657-1.601562.097657-2.402343.097657-.199219 0-.398438 0-.597657 0-.902343 0-1.902343 0-2.902343 0s-1.898438 0-2.898438 0c-.199219 0-.398438 0-.601562 0-.796876 0-1.597657-.097657-2.5-.097657-.097657 0-.199219 0-.296876 0-14.203124-1-28.101562-5.199218-40.5-12.402343-.203124-.097657-.5-.296875-.703124-.398438-9.398438-5.601562-17.699219-12.699219-24.597657-21.101562-.402343-.597657-.800781-1.199219-1.402343-1.699219-5.898438-7.5-10.699219-15.898438-14.097657-25-.101562-.398438-.199219-.699219-.402343-1.097656-3.597657-9.902344-5.597657-20.601563-5.597657-31.800782v-50.199218c20.199219-13.703125 40.5-13.902344 61.699219-14.203125 28.398438-.296875 57.699219-.699219 79.898438-37.097657 13.101562 28.5 27.601562 35.699219 40.703124 42.199219 1.699219.800781 3.398438 1.699219 5 2.5v56.898438c0 11.101562-2 21.800781-5.601562 31.800781-.199219.402344-.300781.800781-.398438 1.199219-3.402343 9.101562-8.203124 17.5-14.101562 24.902343-.5.5-1 1.097657-1.398438 1.699219-6.902343 8.398438-15.300781 15.5-24.601562 21zm-175.101562-37.300781c-16.597657 0-30.097657-13.5-30.097657-30.097656 0-12.402344 7.800781-23.703125 19.398438-28.101563 2.699219-1 4.5-3.199219 5.199219-5.800781.101562-.300781.101562-.5.203124-.800781 0-.199219.097657-.5.097657-.796875v-.101563c0-.199219 0-.5 0-.699219 0-.101562 0-.101562 0-.199218 0-.203125 0-.402344 0-.601563 0-.101562 0-.199219 0-.300781 0-.199219-.097657-.300781-.097657-.5 0-.097656 0-.199219-.101562-.398438 0-.101562-.101562-.300781-.101562-.402343 0-.097657-.097657-.296875-.097657-.398438 0-.101562 0-.101562-.101562-.199219 0-.101562-.097657-.101562-.097657-.199218-.101562-.101563-.101562-.300782-.203124-.402344-.097657-.097656-.097657-.300781-.199219-.398438 0-.101562-.097657-.101562-.097657-.199218-9.902343-17.101563-15.101562-36.5-15.101562-56.203125 0-62 50.398438-112.398438 112.398438-112.398438 30 0 58.300781 11.699219 79.5 32.898438 0 0 .101562.101562.101562.101562.101562.101563.300781.199219.398438.398438.101562.101562.203124.101562.300781.203125.101562.097656.199219.199218.402343.296875.097657.101562.199219.203125.296876.203125.101562.097656.203124.097656.300781.199218.101562.097657.300781.097657.402343.199219.097657.101563.199219.101563.296876.101563.101562.097656.300781.097656.402343.199218.097657 0 .199219.097657.300781.097657.097657.101562.296876.101562.398438.101562s.199219.101563.398438.101563c.101562 0 .300781.097656.402343.097656.097657 0 .300781 0 .398438.101562h.402343.5.296876.5.300781c.199219 0 .300781 0 .5-.101562.101562 0 .300781 0 .402343-.097656.097657 0 .296876-.101563.398438-.101563s.300781-.101562.398438-.101562c.101562 0 .203124-.097657.300781-.097657.199219-.101562.300781-.101562.5-.199218.101562 0 .101562 0 .199219-.101563 9.601562-4.5 34.203124-1.398437 55.300781 16.300781 17.5 14.597657 44 49.597657 25.199219 119.800782-.199219.597656-.199219 1.097656-.296876 1.699218v.300782.597656.5.402344c0 .199218.097657.296875.097657.5 0 .097656 0 .199218.101562.296875 0 .203125.097657.300781.097657.5 0 .101562.101562.203125.101562.300781.101562.199219.101562.300781.199219.5 0 .101562.101562.199219.101562.300781.097657.101563.097657.300781.199219.398438.101562.101562.101562.203125.199219.402343.101562.097657.101562.199219.199219.300782.101562.097656.203124.296875.203124.398437.097657.101563.097657.199219.199219.199219.097657.101562.199219.300781.300781.402344.097657.097656.097657.097656.199219.199218.097657.097657.199219.300782.398438.398438.101562.101562.199219.199219.300781.199219.101562.101562.199219.203125.300781.300781.097657.101562.300781.199219.398438.300781.101562.101563.199219.101563.199219.199219.203124.101562.5.300781.703124.402344.296876.097656.5.199218.796876.398437 11.601562 4.398438 19.402343 15.699219 19.402343 28.101563 0 16.597656-13.5 30.097656-30.101562 30.097656-8.398438 0-16.398438-3.5-22.097657-9.597656 3.398438-10.601563 5.199219-21.902344 5.199219-33.601563v-43.601562c.199219.300781.5.601562.699219.902343 2.898438 3.699219 8.300781 4.199219 12 1.300782 3.699219-2.902344 4.199219-8.300782 1.300781-12-6.101562-7.601563-12.402343-12.300782-18.402343-15.902344 0 0 0 0-.097657 0-3.402343-2-6.800781-3.699219-10-5.300781-14.300781-7.097657-26.699219-13.199219-39.199219-50.398438-1.101562-3.398437-4.203124-5.699219-7.703124-5.800781-3.5-.097656-6.796876 1.902344-8.199219 5.199219-18.5 43.5-42.699219 43.800781-73.199219 44.203125-27.101562.296875-57.800781.699218-87.5 30.898437-3.300781 3.398438-3.199219 8.699219.101562 12 1.699219 1.601563 3.796876 2.398438 6 2.398438 1 0 1.898438-.199219 2.796876-.5v36.601562c0 11.699219 1.800781 23 5.203124 33.601563-5.300781 6-13.300781 9.597656-21.703124 9.597656zm67.902343 49.902344v36.199218c0 32.898438 26.699219 59.597657 59.597657 59.597657 32.902343 0 59.601562-26.699219 59.601562-59.597657v-36.199218c8-5.203125 15.398438-11.300782 21.800781-18.300782 10.699219 6.300782 20.5 13.597657 29.300781 21.898438v109.199219h-221.402343v-109.199219c8.800781-8.300781 18.601562-15.597656 29.300781-21.898438 6.5 7 13.800781 13.199219 21.800781 18.300782zm-68.101562 22.199218v90.597657h-33.800781c1.703124-33.398438 13.800781-64.796875 33.800781-90.597657zm0 0"/><path d="m260.5 202.5c-5.898438 0-10.601562 4.800781-10.601562 10.601562 0 5.898438 4.800781 10.597657 10.601562 10.597657 5.898438 0 10.601562-4.796875 10.601562-10.597657 0-5.800781-4.800781-10.601562-10.601562-10.601562zm0 0"/><path d="m175.300781 202.5c-5.902343 0-10.601562 4.800781-10.601562 10.601562 0 5.898438 4.800781 10.597657 10.601562 10.597657s10.597657-4.796875 10.597657-10.597657c.101562-5.800781-4.699219-10.601562-10.597657-10.601562zm0 0"/><path d="m186.398438 172.101562c-7.199219-1.902343-14.898438-1.902343-22 0-4.5 1.199219-7.199219 5.898438-6 10.398438 1.203124 4.5 5.902343 7.199219 10.402343 6 4.300781-1.199219 8.898438-1.199219 13.199219 0 .699219.199219 1.5.300781 2.199219.300781 3.800781 0 7.199219-2.5 8.199219-6.300781 1.203124-4.5-1.5-9.199219-6-10.398438zm0 0"/><path d="m271.5 172.101562c-7.199219-1.902343-14.898438-1.902343-22 0-4.5 1.199219-7.199219 5.898438-6 10.398438 1 3.800781 4.5 6.300781 8.199219 6.300781.699219 0 1.5-.101562 2.199219-.300781 4.300781-1.199219 8.902343-1.199219 13.203124 0 4.5 1.199219 9.199219-1.5 10.398438-6s-1.5-9.199219-6-10.398438zm0 0"/><path d="m230.699219 251.5c-3.898438 2.199219-8.300781 3.402344-12.800781 3.402344s-8.898438-1.203125-12.796876-3.402344c-4.101562-2.398438-9.300781-1-11.601562 3.101562-2.398438 4.097657-1 9.300782 3.101562 11.597657 6.5 3.703125 13.796876 5.703125 21.296876 5.703125s14.800781-2 21.300781-5.703125c4.101562-2.398438 5.5-7.597657 3.101562-11.597657-2.402343-4-7.601562-5.402343-11.601562-3.101562zm0 0"/><path d="m103.800781 118.300781c1.398438-9.300781 4.398438-18.300781 9-26.5 2.300781-4.101562.800781-9.300781-3.300781-11.601562-4.101562-2.296875-9.300781-.796875-11.601562 3.300781-5.597657 10.101562-9.296876 20.902344-11 32.300781-.699219 4.699219 2.5 9 7.203124 9.699219.398438.101562.796876.101562 1.296876.101562 4.101562 0 7.800781-3.101562 8.402343-7.300781zm0 0"/><path d="m119.800781 77c2.199219 0 4.398438-.800781 6-2.5 3.300781-3.300781 3.398438-8.597656.199219-12-3.199219-3.398438-8.601562-3.5-12-.300781-.101562.101562-.199219.203125-.300781.203125-3.300781 3.296875-3.300781 8.699218 0 12 1.699219 1.796875 3.902343 2.597656 6.101562 2.597656zm0 0"/></g></svg>