<svg height="512pt" viewBox="0 0 512 512" width="512pt" xmlns="http://www.w3.org/2000/svg"><g fill-rule="evenodd"><path d="m178.558594 170h24.347656c0-37.09375 7.445312-70.253906 19.144531-92.265625-26.53125 22.058594-43.492187 55.273437-43.492187 92.265625zm0 0" fill="#ff5a5a"/><path d="m248.644531 170h60.4375c0-47.765625-12.347656-89.007812-30.222656-108.320312-17.867187 19.3125-30.214844 60.554687-30.214844 108.320312zm0 0" fill="#7aeae7"/><path d="m255.988281 50c29.324219 0 53.09375 53.722656 53.09375 120h66.910157c0-66.003906-53.996094-120-120.003907-120zm0 0" fill="#f9d973"/><path d="m121.117188 220c0 11.050781 5.980468 20.699219 14.875 25.90625l-.003907-51.8125c-8.894531 5.207031-14.871093 14.855469-14.871093 25.90625zm0 0" fill="#fcd0ac"/><path d="m189.355469 250c0 28.4375 10.023437 54.636719 26.71875 75.25 9.382812 11.617188 20.886719 21.453125 33.90625 28.917969 10.082031 5.789062 21.074219 10.144531 32.695312 12.808593 11.617188-2.664062 22.605469-7.019531 32.6875-12.804687 13.019531-7.464844 24.53125-17.304687 33.917969-28.921875 16.691406-20.613281 26.710938-46.820312 26.710938-75.25l-.003907-60 .003907-20h-186.636719zm66.632812 36.347656c11.046875 0 20.003907 8.953125 20.003907 20 0 11.042969-8.957032 20-20.003907 20-11.042969 0-20-8.957031-20-20 0-11.046875 8.957031-20 20-20zm0 0" fill="#fcd0ac"/><path d="m375.988281 190v60h10c16.566407 0 30-13.433594 30-30 0-16.570312-13.433593-30-30-30zm0 0" fill="#fcd0ac"/><path d="m275.992188 306.347656c0 11.046875-8.957032 20-20.003907 20-11.042969 0-20-8.953125-20-20s8.957031-20 20-20c11.046875 0 20.003907 8.953125 20.003907 20zm0 0" fill="#f4ba64"/><path d="m275.78125 397.957031c14.472656-4.96875 26.636719-15.253906 33.921875-28.808593-4.636719.550781-9.347656.851562-14.125.851562-6.738281 0-13.347656-.5625-19.789063-1.644531-6.445312 1.082031-13.058593 1.644531-19.796874 1.644531-4.777344 0-9.488282-.300781-14.125-.851562 7.28125 13.554687 19.445312 23.839843 33.914062 28.808593zm0 0" fill="#fcd0ac"/></g><path d="m391.359375 355.113281c-12.644531-11.660156-26.777344-21.722656-42.078125-29.863281-9.386719 11.617188-20.898438 21.457031-33.914062 28.925781-3.203126 13.6875-10.878907 25.382813-21.261719 33.695313-10.53125 8.4375-23.847657 13.390625-38.117188 13.390625-28 0-52.339843-19.066407-59.125-46.136719-1.566406 1.441406-3.113281 2.90625-4.632812 4.398438v142.476562h203.765625v-142.476562c-1.519532-1.496094-3.070313-2.960938-4.636719-4.410157zm0 0" fill="#45ba88"/><path d="m395.996094 359.523438v102.476562h55.953125c-8.125-39.625-28.070313-75.074219-55.953125-102.476562zm0 0" fill="#d3e567" fill-rule="evenodd"/><path d="m451.949219 462h-55.953125v40h60c0-13.6875-1.394532-27.066406-4.046875-40zm0 0" fill="#fcd0ac" fill-rule="evenodd"/><path d="m94.984375 462h21.015625v-56.613281c-9.710938 17.457031-16.890625 36.496093-21.015625 56.613281zm0 0" fill="#d3e567" fill-rule="evenodd"/><path d="m94.984375 462c-2.652344 12.933594-4.046875 26.3125-4.046875 40h25.0625v-40zm0 0" fill="#fcd0ac" fill-rule="evenodd"/><path d="m185.996094 245.363281c1.699218 0 3.417968-.429687 4.992187-1.339843 4.558594-2.632813 9.746094-4.019532 15-4.019532 5.257813 0 10.441407 1.390625 15 4.019532 4.78125 2.757812 10.898438 1.121093 13.660157-3.660157 2.761718-4.78125 1.121093-10.894531-3.660157-13.660156-7.59375-4.386719-16.238281-6.699219-25-6.699219s-17.40625 2.3125-25 6.699219c-4.78125 2.761719-6.421875 8.878906-3.660156 13.660156 1.851563 3.207031 5.214844 5 8.667969 5zm0 0" fill="#000001"/><path d="m290.992188 244.023438c4.554687-2.632813 9.742187-4.019532 14.996093-4.019532 5.257813 0 10.445313 1.390625 15 4.019532 1.574219.910156 3.292969 1.339843 4.992188 1.339843 3.453125 0 6.8125-1.792969 8.667969-5 2.761718-4.777343 1.125-10.894531-3.65625-13.65625-7.59375-4.386719-16.238282-6.703125-25.003907-6.703125-8.761719 0-17.40625 2.3125-25 6.699219-4.78125 2.765625-6.417969 8.878906-3.65625 13.660156 2.761719 4.785157 8.875 6.421875 13.660157 3.660157zm0 0" fill="#000001"/><path d="m255.992188 463.042969c5.523437 0 10-4.480469 10-10v-.476563c0-5.523437-4.476563-10-10-10-5.519532 0-10 4.476563-10 10v.476563c0 5.519531 4.480468 10 10 10zm0 0" fill="#000001"/><path d="m501.996094 491.996094h-.234375c-5.523438 0-10 4.480468-10 10 0 5.523437 4.476562 10 10 10h.234375c5.523437 0 10-4.476563 10-10 0-5.519532-4.476563-10-10-10zm0 0" fill="#000001"/><path d="m473.03125 491.996094h-7.277344c-.515625-10.839844-1.863281-21.523438-4-31.980469-.003906-.019531-.007812-.039063-.011718-.058594-11.667969-56.992187-46.734376-107.089843-97.664063-137.804687 12.089844-18.050782 19.785156-39.28125 21.53125-62.152344h.378906c22.054688 0 40-17.941406 40-40 0-22.054688-17.941406-39.996094-39.996093-40v-10c0-68.316406-52.96875-124.492188-120-129.617188v-20.382812h49.375c5.523437 0 10-4.480469 10-10 0-5.523438-4.476563-10-10-10h-118.746094c-5.523438 0-10 4.476562-10 10 0 5.519531 4.476562 10 10 10h49.371094v20.382812c-67.027344 5.121094-120 61.300782-120 129.617188v10c-22.058594 0-40 17.945312-40 40 0 22.058594 17.941406 40 40 40h.382812c1.746094 22.871094 9.445312 44.101562 21.535156 62.15625-50.929687 30.71875-85.992187 80.816406-97.65625 137.808594-.003906.015625-.007812.027344-.007812.042968-2.140625 10.457032-3.488282 21.144532-4.003906 31.988282h-7.273438c-5.523438 0-10 4.480468-10 10 0 5.523437 4.476562 10 10 10h16.953125c.023437 0 .050781.003906.074219.003906.027344 0 .054687-.003906.078125-.003906h59.847656c.023437 0 .050781.003906.078125.003906.023438 0 .050781-.003906.074219-.003906h279.847656c.023437 0 .050781.003906.074219.003906.027344 0 .054687-.003906.078125-.003906h59.84375c.027343 0 .054687.003906.078125.003906.027344 0 .050781-.003906.078125-.003906h16.957031c5.519531 0 9.996094-4.476563 9.996094-10 0-5.519532-4.476563-10-9.996094-10zm-67.035156-106.394532c15.328125 19.679688 26.667968 42.226563 33.285156 66.398438h-33.285156zm0 86.398438h37.613281c1.054687 6.582031 1.769531 13.257812 2.125 19.996094h-39.738281zm-.007813-252c0 11.023438-8.96875 20-19.996093 20v-40c11.027343.003906 19.996093 8.972656 19.996093 20zm-40.457031-60h-46.640625c-1.042969-29.671875-6.695313-57.390625-16.214844-78.898438-2.21875-5.019531-4.613281-9.605468-7.160156-13.75 38.214844 14.761719 66.179687 50.273438 70.015625 92.648438zm-109.539062-100c9.695312 0 20.308593 10.914062 28.394531 29.191406 8.4375 19.074219 13.488281 43.925782 14.496093 70.808594h-85.78125c1.007813-26.882812 6.058594-51.734375 14.496094-70.808594 8.089844-18.277344 18.703125-29.191406 28.394532-29.191406zm-39.523438 7.351562c-2.546875 4.144532-4.9375 8.730469-7.160156 13.75-9.515625 21.507813-15.167969 49.222657-16.210938 78.898438h-46.644531c3.835937-42.375 31.804687-77.886719 70.015625-92.648438zm-110.476562 152.648438c0-11.027344 8.972656-20 20-20v40c-11.03125 0-20-8.972656-20-20zm40-40h220v9.921875c0 .027344-.003907.050781-.003907.078125s.003907.050781.003907.078125v59.847656c0 .023438-.003907.050781-.003907.074219 0 .019531.003907.042969.003907.0625-.015626 25.636719-8.847657 49.25-23.617188 67.964844-.59375.570312-1.125 1.226562-1.574219 1.953125-8.253906 9.980469-18.230469 18.480469-29.46875 25.054687-.636719.277344-1.242187.625-1.804687 1.027344-15.855469 8.871094-34.113282 13.9375-53.535156 13.9375h-.003907c-19.414062 0-37.664062-5.0625-53.515625-13.925781-.574218-.417969-1.191406-.769531-1.84375-1.058594-11.214844-6.558594-21.175781-15.042969-29.414062-25-.464844-.753906-1.007813-1.429687-1.625-2.011719-14.769532-18.726562-23.597656-42.355468-23.597656-68.003906zm109.996093 211.261719c-14.976562 0-28.605469-6.410157-38.007812-16.9375 12.027343 3.683593 24.789062 5.675781 38.007812 5.675781h.003907c13.21875 0 25.980468-1.988281 38.003906-5.671875-9.402344 10.523437-23.03125 16.933594-38.007813 16.933594zm-67.933593-30.472657c8.023437 26.726563 30.65625 45.953126 57.9375 49.765626v12.929687c.003906 5.523437 4.480468 9.996094 10 9.996094h.003906c5.523437 0 10-4.476563 9.996094-10v-12.925781c27.273437-3.816407 49.910156-23.039063 57.933593-49.761719 10.246094-6.304688 19.550781-13.988281 27.664063-22.796875 12.550781 7.351562 24.0625 15.988281 34.40625 25.691406v128.308594h-259.996094v-128.3125c10.339844-9.699219 21.851562-18.332032 34.398438-25.683594 8.109374 8.804688 17.414062 16.488281 27.65625 22.789062zm-82.054688 91.210938h-33.289062c6.617187-24.175781 17.960937-46.71875 33.289062-66.398438zm-37.617188 20h37.617188v19.996094h-39.738281c.355469-6.738282 1.070312-13.414063 2.121093-19.996094zm0 0" fill="#000001"/><path d="m10.234375 491.996094h-.234375c-5.523438 0-10 4.480468-10 10 0 5.523437 4.476562 10 10 10h.234375c5.523437 0 10-4.476563 10-10 0-5.519532-4.476563-10-10-10zm0 0" fill="#000001"/><path d="m225.992188 306.347656c0 16.542969 13.457031 30 29.996093 30 16.542969 0 30.003907-13.457031 30.003907-30 0-16.542968-13.460938-30-30.003907-30-16.539062 0-29.996093 13.457032-29.996093 30zm29.996093-10.003906c5.515625 0 10.003907 4.488281 10.003907 10.003906s-4.488282 10-10.003907 10c-5.511719 0-9.996093-4.484375-9.996093-10s4.484374-10.003906 9.996093-10.003906zm0 0" fill="#000001"/></svg>