<svg height="512pt" viewBox="0 0 512 512" width="512pt" xmlns="http://www.w3.org/2000/svg"><path d="m386 190h-10c-48.839844 6.804688-68.574219-45.027344-80.636719-59.273438-37.167969 33.453126-79.917969 59.273438-100.359375 59.273438h-10c-.757812 0-1.5.039062-2.242187.09375 31.03125.800781 63.714843 9.078125 71.929687 34.542969.683594 2.121093 1.125 4.25 1.332032 6.363281-.191407 1.941406-.1875 3.871094 0 5.777344-1.445313 14.726562-13.839844 27.863281-31.953126 31.898437-9.613281 2.136719-18.894531 1.949219-27.589843-.011719.6875 4.359376 1.597656 8.644532 2.746093 12.835938 4.429688 16.1875 12.1875 31.03125 22.488282 43.746094 16.070312 19.878906 38.335937 34.550781 63.785156 41.046875 25.449219-6.496094 47.714844-21.167969 63.785156-41.046875 10.300782-12.714844 18.0625-27.5625 22.5-43.746094 2.742188-10.054688 4.214844-20.609375 4.222656-31.503906h9.996094c16.570313 0 30-13.429688 30-29.996094s-13.429687-30-30.003906-30zm0 0" fill="#fcd0ac" fill-rule="evenodd"/><path d="m140.226562 281.5c-2.753906-10.046875-4.222656-20.609375-4.222656-31.503906h-10c-11.777344 0-21.964844-6.789063-26.875-16.664063v41.667969c0 24.371094-19.757812 44.125-44.121094 44.121094.886719 1.109375 1.796876 2.1875 2.734376 3.242187 4.347656.75 8.785156 1.136719 13.265624 1.136719 29.09375 0 55.769532-16.1875 69.21875-42zm0 0" fill="#0586ad" fill-rule="evenodd"/><path d="m99.132812 95v111.667969c4.910157-9.878907 15.09375-16.667969 26.871094-16.667969v-50.003906c0-37.957032 16.269532-72.117188 42.21875-95.878906-1.523437-3.15625-3.316406-6.164063-5.347656-8.988282-1.238281-.078125-2.488281-.125-3.746094-.125-33 0-59.996094 26.996094-59.996094 59.996094zm0 0" fill="#0586ad" fill-rule="evenodd"/><path d="m343.789062 44.121094c-15.210937-13.9375-33.75-24.300782-54.289062-29.761719-20.535156 5.460937-39.074219 15.824219-54.285156 29.753906-25.945313 23.765625-42.214844 57.925781-42.214844 95.886719v44.667969c38.09375-7.054688 82.792969-23.136719 103.625-59.214844 0 0 4.910156 22.019531 21.945312 40.339844 12.125 13.042969 30.394532 24.207031 57.429688 24.207031h10v-50c0-37.957031-16.269531-72.117188-42.210938-95.878906zm0 0" fill="#0586ad"/><path d="m386.003906 139.996094c0-37.957032-16.265625-72.117188-42.214844-95.878906 9.707032-20.132813 30.34375-34.113282 54.09375-34.113282 33 0 59.996094 26.996094 59.996094 59.996094v180c0 24.371094 19.753906 44.125 44.121094 44.121094-14.800781 18.566406-37.253906 29.378906-61 29.378906-29.09375 0-55.769531-16.1875-69.214844-42 2.75-10.046875 4.222656-20.609375 4.222656-31.503906h9.996094c16.570313 0 30-13.429688 30-29.992188 0-16.570312-13.429687-30.003906-30-30.003906zm0 0" fill="#0586ad" fill-rule="evenodd"/><path d="m257.335938 224.636719c-.6875 2.121093-1.125 4.25-1.332032 6.363281.191406 1.941406.1875 3.871094 0 5.777344 1.445313 14.726562 13.839844 27.863281 31.953125 31.898437 48.21875 10.722657 88.046875-36.910156 88.046875-74.4375-32.367187-7.199219-105.753906-9.632812-118.667968 30.398438zm0 0" fill="#ff5a5a" fill-rule="evenodd"/><path d="m254.691406 224.636719c-6.574218-20.378907-28.820312-29.746094-53.347656-33.089844-6.039062.726563-11.53125 1.660156-16.179688 2.695313 0 26.742187 20.234376 58.617187 49.316407 70.84375 12.335937-5.925782 20.394531-16.617188 21.542969-28.308594-.1875-1.902344-.191407-3.835938 0-5.777344-.207032-2.113281-.648438-4.242188-1.332032-6.363281zm0 0" fill="#ff5a5a" fill-rule="evenodd"/><path d="m92.34375 501.996094h23.65625v-94.027344c-15.078125 28.070312-23.65625 60.09375-23.65625 94.027344zm0 0" fill="#fcd0ac" fill-rule="evenodd"/><path d="m365.996094 335.207031v37.503907c0 40.328124-33.378906 74.625-78.816406 85.605468-9.898438 2.390625-20.363282 3.679688-31.179688 3.679688-30.226562 0-57.707031-10.027344-77.640625-26.1875v66.1875h217.636719v-142.472656c-9.183594-9.027344-19.230469-17.179688-30-24.316407zm0 0" fill="#f9d973"/><path d="m395.996094 359.523438v142.472656h60c0-55.625-23.019532-106.132813-60-142.472656zm0 0" fill="#fcd0ac" fill-rule="evenodd"/><path d="m349.292969 325.257812c-16.027344 19.808594-38.207031 34.453126-63.554688 40.976563-9.519531 2.449219-19.480469 3.761719-29.734375 3.761719-18.027344 0-35.152344-4.035156-50.53125-11.234375v13.953125c0 40.75 34.085938 75.351562 80.261719 85.945312 46.171875-10.59375 80.261719-45.195312 80.261719-85.945312v-37.507813c-5.394532-3.582031-10.972656-6.90625-16.703125-9.949219zm0 0" fill="#fcd0ac"/><g fill="#000001"><path d="m230.996094 312.324219c7.589844 4.382812 16.234375 6.699219 25 6.699219 8.769531 0 17.414062-2.316407 25.003906-6.699219 4.78125-2.765625 6.417969-8.878907 3.65625-13.664063-2.761719-4.78125-8.878906-6.417968-13.660156-3.65625-4.550782 2.632813-9.738282 4.019532-15 4.019532-5.257813 0-10.445313-1.386719-14.996094-4.019532-4.78125-2.761718-10.898438-1.125-13.660156 3.65625-2.761719 4.785156-1.125 10.898438 3.65625 13.664063zm0 0"/><path d="m196.027344 155.570312c.8125 0 1.636718-.101562 2.460937-.308593l.207031-.054688c5.320313-1.320312 8.59375-6.691406 7.3125-12.03125-1.289062-5.371093-6.683593-8.679687-12.054687-7.394531-.128906.03125-.257813.0625-.40625.101562-5.335937 1.371094-8.558594 6.796876-7.207031 12.140626 1.148437 4.527343 5.21875 7.546874 9.6875 7.546874zm0 0"/><path d="m10.234375 491.988281h-.234375c-5.523438 0-10 4.476563-10 10 0 5.523438 4.476562 10 10 10h.234375c5.523437 0 10-4.476562 10-10 0-5.523437-4.476563-10-10-10zm0 0"/><path d="m501.992188 491.988281h-.234376c-5.523437 0-10 4.476563-10 10 0 5.523438 4.476563 10 10 10h.234376c5.523437 0 10-4.476562 10-10 0-5.523437-4.476563-10-10-10zm0 0"/><path d="m473.023438 491.988281h-7.273438c-3.324219-69.957031-41.382812-133.476562-101.667969-169.839843 3.996094-5.96875 7.515625-12.28125 10.496094-18.890626 16.484375 19.003907 40.511719 30.234376 66.421875 30.234376 26.867188 0 51.882812-12.015626 68.675781-32.96875.027344-.03125.054688-.0625.082031-.09375.019532-.027344.039063-.050782.058594-.074219.046875-.058594.085938-.125.128906-.183594.148438-.191406.289063-.382813.421876-.585937.0625-.09375.113281-.1875.171874-.28125.113282-.183594.226563-.371094.324219-.566407.058594-.109375.109375-.21875.160157-.332031.085937-.183594.171874-.367188.25-.554688.046874-.121093.089843-.246093.132812-.367187.066406-.183594.132812-.367187.1875-.554687.039062-.132813.070312-.265626.101562-.398438.046876-.183594.089844-.363281.125-.546875.027344-.148437.046876-.292969.066407-.4375.027343-.179687.054687-.355469.070312-.535156.011719-.15625.015625-.316407.023438-.472657.003906-.140624.019531-.277343.019531-.417968 0-.035156-.003906-.066406-.003906-.101563-.003906-.144531-.015625-.285156-.023438-.425781-.007812-.191406-.015625-.386719-.035156-.578125-.007812-.0625-.023438-.128906-.03125-.195313-.207031-1.578124-.769531-3.042968-1.621094-4.304687-.058594-.082031-.125-.160156-.183594-.242187-.128906-.179688-.261718-.363282-.402343-.535157-.066407-.082031-.148438-.160156-.21875-.242187-.148438-.164063-.296875-.332032-.453125-.488282-.066406-.066406-.140625-.125-.210938-.191406-.175781-.164062-.351562-.324218-.539062-.476562-.015625-.011719-.027344-.023438-.042969-.035156-.0625-.050782-.132813-.09375-.199219-.144532-.183594-.140625-.367187-.277344-.5625-.402344-.101562-.066406-.203125-.125-.308594-.191406-.175781-.101562-.351562-.210937-.535156-.308594-.121094-.0625-.246094-.117187-.367187-.175781-.171875-.082031-.339844-.160156-.515625-.230469-.140625-.054687-.277344-.105468-.421875-.152343-.160157-.058594-.328125-.117188-.496094-.167969-.15625-.046875-.3125-.082031-.46875-.121094-.15625-.039062-.3125-.074218-.476563-.105468-.175781-.035157-.351562-.058594-.53125-.082032-.144531-.019531-.285156-.042968-.433593-.058594-.203125-.015624-.40625-.019531-.609375-.027343-.101563-.003907-.203125-.015625-.308594-.015625-18.816406 0-34.125-15.308594-34.125-34.125v-180c0-38.597656-31.398438-69.996094-69.996094-69.996094-22.476562 0-43.59375 11.078125-56.652344 29.011719-23.625-18.183594-53.183593-29.011719-85.230468-29.011719-32.042969 0-61.597656 10.828125-85.21875 29.007812-13.0625-17.933593-34.175782-29.007812-56.652344-29.007812-38.597656 0-69.996094 31.398438-69.996094 69.996094v180c0 18.816406-15.308594 34.125-34.128906 34.125-.105469 0-.214844.011718-.320312.015625-.199219.007812-.394532.011719-.589844.03125-.152344.011719-.304688.039062-.457032.058593-.171874.023438-.339843.042969-.507812.078126-.167969.03125-.335938.074218-.5.113281-.148438.035156-.296875.070312-.441406.113281-.179688.050781-.351563.113281-.527344.175781-.128906.046875-.257812.089844-.386719.140625-.1875.078125-.367187.160156-.546875.246094-.113281.054688-.226562.105469-.335937.164062-.199219.101563-.386719.214844-.574219.328126-.089844.054687-.183594.105468-.273438.164062-.207031.136719-.410156.285156-.609374.4375-.050782.042969-.105469.074219-.15625.117188-.015626.007812-.023438.019531-.035157.03125-.210937.167968-.410156.347656-.605469.53125-.046874.046874-.101562.089843-.148437.132812-.191406.191406-.375.394531-.554687.601562-.035157.042969-.078126.085938-.117188.128907-1.363281 1.640625-2.203125 3.722656-2.2890625 6.003906-.0039063.085937-.0117187.175781-.015625.265625 0 .039062-.00390625.078125-.00390625.121094 0 .175781.01562495.347656.02343755.519531.0078124.113281.0078124.234375.0195312.351563.0195312.214843.0507812.425781.082031.636718.015625.109375.027344.222656.050782.332032.039062.214843.089843.429687.144531.640624.023437.101563.046875.207032.078125.308594.0625.214844.136718.425782.214844.636719.035156.097656.066406.191406.101562.285156.089844.21875.1875.429688.285156.640625.042969.082032.078125.167969.125.25.113282.222656.238282.4375.371094.644532.039062.070312.078125.136718.121094.207031.152344.230469.3125.449219.484375.667969.027343.039062.050781.078124.082031.117187.011719.015625.023438.03125.039062.046875.039063.046875.078126.09375.117188.144531 16.792969 20.941407 41.804688 32.945313 68.660156 32.945313 25.90625 0 49.933594-11.226563 66.417969-30.226563 2.976563 6.601563 6.496094 12.914063 10.492187 18.878907-60.292968 36.363281-98.351562 99.882812-101.675781 169.84375h-7.273437c-5.519532 0-10 4.476562-10 10 0 5.523437 4.480468 10 10 10h434.058594c5.523437 0 10-4.476563 10-10 0-5.527344-4.476563-10.003907-10-10.003907zm-347.027344-128.3125c3.222656-3.019531 6.558594-5.9375 10.003906-8.746093v17.777343c0 54.75 53.828125 99.285157 119.996094 99.285157 66.167968 0 119.996094-44.535157 119.996094-99.285157v-17.773437c3.445312 2.808594 6.78125 5.726562 10.003906 8.746094v128.308593h-260zm34.402344-25.683593c23.773437 25.804687 57.828124 42.003906 95.601562 42.003906 37.769531 0 71.820312-16.195313 95.59375-42.003906 1.480469.867187 2.949219 1.75 4.398438 2.652343v32.0625c0 20.679688-10.160157 40.316407-28.613282 55.292969-16.683594 13.542969-38.1875 21.761719-61.382812 23.597656v-10.714844c0-5.519531-4.476563-10-10-10-5.523438 0-10 4.480469-10 10v10.714844c-23.191406-1.835937-44.699219-10.054687-61.382813-23.597656-18.453125-14.976562-28.613281-34.613281-28.613281-55.292969v-32.066406c1.449219-.902344 2.921875-1.78125 4.398438-2.648437zm105.640624-106.734376c.15625-1.148437.410157-2.332031.804688-3.554687 8.066406-24.984375 49.9375-27.6875 67.566406-27.6875 10.433594 0 21.269532.847656 30.867188 2.367187-2.105469 12.210938-8.660156 25.339844-18.140625 35.832032-12.808594 14.179687-28.914063 21.988281-45.351563 21.988281-3.863281 0-7.789062-.4375-11.664062-1.300781-9.496094-2.109375-17.289063-7.417969-21.375-14.558594-1.152344-2.011719-2.277344-4.671875-2.707032-7.808594.117188-1.753906.117188-3.515625 0-5.277344zm119.957032 8.738282h-10c-2.714844 0-5.171875 1.085937-6.972656 2.839844 9.472656-13.246094 15.417968-28.4375 16.695312-42.839844h.277344c11.027344 0 19.996094 8.972656 19.996094 20.003906.003906 11.027344-8.96875 19.996094-19.996094 19.996094zm-130-33.503906c-6.925782-8.550782-17.101563-15.144532-30.191406-19.609376 29.558593-9.230468 52.320312-22.757812 67.925781-40.414062 2.503906 5.285156 5.8125 11.207031 10.113281 17.132812 4.054688 5.578126 9.269531 11.515626 15.832031 16.941407-29.824219 2.167969-51.65625 11.105469-63.679687 25.949219zm-78.410156-6.472657c17.628906 0 59.5 2.699219 67.566406 27.683594.390625 1.222656.648437 2.40625.804687 3.554687-.117187 1.761719-.121093 3.523438 0 5.28125-.433593 3.136719-1.558593 5.796876-2.707031 7.808594-4.089844 7.140625-11.878906 12.445313-21.375 14.558594-3.875.863281-7.796875 1.300781-11.660156 1.300781h-.003906c-16.4375-.003906-32.542969-7.8125-45.351563-21.988281-9.480469-10.496094-16.035156-23.621094-18.136719-35.832031 9.59375-1.523438 20.425782-2.367188 30.863282-2.367188zm-51.585938-.023437h.277344c1.277344 14.402344 7.222656 29.59375 16.699218 42.84375-1.804687-1.757813-4.261718-2.84375-6.976562-2.84375h-10c-11.027344 0-20-8.972656-20-19.996094 0-11.03125 8.972656-20.003906 20-20.003906zm20 50c0-1.628906-.398438-3.167969-1.09375-4.527344 1.617188 2.109375 3.316406 4.167969 5.109375 6.152344 16.652344 18.429687 38.027344 28.582031 60.191406 28.582031h.003907c5.324218 0 10.707031-.597656 16.003906-1.777344 12.082031-2.6875 22.566406-8.933593 29.78125-17.554687 7.214844 8.621094 17.699218 14.867187 29.78125 17.554687 5.296875 1.179688 10.683594 1.777344 16.007812 1.777344 22.164063 0 43.542969-10.148437 60.191406-28.582031 1.792969-1.984375 3.492188-4.039063 5.109376-6.148438-.695313 1.359375-1.09375 2.894532-1.09375 4.523438 0 25.644531-8.820313 49.265625-23.585938 67.992187-.621094.589844-1.171875 1.265625-1.636719 2.023438-20.191406 24.40625-50.699219 39.984375-84.777343 39.984375-34.085938 0-64.601563-15.589844-84.792969-40.007813-.457031-.738281-.992188-1.402343-1.59375-1.980469-14.777344-18.726562-23.605469-42.355468-23.605469-68.011718zm259.992188 135.597656c23.527343 30.207031 37.675781 67.164062 39.738281 106.394531h-39.738281zm-8.113282-365.59375c27.566406 0 49.996094 22.425781 49.996094 49.996094v180c0 22.609375 13.9375 42.011718 33.667969 50.097656-11.585938 8.628906-25.691407 13.402344-40.542969 13.402344-24.222656 0-46.316406-12.703125-58.535156-33.382813 1.558594-6.53125 2.625-13.246093 3.148437-20.117187h.382813c22.054687 0 40-17.941406 40-39.996094 0-18.605469-12.769532-34.285156-30-38.738281v-41.269531c0-37.917969-15.164063-72.359376-39.734375-97.59375 9.21875-13.792969 24.894531-22.398438 41.617187-22.398438zm-21.882812 119.992188v40.003906c-55.976563 0-69.085938-54.433594-69.609375-56.722656-.898438-4.023438-4.171875-7.085938-8.246094-7.710938-4.070313-.617188-8.113281 1.3125-10.175781 4.882812-32.726563 56.679688-132.328125 59.550782-151.964844 59.550782v-16.289063c9.21875 0 21.15625-.945312 32.753906-2.59375 5.46875-.777343 9.269532-5.839843 8.492188-11.308593s-5.835938-9.269532-11.308594-8.492188c-15.207031 2.160156-26 2.394531-29.9375 2.394531v-3.714843c0-66.164063 53.832031-119.992188 119.996094-119.992188 66.167968 0 120 53.828125 120 119.992188zm-304.992188 173.503906c-14.851562 0-28.957031-4.773438-40.542968-13.402344 19.730468-8.085938 33.667968-27.488281 33.667968-50.097656v-180c0-27.570313 22.425782-49.996094 49.996094-49.996094 16.722656 0 32.394531 8.601562 41.613281 22.394531-24.574219 25.234375-39.734375 59.679688-39.734375 97.601563v41.269531c-17.234375 4.449219-30.003906 20.128906-30.003906 38.734375 0 22.054688 17.945312 40 40 40h.382812c.523438 6.871094 1.59375 13.589844 3.148438 20.125-12.214844 20.671875-34.308594 33.371094-58.527344 33.371094zm34.996094 72.09375v106.398437h-39.738281c2.0625-39.230469 16.210937-76.191406 39.738281-106.398437zm0 0"/></g></svg>