<svg height="512pt" viewBox="0 0 512 512" width="512pt" xmlns="http://www.w3.org/2000/svg"><path d="m95.332031 501.996094h20.664063v-88.265625c-13.21875 26.660156-20.664063 56.636719-20.664063 88.265625zm0 0" fill="#5f5148" fill-rule="evenodd"/><path d="m256.003906 369.996094-8.15625 6.867187 8.15625 22.792969zm0 0" fill="#5f5148"/><path d="m256.003906 399.65625-8.15625-22.792969-51.230468 43.140625-13.953126-38.992187v120.984375l73.339844-.003906zm0 0" fill="#5f5148"/><path d="m256 369.996094c-16.234375 0-31.738281-3.273438-45.894531-9.183594l13.152343 36.757812zm0 0" fill="#5f5148" fill-rule="evenodd"/><path d="m396.007812 501.996094v-142.476563c8.996094 8.84375 17.167969 18.523438 24.382813 28.90625 22.4375 32.316407 35.617187 71.480469 35.617187 113.570313zm0 0" fill="#5f5148" fill-rule="evenodd"/><path d="m396.007812 359.519531v142.480469l-140.003906-.003906v-132l59.386719 50.007812 33.898437-94.734375c.003907-.007812.007813-.007812.007813-.015625 17.195313 9.140625 32.925781 20.71875 46.710937 34.265625zm0 0" fill="#5f5148" fill-rule="evenodd"/><path d="m349.289062 325.269531-33.898437 94.734375-59.382813-50.007812c37.558594 0 71.234376-17.488282 93.28125-44.726563zm0 0" fill="#5f5148" fill-rule="evenodd"/><path d="m218.089844 10v138.449219l.011718.003906 37.902344 9.050781 11.289063-2.695312 26.609375-6.351563 8.152344-1.949219 29.746093-7.105468c1.355469 5.460937 3.035157 10.617187 4.996094 15.402344 8.722656 21.300781 23.03125 35.191406 39.203125 35.191406h10v-179.996094zm0 0" fill="#ff5a5a"/><path d="m136 245.953125.003906-51.910156c-8.941406 5.195312-14.960937 14.867187-14.960937 25.957031 0 11.082031 6.015625 20.757812 14.957031 25.953125zm0 0" fill="#fcd0ac" fill-rule="evenodd"/><path d="m376.003906 189.996094v60.003906h10c16.566406 0 29.996094-13.433594 29.996094-30 0-16.570312-13.429688-30.003906-29.996094-30.003906zm0 0" fill="#fcd0ac" fill-rule="evenodd"/><path d="m336.015625 152.84375c-1.625-4.222656-3.042969-8.71875-4.210937-13.441406l-37.902344 9.054687-7.640625 1.824219-30.257813 7.222656s-44.019531-10.320312-59.5-14.503906v107c0 28.429688 10.019532 54.636719 26.707032 75.253906l.007812.019532c15.917969 19.667968 37.902344 34.246093 63.03125 40.832031 25.132812-6.585938 47.121094-21.167969 63.039062-40.835938.003907-.019531 0-.019531.007813-.019531 16.6875-20.617188 26.707031-46.820312 26.707031-75.25v-60.003906c-16.667968 0-31.351562-14.746094-39.988281-37.152344zm0 0" fill="#fcd0ac"/><g fill="#000001"><path d="m473.035156 491.992188h-7.277344c-3.324218-69.960938-41.382812-133.480469-101.671874-169.839844 12.089843-18.050782 19.789062-39.28125 21.535156-62.152344h.382812c22.054688 0 39.996094-17.945312 39.996094-40 0-18.605469-12.765625-34.285156-29.996094-38.738281v-171.261719c0-5.523438-4.480468-10-10-10h-260.003906c-5.519531 0-10 4.476562-10 10v171.261719c-17.230469 4.453125-29.996094 20.132812-29.996094 38.738281 0 22.054688 17.941406 40 39.996094 40h.382812c1.746094 22.871094 9.445313 44.101562 21.53125 62.152344-60.289062 36.355468-98.347656 99.875-101.671874 169.839844h-7.277344c-5.523438 0-10 4.480468-10 10 0 5.523437 4.476562 10 10 10h16.957031c.023437 0 .050781.003906.078125.003906.023438 0 .050781-.003906.074219-.003906h59.847656c.023437 0 .050781.003906.074219.003906.027344 0 .054687-.003906.078125-.003906h279.847656c.027344 0 .050781.003906.078125.003906s.050781-.003906.078125-.003906h59.847656c.023438 0 .050781.003906.074219.003906.027344 0 .054688-.003906.078125-.003906h16.957031c5.523438 0 10-4.476563 10-10 0-5.519532-4.476562-10-10-10zm-347.039062-128.308594c9.488281-8.898438 19.960937-16.898438 31.316406-23.835938l29.890625 83.523438c1.105469 3.085937 3.648437 5.433594 6.808594 6.285156.859375.234375 1.734375.347656 2.605469.347656 2.328124 0 4.617187-.8125 6.441406-2.351562l42.945312-36.164063v100.503907h-120.007812zm59.464844-4.539063c13.746093 8.917969 29.277343 15.304688 45.925781 18.507813l-30.203125 25.433594zm80.542968 32.34375 42.941406 36.164063c1.824219 1.535156 4.113282 2.351562 6.445313 2.351562.867187 0 1.742187-.113281 2.601563-.347656 3.164062-.851562 5.707031-3.199219 6.8125-6.285156l29.886718-83.519532c11.351563 6.9375 21.820313 14.9375 31.308594 23.832032v128.3125h-119.996094zm14.617188-13.839843c16.648437-3.203126 32.179687-9.589844 45.925781-18.503907l-15.726563 43.9375zm125.378906 7.949218c23.527344 30.203125 37.671875 67.164063 39.738281 106.394532h-39.738281zm0-165.597656c0 11.027344-8.96875 20-19.996094 20v-40.003906c11.027344 0 19.996094 8.972656 19.996094 20.003906zm-270-200h240.003906v159.996094c-14.257812 0-28.117187-17.277344-34.496094-43-1.320312-5.328125-6.683593-8.59375-12.027343-7.320313l-25.578125 6.109375v-13.96875c0-5.523437-4.476563-10-10-10-5.523438 0-10 4.476563-10 10v18.742188l-17.898438 4.273437.003906-40.609375c0-5.523437-4.480468-10-10-10-5.523437 0-10 4.476563-10 10l-.003906 40.609375-17.898437-4.273437v-18.746094c0-5.523438-4.480469-10-10-10-5.523438 0-10 4.476562-10 10v13.972656l-25.578125-6.109375c-5.339844-1.277343-10.707032 1.996094-12.027344 7.320313-6.378906 25.722656-20.242188 43-34.496094 43v-159.996094zm-29.996094 200c0-11.03125 8.96875-20.003906 19.996094-20.003906v40.003906c-11.027344 0-19.996094-8.972656-19.996094-20zm40-21.351562c17.589844-4.792969 32.734375-22.105469 41.144532-47.308594l66.53125 15.890625c.039062.007812.074218.007812.109374.015625.269532.0625.542969.109375.820313.148437.097656.011719.191406.03125.285156.042969.34375.039062.695313.058594 1.046875.058594h.121094c.351562 0 .703125-.019532 1.046875-.058594.09375-.011719.191406-.03125.285156-.042969.277344-.039062.550781-.085937.820313-.148437.035156-.007813.074218-.011719.109375-.015625l37.578125-8.976563c.023437-.003906.046875-.011718.070312-.015625l28.882813-6.898437c8.40625 25.203125 23.550781 42.515625 41.144531 47.3125v51.347656c0 25.648438-8.824219 49.277344-23.597656 68.003906-.144532.136719-.277344.277344-.410156.417969-.042969.046875-.082032.089844-.121094.132813-.175782.195312-.34375.398437-.503906.605468-.042969.054688-.085938.113282-.125.167969-.15625.210937-.300782.425781-.441407.648437-.007812.019532-.023437.035157-.03125.050782-20.167969 24.367187-50.621093 39.929687-84.640625 39.96875-.023437 0-.046875 0-.070312 0-.019532 0-.035156 0-.054688 0-.019531 0-.039062 0-.058594 0-.023437 0-.046874 0-.070312 0-34.011719-.035156-64.453125-15.589844-84.621094-39.945313-.046875-.074219-.097656-.140625-.144531-.210937-.074219-.117188-.152344-.234375-.234375-.347656-.109375-.15625-.222656-.308594-.339844-.457032-.089844-.113281-.183594-.226562-.28125-.339844-.113281-.128906-.230468-.257812-.351562-.382812-.09375-.097656-.1875-.191406-.28125-.285156-14.785156-18.730469-23.617188-42.367188-23.617188-68.027344zm-40.007812 186.949218v106.398438h-39.734375c2.066406-39.234375 16.210937-76.191406 39.734375-106.398438zm0 0"/><path d="m502 491.992188h-.234375c-5.523437 0-10 4.480468-10 10 0 5.523437 4.476563 10 10 10h.234375c5.523438 0 10-4.476563 10-10 0-5.519532-4.476562-10-10-10zm0 0"/><path d="m10.234375 491.992188h-.234375c-5.523438 0-10 4.480468-10 10 0 5.523437 4.476562 10 10 10h.234375c5.519531 0 10-4.476563 10-10 0-5.519532-4.476563-10-10-10zm0 0"/><path d="m291.851562 439.855469h-.234374c-5.523438 0-10 4.476562-10 10 0 5.519531 4.476562 10 10 10h.234374c5.523438 0 10-4.480469 10-10 0-5.523438-4.476562-10-10-10zm0 0"/><path d="m306.003906 237.5c-6.882812 0-12.5 5.613281-12.5 12.5 0 6.882812 5.617188 12.5 12.5 12.5 6.882813 0 12.5-5.617188 12.5-12.5 0-6.886719-5.617187-12.5-12.5-12.5zm0 0"/><path d="m206.003906 237.5c-6.886718 0-12.503906 5.613281-12.503906 12.5 0 6.882812 5.617188 12.5 12.503906 12.5 6.882813 0 12.5-5.617188 12.5-12.5 0-6.886719-5.617187-12.5-12.5-12.5zm0 0"/><path d="m188.574219 219.75c5.082031-1.359375 10.453125-1.359375 15.527343 0 5.082032 1.363281 9.734376 4.046875 13.457032 7.769531 1.949218 1.949219 4.507812 2.925781 7.066406 2.925781s5.121094-.976562 7.074219-2.929687c3.902343-3.90625 3.902343-10.238281-.003907-14.140625-6.199218-6.199219-13.949218-10.671875-22.417968-12.945312-8.460938-2.265626-17.410156-2.261719-25.875 0-5.335938 1.429687-8.503906 6.910156-7.074219 12.246093 1.429687 5.335938 6.902344 8.503907 12.246094 7.074219zm0 0"/><path d="m287.378906 230.445312c2.558594 0 5.117188-.976562 7.070313-2.929687 3.722656-3.71875 8.371093-6.40625 13.445312-7.765625 5.082031-1.359375 10.453125-1.359375 15.535157 0 5.339843 1.429688 10.816406-1.742188 12.246093-7.074219 1.425781-5.335937-1.742187-10.816406-7.078125-12.246093-8.460937-2.265626-17.40625-2.265626-25.878906.003906-8.464844 2.269531-16.210938 6.742187-22.410156 12.9375-3.90625 3.90625-3.90625 10.238281 0 14.144531 1.953125 1.953125 4.511718 2.929687 7.070312 2.929687zm0 0"/><path d="m227.34375 298.664062c-2.765625 4.785157-1.125 10.898438 3.65625 13.660157 7.589844 4.382812 16.234375 6.699219 25 6.699219 8.769531 0 17.414062-2.316407 25.003906-6.699219 4.78125-2.761719 6.421875-8.875 3.660156-13.660157-2.765624-4.78125-8.878906-6.421874-13.664062-3.660156-4.550781 2.632813-9.738281 4.019532-15 4.019532-5.257812 0-10.445312-1.386719-14.996094-4.019532-4.785156-2.757812-10.902344-1.121094-13.660156 3.660156zm0 0"/><path d="m256.003906 85.136719c5.523438 0 10-4.476563 10-10v-.472657c0-5.519531-4.476562-10-10-10-5.523437 0-10 4.480469-10 10v.472657c0 5.523437 4.476563 10 10 10zm0 0"/></g></svg>