<svg height="512pt" viewBox="0 0 512 512" width="512pt" xmlns="http://www.w3.org/2000/svg"><path d="m225.996094 144.640625v-88.433594c-24.425782 23.441407-39.710938 56.328125-39.988282 92.792969 12.109376-1.992188 25.585938-3.484375 39.988282-4.359375zm0 0" fill="#f9d973" fill-rule="evenodd"/><path d="m261.996094 143.792969c4.054687.046875 8.050781.144531 12 .285156 3.949218-.140625 7.945312-.238281 12-.285156v-133.792969h-24zm0 0" fill="#f4ba64" fill-rule="evenodd"/><path d="m285.996094 23.484375v121.15625c57.332031 3.480469 99.996094 16.71875 99.996094 32.511719v-27.152344c0-61.46875-42.664063-112.972656-99.996094-126.515625zm0 0" fill="#f9d973" fill-rule="evenodd"/><path d="m295.496094 145.320312c-52.484375 4.296876-90.5 16.925782-90.5 31.832032v12.851562h180.996094v-12.851562c0-14.910156-38.015626-27.535156-90.496094-31.832032zm0 0" fill="#f4ba64" fill-rule="evenodd"/><path d="m202.386719 190.003906v59.996094c0 14.386719 2.570312 28.195312 7.265625 41.003906 1.945312-.640625 4.015625-1.003906 6.171875-1.003906h80.347656c10.898437 0 19.824219 8.925781 19.824219 19.832031v40.171875c0 1.304688-.042969 2.601563-.128906 3.882813 12.8125-7.433594 24.148437-17.167969 33.414062-28.636719 8.246094-10.183594 14.863281-21.734375 19.449219-34.246094 4.695312-12.808594 7.265625-26.617187 7.265625-41.003906v-59.996094zm0 0" fill="#fcd0ac"/><path d="m135.996094 246.484375v-52.964844c-9.460938 5.046875-15.902344 15.011719-15.902344 26.484375 0 11.46875 6.441406 21.433594 15.902344 26.480469zm0 0" fill="#fcd0ac" fill-rule="evenodd"/><path d="m375.996094 190.003906v59.996094h9.996094c16.570312 0 30-13.433594 30-29.996094 0-16.570312-13.429688-30-30-30zm0 0" fill="#fcd0ac" fill-rule="evenodd"/><path d="m245.175781 309.832031v40.171875c0 1.304688.042969 2.601563.128907 3.886719 1.460937 22.589844 15.574218 41.871094 35.28125 50.800781 19.703124-8.929687 33.820312-28.210937 35.285156-50.804687.082031-1.28125.125-2.578125.125-3.882813v-40.171875c0-10.90625-8.925782-19.832031-19.824219-19.832031h-31.171875c-10.902344 0-19.824219 8.925781-19.824219 19.832031zm0 0" fill="#5f5148" fill-rule="evenodd"/><path d="m255.996094 501.996094v-91.996094c-31.695313 0-57.855469-24.90625-59.867188-56.109375-2.515625-1.457031-4.953125-3.03125-7.347656-4.664063-3.898438 3.292969-7.675781-14.132812-11.3125-10.558593v163.332031zm0 0" fill="#d3e567" fill-rule="evenodd"/><path d="m315.875 353.886719c-2.023438 31.207031-28.183594 56.113281-59.878906 56.113281v91.996094l140 .003906v-142.476562c-13.785156-13.546876-29.515625-25.125-46.714844-34.273438-9.265625 11.46875-20.597656 21.203125-33.40625 28.636719zm0 0" fill="#d3e567" fill-rule="evenodd"/><path d="m395.996094 359.523438v142.476562h60c0-55.625-23.015625-106.132812-60-142.476562zm0 0" fill="#bdbcbc" fill-rule="evenodd"/><path d="m93.371094 502h22.625v-92.101562c-14.441406 27.601562-22.625 58.941406-22.625 92.101562zm0 0" fill="#bdbcbc" fill-rule="evenodd"/><g fill="#000001"><path d="m230.996094 340.003906c7.59375 4.382813 16.238281 6.703125 25 6.703125 8.765625 0 17.410156-2.320312 25.003906-6.703125 4.78125-2.765625 6.417969-8.878906 3.65625-13.664062-2.761719-4.78125-8.878906-6.417969-13.660156-3.65625-4.554688 2.632812-9.742188 4.023437-15 4.023437-5.253906 0-10.441406-1.390625-14.996094-4.023437-4.78125-2.761719-10.898438-1.125-13.660156 3.65625-2.761719 4.785156-1.125 10.898437 3.65625 13.664062zm0 0"/><path d="m473.03125 491.996094h-7.277344c-3.328125-70-41.429687-133.554688-101.777344-169.90625 12.28125-18.351563 19.859376-39.714844 21.613282-62.089844h.402344c22.058593 0 40.003906-17.941406 40.003906-39.996094 0-18.605468-12.769532-34.28125-30.003906-38.734375v-31.269531c0-31.714844-10.898438-62.78125-30.695313-87.480469-17.816406-22.234375-42.203125-38.609375-69.300781-46.703125v-5.816406c0-5.523438-4.480469-10-10-10h-60c-5.519532 0-10 4.476562-10 10v5.816406c-27.097656 8.09375-51.484375 24.46875-69.300782 46.699219-19.796874 24.703125-30.695312 55.769531-30.695312 87.484375v31.265625c-17.234375 4.453125-30.003906 20.132813-30.003906 38.738281 0 22.054688 17.945312 39.992188 40 39.992188h.410156c1.753906 22.375 9.332031 43.738281 21.613281 62.089844-60.351562 36.355468-98.449219 99.910156-101.777343 169.910156h-7.277344c-5.523438 0-10 4.480468-10 10 0 5.523437 4.476562 10 10 10h16.957031c.023437 0 .050781.003906.074219.003906.027344 0 .054687-.003906.078125-.003906h59.847656c.023437 0 .050781.003906.074219.003906.027344 0 .054687-.003906.078125-.003906h279.84375c.027343 0 .050781.003906.078125.003906s.050781-.003906.078125-.003906h59.84375c.027343 0 .050781.003906.078125.003906s.050781-.003906.078125-.003906h16.957031c5.519531 0 9.996094-4.476563 9.996094-10 0-5.519532-4.476563-10-9.996094-10zm-67.035156-106.394532c23.523437 30.207032 37.671875 67.164063 39.734375 106.394532h-39.734375zm-20-21.914062v128.308594h-120v-72.71875c30.65625-4.40625 54.953125-28.746094 59.292968-59.425782 9.761719-6.191406 18.546876-13.578124 26.203126-21.910156 12.589843 7.363282 24.132812 16.019532 34.503906 25.746094zm-180-13.683594v-40.171875c0-5.421875 4.410156-9.832031 9.828125-9.832031h80.347656c5.417969 0 9.824219 4.410156 9.824219 9.832031v40.171875c0 27.570313-22.429688 49.996094-50 49.996094-27.570313 0-50-22.425781-50-49.996094zm-70-170v-2.667968c.855468-2.085938 8.699218-8.96875 34.175781-15.007813 23.332031-5.535156 53.8125-8.582031 85.824219-8.582031 32.011718 0 62.488281 3.046875 85.820312 8.578125 25.480469 6.042969 33.324219 12.925781 34.175782 15.011719v2.667968zm270 40c0 11.023438-8.972656 19.996094-20 19.996094v-39.996094c11.027344 0 20 8.972656 20 20zm-30.003906-70.003906v2.875c-19.566407-9.839844-50.625-15.101562-79.996094-17.488281v-98.546875c47.675781 16.722656 79.996094 61.566406 79.996094 113.160156zm-99.996094-130v114.167969c-7.039063-.289063-13.777344-.421875-20-.421875s-12.960938.132812-20 .421875v-114.167969zm-60 16.839844v98.546875c-29.371094 2.386719-60.429688 7.648437-80 17.488281v-2.875c0-51.59375 32.320312-96.4375 80-113.160156zm-110 183.164062c0-11.027344 8.972656-20 20-20v39.996094c-11.027344 0-20-8.972656-20-19.996094zm40-20h220v49.996094c0 32.839844-14.976563 63.890625-40 84.664062v-24.832031c0-16.449219-13.378906-29.832031-29.824219-29.832031h-80.347656c-16.445313 0-29.828125 13.382812-29.828125 29.832031v24.832031c-25.023438-20.773437-40-51.828124-40-84.664062zm40.707031 159.847656c4.34375 30.679688 28.636719 55.019532 59.296875 59.425782v72.71875h-120.003906v-128.308594c10.371094-9.726562 21.914062-18.382812 34.503906-25.742188 7.660156 8.328126 16.445312 15.71875 26.203125 21.90625zm-80.707031 25.75v106.394532h-39.734375c2.0625-39.230469 16.210937-76.1875 39.734375-106.394532zm0 0"/><path d="m10.234375 491.996094h-.234375c-5.523438 0-10 4.480468-10 10 0 5.523437 4.476562 10 10 10h.234375c5.519531 0 10-4.476563 10-10 0-5.519532-4.480469-10-10-10zm0 0"/><path d="m501.996094 491.996094h-.234375c-5.523438 0-10 4.480468-10 10 0 5.523437 4.476562 10 10 10h.234375c5.523437 0 10-4.476563 10-10 0-5.519532-4.476563-10-10-10zm0 0"/><path d="m155.996094 472h30.035156c5.523438 0 10-4.480469 10-10 0-5.523438-4.476562-10-10-10h-30.035156c-5.519532 0-10 4.476562-10 10 0 5.519531 4.480468 10 10 10zm0 0"/><path d="m215.117188 472h.472656c5.523437 0 10-4.480469 10-10 0-5.523438-4.476563-10-10-10h-.472656c-5.523438 0-10 4.476562-10 10 0 5.519531 4.476562 10 10 10zm0 0"/><path d="m285.554688 452h-.472657c-5.519531 0-10 4.476562-10 10 0 5.519531 4.480469 10 10 10h.472657c5.523437 0 10-4.480469 10-10 0-5.523438-4.476563-10-10-10zm0 0"/><path d="m185.996094 245.367188h10.011718c.109376 5.429687 4.535157 9.792968 9.988282 9.792968s9.878906-4.363281 9.988281-9.792968h10.011719c5.523437 0 10-4.476563 10-10 0-5.519532-4.476563-10-10-10h-40c-5.519532 0-10 4.480468-10 10 0 5.523437 4.476562 10 10 10zm0 0"/><path d="m286 245.367188h10.007812c.109376 5.429687 4.535157 9.792968 9.988282 9.792968s9.882812-4.363281 9.992187-9.792968h10.007813c5.523437 0 10-4.476563 10-10 0-5.519532-4.476563-10-10-10h-39.996094c-5.523438 0-10 4.480468-10 10 0 5.523437 4.476562 10 10 10zm0 0"/></g></svg>