<svg height="512pt" viewBox="0 0 512 512.00095" width="512pt" xmlns="http://www.w3.org/2000/svg"><path d="m270.570312 25.378906c-10.609374-1.75-19.933593-1.4375-28.226562.472656 4.394531 2.226563 8.933594 4.691407 13.652344 7.449219 5.046875-2.945312 9.898437-5.578125 14.574218-7.921875zm0 0" fill="#f9d973"/><path d="m416.949219 100.765625c-14.941407-23.269531-27.34375-53.648437-47.613281-72.683594-20.835938-19.566406-49.988282-27.148437-98.765626-2.703125-4.675781 2.34375-9.527343 4.976563-14.574218 7.925782-4.71875-2.757813-9.257813-5.226563-13.652344-7.453126-40.253906 9.277344-56.289062 56.28125-77.378906 89.125-12.542969 19.542969-26.878906 30.699219-49.171875 29.28125 1.933593 1.851563 3.855469 3.574219 5.765625 5.1875 1.488281-.546874 2.96875-1.132812 4.441406-1.757812 14.800781-6.300781 28.855469-16.453125 42.316406-26.609375 31.9375-24.101563 60.511719-48.242187 87.679688-21.074219 23.191406-23.1875 47.402344-9 73.855468 10.640625 4.539063 3.371094 9.148438 6.902344 13.828126 10.433594 13.457031 10.15625 27.515624 20.308594 42.316406 26.609375 15.4375 6.574219 31.691406 8.945312 48.917968 2.777344 10.058594-3.605469 20.449219-10.113282 31.207032-20.417969-22.292969 1.414063-36.632813-9.742187-49.171875-29.28125zm0 0" fill="#f9d973"/><path d="m168.316406 147.683594v-26.605469c-13.460937 10.15625-27.515625 20.308594-42.316406 26.605469v42.316406c23.273438.003906 42.316406-19.039062 42.316406-42.316406zm0 0" fill="#f4ba64" fill-rule="evenodd"/><path d="m343.679688 147.683594c0 23.277344 19.042968 42.320312 42.316406 42.320312v-42.320312c-14.800782-6.296875-28.859375-16.449219-42.316406-26.605469zm0 0" fill="#f4ba64" fill-rule="evenodd"/><path d="m343.679688 147.683594v-26.605469c-18.269532-13.789063-34.90625-31.785156-51.871094-31.785156-16.960938 0-12.921875-1.855469-34.386719 6.085937-11.699219 4.328125-49.800781 3.097656-49.800781 3.097656v151.53125c0 14.03125 2.445312 27.519532 6.925781 40.0625.425781-.027343.847656-.0625 1.277344-.0625h80.347656c10.902344 0 19.824219 8.921876 19.824219 19.828126v40.171874c0 1.308594-.039063 2.601563-.128906 3.886719 12.8125-7.4375 24.140624-17.167969 33.414062-28.621093v-.015626c8.453125-10.441406 15.191406-22.316406 19.789062-35.1875 4.480469-12.542968 6.925782-26.03125 6.925782-40.0625v-60l10-.003906c-23.273438 0-42.316406-19.042968-42.316406-42.320312zm0 0" fill="#fcd0ac"/><g fill-rule="evenodd"><path d="m247.996094 309.832031v40.175781c0 1.304688.042968 2.597657.132812 3.886719 1.199219 18.597657 10.976563 34.960938 25.390625 45.140625 2.671875 1.886719 5.507813 3.554688 8.476563 4.996094 2.96875-1.441406 5.804687-3.109375 8.476562-4.996094 14.417969-10.179687 24.195313-26.542968 25.394532-45.140625.089843-1.289062.128906-2.582031.128906-3.886719v-40.175781c0-10.902343-8.921875-19.828125-19.824219-19.828125h-28.347656c-10.90625 0-19.828125 8.925782-19.828125 19.828125zm0 0" fill="#f4ba64"/><path d="m135.996094 245.792969.003906-51.574219c-8.78125 5.234375-14.667969 14.824219-14.667969 25.789062 0 10.964844 5.886719 20.550782 14.664063 25.785157zm0 0" fill="#fcd0ac"/><path d="m375.996094 190.007812v60h10c16.566406 0 29.996094-13.429687 29.996094-30 0-16.570312-13.429688-30-29.996094-30.003906zm0 0" fill="#fcd0ac"/><path d="m190.277344 350.242188-1.082032 62.324218 32.324219-13.53125c-14.414062-10.183594-24.191406-26.542968-25.390625-45.140625-1.992187-1.15625-3.933594-2.386719-5.851562-3.652343zm0 0" fill="#d3e567"/><path d="m315.867188 353.894531c-1.199219 18.597657-10.976563 34.960938-25.394532 45.140625l60.527344 25.34375-1.71875-99.105468c-9.269531 11.453124-20.601562 21.183593-33.414062 28.621093zm0 0" fill="#d3e567"/><path d="m395.996094 359.523438v142.476562h60c0-55.628906-23.019532-106.132812-60-142.476562zm0 0" fill="#5f5148"/><path d="m349.28125 325.269531c.007812-.015625.003906-.015625 0-.015625zm46.714844 176.730469-139.996094-.003906-.003906-91.992188c12.804687 0 24.707031-4.066406 34.476562-10.964844l60.527344 25.339844-1.71875-99.109375c17.203125 9.128907 32.929688 20.710938 46.714844 34.253907zm0 0" fill="#5f5148"/></g><path d="m317.332031 501.996094-.003906-91.992188c-12.804687 0-24.707031-4.0625-34.476563-10.96875l-26.855468 11.242188.003906 91.71875h-78.671875v.003906zm0 0" fill="#5f5148"/><path d="m255.996094 410.277344v-.273438c-12.277344 0-23.714844-3.742187-33.246094-10.132812-.414062-.277344-.824219-.550782-1.230469-.835938l-44.1875 18.503906v84.460938l78.667969-.003906zm0 0" fill="#5f5148"/><path d="m95.996094 502h20v-86.902344c-12.800782 26.316406-20 55.808594-20 86.902344zm0 0" fill="#5f5148" fill-rule="evenodd"/><path d="m270.996094 322.691406c-4.554688 2.628906-9.738282 4.019532-15 4.019532-5.257813 0-10.445313-1.390626-14.996094-4.019532-4.785156-2.761718-10.898438-1.125-13.660156 3.65625-2.761719 4.785156-1.125 10.898438 3.65625 13.664063 7.589844 4.382812 16.234375 6.695312 25 6.695312 8.769531 0 17.414062-2.3125 25.003906-6.699219 4.78125-2.761718 6.417969-8.878906 3.65625-13.660156s-8.878906-6.421875-13.660156-3.65625zm0 0" fill="#000001"/><path d="m10.234375 491.996094h-.234375c-5.523438 0-10 4.476562-10 10 0 5.519531 4.476562 10 10 10h.234375c5.519531 0 10-4.480469 10-10 0-5.523438-4.476563-10-10-10zm0 0" fill="#000001"/><path d="m501.992188 491.996094h-.234376c-5.523437 0-10 4.476562-10 10 0 5.519531 4.476563 10 10 10h.234376c5.523437 0 10-4.480469 10-10 0-5.523438-4.476563-10-10-10zm0 0" fill="#000001"/><path d="m473.027344 491.996094h-7.273438c-3.328125-70.003906-41.429687-133.554688-101.777344-169.902344 12.277344-18.355469 19.855469-39.714844 21.613282-62.085938h.40625c22.054687 0 39.996094-17.945312 39.996094-40 0-18.605468-12.765626-34.28125-29.996094-38.734374v-19.636719c6.378906 1.625 12.636718 2.445312 18.792968 2.445312 20.273438-.003906 39.441407-8.839843 58.140626-26.714843.015624-.011719.03125-.027344.050781-.042969.019531-.019531.039062-.039063.058593-.054688.078126-.078125.148438-.164062.226563-.242187.140625-.144532.28125-.285156.414063-.4375.105468-.125.203124-.253906.304687-.382813.097656-.125.199219-.25.292969-.378906.105468-.148437.195312-.296875.292968-.449219.078126-.125.15625-.246094.230469-.375.085938-.152344.164063-.308594.242188-.464844.070312-.132812.140625-.269531.203125-.40625.066406-.152343.125-.300781.183594-.453124.058593-.15625.121093-.308594.171874-.46875.046876-.136719.085938-.28125.128907-.421876.046875-.171874.097656-.34375.136719-.523437.03125-.136719.054687-.273437.082031-.414063.03125-.179687.066406-.359374.089843-.542968.019532-.152344.027344-.308594.039063-.460938.015625-.167968.03125-.335937.035156-.503906.007813-.195312 0-.390625-.007812-.582031-.003907-.117188.003906-.230469-.003907-.347657 0-.019531-.003906-.035156-.007812-.054687-.015625-.238281-.046875-.476563-.082031-.714844-.011719-.089843-.015625-.179687-.03125-.269531-.050781-.3125-.121094-.621094-.203125-.925781-.003906-.015625-.003906-.023438-.007813-.035157-.324219-1.191406-.875-2.328124-1.648437-3.359374-.027344-.039063-.054688-.078126-.082032-.117188-.117187-.148438-.246093-.292969-.375-.4375-.089843-.105469-.175781-.210938-.269531-.3125-.019531-.019531-.03125-.039062-.050781-.058594-.121094-.125-.25-.238281-.375-.355468-.097656-.089844-.1875-.179688-.28125-.265626-.167969-.144531-.339844-.277343-.511719-.410156-.082031-.0625-.164062-.128906-.25-.1875-.183593-.132812-.371093-.253906-.5625-.371094-.085937-.050781-.167969-.105468-.253906-.15625-.1875-.105468-.382813-.207031-.578125-.300781-.097656-.050781-.195312-.101562-.296875-.148437-.183594-.078125-.367187-.152344-.554687-.222656-.121094-.046876-.242188-.097657-.363282-.136719-.175781-.058594-.347656-.105469-.523437-.15625-.140625-.039063-.28125-.078125-.425781-.113281-.171876-.039063-.339844-.066407-.511719-.097657-.152344-.027343-.300781-.054687-.449219-.074219-.1875-.023437-.375-.035156-.566406-.050781-.136719-.007812-.269532-.023437-.402344-.027343-.238281-.007813-.476562 0-.714844.011718-.078125.003906-.15625-.003906-.234375.003906-16.566406 1.050782-28.1875-6.105468-40.121093-24.707031-4.519532-7.039062-8.796876-14.746093-13.320313-22.90625-15.75-28.402343-33.601563-60.589843-67.410156-69.867187-24.441407-6.707032-53.480469-.414063-88.636719 19.203125-35.160156-19.621094-64.199219-25.90625-88.640625-19.203125-33.808594 9.277344-51.660156 41.46875-67.410156 69.867187-4.523438 8.160157-8.796875 15.867188-13.316407 22.90625-11.9375 18.597657-23.558593 25.753907-40.121093 24.703125-.089844-.003906-.175781 0-.265625-.003906-.226563-.007812-.460938-.015625-.6875-.007812-.121094.003906-.238282.015624-.359375.027343-.207031.011719-.414063.027344-.621094.054688-.125.015625-.246094.039062-.367187.058593-.203126.035157-.402344.070313-.601563.117188-.113281.027344-.222656.058594-.332031.085938-.207032.058593-.414063.117187-.621094.1875-.089844.027343-.175781.066406-.265625.097656-.21875.082031-.4375.167968-.652344.265625-.066406.03125-.136719.066406-.203125.101562-.226562.109375-.449218.222657-.667968.347657-.054688.035156-.109376.070312-.164063.101562-.21875.136719-.4375.273438-.648437.425781-.058594.039063-.109376.085938-.164063.128907-.199219.148437-.398437.304687-.589844.46875-.070312.0625-.136719.128906-.203125.191406-.148437.136718-.300781.269531-.441406.417968-.019531.023438-.035156.042969-.054688.066407-.074218.074219-.136718.152343-.203124.230469-1.046876 1.1875-1.777344 2.546874-2.167969 3.984374-.003907.019532-.007813.039063-.011719.058594-.082031.296875-.148438.601563-.199219.902344-.015625.089844-.019531.183594-.035156.273438-.03125.238281-.0625.476562-.078125.714843-.003906.015625-.007812.035157-.007812.050781-.007813.117188 0 .230469-.003907.347657-.007812.195312-.015625.390625-.007812.582031.003906.171875.019531.339844.035156.507812.011719.152344.019531.308594.039063.457032.023437.1875.058593.367187.09375.546875.023437.140625.046874.277343.078124.414062.039063.179688.089844.351563.140626.523438.039062.140625.078124.28125.121093.417969.054688.164062.117188.320312.179688.476562.058593.148438.113281.296875.179687.441406.0625.144532.136719.28125.203125.417969.078125.15625.15625.308594.242188.457031.074219.132813.15625.257813.234375.382813.09375.148437.1875.296875.289062.441406.09375.132813.195313.257813.296875.386719.097657.125.195313.253906.300781.375.132813.152344.273438.296875.417969.441406.074219.078125.144531.164062.222657.238281.019531.019531.039062.035157.058593.054688.019531.015625.035157.03125.050781.046875 18.699219 17.871094 37.867188 26.710937 58.140626 26.710937 6.15625 0 12.414062-.820312 18.792968-2.445312v19.636719c-17.234375 4.453124-30 20.132812-30 38.738281 0 22.054687 17.941406 40 40 40h.40625c1.753906 22.371093 9.332032 43.730469 21.613282 62.082031-60.351563 36.347656-98.449219 99.898438-101.777344 169.902344h-7.277344c-5.523438 0-10 4.476562-10 10 0 5.523437 4.476562 10 10 10h16.957031c.023438 0 .050781.003906.074219.003906.027344 0 .054688-.003906.078125-.003906h59.84375c.027344 0 .054687.003906.078125.003906.027344 0 .050781-.003906.078125-.003906h279.847656c.023438 0 .050781.003906.074219.003906.027344 0 .050781-.003906.078125-.003906h59.84375c.027344 0 .050781.003906.078125.003906.023438 0 .050781-.003906.078125-.003906h16.953125c5.523438 0 10-4.476563 10-10-.003906-5.523438-4.480469-10-10.003906-10zm-347.03125-128.308594c8.105468-7.601562 16.929687-14.550781 26.40625-20.738281l-1.410156 81.257812c-.058594 3.375 1.59375 6.554688 4.386718 8.449219 1.683594 1.140625 3.640625 1.722656 5.613282 1.722656 1.308593 0 2.621093-.253906 3.863281-.773437l55.644531-23.304688c7.683594 4.542969 16.304688 7.65625 25.496094 8.976563l.003906 72.71875h-120.003906zm60.710937-3.832031c1.933594 13.664062 7.824219 26.0625 16.476563 36.015625l-31.929688 13.367187 1.039063-59.980469c4.53125 3.832032 9.335937 7.378907 14.414062 10.597657zm152.988281-10.59375 1.039063 59.976562-31.925781-13.367187c8.652344-9.949219 14.546875-22.351563 16.480468-36.015625 5.074219-3.21875 9.882813-6.761719 14.40625-10.59375zm-33.699218.746093c0 16.652344-8.1875 31.417969-20.746094 40.507813-.40625.25-.796875.523437-1.167969.832031-8.011719 5.460938-17.679687 8.65625-28.085937 8.65625-10.410156 0-20.089844-3.203125-28.101563-8.667968-.359375-.296876-.738281-.566407-1.128906-.804688-12.570313-9.089844-20.769531-23.863281-20.769531-40.523438v-40.175781c0-5.417969 4.410156-9.828125 9.828125-9.828125h80.347656c5.417969 0 9.824219 4.410156 9.824219 9.828125zm-40 69.269532c9.195312-1.320313 17.8125-4.4375 25.496094-8.976563l55.644531 23.300781c1.242187.519532 2.554687.777344 3.863281.777344 1.972656 0 3.929688-.582031 5.609375-1.722656 2.796875-1.894531 4.445313-5.074219 4.390625-8.453125l-1.410156-81.253906c9.476562 6.1875 18.300781 13.136719 26.40625 20.738281v128.308594h-119.996094zm140-33.671875c23.523437 30.203125 37.671875 67.15625 39.734375 106.390625h-39.734375zm-52.316406-244.882813c7.21875 4.980469 14.628906 9.578125 22.316406 13.367188v24.324218c-12.941406-4.222656-22.316406-16.398437-22.316406-30.730468zm52.3125 79.285156c0 11.027344-8.96875 20-19.996094 20v-40c11.027344 0 19.996094 8.972657 19.996094 20zm-335.617188-83.722656c16.019531-6.367187 26.210938-19.402344 33.085938-30.117187 4.867187-7.578125 9.5-15.933594 13.980468-24.011719 14.511719-26.171875 29.515625-53.230469 55.210938-60.28125 19.105468-5.242188 43.140625.40625 73.347656 17.238281v16.414063c0 5.523437 4.480469 10 10.003906 10 5.519532 0 9.996094-4.480469 9.996094-10.003906v-16.410157c30.203125-16.832031 54.242188-22.480469 73.34375-17.238281 25.695312 7.050781 40.699219 34.109375 55.210938 60.277344 4.480468 8.082031 9.113281 16.433594 13.980468 24.015625 6.875 10.714843 17.0625 23.753906 33.085938 30.121093-17.953125 10.285157-34.613282 9.269532-50.851563 2.609376-.566406-.308594-1.167969-.566407-1.792969-.761719-14.75-6.433594-29.175781-17.375-43.929687-28.566407-15.730469-11.9375-30.59375-23.210937-45.859375-28.492187-15.921875-5.507813-30.410156-3.5625-43.191406 5.765625-12.777344-9.328125-27.265625-11.273438-43.1875-5.765625-15.269532 5.28125-30.128906 16.558594-45.859375 28.492187-14.753907 11.191407-29.175781 22.128907-43.921875 28.5625-.632813.199219-1.234375.457032-1.804688.765626-16.238281 6.664062-32.898437 7.675781-50.847656-2.613282zm65.625 42.128906v-24.324218c7.6875-3.785156 15.097656-8.386719 22.316406-13.367188v6.960938c0 14.332031-9.378906 26.507812-22.316406 30.730468zm-30 41.59375c0-11.027343 8.972656-20 19.996094-20h.003906v40h-.003906c-11.023438 0-19.996094-8.972656-19.996094-20zm40-23.984374c18.953125-7.871094 32.316406-26.570313 32.316406-48.339844v-21.636719c.238282-.179687.480469-.363281.71875-.542969 7.039063-5.339844 13.347656-9.984375 19.09375-13.875-2.847656 12.519532.585938 26.195313 10.316406 35.925782 1.949219 1.953124 4.511719 2.929687 7.070313 2.929687s5.117187-.976563 7.070313-2.929687c3.90625-3.90625 3.90625-10.238282 0-14.144532-7.261719-7.257812-7.261719-19.074218 0-26.339844 7.257812-7.253906 19.066406-7.257812 26.332031-.007812 0 .003906.003906.003906.003906.003906 0 .003906.003906.003906.003906.003906.523438.527344 1.097657.976563 1.699219 1.359376 3.398438 2.171874 7.8125 2.078124 11.128906-.261719.460938-.328125.902344-.683594 1.3125-1.097657 0 0 .003906 0 .003906-.003906 17.808594-17.804687 34.972657-8.050781 69.890626 18.4375.238281.179688.476562.363282.714843.542969v21.636719c0 21.769531 13.367188 40.46875 32.320313 48.339844v53.984374c0 32.835938-14.976563 63.882813-40 84.660157v-24.835938c0-16.445312-13.382813-29.828125-29.824219-29.828125h-80.347656c-16.445313 0-29.824219 13.382813-29.824219 29.828125v24.835938c-25.027344-20.777344-40.003906-51.824219-40.003906-84.660157zm-40.003906 189.578124v106.394532h-39.734375c2.0625-39.234375 16.210937-76.1875 39.734375-106.394532zm0 0" fill="#000001"/><path d="m291.847656 439.855469h-.234375c-5.519531 0-10 4.476562-10 10 0 5.519531 4.480469 10 10 10h.234375c5.523438 0 10-4.480469 10-10 0-5.523438-4.476562-10-10-10zm0 0" fill="#000001"/><path d="m185.996094 245.367188h10.011718c.109376 5.425781 4.535157 9.792968 9.988282 9.792968s9.878906-4.367187 9.988281-9.792968h10.011719c5.523437 0 10-4.476563 10-10 0-5.519532-4.476563-10-10-10h-40c-5.519532 0-10 4.480468-10 10 0 5.523437 4.480468 10 10 10zm0 0" fill="#000001"/><path d="m286 245.367188h10.007812c.109376 5.425781 4.535157 9.792968 9.988282 9.792968s9.878906-4.367187 9.992187-9.792968h10.007813c5.523437 0 10-4.476563 10-10 0-5.519532-4.476563-10-10-10h-39.996094c-5.523438 0-10 4.480468-10 10 0 5.523437 4.476562 10 10 10zm0 0" fill="#000001"/></svg>