<svg height="512pt" viewBox="0 0 512 512" width="512pt" xmlns="http://www.w3.org/2000/svg"><path d="m415.941406 165.75c-1.90625-73.230469-53.027344-134.207031-121.507812-151.09375-68.484375 16.886719-119.605469 77.867188-121.511719 151.101562 27.609375-2.59375 55.332031-3.914062 83.078125-3.914062 12.863281 0 25.71875.285156 38.5625.84375 8.429688.367188 16.847656.847656 25.261719 1.453125 11.226562.8125 22.4375 1.835937 33.628906 3.074219 7.527344.828125 15.042969 1.761718 22.550781 2.78125v80.003906c0 28.433594-10.023437 54.636719-26.71875 75.25 26.207032 13.933594 49 33.523438 66.714844 57.117188v-212.371094c0-1.417969-.019531-2.832032-.058594-4.246094zm0 0" fill="#f4ba64"/><path d="m238.445312 357.464844c-4.824218 2.5625-9.523437 5.320312-14.105468 8.257812 8.234375 2.265625 16.808594 3.671875 25.628906 4.113282-4.121094-3.851563-7.976562-7.984376-11.523438-12.371094zm0 0" fill="#fcd0ac"/><path d="m416 382.367188c-2.210938-2.945313-4.503906-5.824219-6.867188-8.644532-16.589843-19.75-36.910156-36.28125-59.847656-48.472656-22.035156 27.253906-55.714844 44.746094-93.285156 44.746094-2.023438 0-4.03125-.058594-6.03125-.160156-8.820312-.441407-17.398438-1.847657-25.628906-4.113282-20.3125 13.019532-38.148438 29.597656-52.605469 48.851563-7.472656 9.953125-14.042969 20.613281-19.582031 31.867187.800781.480469 1.613281.945313 2.414062 1.414063 32.332032 9.296875 66.628906 14.148437 101.433594 14.148437 64.746094 0 127.746094-16.761718 179.574219-47.777344-5.535157-11.25-12.105469-21.910156-19.574219-31.859374zm0 0" fill="#fcd0ac"/><path d="m448.523438 447.992188c-3.3125-11.71875-7.648438-23.011719-12.949219-33.765626-39.496094 23.636719-85.492188 38.984376-133.796875 44.953126-15.078125 1.863281-30.375 2.824218-45.777344 2.824218-34.636719 0-68.773438-4.804687-100.96875-14.011718-4.859375 17.195312-7.476562 35.308593-7.476562 54.003906h308.445312c0-18.699219-2.617188-36.808594-7.476562-54.003906zm0 0" fill="#0586ad"/><path d="m353.453125 167.214844c-11.191406-1.238282-22.402344-2.261719-33.628906-3.074219-10.859375-.78125-21.734375-1.363281-32.617188-1.746094-19.410156.679688-38.792969 1.980469-58.117187 3.933594-10.324219 1.039063-20.632813 2.265625-30.917969 3.667969v20.777344c2.53125-.503907 5.148437-.773438 7.832031-.773438 22.089844 0 40 17.914062 40 40.003906s-17.910156 39.996094-40 39.996094c-2.121094 0-4.199218-.167969-6.230468-.484375 3.449218 20.855469 12.316406 39.9375 25.105468 55.734375 15.742188 19.460938 37.417969 33.941406 62.207032 40.632812 24.785156-6.691406 46.460937-21.167968 62.199218-40.632812 16.695313-20.613281 26.714844-46.816406 26.714844-75.25v-80.003906c-7.503906-1.019532-15.019531-1.953125-22.546875-2.78125zm0 0" fill="#fcd0ac" fill-rule="evenodd"/><path d="m207.257812 230.003906c0 14.542969 7.765626 27.269532 19.371094 34.273438 11.609375-7.003906 19.375-19.730469 19.375-34.273438 0-14.542968-7.765625-27.273437-19.375-34.277344-11.605468 7.003907-19.371094 19.734376-19.371094 34.277344zm0 0" fill="#5f5148" fill-rule="evenodd"/><path d="m346.003906 230c0 22.09375-17.90625 40-40 40-22.089844 0-40-17.90625-40-40 0-22.089844 17.910156-40 40-40 22.09375 0 40 17.910156 40 40zm0 0" fill="#5f5148" fill-rule="evenodd"/><g fill="#000001"><path d="m175.632812 110.945312c1.085938.378907 2.191407.558594 3.28125.558594 4.140626 0 8.011719-2.59375 9.445313-6.722656l.117187-.351562c1.796876-5.21875-.980468-10.910157-6.203124-12.707032-5.226563-1.800781-10.914063.980469-12.710938 6.203125l-.105469.316407c-1.792969 5.210937.964844 10.894531 6.175781 12.703124zm0 0"/><path d="m473.03125 491.996094h-7.273438c-1.96875-41.375-16.078124-80.5-39.757812-113.082032v-208.917968c0-93.734375-76.261719-169.996094-169.996094-169.996094-93.738281 0-170 76.261719-170 170.089844v208.8125c-23.679687 32.589844-37.796875 71.714844-39.761718 113.09375h-7.273438c-5.523438 0-10 4.476562-10 10 0 5.523437 4.476562 10 10 10h434.0625c5.523438 0 10-4.476563 10-10 0-5.523438-4.476562-10-10-10zm-217.03125-61.105469c-5.523438 0-10 4.480469-10 10v10.960937c-55.773438-1.558593-110.589844-16.125-156.324219-41.535156 4.035157-7.289062 8.554688-14.308594 13.519531-21.019531.574219-.589844 1.070313-1.253906 1.480469-1.972656 14.910157-19.601563 33.730469-36.441407 55.730469-49.328125 23.769531 25.804687 57.828125 42 95.597656 42 37.769532 0 71.820313-16.191406 95.59375-41.996094 22.003906 12.886719 40.820313 29.726562 55.730469 49.335938.410156.714843.90625 1.375 1.476563 1.96875 4.96875 6.707031 9.480468 13.726562 13.515624 21.011718-45.734374 25.410156-100.546874 39.976563-156.320312 41.535156v-10.960937c0-5.519531-4.476562-10-10-10zm0-259.046875c36.648438 0 73.582031 2.332031 110 6.929688v7.898437l-15.46875 20.625c-8.285156-16.1875-25.128906-27.300781-44.527344-27.300781-24.144531 0-44.347656 17.207031-48.992187 40.003906h-2.015625c-4.644532-22.796875-24.847656-40.003906-48.992188-40.003906-19.398437 0-36.242187 11.113281-44.527344 27.300781l-15.476562-20.628906v-7.890625c36.445312-4.597656 73.363281-6.933594 110-6.933594zm80.003906 58.15625c0 16.539062-13.457031 29.996094-29.996094 29.996094-16.542968 0-30.003906-13.457032-30.003906-29.996094 0-16.542969 13.460938-30.003906 30.003906-30.003906 16.539063 0 29.996094 13.460937 29.996094 30.003906zm-100 .023438c-.015625 16.53125-13.464844 29.972656-30 29.972656-16.542968 0-30-13.457032-30-29.996094 0-16.542969 13.457032-30.003906 30-30.003906 16.535156 0 29.984375 13.445312 30 29.976562v.027344zm-90-10.023438 10.136719 13.515625c1.8125 25.933594 23.476563 46.480469 49.863281 46.480469 24.148438 0 44.347656-17.203125 48.996094-39.996094h2.011719c4.644531 22.792969 24.847656 39.996094 48.996093 39.996094 26.386719 0 48.046876-20.546875 49.859376-46.484375l10.132812-13.507813v29.996094c0 25.648438-8.824219 49.277344-23.601562 68.003906-.609376.582032-1.152344 1.253906-1.613282 2-20.191406 24.414063-50.703125 39.992188-84.785156 39.992188-34.09375 0-64.609375-15.589844-84.800781-40.015625-.453125-.730469-.984375-1.382813-1.578125-1.953125-14.785156-18.734375-23.617188-42.367188-23.617188-68.027344zm-40-50.003906c0-82.707032 67.289063-149.996094 150-149.996094 82.707032 0 149.996094 67.289062 149.996094 150.089844v185.175781c-12.359375-12.601563-26.402344-23.753906-41.914062-33.113281 13.835937-20.65625 21.914062-45.476563 21.914062-72.152344v-70.03125c3.042969-1.351562 5.34375-4.179688 5.851562-7.71875.785157-5.464844-3.011718-10.53125-8.476562-11.316406-2.070312-.296875-4.140625-.582032-6.210938-.863282-.054687-.007812-.105468-.015624-.160156-.023437-4.539062-.613281-9.085937-1.195313-13.644531-1.746094-.300781-14.738281-1.386719-27.597656-3.476563-41.589843-.816406-5.464844-5.90625-9.226563-11.367187-8.414063-5.460937.816406-9.226563 5.90625-8.410156 11.367187 1.832031 12.277344 2.84375 23.652344 3.195312 36.445313-4.566406-.445313-9.136719-.851563-13.714843-1.230469-.730469-20.113281-2.910157-39.472656-6.507813-57.664062-1.070313-5.417969-6.332031-8.941406-11.746094-7.875-5.417969 1.070312-8.945312 6.332031-7.875 11.75 3.261719 16.507812 5.273438 34.085937 6.042969 52.363281-17.839844-1.066406-35.703125-1.609375-53.5-1.609375-26.054688 0-52.246094 1.160156-78.320312 3.441406.746093-8.035156 1.953124-15.988281 3.742187-24.707031 1.109375-5.410156-2.375-10.695313-7.785156-11.808594-5.414063-1.109375-10.695313 2.375-11.808594 7.785157-2.226563 10.847656-3.625 20.628906-4.390625 30.726562-7.488281.828125-14.957031 1.753906-22.40625 2.765625-.089844.007813-.175781.023437-.265625.035156-3.265625.445313-6.527344.902344-9.785156 1.382813-5.460938.804687-9.238281 5.890625-8.433594 11.351562.714844 4.824219 4.757813 8.320313 9.453125 8.523438v68.660156c0 26.671875 8.082031 51.492188 21.914062 72.148438-15.511718 9.355468-29.554687 20.511718-41.910156 33.109374zm-25.089844 258.335937c51.21875 28.21875 112.929688 43.671875 175.085938 43.671875s123.863281-15.453125 175.085938-43.671875c8.429687 19.949219 13.480468 41.441407 14.648437 63.664063h-39.734375v-19.953125c0-5.519531-4.476562-10-10-10s-10 4.480469-10 10v19.953125h-260v-19.953125c0-5.519531-4.476562-10-10-10s-10 4.480469-10 10v19.953125h-39.738281c1.167969-22.222656 6.21875-43.714844 14.652343-63.664063zm0 0"/><path d="m10.234375 491.996094h-.234375c-5.523438 0-10 4.476562-10 10 0 5.523437 4.476562 10 10 10h.234375c5.523437 0 10-4.476563 10-10 0-5.523438-4.476563-10-10-10zm0 0"/><path d="m502 491.996094h-.234375c-5.523437 0-10 4.476562-10 10 0 5.523437 4.476563 10 10 10h.234375c5.523438 0 10-4.476563 10-10 0-5.523438-4.476562-10-10-10zm0 0"/><path d="m231.003906 312.324219c7.59375 4.386719 16.238282 6.703125 25 6.703125 8.761719 0 17.40625-2.316406 25-6.703125 4.78125-2.761719 6.421875-8.878907 3.660156-13.660157-2.761718-4.78125-8.878906-6.417968-13.660156-3.660156-4.558594 2.632813-9.746094 4.023438-15 4.023438s-10.441406-1.390625-15-4.023438c-4.785156-2.761718-10.898437-1.121094-13.660156 3.660156s-1.125 10.898438 3.660156 13.660157zm0 0"/></g></svg>