<svg height="512pt" viewBox="0 0 512 512" width="512pt" xmlns="http://www.w3.org/2000/svg"><path d="m292.167969 15.105469c-54.199219 15.664062-93.832031 65.648437-93.832031 124.894531v1.523438c10.675781 4.621093 25.109374 9.414062 43.726562 12.699218 22.75 4.019532 51.75 5.78125 87.777344 2.242188 4.128906-.40625 8.34375-.875 12.660156-1.425782 13.5625-1.730468 28.050781-4.195312 43.5-7.535156v-7.503906c0-59.246094-39.636719-109.230469-93.832031-124.894531zm0 0" fill="#5f5148"/><path d="m342.5 155.039062c5.8125 20.507813 16.804688 34.964844 33.5 34.964844h10v-42.5c-15.449219 3.339844-29.9375 5.804688-43.5 7.535156zm0 0" fill="#5f5148" fill-rule="evenodd"/><path d="m415.996094 220c0-16.5625-13.429688-29.996094-29.996094-29.996094h-10c-15.84375 0-26.546875-13.023437-32.566406-31.882812-6.328125-.246094-12.347656-.667969-18.046875-1.238282-82.109375 7.109376-108.253907-15.148437-125.398438-15.148437v108.269531c0 28.433594 10.019531 54.636719 26.710938 75.25 1.066406 1.332032 2.164062 2.632813 3.289062 3.910156 15.210938 17.257813 35.277344 30.148438 58.003907 36.476563 22.730468-6.328125 42.796874-19.21875 58.007812-36.476563 1.125-1.28125 2.222656-2.578124 3.285156-3.910156 16.691406-20.613281 26.714844-46.816406 26.714844-75.25h10c16.566406 0 29.996094-13.433594 29.996094-30.003906zm0 0" fill="#c99e81" fill-rule="evenodd"/><path d="m345.996094 329.160156c-22.03125 25.003906-54.253906 40.839844-89.996094 40.839844-35.746094 0-67.96875-15.835938-90-40.835938v96.757813c0 12.378906 10.125 22.503906 22.496094 22.503906h135.003906c12.371094 0 22.496094-10.125 22.496094-22.503906zm0 0" fill="#c99e81" fill-rule="evenodd"/><path d="m94.394531 502h21.605469v-90.109375c-13.800781 27.117187-21.605469 57.742187-21.605469 90.109375zm0 0" fill="#c99e81" fill-rule="evenodd"/><path d="m396 359.527344v142.472656h60c0-55.625-23.019531-106.132812-60-142.472656zm0 0" fill="#c99e81" fill-rule="evenodd"/><path d="m349.285156 325.253906c-1.0625 1.332032-2.160156 2.628906-3.285156 3.90625v96.761719c0 12.378906-10.128906 22.503906-22.5 22.503906h-135c-1.386719 0-2.742188-.136719-4.058594-.378906v53.953125h211.558594v-142.472656c-13.789062-13.550782-29.515625-25.128906-46.714844-34.273438zm0 0" fill="#f9d973"/><g fill="#000001"><path d="m10.238281 492h-.238281c-5.523438 0-10 4.476562-10 10s4.476562 10 10 10h.234375c5.523437 0 10-4.476562 10-10 .003906-5.523438-4.472656-10-9.996094-10zm0 0"/><path d="m502 492h-.234375c-5.523437 0-10 4.476562-10 10s4.476563 10 10 10h.234375c5.519531 0 10-4.476562 10-10s-4.476562-10-10-10zm0 0"/><path d="m473.03125 492h-7.273438c-3.324218-69.960938-41.382812-133.480469-101.675781-169.84375 12.089844-18.050781 19.789063-39.285156 21.535157-62.152344h.382812c22.054688 0 39.996094-17.945312 39.996094-40.003906 0-18.601562-12.765625-34.277344-29.996094-38.730469v-33.824219c0-.023437 0-.042968 0-.066406v-7.375c0-77.199218-62.804688-140.003906-140-140.003906-77.199219 0-140 62.804688-140 140v41.269531c-17.230469 4.453125-30 20.128907-30 38.730469 0 22.058594 17.945312 40.003906 40 40.003906h.378906c1.75 22.871094 9.445313 44.101563 21.535156 62.152344-60.289062 36.363281-98.347656 99.882812-101.671874 169.84375h-7.273438c-5.523438 0-10 4.476562-10 10s4.476562 10 10 10h434.0625c5.523438 0 10-4.476562 10-10s-4.476562-10-10-10zm-347.03125-128.308594c9.121094-8.558594 19.148438-16.289062 30-23.039062v85.269531c0 17.921875 14.578125 32.503906 32.496094 32.503906h135.003906c17.917969 0 32.496094-14.582031 32.496094-32.503906v-85.269531c10.851562 6.75 20.882812 14.480468 30.003906 23.039062v128.308594h-260zm130 16.308594c30.144531 0 57.921875-10.3125 79.996094-27.597656v73.519531c0 6.890625-5.605469 12.5-12.496094 12.5h-135c-6.894531 0-12.5-5.609375-12.5-12.5v-73.519531c22.074219 17.285156 49.855469 27.597656 80 27.597656zm150 5.605469c23.523438 30.203125 37.671875 67.160156 39.734375 106.394531h-39.734375zm-30-205.601563c-9.5 0-15.808594-7.742187-19.941406-16.777344 6.457031-.996093 13.105468-2.148437 19.941406-3.472656zm-120-160.003906c65.957031 0 119.648438 53.492188 119.992188 119.371094-71.742188 14.40625-120.488282 8.796875-149.0625 1.347656-31.804688-8.292969-46.011719-20.558594-46.097657-20.636719-2.847656-2.570312-6.914062-3.292969-10.46875-1.847656-3.558593 1.445313-5.972656 4.792969-6.21875 8.621094-1.652343 25.597656-11.164062 53.148437-28.144531 53.148437v-40.003906c0-66.167969 53.832031-120 120-120zm-120 220.003906h-10c-11.027344 0-20-8.972656-20-20.003906 0-11.023438 8.972656-19.996094 20-19.996094h10c10.285156 0 24.847656-4.195312 35.828125-24.1875 5.394531-9.828125 8.515625-20.910156 10.304687-31.035156 17.984376 9.894531 53.179688 23.625 110.042969 23.621094 13.261719 0 27.710938-.753906 43.390625-2.46875 8.308594 22.046875 22.457032 34.070312 40.433594 34.070312h10c11.027344 0 19.996094 8.972656 19.996094 19.996094 0 11.03125-8.96875 20.003906-19.996094 20.003906h-10c-5.523438 0-10 4.476563-10 10 0 25.652344-8.832031 49.285156-23.609375 68.015625-.605469.574219-1.140625 1.238281-1.597656 1.976563-.480469.585937-.972657 1.164062-1.46875 1.738281-.59375.53125-1.128907 1.132813-1.582031 1.792969-20.152344 22.378906-49.332032 36.472656-81.746094 36.472656-32.40625 0-61.585938-14.089844-81.734375-36.464844-.453125-.667968-.992188-1.269531-1.59375-1.804687-.492188-.574219-.980469-1.148438-1.457031-1.730469-.460938-.742188-.996094-1.40625-1.605469-1.984375-14.777344-18.730469-23.605469-42.359375-23.605469-68.011719 0-5.523437-4.480469-10-10-10zm-30 145.597656v106.398438h-39.734375c2.0625-39.230469 16.210937-76.1875 39.734375-106.398438zm0 0"/><path d="m339.457031 124.832031c.289063 0 .582031-.015625.878907-.039062.367187-.03125.75-.082031 1.121093-.144531 5.441407-.945313 9.082031-6.125 8.136719-11.566407-.929688-5.351562-5.953125-8.964843-11.300781-8.179687-5.34375.628906-9.257813 5.394531-8.785157 10.796875.453126 5.203125 4.820313 9.132812 9.949219 9.132812zm0 0"/><path d="m263.675781 126.828125c8.902344.851563 18.019531 1.273437 27.527344 1.273437 6.582031 0 13.351563-.203124 20.371094-.605468 5.515625-.320313 9.726562-5.046875 9.40625-10.5625-.316407-5.511719-5.058594-9.71875-10.558594-9.40625-16.140625.933594-30.808594.734375-44.84375-.609375-5.496094-.519531-10.382813 3.503906-10.90625 9.003906-.527344 5.496094 3.503906 10.378906 9.003906 10.90625zm0 0"/><path d="m306 237.503906c-6.886719 0-12.5 5.613282-12.5 12.5 0 6.882813 5.613281 12.5 12.5 12.5s12.5-5.617187 12.5-12.5c0-6.886718-5.613281-12.5-12.5-12.5zm0 0"/><path d="m206 237.503906c-6.886719 0-12.503906 5.613282-12.503906 12.5 0 6.882813 5.617187 12.5 12.503906 12.5 6.882812 0 12.5-5.617187 12.5-12.5 0-6.886718-5.617188-12.5-12.5-12.5zm0 0"/><path d="m191 224.023438c4.550781-2.628907 9.734375-4.019532 14.996094-4.019532 5.261718 0 10.449218 1.390625 15 4.019532 1.574218.910156 3.292968 1.339843 4.992187 1.339843 3.453125 0 6.816407-1.792969 8.667969-5 2.761719-4.78125 1.125-10.898437-3.65625-13.660156-7.585938-4.382813-16.234375-6.699219-25.003906-6.699219-8.769532 0-17.414063 2.316406-25 6.699219-4.78125 2.761719-6.417969 8.878906-3.65625 13.660156 2.761718 4.785157 8.878906 6.421875 13.660156 3.660157zm0 0"/><path d="m291.003906 224.023438c4.546875-2.628907 9.734375-4.019532 14.996094-4.019532s10.445312 1.390625 14.996094 4.019532c1.578125.910156 3.296875 1.339843 4.992187 1.339843 3.457031 0 6.816407-1.792969 8.667969-5 2.765625-4.78125 1.125-10.898437-3.65625-13.660156-7.585938-4.382813-16.230469-6.699219-25-6.699219s-17.414062 2.316406-25 6.699219c-4.785156 2.761719-6.421875 8.878906-3.660156 13.660156 2.765625 4.785157 8.878906 6.421875 13.664062 3.660157zm0 0"/><path d="m227.339844 298.667969c-2.761719 4.78125-1.125 10.898437 3.65625 13.660156 7.597656 4.386719 16.242187 6.703125 25.003906 6.703125s17.40625-2.316406 25-6.703125c4.78125-2.761719 6.421875-8.878906 3.660156-13.660156-2.761718-4.78125-8.878906-6.417969-13.664062-3.660157-4.554688 2.632813-9.742188 4.023438-14.996094 4.023438-5.257812 0-10.441406-1.390625-15-4.023438-4.785156-2.761718-10.898438-1.121093-13.660156 3.660157zm0 0"/></g></svg>