<svg height="512pt" viewBox="0 0 511 512" width="512pt" xmlns="http://www.w3.org/2000/svg"><path d="m358.695312 107.320312c-5.050781.796876-10.230468 1.214844-15.507812 1.214844h16.230469c-.242188-.40625-.472657-.816406-.722657-1.214844zm0 0" fill="#fcd0ac"/><path d="m341.898438 108.511719c-.726563.015625-1.449219.023437-2.175782.023437h3.464844zm0 0" fill="#fcd0ac"/><path d="m341.898438 108.511719c28.515624-.628907 54.148437-13.527344 71.792968-33.59375 15.273438-17.371094 24.5625-40.105469 24.566406-64.917969l-162.046874.003906c-54.1875 0-98.53125 44.34375-98.53125 98.527344h162.042968v-.0625zm0 0" fill="#f9d973" fill-rule="evenodd"/><path d="m358.695312 107.320312c11.277344 18.269532 17.800782 39.746094 17.800782 62.679688v20.003906c26.96875-18.347656 43.109375-48.847656 43.109375-81.46875 0-11.460937-2-22.839844-5.914063-33.617187-17.644531 20.066406-43.277344 32.964843-71.792968 33.59375l1.289062.023437c5.277344 0 10.457031-.417968 15.507812-1.214844zm0 0" fill="#f9d973" fill-rule="evenodd"/><path d="m136.5 246.652344v-53.300782c-9.640625 4.992188-16.230469 15.050782-16.230469 26.652344 0 11.601563 6.589844 21.660156 16.230469 26.648438zm0 0" fill="#fcd0ac" fill-rule="evenodd"/><path d="m359.417969 108.535156h-139.222657c-10.824218 18.003906-17.0625 39.042969-17.0625 61.464844v22.203125c1.109376-.09375 2.230469-.152344 3.363282-.152344 22.09375 0 40 17.910157 39.996094 40 .003906 22.09375-17.902344 40-39.996094 40-.441406 0-.878906-.019531-1.316406-.035156 1.21875 6.5 2.960937 12.820313 5.1875 18.910156 1.882812-.597656 3.882812-.921875 5.953124-.921875h80.347657c10.902343 0 19.828125 8.921875 19.828125 19.828125v40.171875c0 1.308594-.042969 2.601563-.132813 3.886719 12.816407-7.4375 24.148438-17.167969 33.414063-28.632813 8.265625-10.207031 14.894531-21.789062 19.484375-34.332031 4.675781-12.785156 7.234375-26.570312 7.234375-40.925781v-80c0-22.429688-6.253906-43.460938-17.078125-61.464844zm0 0" fill="#fcd0ac"/><g fill-rule="evenodd"><path d="m207.503906 232.050781c0 14.597657 7.820313 27.359375 19.496094 34.347657 11.675781-6.988282 19.496094-19.75 19.496094-34.347657 0-14.59375-7.820313-27.359375-19.496094-34.34375-11.675781 6.984375-19.496094 19.75-19.496094 34.34375zm0 0" fill="#5f5148"/><path d="m346.496094 232.050781c0 22.089844-17.90625 40-40 40-22.089844 0-40-17.910156-40-40 0-22.089843 17.910156-40 40-40 22.09375 0 40 17.910157 40 40zm0 0" fill="#5f5148"/><path d="m376.496094 190.003906v59.996094h10c16.570312 0 30-13.425781 30-29.996094 0-16.566406-13.429688-30-30-30zm0 0" fill="#fcd0ac"/><path d="m254.019531 309.832031v40.171875c0 1.304688.042969 2.601563.128907 3.882813 1.355468 20.960937 13.609374 39.066406 31.109374 48.707031 17.5-9.636719 29.753907-27.742188 31.109376-48.703125.085937-1.285156.128906-2.578125.128906-3.886719v-40.171875c0-10.90625-8.921875-19.828125-19.828125-19.828125h-22.824219c-10.902344 0-19.824219 8.921875-19.824219 19.828125zm0 0" fill="#f9d973"/><path d="m95.792969 502h20.703125v-88.316406c-13.238282 26.671875-20.703125 56.664062-20.703125 88.316406zm0 0" fill="#5f5148"/><path d="m256.496094 501.996094v-91.996094c-31.695313 0-57.855469-24.90625-59.871094-56.113281-2.171875-1.265625-4.289062-2.617188-6.375-4.007813-3.625 3.09375-7.140625-12.613281-10.535156-9.277344v161.398438zm0 0" fill="#c99e81"/><path d="m256.496094 410v91.996094l139.996094.003906v-142.476562c-13.785157-13.550782-29.511719-25.125-46.703126-34.265626-9.277343 11.464844-20.609374 21.195313-33.421874 28.632813-2.019532 31.207031-28.175782 56.109375-59.871094 56.109375zm0 0" fill="#c99e81"/><path d="m396.492188 359.523438v142.476562h60.003906c0-55.625-23.023438-106.132812-60.003906-142.476562zm0 0" fill="#5f5148"/></g><path d="m343.019531 53.929688c1.171875.449218 2.371094.660156 3.554688.660156 4.007812 0 7.785156-2.425782 9.320312-6.375.035157-.082032.085938-.21875.113281-.292969 1.914063-5.179687-.734374-10.929687-5.914062-12.84375-5.140625-1.902344-10.839844.691406-12.800781 5.789063-.019531.054687-.046875.121093-.0625.160156-1.964844 5.160156.625 10.9375 5.789062 12.902344zm0 0" fill="#000001"/><path d="m231.5 340.011719c7.59375 4.378906 16.238281 6.695312 24.996094 6.695312 8.757812 0 17.402344-2.316406 24.996094-6.695312 4.785156-2.761719 6.425781-8.875 3.664062-13.660157-2.757812-4.785156-8.871094-6.429687-13.65625-3.664062-4.5625 2.628906-9.75 4.019531-15.003906 4.019531s-10.441406-1.390625-15.003906-4.019531c-4.785157-2.761719-10.898438-1.121094-13.65625 3.664062-2.761719 4.785157-1.121094 10.898438 3.664062 13.660157zm0 0" fill="#000001"/><path d="m10.734375 491.996094h-.234375c-5.523438 0-10 4.476562-10 10 0 5.523437 4.476562 10 10 10h.234375c5.519531 0 10-4.476563 10-10 0-5.523438-4.480469-10-10-10zm0 0" fill="#000001"/><path d="m502.492188 491.996094h-.234376c-5.523437 0-10 4.476562-10 10 0 5.523437 4.476563 10 10 10h.234376c5.523437 0 10-4.476563 10-10 0-5.523438-4.476563-10-10-10zm0 0" fill="#000001"/><path d="m473.527344 491.996094h-7.277344c-3.328125-70.003906-41.425781-133.554688-101.777344-169.902344 12.28125-18.351562 19.863282-39.714844 21.617188-62.09375h.40625c22.054687 0 40-17.941406 40-39.996094 0-17.140625-10.84375-31.796875-26.023438-37.476562 18.53125-19.871094 29.136719-46.207032 29.136719-73.992188 0-10.683594-1.582031-21.21875-4.664063-31.40625 14.589844-18.484375 23.308594-41.808594 23.308594-67.128906 0-2.652344-1.050781-5.195312-2.925781-7.070312-1.878906-1.875-4.421875-2.929688-7.070313-2.929688l-246.339843.00390625c-59.839844 0-108.523438 48.68359375-108.527344 108.52734375v.003906.003906.003907c0 27.78125 10.601563 54.113281 29.136719 73.984375-15.183594 5.679687-26.023438 20.335937-26.023438 37.476562 0 22.054688 17.941406 39.996094 39.996094 39.996094h.40625c1.757812 22.375 9.335938 43.738281 21.617188 62.089844-60.351563 36.347656-98.453126 99.902344-101.78125 169.90625h-7.277344c-5.519532 0-10 4.476562-10 10 0 5.523437 4.480468 10 10 10h16.957031c.027344 0 .050781.003906.078125.003906.023438 0 .050781-.003906.074219-.003906h59.84375c.027343 0 .050781.003906.078125.003906s.050781-.003906.078125-.003906h279.84375c.027343 0 .050781.003906.078125.003906.023437 0 .050781-.003906.074218-.003906h59.847657c.027343 0 .050781.003906.078125.003906s.050781-.003906.078125-.003906h16.953125c5.523437 0 10-4.476563 10-10 0-5.523438-4.476563-10-10-10zm-67.035156-106.394532c23.527343 30.203126 37.675781 67.160157 39.738281 106.394532h-39.738281zm-20-21.914062v128.308594h-119.996094v-72.722656c30.65625-4.40625 54.953125-28.742188 59.292968-59.421876 9.761719-6.1875 18.542969-13.578124 26.203126-21.90625 12.585937 7.359376 24.132812 16.015626 34.5 25.742188zm-179.898438-10.6875c-.019531-.300781-.03125-.597656-.042969-.894531-.03125-.699219-.054687-1.398438-.054687-2.101563v-40.171875c0-5.417969 4.40625-9.828125 9.824218-9.828125h80.347657c5.417969 0 9.828125 4.410156 9.828125 9.828125v40.171875c0 .699219-.023438 1.394532-.050782 2.089844-.015624.296875-.027343.597656-.046874.90625-1.558594 26.179688-23.339844 47-49.902344 47s-48.34375-20.820312-49.902344-47zm-44.367188-144.152344-15.726562-22.042968v-16.804688c0-17.972656 4.4375-35.648438 12.882812-51.464844h180.34375c.652344 0 1.300782-.015625 1.953126-.027344 3.875.058594 7.792968-.085937 11.679687-.449218 8.613281 15.945312 13.136719 33.773437 13.136719 51.941406v16.804688l-15.726563 22.042968c-8.375-15.914062-25.070312-26.796875-44.269531-26.796875-24.148438 0-44.347656 17.207031-48.992188 40h-2.015624c-4.644532-22.792969-24.847657-40-48.992188-40-19.199219 0-35.898438 10.882813-44.273438 26.796875zm93.265626 33.203125h2.011718c3.703125 18.160157 17.28125 32.761719 34.863282 37.953125h-71.738282c17.582032-5.191406 31.160156-19.792968 34.863282-37.953125zm21.007812-10c0-16.542969 13.457031-30 30-30s30 13.457031 30 30-13.457031 30-30 30-30-13.457031-30-30zm-70.003906-30c16.535156 0 29.984375 13.445313 30 29.976563v.023437.027344c-.015625 16.527344-13.464844 29.972656-30 29.972656-16.539063 0-30-13.457031-30-30s13.460937-30 30-30zm120 132.609375v-24.828125c0-12.648437-7.914063-23.476562-19.050782-27.804687 26.003907-.488282 47.203126-20.914063 48.925782-46.601563l10.125-14.1875v28.761719c0 32.839844-14.976563 63.886719-40 84.660156zm80-114.65625c0 11.027344-8.972656 19.996094-20 19.996094v-39.996094c11.027344 0 20 8.972656 20 20zm-20.03125-51.789062c-.261719-19.132813-4.757813-37.898438-13.132813-55.015625 12.917969-4.21875 24.773438-10.792969 35.058594-19.21875.800781 4.796875 1.214844 9.65625 1.214844 14.554687 0 22.351563-8.410157 43.550782-23.140625 59.679688zm-194.546875-148.210938 235.777343-.003906c-2.039062 18.027344-9.515624 34.429688-20.742187 47.53125-.515625.46875-.972656.984375-1.371094 1.542969-15.824219 17.617187-38.582031 28.871093-63.941406 29.414062-.535156-.007812-1.070313.003907-1.601563-.011719-.472656-.015624-.953124.003907-1.425781.058594h-21.757812c9.257812-6.535156 17.554687-14.53125 24.472656-23.792968 3.308594-4.425782 2.398437-10.691407-2.023437-13.996094-4.425782-3.308594-10.691407-2.398438-13.996094 2.023437-16.726563 22.390625-43.253906 35.761719-70.957032 35.765625h-100.792968c-3.507813 0-6.761719 1.839844-8.566406 4.847656-11.789063 19.609376-18.144532 41.988282-18.460938 64.832032-14.730469-16.128906-23.140625-37.332032-23.140625-59.679688 0-48.816406 39.710937-88.53125 88.527344-88.53125zm-85.417969 200c0-11.027344 8.972656-20 20-20v39.996094c-11.027344 0-20-8.96875-20-19.996094zm40 1.234375 10.125 14.191407c1.722656 25.683593 22.921875 46.105468 48.921875 46.597656-11.136719 4.328125-19.050781 15.15625-19.050781 27.804687v24.820313c-25.019532-20.773438-39.996094-51.820313-39.996094-84.652344zm40.703125 138.609375c4.335937 30.679688 28.632813 55.019532 59.292969 59.425782v72.722656h-120v-128.308594c10.371094-9.726562 21.917968-18.382812 34.507812-25.746094 7.65625 8.328125 16.4375 15.714844 26.199219 21.90625zm-80.707031 25.753906v106.394532h-39.734375c2.0625-39.230469 16.210937-76.1875 39.734375-106.394532zm0 0" fill="#000001"/><path d="m215.617188 472h.472656c5.523437 0 10-4.480469 10-10 0-5.523438-4.476563-10-10-10h-.472656c-5.523438 0-10 4.476562-10 10 0 5.519531 4.476562 10 10 10zm0 0" fill="#000001"/><path d="m156.496094 472h30.035156c5.523438 0 10-4.480469 10-10 0-5.523438-4.476562-10-10-10h-30.035156c-5.523438 0-10 4.476562-10 10 0 5.519531 4.476562 10 10 10zm0 0" fill="#000001"/><path d="m286.054688 452h-.476563c-5.519531 0-10 4.476562-10 10 0 5.519531 4.480469 10 10 10h.476563c5.523437 0 10-4.480469 10-10 0-5.523438-4.476563-10-10-10zm0 0" fill="#000001"/></svg>