<svg height="512pt" viewBox="0 0 512 512" width="512pt" xmlns="http://www.w3.org/2000/svg"><path d="m287.203125 145.804688c-6.007813.285156-12.066406 5.007812-18.664063 9.199218 4.730469 2.054688 9.992188 3.277344 16.460938 1.941406 5.652344-1.171874 10.382812-4.101562 14.691406-7.660156-3.976562-2.09375-7.960937-3.703125-12.488281-3.480468zm0 0" fill="#f4ba64"/><path d="m200.53125 160.511719c3.386719.777343 6.769531 1.199219 9.980469.953125 5.714843-.4375 10.925781-3.230469 15.835937-6.339844-4.242187-1.582031-7.929687-2.835938-10.558594-2.828125-6.988281.015625-11.199218 3.878906-15.257812 8.214844zm0 0" fill="#f4ba64"/><path d="m343.28125 28.914062c-.8125-.546874-1.667969-1.078124-2.597656-1.578124-4.714844-2.527344-8.984375-3.589844-12.929688-3.796876 3.460938 2.105469 6.890625 3.90625 10.339844 4.867188 1.734375.488281 3.457031.613281 5.1875.507812zm0 0" fill="#f4ba64"/><path d="m215.898438 28.40625c3.449218-.960938 6.878906-2.761719 10.339843-4.867188-3.945312.207032-8.210937 1.265626-12.929687 3.796876-.929688.5-1.78125 1.03125-2.597656 1.578124 1.730468.105469 3.453124-.019531 5.1875-.507812zm0 0" fill="#f4ba64"/><path d="m245.203125 145.804688c-6.066406.289062-12.183594 5.097656-18.855469 9.320312 7.847656 2.929688 17.609375 6.992188 26.167969 6.339844 5.785156-.445313 11.054687-3.300782 16.023437-6.460938-8.203124-3.558594-14.816406-9.613281-23.335937-9.199218zm0 0" fill="#f4ba64"/><path d="m440.644531 241.960938c-.007812-18.066407-17.441406-21.226563-17.71875-37.933594-.277343-16.703125 12.144531-17.597656 10.875-38.3125-1.265625-20.710938-17.636719-23.410156-21.007812-35.691406-3.371094-12.285157 8.097656-28.816407-4.417969-43.890626-12.515625-15.082031-33.839844-3.398437-44.582031-14.816406-10.238281-10.875-3.910157-31.273437-20.511719-42.402344-1.730469.105469-3.453125-.019531-5.1875-.507812-3.453125-.964844-6.878906-2.761719-10.339844-4.867188-12.679687-.667968-21.960937 7.582032-31.660156 4.867188-6.324219-1.765625-12.574219-6.332031-19.097656-10.46875-6.523438 4.136719-207.996094 101.0625-156.765625 312.019531 2.140625 8.820313 1.960937 15.605469 4.566406 21.425781 11.558594-10.085937 24.269531-18.875 37.90625-26.128906-16.6875-20.617187-26.707031-46.820312-26.707031-75.253906v-77.671875c20.265625 1.625 21.234375-19.988281 37.792968-20.03125 5.667969-.015625 16.230469 5.808594 26.742188 8.214844 4.058594-4.335938 8.269531-8.199219 15.257812-8.214844 2.628907-.007813 6.3125 1.246094 10.558594 2.828125 6.671875-4.222656 12.789063-9.03125 18.851563-9.320312 8.523437-.414063 15.136719 5.640624 23.335937 9.199218 6.601563-4.191406 12.660156-8.914062 18.664063-9.199218 4.53125-.222657 8.515625 1.386718 12.492187 3.476562 11.175782-9.234375 19.476563-22.710938 33.488282-20.71875 7.164062 1.019531 11.4375 7.171875 15.242187 14.53125 6.511719 12.585938 11.664063 28.703125 27.574219 28.679688v78.226562c0 28.433594-10.023438 54.640625-26.714844 75.257812 17.199219 9.140626 32.925781 20.71875 46.710938 34.269532 9.378906 9.214844 17.863281 19.34375 25.300781 30.230468-3.863281-18.722656 2.917969-27.25 7.898437-38.375 2.609375-5.820312 4.726563-12.351562 4.570313-21.421874-.457031-26.417969-19.421875-27.546876-18.386719-48.097657 1.027344-20.546875 25.269531-21.832031 25.269531-39.902343zm0 0" fill="#f4ba64"/><path d="m349.28125 325.257812c16.691406-20.617187 26.714844-46.824218 26.714844-75.257812v-78.226562c-10.488282.015624-16.296875-6.984376-20.90625-15.359376-.683594.199219-1.734375 1.164063-2.089844.527344-28.027344-49.984375-38.535156-11.457031-39.796875-11.140625-10.226563 2.570313-21.21875 14.632813-34.6875 15.660157-13.183594 1.011718-29.234375-9.1875-36.726563-9.164063-16.558593.039063-17.527343 10.917969-37.792968 9.289063v88.414062c0 28.433594 10.019531 54.636719 26.714844 75.253906 9.234374 11.425782 20.523437 21.136719 33.285156 28.554688 8.117187 4.726562 16.835937 8.511718 25.996094 11.238281 9.164062-2.726563 17.882812-6.511719 26.003906-11.234375 12.761718-7.421875 24.050781-17.128906 33.285156-28.554688zm0 0" fill="#fcd0ac"/><g fill-rule="evenodd"><path d="m92.664062 502h23.332032v-93.457031c-14.882813 27.933593-23.332032 59.753906-23.332032 93.457031zm0 0" fill="#fcd0ac"/><path d="m315.996094 369.480469c-3.625.332031-7.292969.515625-11 .515625-8.390625 0-16.582032-.878906-24.5-2.539063-7.914063 1.660157-16.109375 2.539063-24.5 2.539063-3.710938 0-7.375-.183594-11-.515625v32.519531c0 24.285156 14.628906 45.304688 35.5 54.722656 20.871094-9.417968 35.496094-30.4375 35.496094-54.722656zm0 0" fill="#fcd0ac"/><path d="m395.992188 359.523438v142.476562h60c0-41.519531-12.824219-80.1875-34.699219-112.242188-7.4375-10.890624-15.921875-21.015624-25.300781-30.234374zm0 0" fill="#fcd0ac"/><path d="m315.992188 353.8125v28.203125h80v-22.492187c-13.785157-13.550782-29.511719-25.125-46.710938-34.269532-9.234375 11.425782-20.523438 21.136719-33.289062 28.558594zm0 0" fill="#45ba88"/><path d="m395.992188 382.015625h-80v19.984375c0 7.007812-1.214844 13.742188-3.445313 20.007812h83.445313zm0 0" fill="#d3e567"/><path d="m395.992188 422.007812h-83.445313c-8.285156 23.242188-30.558594 39.996094-56.550781 39.996094h139.996094zm0 0" fill="#45ba88"/><path d="m184.074219 345.859375c-7.023438-6.117187-6.414063-7.644531-15.414063-15.730469v51.886719h27.335938v-28.207031c-4.140625-2.40625-8.109375-5.082032-11.921875-7.949219zm0 0" fill="#45ba88"/><path d="m308.664062 462.003906h-140.003906v39.996094h227.332032v-39.996094zm0 0" fill="#d3e567"/><path d="m199.445312 422.007812h-30.785156v39.996094h87.335938c-25.996094 0-48.265625-16.753906-56.550782-39.996094zm0 0" fill="#45ba88"/><path d="m195.996094 382.015625h-27.335938v39.992187h30.785156c-2.234374-6.265624-3.449218-13-3.449218-20.007812zm0 0" fill="#d3e567"/></g><path d="m501.992188 491.996094h-.234376c-5.523437 0-10 4.476562-10 10 0 5.523437 4.476563 10 10 10h.234376c5.523437 0 10-4.476563 10-10 0-5.523438-4.476563-10-10-10zm0 0" fill="#000001"/><path d="m10.234375 491.996094h-.234375c-5.523438 0-10 4.476562-10 10 0 5.523437 4.476562 10 10 10h.234375c5.519531 0 10-4.476563 10-10 0-5.523438-4.480469-10-10-10zm0 0" fill="#000001"/><path d="m473.027344 491.996094h-7.277344c-1.832031-38.546875-14.207031-75.140625-35.039062-106.3125-1.808594-10.925782 1.042968-16.71875 4.90625-24.554688 3.738281-7.574218 8.386718-17 8.144531-31.34375-.292969-17.027344-7.273438-26.191406-12.367188-32.886718-4.089843-5.371094-6.34375-8.332032-6.03125-14.535157.292969-5.839843 3.570313-8.824219 9.824219-14.019531 6.523438-5.425781 15.457031-12.851562 15.457031-26.386719-.003906-12.949219-6.640625-20.695312-11.484375-26.351562-4.046875-4.730469-6.164062-7.398438-6.234375-11.742188-.078125-4.898437 1.367188-7.304687 3.761719-11.296875 3.363281-5.601562 7.96875-13.273437 7.097656-27.460937-.988281-16.1875-9.316406-24.296875-15.394531-30.214844-3.289063-3.203125-5.335937-5.277344-5.949219-7.515625-.691406-2.519531-.042968-6.667969.644532-11.058594 1.566406-9.984375 3.710937-23.660156-7.015626-36.574218-9.53125-11.484376-22.492187-12.050782-31.960937-12.460938-6.738281-.296875-10.976563-.632812-13.03125-2.816406-2.453125-2.605469-3.457031-7.378906-4.621094-12.910156-2.179687-10.339844-5.164062-24.503907-21.042969-33.03125-15.65625-8.40625-27.925781-4.449219-36.886718-1.5625-4.042969 1.304687-7.539063 2.433593-9.738282 1.8125-3.742187-1.042969-8.207031-3.949219-12.933593-7.023438-8.464844-5.507812-18.058594-11.75-29.859375-11.75-11.800782 0-21.394532 6.242188-29.855469 11.75-4.726563 3.074219-9.191406 5.980469-12.933594 7.027344-2.199219.621094-5.695312-.507813-9.746093-1.816406-8.957032-2.886719-21.222657-6.839844-36.882813 1.566406-15.875 8.523437-18.859375 22.6875-21.039063 33.027344-1.164062 5.53125-2.171874 10.304687-4.621093 12.914062-2.058594 2.183594-6.296875 2.519531-13.035157 2.8125-9.464843.414062-22.429687.980469-31.960937 12.460938-10.722656 12.917968-8.578125 26.59375-7.015625 36.578124.691406 4.390626 1.339844 8.539063.648438 11.058594-.613282 2.234375-2.660157 4.3125-5.949219 7.511719-6.082031 5.921875-14.40625 14.027344-15.398438 30.214844-.867187 14.191406 3.734375 21.859375 7.097657 27.460937 2.394531 3.992188 3.84375 6.398438 3.761718 11.300782-.070312 4.34375-2.1875 7.011718-6.234375 11.738281-4.847656 5.65625-11.480469 13.40625-11.480469 26.355469 0 13.53125 8.933594 20.957031 15.457032 26.382812 6.253906 5.199219 9.53125 8.183594 9.824218 14.023438.3125 6.199218-1.941406 9.160156-6.03125 14.53125-5.097656 6.691406-12.074218 15.859374-12.367187 32.890624-.246094 14.339844 4.402344 23.769532 8.140625 31.339844 3.863281 7.835938 6.714844 13.628906 4.910156 24.550782-20.832031 31.171874-33.210937 67.765624-35.042968 106.316406h-7.277344c-5.519532 0-10 4.476562-10 10 0 5.523437 4.480468 10 10 10h16.957031c.023437 0 .050781.003906.078125.003906.023438 0 .050781-.003906.074219-.003906h59.847656c.023437 0 .050781.003906.074219.003906.027344 0 .054687-.003906.078125-.003906h279.84375c.027343 0 .050781.003906.078125.003906.023437 0 .050781-.003906.078125-.003906h59.84375c.027343 0 .050781.003906.078125.003906s.050781-.003906.078125-.003906h16.953125c5.523437 0 10-4.476563 10-10 0-5.523438-4.476563-10-10-10zm-327.03125-310.578125c8.984375-2.34375 14.582031-8.382813 18.636718-12.777344 4.324219-4.691406 6.113282-6.335937 9.132813-6.34375 1.484375.078125 5.925781 1.757813 9.167969 2.980469 8.164062 3.082031 18.328125 6.925781 28.34375 6.15625 9.644531-.738282 17.617187-5.984375 24.023437-10.199219 3.800781-2.5 8.109375-5.335937 10.386719-5.441406 2.847656-.152344 5.910156 1.488281 10.664062 4.164062 7.199219 4.050781 17.066407 9.597657 30.675782 6.777344 12.222656-2.53125 20.441406-10.628906 27.695312-17.773437 7.316406-7.210938 11.714844-11.257813 17.050782-10.496094 3.621093.511718 7.050781 7.617187 10.371093 14.488281 4.777344 9.894531 10.988281 22.761719 23.851563 27.21875v69.828125c0 25.664062-8.835938 49.300781-23.625 68.035156-.59375.566406-1.125 1.222656-1.574219 1.949219-8.132813 9.835937-17.941406 18.234375-28.984375 24.761719-.285156.132812-.570312.261718-.847656.421875-14.535156 8.457031-30.847656 13.4375-47.566406 14.574219-.148438.011718-.300782.023437-.453126.027343-.945312.0625-1.890624.105469-2.835937.144531-.257813.007813-.515625.019532-.773437.027344-1.105469.035156-2.21875.054688-3.328126.054688-.003906 0-.007812 0-.015624 0-1.117188 0-2.234376-.019532-3.351563-.054688-.242187-.007812-.488281-.019531-.730469-.027344-.964844-.035156-1.929687-.082031-2.894531-.144531-.132813-.007812-.265625-.015625-.402344-.023437-16.726562-1.136719-33.042969-6.117188-47.589843-14.582032-.289063-.171874-.59375-.308593-.898438-.445312-11.019531-6.523438-20.8125-14.910156-28.929688-24.730469-.453124-.730469-.984374-1.386719-1.578124-1.957031-14.785157-18.730469-23.621094-42.367188-23.621094-68.027344zm106.757812 198.539062c1.035156.023438 2.070313.039063 3.105469.039063h.136719c1.085937 0 2.167968-.011719 3.246094-.039063 16.527343-.40625 32.296874-3.917969 46.75-9.964843v32.007812c0 5.902344-1.035157 11.566406-2.917969 16.828125-.03125.09375-.066407.183594-.097657.273437-5.886718 16.132813-19.855468 28.402344-36.980468 31.894532v-10.105469c0-5.519531-4.476563-10-10-10-5.523438 0-10 4.480469-10 10v10.105469c-17.109375-3.488282-31.074219-15.742188-36.972656-31.847656-.042969-.15625-.101563-.304688-.152344-.453126-1.855469-5.226562-2.875-10.84375-2.875-16.695312v-32.007812c14.457031 6.046874 30.226562 9.558593 46.757812 9.964843zm133.238282 32.050781h-60.726563c.46875-3.269531.726563-6.609374.726563-10.007812v-9.984375h60zm-199.269532 0h-60.726562v-19.992187h60v9.984375c0 3.398438.253906 6.738281.726562 10.007812zm-60.726562 20h66.769531c3.570313 7.496094 8.441406 14.25 14.308594 19.996094h-81.078125zm193.226562 0h66.773438v19.996094h-81.078125c5.867187-5.746094 10.734375-12.5 14.304687-19.996094zm66.769532-59.992187h-60v-12.515625c9.433593-6.050781 18.03125-13.289062 25.59375-21.496094 12.550781 7.347656 24.066406 15.980469 34.40625 25.6875zm-199.996094-12.515625v12.515625h-60v-8.324219c10.34375-9.703125 21.855468-18.339844 34.40625-25.6875 7.5625 8.207032 16.160156 15.445313 25.59375 21.496094zm-60 112.503906h259.996094v19.992188h-259.996094zm279.996094-86.402344c2.230468 2.863282 4.371093 5.789063 6.429687 8.769532.378906.726562.835937 1.394531 1.367187 1.996094 18.847657 28.035156 30.117188 60.941406 31.941407 95.628906h-39.738281zm-311.683594-33.320312c-3.347656-6.789062-6.242188-12.652344-6.078125-22.148438.179687-10.472656 3.753906-15.171874 8.285156-21.117187 4.796875-6.304687 10.769531-14.148437 10.089844-27.652344-.746094-14.878906-10.148438-22.691406-17.011719-28.398437-5.984375-4.976563-8.242188-7.210938-8.242188-11.003906 0-5.308594 2.285157-8.230469 6.671876-13.347657 4.832031-5.644531 10.847656-12.664062 11.039062-24.417969.175781-10.617187-3.585938-16.886718-6.609375-21.925781-2.769531-4.613281-4.773437-7.945312-4.28125-15.941406.519531-8.472656 4.238281-12.09375 9.386719-17.105469 4.3125-4.199218 9.199218-8.957031 11.285156-16.550781 1.828125-6.664063.808594-13.164063-.175781-19.449219-1.433594-9.136718-2.070313-15.023437 2.644531-20.703125 3.691406-4.445312 8.773438-4.875 17.445312-5.253906 8.441407-.367187 18.949219-.828125 26.726563-9.089844 6.300781-6.695312 8.066406-15.089843 9.628906-22.496093 2.070313-9.839844 3.601563-15.597657 10.925781-19.53125 8.160157-4.378907 13.957032-2.511719 21.289063-.148438 6.222656 2.003906 13.269531 4.273438 21.265625 2.039062 6.695312-1.871093 12.671875-5.761718 18.457031-9.523437 6.726563-4.378906 13.082031-8.515625 18.945313-8.515625 5.863281 0 12.222656 4.136719 18.949218 8.511719 5.78125 3.765625 11.761719 7.65625 18.453126 9.527343 7.996093 2.234376 15.042968-.035156 21.265624-2.039062 7.332032-2.367188 13.125-4.230469 21.289063.148438 7.328125 3.933593 8.855469 9.691406 10.929687 19.53125 1.558594 7.40625 3.328126 15.796874 9.628907 22.492187 7.773437 8.265625 18.28125 8.722656 26.726562 9.089844 8.667969.378906 13.753907.808593 17.445313 5.257812 4.710937 5.679688 4.074218 11.5625 2.644531 20.699219-.988281 6.285156-2.003906 12.785156-.175781 19.449219 2.082031 7.59375 6.972656 12.351562 11.285156 16.550781 5.148438 5.015625 8.867188 8.636719 9.382812 17.109375.492188 7.996094-1.511718 11.328125-4.277343 15.941406-3.027344 5.039063-6.789063 11.308594-6.613281 21.925781.191406 11.75 6.207031 18.773438 11.042968 24.417969 4.382813 5.117188 6.671875 8.039063 6.671875 13.347657 0 3.792968-2.261719 6.027343-8.242187 11-6.863282 5.707031-16.269532 13.523437-17.015625 28.398437-.679688 13.503906 5.292969 21.351563 10.09375 27.65625 4.527343 5.945313 8.105469 10.640625 8.285156 21.113281.160156 9.496094-2.730469 15.359375-6.082031 22.148438-1.609375 3.265625-3.285156 6.691406-4.652344 10.519531-13.972656-15.714844-30.414062-29.460937-48.953125-40.644531 13.835937-20.65625 21.917969-45.476563 21.917969-72.152344v-69.207031c1.871094-.332031 3.765625-.730469 5.628906-1.210938 5.347656-1.375 8.570312-6.824219 7.195312-12.175781s-6.828124-8.574219-12.175781-7.191406c-3.734375.957031-7.816406 1.554687-10.660156 1.558594-.003906 0-.011719 0-.015625 0-6.632812 0-10.066406-5.613282-15.816406-17.515626-5.070313-10.507812-11.382813-23.582031-25.5625-25.597656-15.394532-2.1875-25.65625 7.925782-33.90625 16.050782-5.792969 5.710937-11.265625 11.105468-17.707032 12.4375-5.996093 1.238281-10.089843-.839844-16.820312-4.625-5.945312-3.34375-12.691406-7.136719-21.433594-6.710938-7.734375.371094-14.179687 4.613281-20.414062 8.714844-4.945313 3.253906-10.0625 6.621094-14.558594 6.964844-5.578125.429687-13.4375-2.539063-19.746094-4.925782-6.066406-2.289062-11.308594-4.269531-16.1875-4.269531-.019531 0-.035156 0-.050781 0-12.074219.027344-18.875 7.402344-23.835937 12.785156-4.960938 5.378907-7.394532 7.730469-13.132813 7.277344-6.402344-.511719-8.46875-.824219-8.664063-.855469-5.394531-.925781-10.550781 2.664063-11.53125 8.066406-.988281 5.433594 2.613282 10.640626 8.050782 11.628907.191406.035156.609375.101562 1.347656.199219v68.601562c0 26.675781 8.078125 51.496094 21.917969 72.15625-18.542969 11.179688-34.980469 24.925781-48.953125 40.640625-1.371094-3.824219-3.046875-7.25-4.65625-10.515625zm3.882812 44.101562c.539063-.609374 1.007813-1.292968 1.386719-2.03125 2.058594-2.972656 4.195313-5.890624 6.417969-8.75v106.394532h-39.734375c1.824219-34.679688 13.089843-67.582032 31.929687-95.613282zm0 0" fill="#000001"/><path d="m198.234375 251.023438c5.035156-1.355469 10.480469-1.351563 15.515625 0 .867188.234374 1.742188.34375 2.601562.34375 4.410157 0 8.449219-2.941407 9.652344-7.40625 1.433594-5.332032-1.730468-10.820313-7.0625-12.253907-8.417968-2.261719-17.476562-2.261719-25.898437 0-5.332031 1.433594-8.492188 6.921875-7.058594 12.253907 1.429687 5.335937 6.917969 8.496093 12.25 7.0625zm0 0" fill="#000001"/><path d="m298.234375 251.023438c5.039063-1.355469 10.484375-1.355469 15.511719 0 .871094.234374 1.746094.34375 2.605468.34375 4.410157 0 8.449219-2.941407 9.648438-7.402344 1.433594-5.335938-1.726562-10.820313-7.058594-12.257813-8.410156-2.257812-17.46875-2.261719-25.894531 0-5.335937 1.433594-8.496094 6.917969-7.0625 12.253907 1.429687 5.332031 6.914063 8.496093 12.25 7.0625zm0 0" fill="#000001"/><path d="m230.992188 312.324219c7.589843 4.382812 16.234374 6.699219 25 6.699219 8.769531 0 17.414062-2.316407 25-6.699219 4.785156-2.761719 6.421874-8.878907 3.660156-13.660157-2.765625-4.78125-8.878906-6.421874-13.664063-3.65625-4.550781 2.628907-9.734375 4.019532-14.996093 4.019532-5.261719 0-10.445313-1.390625-14.996094-4.019532-4.78125-2.761718-10.898438-1.125-13.660156 3.65625-2.761719 4.78125-1.125 10.898438 3.65625 13.660157zm0 0" fill="#000001"/><path d="m207.820312 81.628906c.441407 0 .972657-.03125 1.410157-.089844 5.476562-.730468 9.320312-5.761718 8.59375-11.234374-.695313-5.207032-5.261719-8.925782-10.433594-8.667969-5.320313.226562-9.570313 4.613281-9.570313 9.992187 0 5.523438 4.476563 10 10 10zm0 0" fill="#000001"/><path d="m151.960938 127.25c.460937 0 .929687-.03125 1.402343-.097656 17.671875-2.480469 34.605469-12.390625 45.292969-26.511719 3.332031-4.402344 2.464844-10.675781-1.9375-14.007813-4.402344-3.332031-10.675781-2.464843-14.007812 1.9375-2.835938 3.746094-13.527344 16.167969-32.128907 18.777344-5.46875.765625-9.277343 5.820313-8.511719 11.289063.699219 5 4.984376 8.613281 9.890626 8.613281zm0 0" fill="#000001"/></svg>